<?xml version="1.0" standalone="no"?>
<!DOCTYPE svg PUBLIC "-//W3C//DTD SVG 20010904//EN"
 "http://www.w3.org/TR/2001/REC-SVG-20010904/DTD/svg10.dtd">
<svg version="1.0" xmlns="http://www.w3.org/2000/svg"
 width="1024.000000pt" height="1024.000000pt" viewBox="0 0 1024.000000 1024.000000"
 preserveAspectRatio="xMidYMid meet">
<metadata>
Created by potrace 1.14, written by Peter Selinger 2001-2017
</metadata>
<g transform="translate(0.000000,1024.000000) scale(0.100000,-0.100000)"
fill="#000000" stroke="none">
<path d="M4892 7899 c-213 -15 -481 -71 -692 -144 -393 -137 -717 -336 -1019
-630 -240 -233 -408 -461 -549 -744 -135 -270 -229 -567 -268 -846 -27 -188
-27 -660 0 -830 76 -492 260 -918 566 -1315 90 -116 326 -355 435 -439 44 -34
87 -68 95 -74 54 -43 240 -162 320 -205 184 -98 433 -197 630 -248 214 -56
368 -76 637 -81 290 -6 399 2 642 51 863 174 1584 741 1959 1538 296 632 343
1386 126 2059 -132 413 -360 785 -674 1100 -584 588 -1355 869 -2208 808z
m502 -24 c507 -45 1031 -258 1454 -591 124 -98 347 -322 441 -444 548 -708
728 -1563 507 -2421 -177 -692 -644 -1311 -1265 -1676 -333 -197 -756 -334
-1151 -374 -180 -19 -531 -6 -710 25 -585 101 -1081 357 -1496 771 -374 373
-614 795 -738 1301 -60 247 -71 347 -71 649 1 315 15 445 76 682 100 390 280
751 532 1063 175 217 450 461 684 606 409 254 798 376 1328 417 57 5 326 -1
409 -8z"/>
</g>
</svg>
