<?xml version="1.0" standalone="no"?>
<!DOCTYPE svg PUBLIC "-//W3C//DTD SVG 20010904//EN"
 "http://www.w3.org/TR/2001/REC-SVG-20010904/DTD/svg10.dtd">
<svg version="1.0" xmlns="http://www.w3.org/2000/svg"
 width="1024.000000pt" height="1024.000000pt" viewBox="0 0 1024.000000 1024.000000"
 preserveAspectRatio="xMidYMid meet">
<metadata>
Created by potrace 1.14, written by Peter Selinger 2001-2017
</metadata>
<g transform="translate(0.000000,1024.000000) scale(0.100000,-0.100000)"
fill="#000000" stroke="none">
<path d="M4966 7909 c-899 -54 -1681 -501 -2178 -1244 -145 -216 -293 -546
-363 -806 -102 -380 -122 -827 -55 -1219 108 -630 436 -1216 908 -1623 184
-158 346 -269 526 -361 322 -164 576 -248 904 -297 122 -19 192 -23 407 -23
281 -1 356 6 590 56 878 185 1596 758 1960 1565 166 368 246 749 246 1169 0
472 -93 865 -306 1283 -319 626 -875 1111 -1551 1351 -319 113 -736 170 -1088
149z m579 -48 c730 -117 1365 -500 1800 -1086 108 -146 163 -235 240 -386 210
-412 306 -808 306 -1263 0 -306 -44 -584 -135 -861 -343 -1037 -1201 -1743
-2306 -1896 -156 -22 -555 -16 -722 9 -332 52 -584 135 -904 298 -103 52 -242
137 -286 173 -7 6 -42 32 -78 58 -332 240 -630 600 -825 998 -215 435 -309
912 -276 1390 27 399 107 695 281 1050 135 277 280 482 495 704 449 463 1017
743 1675 826 169 21 562 14 735 -14z"/>
</g>
</svg>
