<?xml version="1.0" standalone="no"?>
<!DOCTYPE svg PUBLIC "-//W3C//DTD SVG 20010904//EN"
 "http://www.w3.org/TR/2001/REC-SVG-20010904/DTD/svg10.dtd">
<svg version="1.0" xmlns="http://www.w3.org/2000/svg"
 width="1024.000000pt" height="1024.000000pt" viewBox="0 0 1024.000000 1024.000000"
 preserveAspectRatio="xMidYMid meet">
<metadata>
Created by potrace 1.14, written by Peter Selinger 2001-2017
</metadata>
<g transform="translate(0.000000,1024.000000) scale(0.100000,-0.100000)"
fill="#000000" stroke="none">
<path d="M4940 7923 c-578 -41 -1099 -236 -1540 -577 -216 -166 -477 -446
-621 -666 -204 -310 -349 -666 -417 -1030 -53 -277 -59 -665 -17 -955 82 -563
345 -1101 740 -1513 128 -133 335 -313 425 -367 9 -5 56 -36 104 -68 84 -56
264 -152 351 -189 22 -9 69 -29 105 -44 485 -202 1086 -252 1650 -138 700 141
1346 581 1742 1185 474 723 594 1623 327 2446 -263 810 -901 1469 -1702 1757
-345 124 -784 185 -1147 159z m336 -22 c200 -12 327 -30 521 -77 524 -125
1029 -429 1396 -839 850 -953 951 -2334 249 -3404 -260 -397 -621 -720 -1050
-939 -291 -149 -539 -227 -902 -284 -115 -18 -611 -18 -740 0 -133 19 -345 67
-475 109 -212 68 -483 195 -642 301 -48 31 -94 62 -103 67 -91 55 -300 236
-430 373 -485 506 -760 1189 -760 1882 0 304 25 510 90 750 136 498 381 915
751 1275 335 326 720 552 1156 679 199 57 462 102 647 109 33 1 74 3 91 5 18
1 108 -2 201 -7z"/>
</g>
</svg>
