<?xml version="1.0" standalone="no"?>
<!DOCTYPE svg PUBLIC "-//W3C//DTD SVG 20010904//EN"
 "http://www.w3.org/TR/2001/REC-SVG-20010904/DTD/svg10.dtd">
<svg version="1.0" xmlns="http://www.w3.org/2000/svg"
 width="1024.000000pt" height="1024.000000pt" viewBox="0 0 1024.000000 1024.000000"
 preserveAspectRatio="xMidYMid meet">
<metadata>
Created by potrace 1.14, written by Peter Selinger 2001-2017
</metadata>
<g transform="translate(0.000000,1024.000000) scale(0.100000,-0.100000)"
fill="#000000" stroke="none">
<path d="M4875 7930 c-213 -19 -494 -79 -685 -145 -822 -286 -1464 -935 -1741
-1759 -84 -250 -122 -457 -138 -751 -26 -465 56 -911 246 -1332 189 -420 500
-806 865 -1074 51 -38 104 -77 118 -87 78 -60 273 -165 474 -257 166 -75 478
-161 702 -194 130 -19 417 -33 544 -26 402 21 781 120 1132 296 281 141 499
299 724 523 301 302 509 630 660 1044 64 176 93 302 145 632 23 142 17 552
-10 730 -47 310 -124 562 -256 835 -129 266 -290 497 -498 712 -155 160 -285
270 -462 388 -458 307 -944 458 -1510 470 -115 2 -255 0 -310 -5z m604 -36
c439 -56 828 -202 1196 -449 177 -118 307 -228 462 -388 409 -424 663 -945
754 -1547 27 -177 32 -550 10 -690 -51 -327 -81 -456 -145 -632 -151 -414
-359 -742 -660 -1044 -324 -323 -689 -546 -1136 -691 -371 -120 -796 -156
-1215 -102 -212 27 -540 117 -711 194 -201 92 -396 197 -474 257 -14 10 -67
49 -118 87 -580 426 -973 1087 -1089 1831 -26 164 -25 644 0 810 122 787 561
1477 1221 1919 390 261 827 412 1334 461 115 11 428 2 571 -16z M7751 4524 c0
-11 3 -14 6 -6 3 7 2 16 -1 19 -3 4 -6 -2 -5 -13z"/>
</g>
</svg>
