<?xml version="1.0" standalone="no"?>
<!DOCTYPE svg PUBLIC "-//W3C//DTD SVG 20010904//EN"
 "http://www.w3.org/TR/2001/REC-SVG-20010904/DTD/svg10.dtd">
<svg version="1.0" xmlns="http://www.w3.org/2000/svg"
 width="1024.000000pt" height="1024.000000pt" viewBox="0 0 1024.000000 1024.000000"
 preserveAspectRatio="xMidYMid meet">
<metadata>
Created by potrace 1.14, written by Peter Selinger 2001-2017
</metadata>
<g transform="translate(0.000000,1024.000000) scale(0.100000,-0.100000)"
fill="#000000" stroke="none">
<path d="M4910 7940 c-664 -46 -1285 -324 -1764 -789 -241 -234 -410 -469
-561 -776 -155 -315 -247 -639 -276 -974 -15 -172 -6 -572 15 -704 98 -606
348 -1112 765 -1549 90 -94 260 -244 326 -287 13 -9 59 -41 102 -72 210 -149
479 -280 753 -367 233 -74 462 -111 745 -122 298 -11 480 4 730 62 544 124
987 368 1376 757 245 246 393 452 535 746 155 322 214 525 273 935 31 211 22
554 -20 799 -126 742 -527 1387 -1135 1823 -383 275 -805 441 -1279 503 -147
19 -430 26 -585 15z m555 -36 c1087 -131 1993 -882 2328 -1929 121 -378 164
-813 116 -1155 -57 -405 -118 -613 -273 -935 -142 -294 -290 -500 -535 -746
-331 -330 -680 -544 -1121 -687 -111 -36 -321 -89 -420 -106 -291 -49 -734
-33 -1055 39 -345 77 -696 231 -968 424 -44 31 -89 63 -100 71 -128 86 -374
324 -499 480 -319 400 -518 856 -594 1362 -21 142 -29 493 -15 659 42 483 221
964 513 1374 137 194 341 408 535 562 586 466 1339 678 2088 587z M7782 4830
c0 -19 2 -27 5 -17 2 9 2 25 0 35 -3 9 -5 1 -5 -18z M7772 4750 c0 -19 2 -27
5 -17 2 9 2 25 0 35 -3 9 -5 1 -5 -18z M7620 4275 c0 -8 7 -15 15 -15 8 0 15
7 15 15 0 8 -7 15 -15 15 -8 0 -15 -7 -15 -15z"/>
</g>
</svg>
