<?xml version="1.0" standalone="no"?>
<!DOCTYPE svg PUBLIC "-//W3C//DTD SVG 20010904//EN"
 "http://www.w3.org/TR/2001/REC-SVG-20010904/DTD/svg10.dtd">
<svg version="1.0" xmlns="http://www.w3.org/2000/svg"
 width="1024.000000pt" height="1024.000000pt" viewBox="0 0 1024.000000 1024.000000"
 preserveAspectRatio="xMidYMid meet">
<metadata>
Created by potrace 1.14, written by Peter Selinger 2001-2017
</metadata>
<g transform="translate(0.000000,1024.000000) scale(0.100000,-0.100000)"
fill="#000000" stroke="none">
<path d="M4887 7960 c-595 -50 -1147 -276 -1597 -652 -534 -448 -870 -1046
-986 -1753 -25 -153 -31 -591 -10 -767 69 -603 311 -1134 728 -1601 169 -189
479 -433 698 -548 36 -19 67 -37 70 -40 11 -13 185 -91 306 -137 231 -88 394
-128 709 -173 117 -17 478 -17 625 0 545 62 1058 272 1480 607 47 37 150 133
231 213 314 315 525 654 675 1085 135 388 184 881 129 1301 -90 684 -415 1302
-922 1754 -328 291 -727 509 -1138 621 -87 23 -286 61 -400 75 -149 19 -455
27 -598 15z m574 -34 c425 -53 751 -166 1132 -394 591 -352 1057 -964 1246
-1637 117 -419 137 -811 65 -1255 -73 -443 -267 -882 -557 -1260 -95 -123
-336 -368 -457 -464 -362 -287 -805 -489 -1260 -575 -419 -78 -872 -56 -1293
65 -169 49 -515 191 -525 216 -2 4 -8 8 -13 8 -11 0 -171 89 -179 99 -3 4 -25
19 -50 33 -122 71 -373 279 -500 415 -408 436 -664 972 -752 1578 -21 142 -18
631 5 770 84 523 278 967 594 1363 232 290 555 557 883 730 507 267 1100 377
1661 308z M7299 3743 c-13 -16 -12 -17 4 -4 16 13 21 21 13 21 -2 0 -10 -8
-17 -17z"/>
</g>
</svg>
