<?xml version="1.0" standalone="no"?>
<!DOCTYPE svg PUBLIC "-//W3C//DTD SVG 20010904//EN"
 "http://www.w3.org/TR/2001/REC-SVG-20010904/DTD/svg10.dtd">
<svg version="1.0" xmlns="http://www.w3.org/2000/svg"
 width="1024.000000pt" height="1024.000000pt" viewBox="0 0 1024.000000 1024.000000"
 preserveAspectRatio="xMidYMid meet">
<metadata>
Created by potrace 1.14, written by Peter Selinger 2001-2017
</metadata>
<g transform="translate(0.000000,1024.000000) scale(0.100000,-0.100000)"
fill="#000000" stroke="none">
<path d="M4955 7974 c-518 -32 -1004 -194 -1422 -474 -642 -429 -1080 -1090
-1217 -1836 -37 -204 -46 -309 -46 -546 0 -281 19 -448 80 -698 162 -663 576
-1262 1139 -1649 57 -39 109 -71 114 -71 5 0 15 -6 21 -14 20 -26 264 -151
406 -208 457 -184 917 -248 1400 -197 759 80 1457 462 1931 1056 283 354 511
868 573 1291 49 332 55 582 20 867 -103 840 -591 1602 -1316 2054 -433 271
-916 413 -1444 425 -99 2 -206 2 -239 0z m405 -30 c108 -6 347 -45 465 -75
638 -163 1216 -558 1599 -1093 387 -541 582 -1238 521 -1861 -23 -240 -40
-344 -80 -499 -94 -369 -292 -768 -524 -1059 -456 -572 -1110 -942 -1851
-1048 -123 -17 -436 -27 -570 -17 -124 8 -405 55 -510 84 -160 44 -372 122
-500 183 -115 55 -255 132 -266 147 -6 8 -16 14 -21 14 -5 0 -57 32 -114 71
-671 461 -1109 1194 -1204 2014 -17 150 -20 462 -5 603 69 642 340 1223 785
1681 157 162 287 270 468 391 421 281 913 446 1407 470 152 7 210 6 400 -6z"/>
</g>
</svg>
