<?xml version="1.0" standalone="no"?>
<!DOCTYPE svg PUBLIC "-//W3C//DTD SVG 20010904//EN"
 "http://www.w3.org/TR/2001/REC-SVG-20010904/DTD/svg10.dtd">
<svg version="1.0" xmlns="http://www.w3.org/2000/svg"
 width="1024.000000pt" height="1024.000000pt" viewBox="0 0 1024.000000 1024.000000"
 preserveAspectRatio="xMidYMid meet">
<metadata>
Created by potrace 1.14, written by Peter Selinger 2001-2017
</metadata>
<g transform="translate(0.000000,1024.000000) scale(0.100000,-0.100000)"
fill="#000000" stroke="none">
<path d="M4857 7969 c-382 -34 -793 -159 -1121 -340 -586 -326 -1030 -831
-1276 -1454 -345 -870 -229 -1911 298 -2675 130 -188 342 -421 517 -570 85
-72 284 -215 325 -234 14 -6 33 -18 44 -28 33 -30 359 -187 476 -229 215 -77
434 -130 662 -161 121 -16 521 -16 663 0 1210 141 2173 995 2460 2182 49 204
69 400 69 670 0 138 -5 286 -12 340 -89 678 -387 1271 -864 1725 -214 203
-438 359 -703 490 -265 131 -466 197 -755 249 -245 44 -540 57 -783 35z m468
-19 c257 -18 551 -80 781 -165 246 -90 585 -283 790 -449 577 -466 952 -1140
1044 -1876 55 -448 -11 -950 -182 -1380 -278 -698 -813 -1258 -1476 -1546
-811 -354 -1651 -336 -2428 52 -95 47 -180 93 -190 102 -11 10 -30 22 -44 28
-41 19 -240 162 -325 234 -111 94 -327 318 -406 420 -332 430 -526 907 -590
1450 -16 139 -13 512 6 651 45 341 137 637 295 948 212 418 547 795 943 1059
526 352 1151 518 1782 472z M3310 7195 c0 -8 7 -15 15 -15 8 0 15 7 15 15 0 8
-7 15 -15 15 -8 0 -15 -7 -15 -15z"/>
</g>
</svg>
