<?xml version="1.0" standalone="no"?>
<!DOCTYPE svg PUBLIC "-//W3C//DTD SVG 20010904//EN"
 "http://www.w3.org/TR/2001/REC-SVG-20010904/DTD/svg10.dtd">
<svg version="1.0" xmlns="http://www.w3.org/2000/svg"
 width="1024.000000pt" height="1024.000000pt" viewBox="0 0 1024.000000 1024.000000"
 preserveAspectRatio="xMidYMid meet">
<metadata>
Created by potrace 1.14, written by Peter Selinger 2001-2017
</metadata>
<g transform="translate(0.000000,1024.000000) scale(0.100000,-0.100000)"
fill="#000000" stroke="none">
<path d="M4800 7979 c-1154 -130 -2096 -916 -2433 -2029 -124 -408 -152 -893
-77 -1330 190 -1111 1019 -2006 2115 -2283 295 -75 449 -92 778 -84 456 10
790 89 1200 282 353 165 725 461 979 775 336 417 559 957 613 1485 19 187 19
505 -1 675 -110 954 -701 1796 -1559 2223 -319 159 -625 247 -990 287 -107 12
-518 11 -625 -1z m601 -20 c362 -36 671 -125 994 -286 862 -429 1449 -1268
1561 -2233 19 -172 15 -538 -10 -710 -73 -509 -288 -1007 -604 -1400 -42 -52
-140 -158 -217 -235 -365 -366 -849 -633 -1368 -755 -331 -78 -785 -92 -1107
-34 -1018 184 -1843 865 -2200 1818 -132 354 -188 696 -177 1086 21 731 316
1412 836 1930 464 461 1057 745 1711 819 110 12 462 13 581 0z"/>
</g>
</svg>
