<?xml version="1.0" standalone="no"?>
<!DOCTYPE svg PUBLIC "-//W3C//DTD SVG 20010904//EN"
 "http://www.w3.org/TR/2001/REC-SVG-20010904/DTD/svg10.dtd">
<svg version="1.0" xmlns="http://www.w3.org/2000/svg"
 width="1024.000000pt" height="1024.000000pt" viewBox="0 0 1024.000000 1024.000000"
 preserveAspectRatio="xMidYMid meet">
<metadata>
Created by potrace 1.14, written by Peter Selinger 2001-2017
</metadata>
<g transform="translate(0.000000,1024.000000) scale(0.100000,-0.100000)"
fill="#000000" stroke="none">
<path d="M4820 7989 c-707 -77 -1341 -391 -1808 -895 -402 -435 -652 -953
-743 -1545 -19 -120 -23 -187 -23 -409 -1 -281 8 -389 49 -595 147 -735 580
-1389 1197 -1809 54 -36 101 -66 104 -66 3 0 18 -8 32 -19 78 -54 300 -164
438 -216 195 -75 466 -145 679 -177 137 -20 606 -17 764 5 636 89 1199 366
1642 807 333 331 548 675 698 1117 116 344 159 647 148 1041 -8 267 -32 434
-99 677 -117 426 -357 858 -652 1173 -463 495 -1030 794 -1706 898 -124 19
-589 28 -720 13z m700 -33 c436 -67 818 -211 1169 -442 433 -285 771 -668 996
-1129 191 -391 278 -737 292 -1156 14 -451 -60 -841 -242 -1266 -249 -581
-735 -1096 -1311 -1387 -311 -156 -596 -246 -935 -293 -158 -21 -590 -24 -724
-5 -213 32 -484 102 -679 177 -138 52 -360 162 -438 216 -14 11 -29 19 -32 19
-3 0 -50 30 -104 66 -617 420 -1050 1074 -1197 1809 -40 200 -49 307 -49 570
0 209 4 274 23 394 55 357 183 729 348 1011 370 630 918 1077 1593 1298 202
66 393 107 610 131 128 14 555 6 680 -13z"/>
</g>
</svg>
