<?xml version="1.0" standalone="no"?>
<!DOCTYPE svg PUBLIC "-//W3C//DTD SVG 20010904//EN"
 "http://www.w3.org/TR/2001/REC-SVG-20010904/DTD/svg10.dtd">
<svg version="1.0" xmlns="http://www.w3.org/2000/svg"
 width="1024.000000pt" height="1024.000000pt" viewBox="0 0 1024.000000 1024.000000"
 preserveAspectRatio="xMidYMid meet">
<metadata>
Created by potrace 1.14, written by Peter Selinger 2001-2017
</metadata>
<g transform="translate(0.000000,1024.000000) scale(0.100000,-0.100000)"
fill="#000000" stroke="none">
<path d="M4915 8004 c-717 -59 -1344 -344 -1835 -834 -159 -159 -238 -254
-365 -445 -343 -513 -509 -1121 -476 -1750 12 -219 31 -355 77 -545 163 -664
535 -1226 1084 -1635 102 -76 327 -215 347 -215 6 0 16 -6 22 -13 6 -8 50 -31
98 -52 49 -21 111 -48 138 -61 147 -69 488 -163 705 -193 435 -62 914 -19
1320 116 725 242 1299 728 1651 1398 138 261 244 587 293 895 39 243 43 586
10 839 -105 815 -561 1552 -1244 2011 -380 255 -776 403 -1240 465 -112 15
-485 27 -585 19z m565 -39 c624 -82 1180 -347 1623 -774 608 -585 929 -1395
878 -2215 -20 -306 -57 -502 -145 -763 -66 -195 -101 -277 -175 -418 -111
-212 -220 -372 -382 -560 -423 -495 -1073 -850 -1734 -949 -264 -40 -616 -40
-855 -1 -203 33 -534 127 -665 188 -27 13 -89 41 -138 62 -48 21 -92 44 -98
52 -6 7 -16 13 -22 13 -6 0 -64 32 -129 70 -498 298 -908 766 -1142 1302 -304
700 -320 1489 -44 2193 73 184 174 377 283 540 127 191 206 286 365 445 491
490 1118 774 1835 834 95 8 431 -4 545 -19z M3170 7105 c0 -8 7 -15 15 -15 8
0 15 7 15 15 0 8 -7 15 -15 15 -8 0 -15 -7 -15 -15z"/>
</g>
</svg>
