<?xml version="1.0" standalone="no"?>
<!DOCTYPE svg PUBLIC "-//W3C//DTD SVG 20010904//EN"
 "http://www.w3.org/TR/2001/REC-SVG-20010904/DTD/svg10.dtd">
<svg version="1.0" xmlns="http://www.w3.org/2000/svg"
 width="1024.000000pt" height="1024.000000pt" viewBox="0 0 1024.000000 1024.000000"
 preserveAspectRatio="xMidYMid meet">
<metadata>
Created by potrace 1.14, written by Peter Selinger 2001-2017
</metadata>
<g transform="translate(0.000000,1024.000000) scale(0.100000,-0.100000)"
fill="#000000" stroke="none">
<path d="M4910 8019 c-575 -38 -1119 -247 -1590 -610 -115 -88 -381 -351 -474
-469 -318 -402 -521 -873 -601 -1395 -22 -140 -30 -518 -16 -688 84 -992 687
-1888 1566 -2325 165 -82 195 -95 385 -163 87 -32 303 -86 460 -116 139 -27
157 -28 460 -28 252 0 339 4 435 18 736 110 1389 478 1842 1037 404 499 620
1085 647 1760 34 825 -321 1672 -934 2225 -508 459 -1103 711 -1780 754 -182
12 -217 12 -400 0z m380 -20 c677 -43 1272 -295 1780 -754 459 -414 780 -998
889 -1615 34 -189 42 -294 42 -503 -1 -299 -31 -517 -111 -805 -121 -436 -380
-884 -702 -1212 -447 -457 -1026 -750 -1673 -847 -95 -14 -181 -18 -415 -18
-279 1 -303 2 -440 28 -157 30 -372 84 -460 116 -190 68 -220 81 -385 163
-797 396 -1380 1185 -1535 2074 -45 258 -51 660 -15 899 79 520 283 993 601
1395 93 118 359 381 474 469 471 363 1015 572 1590 610 181 12 180 12 360 0z"/>
</g>
</svg>
