<?xml version="1.0" standalone="no"?>
<!DOCTYPE svg PUBLIC "-//W3C//DTD SVG 20010904//EN"
 "http://www.w3.org/TR/2001/REC-SVG-20010904/DTD/svg10.dtd">
<svg version="1.0" xmlns="http://www.w3.org/2000/svg"
 width="1024.000000pt" height="1024.000000pt" viewBox="0 0 1024.000000 1024.000000"
 preserveAspectRatio="xMidYMid meet">
<metadata>
Created by potrace 1.14, written by Peter Selinger 2001-2017
</metadata>
<g transform="translate(0.000000,1024.000000) scale(0.100000,-0.100000)"
fill="#000000" stroke="none">
<path d="M4790 8015 c-655 -78 -1229 -346 -1686 -788 -258 -249 -439 -496
-594 -811 -197 -402 -284 -758 -297 -1216 -26 -975 400 -1851 1184 -2432 199
-148 503 -311 693 -373 30 -10 77 -27 104 -37 80 -32 301 -86 491 -119 154
-27 493 -37 685 -20 489 43 917 189 1333 452 617 391 1072 1026 1241 1731 66
274 86 451 86 747 0 1093 -623 2095 -1602 2579 -434 215 -822 304 -1318 301
-118 -1 -262 -7 -320 -14z m642 -20 c377 -44 644 -122 976 -287 438 -216 814
-542 1094 -948 327 -473 508 -1050 508 -1615 0 -270 -23 -459 -86 -723 -169
-706 -624 -1340 -1241 -1731 -514 -325 -1061 -476 -1663 -458 -235 7 -371 28
-666 102 -50 13 -113 32 -140 43 -27 10 -74 27 -104 37 -115 37 -334 142 -483
232 -887 533 -1425 1519 -1394 2553 14 441 103 801 297 1196 155 315 336 562
594 811 457 442 1031 710 1686 788 150 18 470 18 622 0z"/>
</g>
</svg>
