<?xml version="1.0" standalone="no"?>
<!DOCTYPE svg PUBLIC "-//W3C//DTD SVG 20010904//EN"
 "http://www.w3.org/TR/2001/REC-SVG-20010904/DTD/svg10.dtd">
<svg version="1.0" xmlns="http://www.w3.org/2000/svg"
 width="1024.000000pt" height="1024.000000pt" viewBox="0 0 1024.000000 1024.000000"
 preserveAspectRatio="xMidYMid meet">
<metadata>
Created by potrace 1.14, written by Peter Selinger 2001-2017
</metadata>
<g transform="translate(0.000000,1024.000000) scale(0.100000,-0.100000)"
fill="#000000" stroke="none">
<path d="M4771 8015 c-381 -46 -779 -177 -1107 -365 -220 -126 -402 -265 -598
-458 -435 -429 -717 -978 -820 -1597 -39 -230 -46 -530 -21 -781 50 -493 235
-988 514 -1378 217 -305 474 -552 785 -758 149 -98 426 -236 576 -288 36 -12
74 -26 85 -31 17 -7 85 -27 205 -59 71 -19 168 -39 295 -62 116 -20 161 -23
425 -23 307 0 352 4 620 56 378 73 808 267 1135 510 663 493 1085 1248 1155
2064 58 690 -99 1330 -464 1885 -282 429 -673 775 -1131 1000 -288 142 -531
220 -850 271 -167 27 -626 35 -804 14z m784 -34 c157 -25 198 -34 340 -73 370
-102 772 -312 1070 -559 655 -542 1045 -1363 1045 -2199 0 -286 -26 -496 -95
-765 -160 -628 -540 -1190 -1070 -1584 -327 -243 -757 -437 -1135 -510 -267
-51 -314 -56 -600 -56 -240 1 -291 4 -405 23 -126 22 -223 43 -295 62 -120 32
-188 52 -205 59 -11 5 -49 19 -85 31 -150 52 -427 190 -576 288 -555 367 -956
887 -1163 1509 -313 938 -129 1960 490 2728 221 274 511 522 813 695 328 188
725 319 1107 365 174 21 596 13 764 -14z"/>
</g>
</svg>
