<?xml version="1.0" standalone="no"?>
<!DOCTYPE svg PUBLIC "-//W3C//DTD SVG 20010904//EN"
 "http://www.w3.org/TR/2001/REC-SVG-20010904/DTD/svg10.dtd">
<svg version="1.0" xmlns="http://www.w3.org/2000/svg"
 width="1024.000000pt" height="1024.000000pt" viewBox="0 0 1024.000000 1024.000000"
 preserveAspectRatio="xMidYMid meet">
<metadata>
Created by potrace 1.14, written by Peter Selinger 2001-2017
</metadata>
<g transform="translate(0.000000,1024.000000) scale(0.100000,-0.100000)"
fill="#000000" stroke="none">
<path d="M4975 8044 c-745 -43 -1401 -332 -1911 -839 -245 -244 -408 -466
-553 -756 -95 -190 -149 -328 -202 -514 -87 -305 -114 -538 -106 -897 6 -264
22 -402 76 -623 180 -737 645 -1378 1296 -1784 134 -84 458 -241 497 -241 8 0
18 -4 24 -9 5 -5 47 -21 94 -35 47 -15 105 -33 130 -41 64 -20 156 -40 332
-72 145 -26 168 -28 458 -28 319 0 380 5 608 51 400 81 806 259 1132 497 569
417 967 1022 1124 1707 76 333 91 803 35 1138 -196 1196 -1085 2130 -2272
2387 -200 43 -559 71 -762 59z m492 -39 c847 -93 1649 -599 2106 -1329 172
-273 287 -542 366 -856 63 -248 82 -417 82 -702 -1 -405 -70 -754 -222 -1119
-109 -264 -262 -515 -448 -737 -427 -509 -1010 -857 -1653 -986 -225 -45 -290
-51 -588 -51 -268 0 -294 2 -438 28 -176 32 -268 52 -332 72 -25 8 -83 26
-130 41 -47 14 -89 30 -94 35 -6 5 -16 9 -24 9 -39 0 -363 157 -497 241 -728
454 -1208 1181 -1346 2034 -27 167 -37 520 -20 702 53 559 271 1102 621 1543
45 58 151 173 234 255 472 470 1074 754 1746 825 196 20 423 18 637 -5z"/>
</g>
</svg>
