<?xml version="1.0" standalone="no"?>
<!DOCTYPE svg PUBLIC "-//W3C//DTD SVG 20010904//EN"
 "http://www.w3.org/TR/2001/REC-SVG-20010904/DTD/svg10.dtd">
<svg version="1.0" xmlns="http://www.w3.org/2000/svg"
 width="1024.000000pt" height="1024.000000pt" viewBox="0 0 1024.000000 1024.000000"
 preserveAspectRatio="xMidYMid meet">
<metadata>
Created by potrace 1.14, written by Peter Selinger 2001-2017
</metadata>
<g transform="translate(0.000000,1024.000000) scale(0.100000,-0.100000)"
fill="#000000" stroke="none">
<path d="M4785 8035 c-565 -68 -1071 -279 -1515 -631 -118 -94 -340 -318 -440
-444 -418 -526 -640 -1165 -640 -1840 0 -1020 512 -1948 1370 -2485 110 -69
410 -222 465 -238 11 -3 65 -22 120 -42 55 -20 134 -45 175 -55 41 -10 101
-26 132 -35 210 -57 620 -88 901 -66 680 52 1301 329 1801 802 572 541 896
1305 896 2114 0 349 -41 610 -147 940 -99 309 -282 646 -490 905 -101 126
-314 341 -433 437 -299 242 -677 439 -1040 543 -119 34 -307 74 -425 90 -133
18 -592 21 -730 5z m710 -25 c526 -71 1049 -297 1465 -633 119 -96 332 -311
433 -437 208 -259 391 -596 490 -905 104 -322 147 -592 147 -915 0 -530 -148
-1058 -424 -1513 -353 -582 -916 -1029 -1576 -1250 -309 -104 -668 -155 -1005
-144 -162 5 -443 42 -553 72 -31 9 -91 25 -132 35 -41 10 -120 35 -175 55 -55
20 -109 39 -120 42 -55 16 -355 169 -465 238 -458 286 -824 688 -1061 1166
-508 1021 -380 2223 331 3119 100 126 322 350 440 444 444 352 950 563 1515
631 137 16 556 13 690 -5z M2830 6805 c0 -8 7 -15 15 -15 8 0 15 7 15 15 0 8
-7 15 -15 15 -8 0 -15 -7 -15 -15z"/>
</g>
</svg>
