<?xml version="1.0" standalone="no"?>
<!DOCTYPE svg PUBLIC "-//W3C//DTD SVG 20010904//EN"
 "http://www.w3.org/TR/2001/REC-SVG-20010904/DTD/svg10.dtd">
<svg version="1.0" xmlns="http://www.w3.org/2000/svg"
 width="1024.000000pt" height="1024.000000pt" viewBox="0 0 1024.000000 1024.000000"
 preserveAspectRatio="xMidYMid meet">
<metadata>
Created by potrace 1.14, written by Peter Selinger 2001-2017
</metadata>
<g transform="translate(0.000000,1024.000000) scale(0.100000,-0.100000)"
fill="#000000" stroke="none">
<path d="M5010 8050 c-253 -9 -355 -23 -595 -80 -336 -80 -640 -214 -940 -415
-727 -487 -1188 -1265 -1275 -2154 -13 -133 -13 -425 0 -566 97 -1043 753
-1961 1706 -2389 66 -29 157 -66 204 -81 47 -16 100 -35 119 -43 18 -8 70 -21
115 -30 44 -9 83 -20 86 -23 7 -9 153 -36 305 -56 195 -27 629 -24 820 5 183
28 438 92 595 150 262 97 588 281 810 459 238 190 499 482 651 730 195 317
301 589 395 1011 40 184 56 669 30 900 -60 513 -249 994 -553 1405 -67 89
-124 159 -238 286 -54 60 -248 231 -342 302 -285 213 -569 359 -907 463 -238
74 -431 108 -741 130 -27 2 -138 0 -245 -4z m395 -30 c429 -35 921 -207 1301
-455 174 -114 419 -314 519 -426 114 -127 171 -197 238 -286 304 -411 493
-892 553 -1405 26 -225 10 -678 -30 -860 -94 -422 -200 -694 -395 -1011 -152
-248 -413 -540 -651 -730 -222 -178 -548 -362 -810 -459 -157 -58 -413 -122
-595 -150 -190 -29 -587 -32 -780 -5 -152 20 -298 47 -305 56 -3 3 -42 14 -86
23 -45 9 -97 22 -115 30 -19 8 -72 27 -119 43 -190 63 -435 187 -630 317
-1017 682 -1502 1937 -1205 3118 223 888 820 1596 1662 1970 230 102 521 183
793 221 82 12 449 28 500 22 14 -1 84 -7 155 -13z"/>
</g>
</svg>
