<?xml version="1.0" standalone="no"?>
<!DOCTYPE svg PUBLIC "-//W3C//DTD SVG 20010904//EN"
 "http://www.w3.org/TR/2001/REC-SVG-20010904/DTD/svg10.dtd">
<svg version="1.0" xmlns="http://www.w3.org/2000/svg"
 width="1024.000000pt" height="1024.000000pt" viewBox="0 0 1024.000000 1024.000000"
 preserveAspectRatio="xMidYMid meet">
<metadata>
Created by potrace 1.14, written by Peter Selinger 2001-2017
</metadata>
<g transform="translate(0.000000,1024.000000) scale(0.100000,-0.100000)"
fill="#000000" stroke="none">
<path d="M4772 8044 c-765 -92 -1446 -464 -1930 -1052 -256 -311 -465 -720
-563 -1100 -200 -776 -97 -1572 291 -2248 240 -418 600 -787 1020 -1042 339
-206 756 -350 1170 -403 137 -18 602 -19 725 -1 580 82 1066 288 1491 630 528
426 899 1039 1028 1702 46 237 51 292 51 600 -1 255 -4 315 -23 440 -97 624
-375 1179 -812 1621 -138 140 -232 221 -365 316 -411 293 -852 467 -1353 534
-174 23 -552 25 -730 3z m710 -23 c501 -67 942 -241 1353 -534 133 -95 227
-176 365 -316 437 -442 715 -997 812 -1621 19 -123 22 -186 23 -420 0 -286 -5
-346 -51 -580 -112 -576 -389 -1088 -819 -1513 -455 -450 -1021 -723 -1700
-819 -122 -17 -550 -17 -685 1 -225 29 -500 98 -710 177 -609 232 -1153 698
-1480 1268 -342 596 -465 1291 -345 1956 54 299 129 528 260 796 402 818 1168
1400 2072 1575 271 52 644 65 905 30z"/>
</g>
</svg>
