<?xml version="1.0" standalone="no"?>
<!DOCTYPE svg PUBLIC "-//W3C//DTD SVG 20010904//EN"
 "http://www.w3.org/TR/2001/REC-SVG-20010904/DTD/svg10.dtd">
<svg version="1.0" xmlns="http://www.w3.org/2000/svg"
 width="1024.000000pt" height="1024.000000pt" viewBox="0 0 1024.000000 1024.000000"
 preserveAspectRatio="xMidYMid meet">
<metadata>
Created by potrace 1.14, written by Peter Selinger 2001-2017
</metadata>
<g transform="translate(0.000000,1024.000000) scale(0.100000,-0.100000)"
fill="#000000" stroke="none">
<path d="M4915 8064 c-608 -50 -1141 -254 -1615 -617 -128 -98 -400 -369 -495
-492 -165 -213 -314 -466 -408 -695 -257 -626 -293 -1352 -99 -1995 241 -797
790 -1440 1537 -1800 144 -70 335 -142 465 -175 47 -12 108 -28 135 -35 125
-35 319 -63 516 -75 494 -31 999 66 1436 275 331 158 596 347 838 597 141 146
208 224 307 363 236 331 418 762 483 1145 42 247 47 306 48 555 0 398 -45 673
-169 1019 -322 896 -1079 1591 -1999 1835 -251 66 -442 92 -715 96 -118 1
-237 1 -265 -1z m570 -38 c304 -43 533 -106 805 -223 645 -277 1195 -814 1485
-1452 191 -419 267 -772 267 -1236 0 -227 -6 -296 -47 -535 -65 -383 -247
-814 -483 -1145 -99 -139 -166 -217 -307 -363 -438 -453 -1026 -752 -1661
-847 -120 -17 -386 -35 -464 -30 -30 2 -107 6 -170 10 -135 7 -342 38 -455 70
-27 7 -88 23 -135 35 -275 71 -593 221 -870 411 -459 315 -840 794 -1045 1314
-261 660 -279 1355 -53 2029 100 300 263 600 473 871 95 123 367 394 495 492
474 363 1006 566 1615 617 101 8 443 -3 550 -18z"/>
</g>
</svg>
