<?xml version="1.0" standalone="no"?>
<!DOCTYPE svg PUBLIC "-//W3C//DTD SVG 20010904//EN"
 "http://www.w3.org/TR/2001/REC-SVG-20010904/DTD/svg10.dtd">
<svg version="1.0" xmlns="http://www.w3.org/2000/svg"
 width="1024.000000pt" height="1024.000000pt" viewBox="0 0 1024.000000 1024.000000"
 preserveAspectRatio="xMidYMid meet">
<metadata>
Created by potrace 1.14, written by Peter Selinger 2001-2017
</metadata>
<g transform="translate(0.000000,1024.000000) scale(0.100000,-0.100000)"
fill="#000000" stroke="none">
<path d="M4815 8060 c-690 -77 -1303 -368 -1785 -850 -722 -720 -1015 -1762
-780 -2780 147 -641 528 -1234 1055 -1643 881 -683 2104 -811 3110 -323 215
104 446 254 625 404 102 86 291 282 385 399 276 345 474 752 569 1169 70 304
93 669 62 984 -81 833 -494 1564 -1176 2081 -46 35 -142 99 -213 141 -360 216
-702 338 -1132 404 -118 18 -598 27 -720 14z m700 -34 c595 -90 1090 -315
1526 -693 818 -707 1176 -1813 933 -2877 -95 -417 -293 -824 -569 -1169 -94
-117 -283 -313 -385 -399 -667 -562 -1555 -804 -2395 -652 -352 63 -655 171
-953 340 -1141 648 -1714 1987 -1392 3254 58 229 115 383 220 595 279 566 745
1033 1312 1316 310 155 667 259 1023 299 119 13 561 4 680 -14z M2410 4715 c0
-8 7 -15 15 -15 8 0 15 7 15 15 0 8 -7 15 -15 15 -8 0 -15 -7 -15 -15z"/>
</g>
</svg>
