<?xml version="1.0" standalone="no"?>
<!DOCTYPE svg PUBLIC "-//W3C//DTD SVG 20010904//EN"
 "http://www.w3.org/TR/2001/REC-SVG-20010904/DTD/svg10.dtd">
<svg version="1.0" xmlns="http://www.w3.org/2000/svg"
 width="1024.000000pt" height="1024.000000pt" viewBox="0 0 1024.000000 1024.000000"
 preserveAspectRatio="xMidYMid meet">
<metadata>
Created by potrace 1.14, written by Peter Selinger 2001-2017
</metadata>
<g transform="translate(0.000000,1024.000000) scale(0.100000,-0.100000)"
fill="#000000" stroke="none">
<path d="M4885 8074 c-22 -2 -94 -11 -160 -20 -573 -73 -1116 -317 -1555 -699
-457 -399 -776 -923 -924 -1520 -110 -447 -111 -992 0 -1430 191 -760 645
-1385 1304 -1798 661 -414 1473 -546 2261 -366 414 95 832 298 1179 575 115
92 338 316 439 441 588 734 791 1691 556 2624 -42 167 -80 275 -155 444 -147
333 -333 606 -594 874 -465 475 -1041 761 -1736 861 -83 12 -535 22 -615 14z
m595 -34 c389 -56 769 -180 1075 -352 123 -69 299 -190 425 -291 126 -102 338
-316 442 -448 254 -320 447 -706 543 -1088 231 -918 29 -1853 -556 -2584 -101
-125 -324 -349 -439 -441 -210 -167 -525 -353 -745 -439 -529 -207 -1068 -264
-1600 -171 -1243 218 -2203 1186 -2405 2424 -99 609 0 1245 280 1795 410 807
1142 1367 2030 1554 83 18 253 42 375 55 78 8 491 -2 575 -14z M2490 6345 c0
-8 7 -15 15 -15 8 0 15 7 15 15 0 8 -7 15 -15 15 -8 0 -15 -7 -15 -15z M2340
5585 c0 -8 7 -15 15 -15 8 0 15 7 15 15 0 8 -7 15 -15 15 -8 0 -15 -7 -15 -15z
M2480 4565 c0 -8 7 -15 15 -15 8 0 15 7 15 15 0 8 -7 15 -15 15 -8 0 -15 -7
-15 -15z"/>
</g>
</svg>
