<?xml version="1.0" standalone="no"?>
<!DOCTYPE svg PUBLIC "-//W3C//DTD SVG 20010904//EN"
 "http://www.w3.org/TR/2001/REC-SVG-20010904/DTD/svg10.dtd">
<svg version="1.0" xmlns="http://www.w3.org/2000/svg"
 width="1024.000000pt" height="1024.000000pt" viewBox="0 0 1024.000000 1024.000000"
 preserveAspectRatio="xMidYMid meet">
<metadata>
Created by potrace 1.14, written by Peter Selinger 2001-2017
</metadata>
<g transform="translate(0.000000,1024.000000) scale(0.100000,-0.100000)"
fill="#000000" stroke="none">
<path d="M4802 8069 c-285 -33 -629 -120 -830 -211 -540 -241 -918 -540 -1247
-983 -557 -751 -718 -1796 -415 -2695 157 -468 367 -807 715 -1156 549 -550
1231 -841 2023 -861 378 -10 695 37 1042 154 826 278 1503 934 1804 1748 141
378 193 707 183 1143 -10 442 -99 822 -280 1195 -99 203 -185 347 -301 500
-502 667 -1235 1081 -2066 1167 -113 12 -524 11 -628 -1z m608 -19 c831 -86
1564 -500 2066 -1167 430 -570 634 -1286 575 -2019 -66 -816 -496 -1594 -1153
-2087 -440 -330 -922 -520 -1478 -583 -141 -15 -427 -17 -540 -3 -41 5 -95 11
-120 13 -157 15 -380 65 -561 125 -456 153 -815 375 -1154 715 -348 349 -558
688 -715 1156 -343 1016 -88 2161 654 2941 289 303 583 507 1008 697 201 91
545 178 830 211 104 12 475 12 588 1z M2490 4485 c0 -16 6 -25 15 -25 9 0 15
9 15 25 0 16 -6 25 -15 25 -9 0 -15 -9 -15 -25z M2440 4485 c0 -8 7 -15 15
-15 8 0 15 7 15 15 0 8 -7 15 -15 15 -8 0 -15 -7 -15 -15z M3000 3965 c0 -8 7
-15 15 -15 8 0 15 7 15 15 0 8 -7 15 -15 15 -8 0 -15 -7 -15 -15z M3200 3255
c0 -8 7 -15 15 -15 8 0 15 7 15 15 0 8 -7 15 -15 15 -8 0 -15 -7 -15 -15z"/>
</g>
</svg>
