<?xml version="1.0" standalone="no"?>
<!DOCTYPE svg PUBLIC "-//W3C//DTD SVG 20010904//EN"
 "http://www.w3.org/TR/2001/REC-SVG-20010904/DTD/svg10.dtd">
<svg version="1.0" xmlns="http://www.w3.org/2000/svg"
 width="1024.000000pt" height="1024.000000pt" viewBox="0 0 1024.000000 1024.000000"
 preserveAspectRatio="xMidYMid meet">
<metadata>
Created by potrace 1.14, written by Peter Selinger 2001-2017
</metadata>
<g transform="translate(0.000000,1024.000000) scale(0.100000,-0.100000)"
fill="#000000" stroke="none">
<path d="M4937 8079 c-727 -42 -1409 -349 -1922 -864 -444 -446 -729 -1014
-827 -1650 -30 -193 -33 -676 -5 -860 81 -538 288 -1022 615 -1435 118 -149
377 -401 532 -517 420 -313 846 -488 1380 -567 236 -35 495 -37 770 -6 101 12
187 23 191 25 4 3 51 14 104 25 254 51 550 162 800 302 441 245 818 608 1079
1038 363 599 501 1296 396 2006 -60 401 -181 739 -394 1093 -294 489 -773 917
-1282 1145 -463 207 -938 295 -1437 265z m468 -30 c314 -27 629 -112 949 -255
509 -228 988 -656 1282 -1145 213 -355 334 -693 394 -1095 101 -688 -36 -1371
-396 -1964 -168 -276 -412 -557 -654 -751 -363 -292 -807 -505 -1225 -589 -53
-11 -100 -22 -104 -25 -4 -2 -93 -14 -197 -26 -159 -18 -224 -20 -409 -16
-216 5 -277 12 -520 59 -408 78 -814 262 -1175 531 -155 116 -414 368 -532
517 -327 413 -535 898 -615 1435 -27 182 -24 628 5 820 191 1242 1113 2214
2332 2459 309 62 531 73 865 45z"/>
</g>
</svg>
