<?xml version="1.0" standalone="no"?>
<!DOCTYPE svg PUBLIC "-//W3C//DTD SVG 20010904//EN"
 "http://www.w3.org/TR/2001/REC-SVG-20010904/DTD/svg10.dtd">
<svg version="1.0" xmlns="http://www.w3.org/2000/svg"
 width="1024.000000pt" height="1024.000000pt" viewBox="0 0 1024.000000 1024.000000"
 preserveAspectRatio="xMidYMid meet">
<metadata>
Created by potrace 1.14, written by Peter Selinger 2001-2017
</metadata>
<g transform="translate(0.000000,1024.000000) scale(0.100000,-0.100000)"
fill="#000000" stroke="none">
<path d="M4845 8080 c-577 -59 -1086 -259 -1550 -609 -121 -92 -338 -301 -447
-431 -379 -451 -610 -990 -679 -1585 -19 -161 -16 -551 5 -705 91 -666 356
-1225 801 -1689 463 -483 1094 -801 1745 -880 216 -26 266 -29 435 -26 288 5
507 32 695 86 286 81 380 114 556 198 411 196 738 457 1053 838 143 175 365
571 446 798 81 225 138 460 167 685 8 66 13 203 12 370 0 222 -4 289 -23 410
-12 80 -26 161 -31 180 -4 19 -16 71 -25 115 -40 186 -146 474 -242 655 -181
338 -386 605 -646 837 -448 402 -964 644 -1562 733 -160 24 -557 35 -710 20z
m690 -40 c746 -111 1375 -465 1866 -1051 267 -318 503 -793 584 -1174 9 -44
21 -96 25 -115 5 -19 19 -100 31 -180 19 -119 23 -189 23 -390 1 -389 -46
-665 -179 -1035 -81 -227 -303 -623 -446 -798 -315 -381 -642 -642 -1053 -838
-176 -84 -270 -117 -556 -198 -309 -88 -746 -109 -1128 -55 -464 66 -892 236
-1282 510 -610 428 -1049 1103 -1190 1830 -53 274 -70 639 -41 889 103 894
578 1665 1331 2160 129 85 387 217 534 274 247 95 534 163 811 191 148 15 509
4 670 -20z M2375 6119 c-8 -25 -1 -34 20 -26 19 8 20 47 1 47 -8 0 -18 -9 -21
-21z M2460 5515 c0 -8 7 -15 15 -15 8 0 15 7 15 15 0 8 -7 15 -15 15 -8 0 -15
-7 -15 -15z M2746 5238 c-9 -34 -8 -38 9 -38 8 0 15 3 15 8 0 4 3 17 6 30 5
16 2 22 -9 22 -8 0 -17 -10 -21 -22z M2340 4545 c0 -8 7 -15 15 -15 8 0 15 7
15 15 0 8 -7 15 -15 15 -8 0 -15 -7 -15 -15z M2790 4525 c0 -8 7 -15 15 -15 8
0 15 7 15 15 0 8 -7 15 -15 15 -8 0 -15 -7 -15 -15z M2820 4435 c0 -8 7 -15
15 -15 8 0 15 7 15 15 0 8 -7 15 -15 15 -8 0 -15 -7 -15 -15z M2680 3855 c0
-8 7 -15 15 -15 8 0 15 7 15 15 0 8 -7 15 -15 15 -8 0 -15 -7 -15 -15z M3050
3855 c0 -8 7 -15 15 -15 8 0 15 7 15 15 0 8 -7 15 -15 15 -8 0 -15 -7 -15 -15z
M4800 3425 c0 -8 7 -15 15 -15 8 0 15 7 15 15 0 8 -7 15 -15 15 -8 0 -15 -7
-15 -15z"/>
</g>
</svg>
