<?xml version="1.0" standalone="no"?>
<!DOCTYPE svg PUBLIC "-//W3C//DTD SVG 20010904//EN"
 "http://www.w3.org/TR/2001/REC-SVG-20010904/DTD/svg10.dtd">
<svg version="1.0" xmlns="http://www.w3.org/2000/svg"
 width="1024.000000pt" height="1024.000000pt" viewBox="0 0 1024.000000 1024.000000"
 preserveAspectRatio="xMidYMid meet">
<metadata>
Created by potrace 1.14, written by Peter Selinger 2001-2017
</metadata>
<g transform="translate(0.000000,1024.000000) scale(0.100000,-0.100000)"
fill="#000000" stroke="none">
<path d="M4795 8075 c-413 -50 -755 -155 -1090 -337 -577 -313 -1018 -785
-1291 -1382 -298 -650 -344 -1422 -129 -2131 51 -166 74 -224 176 -430 121
-247 230 -411 406 -617 476 -554 1142 -912 1868 -1003 169 -21 477 -29 610
-16 249 25 284 30 385 51 151 30 221 50 244 66 11 8 30 14 41 14 27 0 166 47
179 60 6 6 17 10 25 10 37 0 306 130 451 218 184 112 451 323 586 464 207 216
382 463 515 728 91 182 127 270 181 440 96 304 127 501 135 840 7 322 -6 441
-91 832 -25 115 -113 362 -184 518 -127 277 -387 639 -618 860 -487 466 -1087
745 -1749 815 -174 18 -496 18 -650 0z m630 -20 c662 -70 1262 -349 1749 -815
231 -221 491 -583 618 -860 71 -156 159 -403 184 -518 84 -386 98 -513 91
-812 -8 -319 -42 -525 -135 -820 -54 -170 -90 -258 -181 -440 -133 -265 -308
-512 -515 -728 -135 -141 -402 -352 -586 -464 -145 -88 -414 -218 -451 -218
-8 0 -19 -4 -25 -10 -13 -13 -152 -60 -179 -60 -11 0 -30 -6 -41 -14 -36 -26
-288 -82 -434 -97 -268 -28 -317 -30 -475 -25 -192 7 -362 26 -510 57 -650
135 -1222 470 -1648 967 -176 206 -285 370 -406 617 -102 206 -125 264 -176
430 -184 607 -178 1223 20 1811 241 718 731 1299 1400 1662 511 277 1120 398
1700 337z M4230 6205 c0 -8 7 -15 15 -15 8 0 15 7 15 15 0 8 -7 15 -15 15 -8
0 -15 -7 -15 -15z M4320 5080 c0 -11 7 -20 15 -20 8 0 15 9 15 20 0 11 -7 20
-15 20 -8 0 -15 -9 -15 -20z M4320 4955 c0 -8 9 -15 20 -15 11 0 20 7 20 15 0
8 -9 15 -20 15 -11 0 -20 -7 -20 -15z M2920 4925 c0 -8 7 -15 15 -15 8 0 15 7
15 15 0 8 -7 15 -15 15 -8 0 -15 -7 -15 -15z M2530 4285 c0 -8 7 -15 15 -15 8
0 15 7 15 15 0 8 -7 15 -15 15 -8 0 -15 -7 -15 -15z M3350 3105 c0 -8 7 -15
15 -15 8 0 15 7 15 15 0 8 -7 15 -15 15 -8 0 -15 -7 -15 -15z"/>
</g>
</svg>
