<?xml version="1.0" standalone="no"?>
<!DOCTYPE svg PUBLIC "-//W3C//DTD SVG 20010904//EN"
 "http://www.w3.org/TR/2001/REC-SVG-20010904/DTD/svg10.dtd">
<svg version="1.0" xmlns="http://www.w3.org/2000/svg"
 width="1024.000000pt" height="1024.000000pt" viewBox="0 0 1024.000000 1024.000000"
 preserveAspectRatio="xMidYMid meet">
<metadata>
Created by potrace 1.14, written by Peter Selinger 2001-2017
</metadata>
<g transform="translate(0.000000,1024.000000) scale(0.100000,-0.100000)"
fill="#000000" stroke="none">
<path d="M4860 8083 c-95 -9 -210 -24 -250 -33 -25 -5 -81 -16 -125 -25 -407
-83 -811 -267 -1159 -529 -603 -453 -1011 -1125 -1135 -1866 -131 -787 52
-1602 503 -2235 402 -565 981 -966 1656 -1146 323 -87 766 -121 1070 -83 69 8
157 19 195 24 135 17 405 84 405 101 0 5 11 9 25 9 32 0 199 58 203 70 2 6 12
10 22 10 26 0 212 88 337 161 639 367 1126 969 1343 1657 97 309 130 510 137
839 8 333 -10 507 -82 808 -72 298 -181 564 -335 815 -305 500 -706 869 -1229
1130 -311 155 -659 254 -1020 290 -94 9 -478 12 -561 3z m541 -23 c361 -36
709 -135 1020 -290 523 -261 924 -630 1229 -1130 222 -363 369 -812 411 -1253
17 -182 7 -534 -20 -702 -64 -399 -205 -786 -401 -1100 -273 -439 -619 -775
-1053 -1024 -125 -73 -311 -161 -337 -161 -10 0 -20 -4 -22 -10 -4 -12 -171
-70 -203 -70 -14 0 -25 -4 -25 -9 0 -17 -270 -84 -405 -101 -38 -5 -128 -16
-200 -25 -284 -35 -711 0 -1025 84 -513 137 -962 395 -1329 762 -245 245 -417
485 -569 796 -474 967 -384 2109 236 2993 421 600 1089 1041 1797 1185 44 9
100 20 125 25 40 9 155 24 250 33 82 9 426 6 521 -3z M2390 5325 c0 -8 7 -15
15 -15 8 0 15 7 15 15 0 8 -7 15 -15 15 -8 0 -15 -7 -15 -15z M2900 4755 c0
-8 7 -15 15 -15 8 0 15 7 15 15 0 8 -7 15 -15 15 -8 0 -15 -7 -15 -15z M4480
3785 c0 -8 7 -15 15 -15 8 0 15 7 15 15 0 8 -7 15 -15 15 -8 0 -15 -7 -15 -15z"/>
</g>
</svg>
