<?xml version="1.0" standalone="no"?>
<!DOCTYPE svg PUBLIC "-//W3C//DTD SVG 20010904//EN"
 "http://www.w3.org/TR/2001/REC-SVG-20010904/DTD/svg10.dtd">
<svg version="1.0" xmlns="http://www.w3.org/2000/svg"
 width="1024.000000pt" height="1024.000000pt" viewBox="0 0 1024.000000 1024.000000"
 preserveAspectRatio="xMidYMid meet">
<metadata>
Created by potrace 1.14, written by Peter Selinger 2001-2017
</metadata>
<g transform="translate(0.000000,1024.000000) scale(0.100000,-0.100000)"
fill="#000000" stroke="none">
<path d="M4740 8070 c-159 -21 -270 -42 -360 -68 -36 -10 -87 -24 -115 -31
-134 -32 -447 -164 -615 -259 -466 -265 -847 -644 -1113 -1108 -242 -421 -370
-880 -384 -1374 -18 -645 124 -1175 461 -1717 204 -329 505 -636 846 -864 385
-257 792 -410 1265 -476 102 -14 192 -17 420 -17 296 1 303 2 555 50 491 93
895 280 1300 602 112 89 341 315 426 422 313 389 515 820 613 1306 67 331 69
808 6 1149 -69 369 -245 801 -444 1090 -468 682 -1133 1121 -1921 1270 -261
49 -674 60 -940 25z m710 -15 c879 -103 1620 -555 2131 -1300 199 -289 375
-721 444 -1090 63 -337 61 -781 -6 -1109 -98 -486 -300 -917 -613 -1306 -85
-107 -314 -333 -426 -422 -358 -284 -703 -457 -1135 -568 -77 -20 -179 -36
-209 -32 -11 1 -23 -3 -27 -9 -26 -43 -609 -60 -864 -25 -469 63 -880 218
-1265 475 -341 228 -642 535 -846 864 -333 536 -480 1080 -461 1697 21 659
256 1272 686 1785 335 400 752 694 1242 875 158 58 193 68 223 63 14 -3 26 -1
26 4 0 11 113 44 215 64 243 48 640 63 885 34z M3690 6805 c0 -8 7 -15 15 -15
8 0 15 7 15 15 0 8 -7 15 -15 15 -8 0 -15 -7 -15 -15z M2670 6595 c0 -8 7 -15
15 -15 8 0 15 7 15 15 0 8 -7 15 -15 15 -8 0 -15 -7 -15 -15z M3650 5825 c0
-8 7 -15 15 -15 8 0 15 7 15 15 0 8 -7 15 -15 15 -8 0 -15 -7 -15 -15z M3670
5435 c0 -8 7 -15 15 -15 8 0 15 7 15 15 0 8 -7 15 -15 15 -8 0 -15 -7 -15 -15z
M2490 5395 c0 -8 7 -15 15 -15 8 0 15 7 15 15 0 8 -7 15 -15 15 -8 0 -15 -7
-15 -15z M2460 5355 c0 -8 7 -15 15 -15 8 0 15 7 15 15 0 8 -7 15 -15 15 -8 0
-15 -7 -15 -15z M2550 5325 c0 -8 5 -15 10 -15 6 0 10 -7 10 -15 0 -8 7 -15
15 -15 8 0 15 7 15 15 0 8 -4 15 -10 15 -5 0 -10 7 -10 15 0 8 -7 15 -15 15
-8 0 -15 -7 -15 -15z M2610 5260 c0 -11 7 -20 15 -20 8 0 15 9 15 20 0 11 -7
20 -15 20 -8 0 -15 -9 -15 -20z M2520 5245 c0 -16 6 -25 15 -25 9 0 15 9 15
25 0 16 -6 25 -15 25 -9 0 -15 -9 -15 -25z M2780 5195 c0 -8 7 -15 15 -15 8 0
15 7 15 15 0 8 -7 15 -15 15 -8 0 -15 -7 -15 -15z M2620 5185 c0 -8 7 -15 15
-15 8 0 15 7 15 15 0 8 -7 15 -15 15 -8 0 -15 -7 -15 -15z M2580 5095 c0 -8 7
-15 15 -15 8 0 15 7 15 15 0 8 -7 15 -15 15 -8 0 -15 -7 -15 -15z M2965 4970
c-3 -11 -13 -20 -21 -20 -8 0 -14 -7 -14 -15 0 -8 7 -15 15 -15 8 0 15 4 15 9
0 5 9 11 20 14 12 3 20 14 20 26 0 27 -27 27 -35 1z M3190 4865 c0 -8 7 -15
15 -15 8 0 15 7 15 15 0 8 -7 15 -15 15 -8 0 -15 -7 -15 -15z M3210 4535 c0
-8 7 -15 15 -15 8 0 15 7 15 15 0 8 -7 15 -15 15 -8 0 -15 -7 -15 -15z M3170
4355 c0 -8 7 -15 15 -15 8 0 15 7 15 15 0 8 -7 15 -15 15 -8 0 -15 -7 -15 -15z
M3210 4355 c0 -8 7 -15 15 -15 8 0 15 7 15 15 0 8 -7 15 -15 15 -8 0 -15 -7
-15 -15z M3920 4345 c0 -8 7 -15 15 -15 8 0 15 7 15 15 0 8 -7 15 -15 15 -8 0
-15 -7 -15 -15z M3680 3285 c0 -8 7 -15 15 -15 8 0 15 7 15 15 0 8 -7 15 -15
15 -8 0 -15 -7 -15 -15z M3870 2705 c0 -8 7 -15 15 -15 8 0 15 7 15 15 0 8 -7
15 -15 15 -8 0 -15 -7 -15 -15z"/>
</g>
</svg>
