<?xml version="1.0" standalone="no"?>
<!DOCTYPE svg PUBLIC "-//W3C//DTD SVG 20010904//EN"
 "http://www.w3.org/TR/2001/REC-SVG-20010904/DTD/svg10.dtd">
<svg version="1.0" xmlns="http://www.w3.org/2000/svg"
 width="1024.000000pt" height="1024.000000pt" viewBox="0 0 1024.000000 1024.000000"
 preserveAspectRatio="xMidYMid meet">
<metadata>
Created by potrace 1.14, written by Peter Selinger 2001-2017
</metadata>
<g transform="translate(0.000000,1024.000000) scale(0.100000,-0.100000)"
fill="#000000" stroke="none">
<path d="M4835 8083 c-269 -33 -534 -90 -580 -123 -5 -4 -29 -10 -52 -13 -88
-11 -435 -163 -599 -262 -92 -56 -246 -159 -277 -185 -12 -10 -57 -46 -100
-81 -90 -71 -285 -261 -373 -364 -279 -324 -494 -735 -607 -1165 -158 -593
-122 -1266 96 -1840 47 -124 150 -348 166 -360 4 -3 12 -18 20 -35 15 -36 211
-332 238 -360 10 -11 39 -47 65 -80 70 -92 237 -260 384 -385 151 -130 446
-318 630 -401 394 -177 761 -264 1174 -276 244 -7 594 18 651 47 9 4 56 16
105 25 442 83 923 319 1279 629 316 275 543 564 723 921 152 301 257 654 297
994 20 169 20 536 -1 711 -56 495 -256 1008 -540 1391 -362 488 -815 832
-1369 1039 -349 130 -653 181 -1068 179 -128 -1 -245 -4 -262 -6z m612 -28
c655 -73 1247 -351 1722 -810 387 -375 633 -783 790 -1315 80 -269 111 -497
111 -810 0 -235 -16 -392 -61 -606 -72 -340 -200 -659 -384 -955 -340 -546
-868 -981 -1456 -1197 -183 -67 -396 -122 -476 -122 -17 0 -33 -6 -36 -14 -3
-7 -28 -16 -59 -19 -29 -4 -84 -12 -123 -18 -119 -19 -579 -17 -725 4 -537 76
-1017 273 -1425 586 -160 122 -380 335 -473 456 -26 33 -55 69 -65 80 -27 28
-223 324 -238 360 -8 17 -16 32 -20 35 -4 3 -18 29 -33 58 -331 657 -413 1407
-229 2102 113 430 328 841 607 1165 88 103 283 293 373 364 43 35 88 71 100
81 31 26 185 129 277 185 168 102 511 251 594 259 24 2 48 8 55 14 44 35 304
91 582 125 87 11 466 6 592 -8z M2331 5959 c-14 -40 -14 -42 1 -33 7 4 8 3 4
-4 -4 -7 -3 -12 1 -12 8 0 33 56 33 73 0 4 -6 7 -14 7 -8 0 -19 -14 -25 -31z
M2300 5901 c0 -12 6 -21 16 -21 9 0 14 7 12 17 -5 25 -28 28 -28 4z M2530
5850 c0 -11 3 -20 8 -20 4 0 17 -3 30 -6 19 -5 22 -2 22 20 0 22 -4 26 -30 26
-23 0 -30 -4 -30 -20z m47 -12 c-3 -8 -6 -5 -6 6 -1 11 2 17 5 13 3 -3 4 -12
1 -19z M2330 5775 c0 -8 7 -15 15 -15 8 0 15 7 15 15 0 8 -7 15 -15 15 -8 0
-15 -7 -15 -15z M2560 5695 c0 -8 7 -15 15 -15 8 0 15 7 15 15 0 8 -7 15 -15
15 -8 0 -15 -7 -15 -15z M2570 5646 c0 -8 -11 -17 -25 -20 -23 -6 -36 -36 -16
-36 21 0 41 13 41 26 0 8 7 14 15 14 8 0 15 7 15 15 0 8 -7 15 -15 15 -8 0
-15 -6 -15 -14z M2426 5614 c-9 -24 -7 -34 8 -34 13 0 26 20 26 41 0 15 -27
10 -34 -7z M2580 5555 c0 -8 7 -15 15 -15 8 0 15 7 15 15 0 8 -7 15 -15 15 -8
0 -15 -7 -15 -15z M2440 5458 c0 -30 13 -58 27 -58 11 0 14 6 9 23 -3 12 -6
28 -6 35 0 6 -7 12 -15 12 -8 0 -15 -6 -15 -12z M2580 5455 c0 -8 7 -15 15
-15 8 0 15 7 15 15 0 8 -7 15 -15 15 -8 0 -15 -7 -15 -15z M3510 5355 c0 -8 7
-15 15 -15 8 0 15 7 15 15 0 8 -7 15 -15 15 -8 0 -15 -7 -15 -15z M2600 5345
c0 -8 7 -15 15 -15 8 0 15 7 15 15 0 8 -7 15 -15 15 -8 0 -15 -7 -15 -15z
M2770 5265 c0 -8 7 -15 15 -15 8 0 15 7 15 15 0 8 -7 15 -15 15 -8 0 -15 -7
-15 -15z M2663 5263 c-15 -5 -18 -33 -4 -33 21 0 41 13 41 26 0 14 -14 17 -37
7z M2390 5150 c0 -11 7 -20 15 -20 8 0 15 9 15 20 0 11 -7 20 -15 20 -8 0 -15
-9 -15 -20z M2740 5075 c0 -8 7 -15 15 -15 8 0 15 7 15 15 0 8 -7 15 -15 15
-8 0 -15 -7 -15 -15z M3400 5055 c0 -8 7 -15 15 -15 8 0 15 7 15 15 0 8 -7 15
-15 15 -8 0 -15 -7 -15 -15z M2510 5025 c0 -8 7 -15 15 -15 8 0 15 7 15 15 0
8 -7 15 -15 15 -8 0 -15 -7 -15 -15z M2600 4910 c0 -20 5 -30 15 -30 10 0 15
10 15 30 0 20 -5 30 -15 30 -10 0 -15 -10 -15 -30z M2810 4925 c0 -8 7 -15 15
-15 8 0 15 7 15 15 0 8 -7 15 -15 15 -8 0 -15 -7 -15 -15z M2850 4926 c0 -13
20 -26 41 -26 15 0 10 27 -7 34 -24 9 -34 7 -34 -8z M2460 4865 c0 -33 4 -45
15 -45 11 0 15 12 15 45 0 33 -4 45 -15 45 -11 0 -15 -12 -15 -45z m17 -12
c-3 -10 -5 -4 -5 12 0 17 2 24 5 18 2 -7 2 -21 0 -30z M2660 4895 c0 -8 7 -15
15 -15 8 0 15 7 15 15 0 8 -7 15 -15 15 -8 0 -15 -7 -15 -15z M2870 4875 c0
-8 7 -15 15 -15 8 0 15 7 15 15 0 8 -7 15 -15 15 -8 0 -15 -7 -15 -15z M2740
4865 c0 -8 7 -15 15 -15 8 0 15 7 15 15 0 8 -7 15 -15 15 -8 0 -15 -7 -15 -15z
M2920 4855 c0 -8 7 -15 15 -15 8 0 15 7 15 15 0 8 -7 15 -15 15 -8 0 -15 -7
-15 -15z M2680 4796 c0 -15 37 -32 47 -22 3 3 3 12 0 21 -8 19 -47 20 -47 1z
M2820 4795 c0 -8 7 -15 15 -15 8 0 15 7 15 15 0 8 -7 15 -15 15 -8 0 -15 -7
-15 -15z M3620 4785 c0 -8 7 -15 15 -15 8 0 15 7 15 15 0 8 -7 15 -15 15 -8 0
-15 -7 -15 -15z M2480 4759 c0 -14 5 -19 17 -17 26 5 29 38 4 38 -15 0 -21 -6
-21 -21z M2896 4758 c-9 -34 -8 -38 9 -38 8 0 15 3 15 8 0 4 3 17 6 30 5 16 2
22 -9 22 -8 0 -17 -10 -21 -22z M3100 4765 c0 -8 7 -15 15 -15 8 0 15 7 15 15
0 8 -7 15 -15 15 -8 0 -15 -7 -15 -15z M2994 4748 c3 -13 6 -26 6 -30 0 -15
30 -8 30 6 0 26 -12 46 -27 46 -11 0 -14 -6 -9 -22z M2670 4655 c0 -8 7 -15
15 -15 8 0 15 7 15 15 0 8 -7 15 -15 15 -8 0 -15 -7 -15 -15z M2590 4625 c0
-8 7 -15 15 -15 8 0 15 7 15 15 0 8 -7 15 -15 15 -8 0 -15 -7 -15 -15z M2700
4615 c0 -8 7 -15 15 -15 8 0 15 7 15 15 0 8 -7 15 -15 15 -8 0 -15 -7 -15 -15z
M2993 4583 c-16 -6 -17 -33 -2 -33 5 0 7 5 3 12 -4 7 -3 8 4 4 6 -4 9 -13 5
-21 -3 -9 1 -15 10 -15 21 0 30 16 22 40 -6 20 -18 23 -42 13z M2600 4555 c0
-8 7 -15 15 -15 8 0 15 7 15 15 0 8 -7 15 -15 15 -8 0 -15 -7 -15 -15z M3090
4545 c0 -8 7 -15 15 -15 8 0 15 7 15 15 0 8 -7 15 -15 15 -8 0 -15 -7 -15 -15z
M2934 4525 c-3 -8 -2 -20 2 -27 5 -7 7 -21 6 -30 -2 -11 3 -18 12 -18 22 0 26
12 19 53 -6 38 -29 50 -39 22z M2788 4523 c-10 -2 -18 -11 -18 -20 0 -11 6
-14 23 -9 12 3 25 6 30 6 4 0 7 7 7 15 0 15 -9 17 -42 8z M2650 4495 c0 -8 7
-15 15 -15 8 0 15 -4 15 -10 0 -5 7 -10 15 -10 24 0 18 37 -7 44 -34 9 -38 8
-38 -9z M3073 4485 c-3 -9 -3 -18 0 -22 10 -10 37 6 37 22 0 20 -29 20 -37 0z
M2992 4458 c7 -20 48 -23 48 -4 0 11 -9 16 -26 16 -16 0 -24 -5 -22 -12z
M2970 4406 c0 -35 4 -46 16 -46 12 0 14 9 12 42 -4 59 -28 63 -28 4z M3380
4432 c0 -23 27 -62 44 -62 15 0 17 5 11 27 -3 15 -12 31 -18 35 -16 10 -37 10
-37 0z M2830 4415 c0 -8 7 -15 15 -15 8 0 15 7 15 15 0 8 -7 15 -15 15 -8 0
-15 -7 -15 -15z M2780 4405 c0 -8 7 -15 15 -15 8 0 15 7 15 15 0 8 -7 15 -15
15 -8 0 -15 -7 -15 -15z M2890 4365 c0 -8 7 -15 15 -15 8 0 15 7 15 15 0 8 -7
15 -15 15 -8 0 -15 -7 -15 -15z M3300 4330 c0 -11 7 -20 15 -20 8 0 15 9 15
20 0 11 -7 20 -15 20 -8 0 -15 -9 -15 -20z M3750 4330 c0 -11 7 -20 15 -20 8
0 15 9 15 20 0 11 -7 20 -15 20 -8 0 -15 -9 -15 -20z M3240 4315 c0 -8 7 -15
15 -15 8 0 15 7 15 15 0 8 -7 15 -15 15 -8 0 -15 -7 -15 -15z M2860 4285 c0
-8 7 -15 15 -15 8 0 15 7 15 15 0 8 -7 15 -15 15 -8 0 -15 -7 -15 -15z M2780
4265 c0 -8 7 -15 15 -15 8 0 15 7 15 15 0 8 -7 15 -15 15 -8 0 -15 -7 -15 -15z
M3047 4263 c-13 -13 -7 -53 8 -53 8 0 15 3 15 8 0 4 3 17 6 30 5 15 2 22 -8
22 -8 0 -18 -3 -21 -7z M3240 4251 c0 -21 13 -41 26 -41 15 0 17 10 8 34 -7
17 -34 22 -34 7z M3180 4231 c0 -11 5 -21 11 -23 6 -2 -5 -10 -25 -18 -20 -7
-36 -20 -36 -27 0 -17 12 -16 60 4 36 16 55 43 30 43 -5 0 -10 9 -10 20 0 11
-7 20 -15 20 -8 0 -15 -9 -15 -19z M2402 4204 c2 -11 11 -20 22 -22 13 -3 17
1 14 14 -2 11 -11 20 -22 22 -13 3 -17 -1 -14 -14z M2950 4195 c0 -8 7 -15 15
-15 8 0 15 7 15 15 0 8 -7 15 -15 15 -8 0 -15 -7 -15 -15z M3306 4128 c-10
-40 -7 -68 9 -68 9 0 15 9 15 23 0 12 3 32 6 45 5 16 2 22 -9 22 -8 0 -17 -10
-21 -22z M3190 4115 c0 -8 9 -15 20 -15 11 0 20 7 20 15 0 8 -9 15 -20 15 -11
0 -20 -7 -20 -15z M2910 4080 c0 -11 7 -20 15 -20 8 0 15 9 15 20 0 11 -7 20
-15 20 -8 0 -15 -9 -15 -20z M3060 4060 c0 -11 7 -20 15 -20 8 0 15 9 15 20 0
11 -7 20 -15 20 -8 0 -15 -9 -15 -20z M2960 4045 c0 -8 7 -15 15 -15 8 0 15 7
15 15 0 8 -7 15 -15 15 -8 0 -15 -7 -15 -15z M3300 3995 c0 -8 7 -15 15 -15 8
0 15 7 15 15 0 8 -7 15 -15 15 -8 0 -15 -7 -15 -15z M3940 3845 c0 -8 7 -15
15 -15 8 0 15 7 15 15 0 8 -7 15 -15 15 -8 0 -15 -7 -15 -15z M3740 3625 c0
-8 7 -15 15 -15 8 0 15 7 15 15 0 8 -7 15 -15 15 -8 0 -15 -7 -15 -15z M4110
3510 c0 -11 7 -20 15 -20 8 0 15 9 15 20 0 11 -7 20 -15 20 -8 0 -15 -9 -15
-20z M3480 3325 c0 -8 7 -15 15 -15 8 0 15 7 15 15 0 8 -7 15 -15 15 -8 0 -15
-7 -15 -15z M4250 3265 c0 -8 7 -15 15 -15 8 0 15 7 15 15 0 8 -7 15 -15 15
-8 0 -15 -7 -15 -15z"/>
</g>
</svg>
