<?xml version="1.0" standalone="no"?>
<!DOCTYPE svg PUBLIC "-//W3C//DTD SVG 20010904//EN"
 "http://www.w3.org/TR/2001/REC-SVG-20010904/DTD/svg10.dtd">
<svg version="1.0" xmlns="http://www.w3.org/2000/svg"
 width="1024.000000pt" height="1024.000000pt" viewBox="0 0 1024.000000 1024.000000"
 preserveAspectRatio="xMidYMid meet">
<metadata>
Created by potrace 1.14, written by Peter Selinger 2001-2017
</metadata>
<g transform="translate(0.000000,1024.000000) scale(0.100000,-0.100000)"
fill="#000000" stroke="none">
<path d="M4929 8089 c-232 -13 -629 -89 -673 -130 -6 -5 -23 -9 -38 -9 -65 0
-410 -147 -583 -248 -88 -51 -274 -173 -308 -202 -12 -10 -58 -47 -102 -82
-90 -72 -294 -272 -376 -368 -391 -461 -627 -1028 -690 -1655 -15 -148 -6
-526 15 -675 45 -308 120 -573 240 -839 72 -161 106 -221 222 -399 147 -225
301 -405 488 -571 457 -408 981 -649 1601 -738 157 -22 637 -25 770 -4 44 7
105 16 135 20 30 5 56 13 58 20 2 6 15 11 30 11 75 0 293 56 471 122 509 187
995 555 1328 1005 128 174 278 441 357 637 96 236 172 535 201 785 20 169 20
536 -1 711 -56 494 -256 1008 -540 1391 -454 613 -1087 1020 -1804 1163 -242
49 -536 69 -801 55z m566 -38 c714 -89 1392 -455 1865 -1006 386 -450 627
-1001 694 -1585 20 -173 21 -505 1 -671 -40 -340 -145 -693 -297 -994 -371
-735 -1030 -1284 -1803 -1502 -112 -32 -213 -53 -254 -53 -12 0 -29 -7 -37
-15 -9 -8 -30 -15 -47 -15 -18 0 -50 -5 -72 -10 -122 -30 -593 -34 -794 -7
-469 64 -883 218 -1261 470 -350 234 -607 492 -834 839 -116 178 -150 238
-222 399 -167 371 -248 729 -261 1149 -6 217 3 351 38 564 83 505 322 1020
658 1416 82 96 286 296 376 368 44 35 90 72 102 82 34 29 220 151 308 202 173
101 485 235 566 242 22 2 45 8 52 14 55 43 442 118 676 130 144 8 413 -1 546
-17z M3510 6745 c0 -8 7 -15 15 -15 8 0 15 7 15 15 0 8 -7 15 -15 15 -8 0 -15
-7 -15 -15z M2337 5983 c-3 -5 -8 -23 -12 -40 -3 -18 -11 -33 -16 -33 -5 0 -9
-7 -9 -15 0 -8 7 -15 15 -15 8 0 15 5 15 11 0 7 7 17 15 23 8 6 18 26 21 44 5
25 3 32 -9 32 -9 0 -18 -3 -20 -7z M2530 5846 c0 -7 10 -16 23 -20 34 -9 37
-8 37 14 0 16 -7 20 -30 20 -19 0 -30 -5 -30 -14z M2330 5775 c0 -8 7 -15 15
-15 8 0 15 7 15 15 0 8 -7 15 -15 15 -8 0 -15 -7 -15 -15z M2570 5645 c0 -8 7
-15 15 -15 8 0 15 7 15 15 0 8 -7 15 -15 15 -8 0 -15 -7 -15 -15z M2430 5615
c0 -8 7 -15 15 -15 8 0 15 7 15 15 0 8 -7 15 -15 15 -8 0 -15 -7 -15 -15z
M2512 5614 c2 -11 11 -20 22 -22 13 -3 17 1 14 14 -2 11 -11 20 -22 22 -13 3
-17 -1 -14 -14z M2590 5545 c0 -8 7 -15 15 -15 8 0 15 7 15 15 0 8 -7 15 -15
15 -8 0 -15 -7 -15 -15z M2470 5499 c0 -5 5 -7 12 -3 7 4 8 3 4 -4 -4 -7 -2
-12 3 -12 6 0 11 7 11 15 0 8 -7 15 -15 15 -8 0 -15 -5 -15 -11z M2445 5471
c-8 -26 4 -71 20 -71 9 0 13 13 12 42 -2 44 -21 62 -32 29z M2580 5455 c0 -8
7 -15 15 -15 8 0 15 7 15 15 0 8 -7 15 -15 15 -8 0 -15 -7 -15 -15z M2600
5345 c0 -8 7 -15 15 -15 8 0 15 7 15 15 0 8 -7 15 -15 15 -8 0 -15 -7 -15 -15z
M2663 5255 c-16 -17 -17 -35 -2 -35 14 0 39 25 39 39 0 15 -23 13 -37 -4z m27
1 c0 -2 -8 -10 -17 -17 -16 -13 -17 -12 -4 4 13 16 21 21 21 13z M2390 5150
c0 -11 7 -20 15 -20 8 0 15 9 15 20 0 11 -7 20 -15 20 -8 0 -15 -9 -15 -20z
M2840 5095 c0 -8 7 -15 15 -15 8 0 15 7 15 15 0 8 -7 15 -15 15 -8 0 -15 -7
-15 -15z M2740 5075 c0 -8 7 -15 15 -15 8 0 15 7 15 15 0 8 -7 15 -15 15 -8 0
-15 -7 -15 -15z M2930 5055 c0 -8 7 -15 15 -15 8 0 15 7 15 15 0 8 -7 15 -15
15 -8 0 -15 -7 -15 -15z M3400 5055 c0 -8 7 -15 15 -15 8 0 15 7 15 15 0 8 -7
15 -15 15 -8 0 -15 -7 -15 -15z M2510 5025 c0 -8 7 -15 15 -15 8 0 15 7 15 15
0 8 -7 15 -15 15 -8 0 -15 -7 -15 -15z M2250 5005 c0 -8 7 -15 15 -15 8 0 15
7 15 15 0 8 -7 15 -15 15 -8 0 -15 -7 -15 -15z M2540 4975 c0 -8 7 -15 15 -15
8 0 15 7 15 15 0 8 -7 15 -15 15 -8 0 -15 -7 -15 -15z M2810 4925 c0 -8 7 -15
15 -15 8 0 15 7 15 15 0 8 -7 15 -15 15 -8 0 -15 -7 -15 -15z M2850 4925 c0
-8 7 -15 15 -15 10 0 15 -10 15 -30 0 -20 5 -30 15 -30 8 0 15 -4 15 -10 0 -5
7 -10 15 -10 8 0 15 7 15 15 0 8 -7 15 -15 15 -9 0 -15 9 -15 25 0 14 -4 25
-10 25 -5 0 -10 7 -10 15 0 8 -9 15 -20 15 -11 0 -20 -7 -20 -15z M2600 4905
c0 -16 6 -25 15 -25 9 0 15 9 15 25 0 16 -6 25 -15 25 -9 0 -15 -9 -15 -25z
M2460 4890 c0 -11 7 -20 15 -20 8 0 15 9 15 20 0 11 -7 20 -15 20 -8 0 -15 -9
-15 -20z M2650 4895 c0 -8 7 -15 15 -15 8 0 15 7 15 15 0 8 -7 15 -15 15 -8 0
-15 -7 -15 -15z M2740 4865 c0 -8 7 -15 15 -15 8 0 15 7 15 15 0 8 -7 15 -15
15 -8 0 -15 -7 -15 -15z M2460 4835 c0 -8 7 -15 15 -15 8 0 15 7 15 15 0 8 -7
15 -15 15 -8 0 -15 -7 -15 -15z M2680 4791 c0 -12 9 -21 26 -25 32 -8 38 -4
29 23 -9 28 -55 29 -55 2z M2820 4795 c0 -8 7 -15 15 -15 8 0 15 7 15 15 0 8
-7 15 -15 15 -8 0 -15 -7 -15 -15z M2480 4765 c0 -8 9 -15 20 -15 11 0 20 7
20 15 0 8 -9 15 -20 15 -11 0 -20 -7 -20 -15z M2896 4758 c-9 -34 -8 -38 9
-38 8 0 15 3 15 8 0 4 3 17 6 30 5 16 2 22 -9 22 -8 0 -17 -10 -21 -22z M3100
4765 c0 -8 -4 -15 -10 -15 -5 0 -10 -7 -10 -15 0 -8 7 -15 15 -15 8 0 15 7 15
15 0 8 5 15 10 15 6 0 10 7 10 15 0 8 -7 15 -15 15 -8 0 -15 -7 -15 -15z
M2990 4750 c0 -11 7 -20 15 -20 8 0 15 9 15 20 0 11 -7 20 -15 20 -8 0 -15 -9
-15 -20z M3160 4685 c0 -8 7 -15 15 -15 8 0 15 7 15 15 0 8 -7 15 -15 15 -8 0
-15 -7 -15 -15z M2670 4655 c0 -8 7 -15 15 -15 8 0 15 7 15 15 0 8 -7 15 -15
15 -8 0 -15 -7 -15 -15z M2590 4615 c0 -8 7 -15 15 -15 8 0 15 7 15 15 0 8 -7
15 -15 15 -8 0 -15 -7 -15 -15z M2700 4615 c0 -8 7 -15 15 -15 8 0 15 7 15 15
0 8 -7 15 -15 15 -8 0 -15 -7 -15 -15z M2780 4595 c0 -8 7 -15 15 -15 8 0 15
7 15 15 0 8 -7 15 -15 15 -8 0 -15 -7 -15 -15z M2993 4583 c-16 -6 -17 -33 -2
-33 5 0 7 5 3 12 -4 7 -3 8 4 4 6 -4 9 -13 5 -21 -3 -9 1 -15 10 -15 21 0 30
16 22 40 -6 20 -18 23 -42 13z M2600 4555 c0 -8 7 -15 15 -15 8 0 15 7 15 15
0 8 -7 15 -15 15 -8 0 -15 -7 -15 -15z M3090 4545 c0 -8 7 -15 15 -15 8 0 15
7 15 15 0 8 -7 15 -15 15 -8 0 -15 -7 -15 -15z M2920 4525 c0 -8 5 -15 10 -15
6 0 10 -7 10 -15 0 -8 7 -15 15 -15 10 0 15 10 15 30 0 25 -4 30 -25 30 -16 0
-25 -6 -25 -15z m40 -5 c0 -5 -7 -7 -15 -4 -8 4 -15 8 -15 10 0 2 7 4 15 4 8
0 15 -4 15 -10z M2788 4523 c-10 -2 -18 -11 -18 -20 0 -11 6 -14 23 -9 12 3
25 6 30 6 4 0 7 7 7 15 0 15 -9 17 -42 8z M2650 4495 c0 -9 9 -15 25 -15 16 0
25 6 25 15 0 9 -9 15 -25 15 -16 0 -25 -6 -25 -15z m37 -1 c-3 -3 -12 -4 -19
-1 -8 3 -5 6 6 6 11 1 17 -2 13 -5z M3073 4485 c-3 -9 -3 -18 0 -22 10 -10 37
6 37 22 0 20 -29 20 -37 0z M2970 4400 c0 -29 4 -40 15 -40 11 0 15 11 15 40
0 29 -4 40 -15 40 -11 0 -15 -11 -15 -40z M3380 4432 c0 -22 27 -62 43 -62 21
0 22 19 1 48 -15 21 -44 31 -44 14z M2830 4415 c0 -8 7 -15 15 -15 8 0 15 7
15 15 0 8 -7 15 -15 15 -8 0 -15 -7 -15 -15z M2780 4405 c0 -8 7 -15 15 -15 8
0 15 7 15 15 0 8 -7 15 -15 15 -8 0 -15 -7 -15 -15z M2890 4360 c0 -11 7 -20
15 -20 8 0 15 9 15 20 0 11 -7 20 -15 20 -8 0 -15 -9 -15 -20z M3300 4330 c0
-11 7 -20 15 -20 8 0 15 9 15 20 0 11 -7 20 -15 20 -8 0 -15 -9 -15 -20z
M3240 4315 c0 -8 7 -15 15 -15 8 0 15 7 15 15 0 8 -7 15 -15 15 -8 0 -15 -7
-15 -15z M2860 4285 c0 -8 7 -15 15 -15 8 0 15 7 15 15 0 8 -7 15 -15 15 -8 0
-15 -7 -15 -15z M2780 4265 c0 -8 7 -15 15 -15 8 0 15 7 15 15 0 8 -7 15 -15
15 -8 0 -15 -7 -15 -15z M3053 4263 c-19 -7 -16 -53 2 -53 8 0 15 7 15 15 0 8
9 15 20 15 11 0 20 7 20 15 0 15 -31 19 -57 8z m44 -9 c-3 -3 -12 -4 -19 -1
-8 3 -5 6 6 6 11 1 17 -2 13 -5z M3250 4225 c0 -8 7 -15 15 -15 8 0 15 7 15
15 0 8 -7 15 -15 15 -8 0 -15 -7 -15 -15z M2950 4195 c0 -8 7 -15 15 -15 8 0
15 7 15 15 0 8 -7 15 -15 15 -8 0 -15 -7 -15 -15z M3183 4200 c-21 -9 -33 -40
-15 -40 19 0 62 26 62 38 0 14 -15 15 -47 2z M3120 4155 c0 -8 7 -15 15 -15 8
0 15 7 15 15 0 8 -7 15 -15 15 -8 0 -15 -7 -15 -15z M3306 4128 c-10 -40 -7
-68 9 -68 9 0 15 9 15 23 0 12 3 32 6 45 5 16 2 22 -9 22 -8 0 -17 -10 -21
-22z M3190 4115 c0 -8 9 -15 20 -15 11 0 20 7 20 15 0 8 -9 15 -20 15 -11 0
-20 -7 -20 -15z M2910 4080 c0 -11 7 -20 15 -20 8 0 15 9 15 20 0 11 -7 20
-15 20 -8 0 -15 -9 -15 -20z M3060 4060 c0 -11 7 -20 15 -20 8 0 15 9 15 20 0
11 -7 20 -15 20 -8 0 -15 -9 -15 -20z M3340 4045 c0 -8 7 -15 15 -15 8 0 15 7
15 15 0 8 -7 15 -15 15 -8 0 -15 -7 -15 -15z M3010 4015 c0 -8 7 -15 15 -15 8
0 15 7 15 15 0 8 -7 15 -15 15 -8 0 -15 -7 -15 -15z M3300 3995 c0 -8 7 -15
15 -15 8 0 15 7 15 15 0 8 -7 15 -15 15 -8 0 -15 -7 -15 -15z M3940 3845 c0
-8 7 -15 15 -15 8 0 15 7 15 15 0 8 -7 15 -15 15 -8 0 -15 -7 -15 -15z M3740
3625 c0 -8 7 -15 15 -15 8 0 15 7 15 15 0 8 -7 15 -15 15 -8 0 -15 -7 -15 -15z
M4100 3525 c0 -8 7 -15 15 -15 8 0 15 7 15 15 0 8 -7 15 -15 15 -8 0 -15 -7
-15 -15z M3480 3325 c0 -8 7 -15 15 -15 8 0 15 7 15 15 0 8 -7 15 -15 15 -8 0
-15 -7 -15 -15z M4250 3265 c0 -8 7 -15 15 -15 8 0 15 7 15 15 0 8 -7 15 -15
15 -8 0 -15 -7 -15 -15z M3550 2955 c0 -8 7 -15 15 -15 8 0 15 7 15 15 0 8 -7
15 -15 15 -8 0 -15 -7 -15 -15z M5300 2295 c0 -8 7 -15 15 -15 8 0 15 7 15 15
0 8 -7 15 -15 15 -8 0 -15 -7 -15 -15z"/>
</g>
</svg>
