<?xml version="1.0" standalone="no"?>
<!DOCTYPE svg PUBLIC "-//W3C//DTD SVG 20010904//EN"
 "http://www.w3.org/TR/2001/REC-SVG-20010904/DTD/svg10.dtd">
<svg version="1.0" xmlns="http://www.w3.org/2000/svg"
 width="1024.000000pt" height="1024.000000pt" viewBox="0 0 1024.000000 1024.000000"
 preserveAspectRatio="xMidYMid meet">
<metadata>
Created by potrace 1.14, written by Peter Selinger 2001-2017
</metadata>
<g transform="translate(0.000000,1024.000000) scale(0.100000,-0.100000)"
fill="#000000" stroke="none">
<path d="M4790 8076 c-278 -33 -572 -107 -722 -182 -37 -19 -76 -34 -87 -34
-33 0 -250 -102 -356 -168 -27 -17 -66 -40 -85 -51 -57 -31 -258 -177 -345
-251 -125 -105 -259 -240 -355 -358 -19 -24 -45 -55 -58 -70 -13 -15 -30 -39
-40 -54 -9 -16 -20 -28 -24 -28 -4 0 -8 -6 -8 -14 0 -8 -4 -16 -8 -18 -26 -10
-152 -221 -242 -403 -192 -390 -277 -710 -301 -1136 -26 -437 33 -835 183
-1244 44 -120 215 -475 229 -475 5 0 9 -5 9 -12 0 -20 167 -259 254 -363 85
-102 266 -283 366 -366 147 -122 189 -153 325 -239 505 -318 1095 -476 1701
-455 147 5 180 8 339 31 181 25 217 33 229 48 6 7 31 16 56 20 125 16 324 79
505 159 559 249 1063 710 1358 1243 176 318 294 667 353 1049 29 187 27 666
-4 865 -83 530 -300 1025 -630 1430 -263 323 -608 599 -977 780 -311 154 -568
234 -915 285 -146 22 -597 28 -750 11z m725 -30 c346 -50 607 -131 920 -286
515 -254 960 -673 1248 -1176 174 -303 303 -674 359 -1034 30 -198 33 -640 4
-825 -137 -889 -596 -1605 -1336 -2090 -262 -171 -652 -331 -880 -361 -25 -4
-50 -13 -56 -20 -12 -15 -34 -19 -229 -49 -363 -57 -826 -29 -1190 70 -368
100 -764 295 -1030 507 -165 131 -355 315 -471 453 -87 104 -254 343 -254 363
0 7 -4 12 -9 12 -14 0 -185 355 -229 475 -74 202 -111 340 -146 546 -73 433
-51 875 64 1284 76 272 230 606 383 835 28 41 54 77 59 78 4 2 8 10 8 18 0 8
4 14 8 14 4 0 15 12 24 28 10 15 27 39 40 54 13 15 39 46 58 70 96 118 230
253 355 358 87 74 288 220 345 251 19 11 58 34 85 51 106 66 323 168 356 168
11 0 50 15 87 34 150 75 444 149 722 182 151 17 554 12 705 -10z M3700 7615
c0 -8 7 -15 15 -15 8 0 15 7 15 15 0 8 -7 15 -15 15 -8 0 -15 -7 -15 -15z
M3470 7315 c0 -8 7 -15 15 -15 8 0 15 7 15 15 0 8 -7 15 -15 15 -8 0 -15 -7
-15 -15z M3420 7235 c0 -8 7 -15 15 -15 8 0 15 7 15 15 0 8 -7 15 -15 15 -8 0
-15 -7 -15 -15z M3350 7095 c0 -8 7 -15 15 -15 8 0 15 7 15 15 0 8 -7 15 -15
15 -8 0 -15 -7 -15 -15z M2897 6503 c-4 -3 -7 -15 -7 -25 0 -28 34 -19 38 10
3 21 -16 31 -31 15z M2874 6425 c-9 -22 4 -65 20 -65 9 0 13 13 13 40 0 41
-21 57 -33 25z M2840 6345 c0 -8 9 -15 20 -15 11 0 20 7 20 15 0 8 -9 15 -20
15 -11 0 -20 -7 -20 -15z M2620 6325 c0 -8 7 -15 15 -15 8 0 15 7 15 15 0 8
-7 15 -15 15 -8 0 -15 -7 -15 -15z M2520 6310 c0 -11 7 -20 15 -20 8 0 15 9
15 20 0 11 -7 20 -15 20 -8 0 -15 -9 -15 -20z M2500 6270 c0 -5 -9 -10 -20
-10 -11 0 -20 -7 -20 -15 0 -21 56 -20 64 1 10 25 7 34 -9 34 -8 0 -15 -4 -15
-10z M3143 6260 c-3 -11 -12 -20 -19 -20 -8 0 -14 -7 -14 -15 0 -18 9 -19 44
-5 19 7 26 17 26 35 0 31 -29 35 -37 5z M3130 6180 c0 -11 -4 -20 -10 -20 -16
0 -11 -27 6 -34 35 -13 44 -7 44 34 0 33 -3 40 -20 40 -13 0 -20 -7 -20 -20z
M2530 6135 c0 -8 7 -15 15 -15 8 0 15 7 15 15 0 8 -7 15 -15 15 -8 0 -15 -7
-15 -15z M2370 6105 c0 -8 7 -15 15 -15 8 0 15 7 15 15 0 8 -7 15 -15 15 -8 0
-15 -7 -15 -15z M2340 6035 c0 -8 7 -15 15 -15 8 0 15 7 15 15 0 8 -7 15 -15
15 -8 0 -15 -7 -15 -15z M2470 5960 c0 -20 5 -30 15 -30 10 0 15 10 15 30 0
20 -5 30 -15 30 -10 0 -15 -10 -15 -30z M3100 5970 c0 -16 7 -20 30 -20 36 0
41 25 8 34 -35 9 -38 8 -38 -14z M3020 5937 c0 -8 -7 -17 -15 -21 -18 -7 -20
-36 -2 -36 21 0 40 17 33 29 -5 7 -1 8 9 4 13 -4 16 -1 13 13 -4 22 -38 32
-38 11z M2710 5885 c0 -8 7 -15 15 -15 8 0 15 7 15 15 0 8 -7 15 -15 15 -8 0
-15 -7 -15 -15z M3080 5880 c0 -11 7 -20 15 -20 8 0 15 9 15 20 0 11 -7 20
-15 20 -8 0 -15 -9 -15 -20z M2620 5855 c0 -10 10 -15 30 -15 20 0 30 5 30 15
0 10 -10 15 -30 15 -20 0 -30 -5 -30 -15z M2760 5815 c0 -8 7 -15 15 -15 8 0
15 7 15 15 0 8 -7 15 -15 15 -8 0 -15 -7 -15 -15z M3080 5785 c0 -8 7 -15 15
-15 8 0 15 7 15 15 0 8 -7 15 -15 15 -8 0 -15 -7 -15 -15z M2265 5739 c-8 -25
-1 -34 20 -26 19 8 20 47 1 47 -8 0 -18 -9 -21 -21z M3134 5728 c3 -13 6 -31
6 -40 0 -10 7 -18 15 -18 8 0 15 8 15 18 0 34 -13 62 -27 62 -11 0 -14 -6 -9
-22z M2360 5720 c0 -11 7 -20 15 -20 8 0 15 9 15 20 0 11 -7 20 -15 20 -8 0
-15 -9 -15 -20z M2390 5675 c0 -8 7 -15 15 -15 8 0 15 7 15 15 0 8 -7 15 -15
15 -8 0 -15 -7 -15 -15z M3135 5630 c-8 -24 1 -40 21 -40 9 0 14 11 14 30 0
35 -25 42 -35 10z M2660 5585 c0 -8 7 -15 15 -15 8 0 15 7 15 15 0 8 -7 15
-15 15 -8 0 -15 -7 -15 -15z M3080 5575 c0 -8 7 -15 15 -15 8 0 15 7 15 15 0
8 -7 15 -15 15 -8 0 -15 -7 -15 -15z M3090 5535 c0 -8 7 -15 15 -15 8 0 15 7
15 15 0 8 -7 15 -15 15 -8 0 -15 -7 -15 -15z M2220 5525 c0 -8 -4 -15 -10 -15
-5 0 -10 -7 -10 -15 0 -8 7 -15 15 -15 8 0 15 7 15 15 0 8 5 15 10 15 6 0 10
7 10 15 0 8 -7 15 -15 15 -8 0 -15 -7 -15 -15z M3050 5525 c0 -8 7 -15 15 -15
8 0 15 7 15 15 0 8 -7 15 -15 15 -8 0 -15 -7 -15 -15z M2310 5505 c0 -8 7 -15
15 -15 8 0 15 7 15 15 0 8 -7 15 -15 15 -8 0 -15 -7 -15 -15z M3135 5499 c-9
-26 -2 -33 24 -24 27 8 28 45 2 45 -11 0 -23 -9 -26 -21z M2923 5423 c-15 -5
-18 -33 -4 -33 21 0 41 13 41 26 0 14 -14 17 -37 7z M2270 5355 c0 -8 7 -15
15 -15 8 0 15 7 15 15 0 8 -7 15 -15 15 -8 0 -15 -7 -15 -15z M2970 5345 c0
-8 7 -15 15 -15 8 0 15 7 15 15 0 8 -7 15 -15 15 -8 0 -15 -7 -15 -15z M3180
5245 c0 -8 7 -15 15 -15 8 0 15 7 15 15 0 8 -7 15 -15 15 -8 0 -15 -7 -15 -15z
M2250 5185 c0 -8 7 -15 15 -15 8 0 15 7 15 15 0 8 -7 15 -15 15 -8 0 -15 -7
-15 -15z M2260 5145 c0 -8 7 -15 15 -15 8 0 15 7 15 15 0 8 -7 15 -15 15 -8 0
-15 -7 -15 -15z M3100 5025 c0 -8 7 -15 15 -15 8 0 15 7 15 15 0 8 -7 15 -15
15 -8 0 -15 -7 -15 -15z M3060 4885 c0 -8 7 -15 15 -15 8 0 15 7 15 15 0 8 -7
15 -15 15 -8 0 -15 -7 -15 -15z M3270 4805 c0 -8 7 -15 15 -15 8 0 15 7 15 15
0 8 -7 15 -15 15 -8 0 -15 -7 -15 -15z M3080 4785 c0 -8 7 -15 15 -15 8 0 15
7 15 15 0 8 -7 15 -15 15 -8 0 -15 -7 -15 -15z M3090 4725 c0 -8 7 -15 15 -15
8 0 15 7 15 15 0 8 -7 15 -15 15 -8 0 -15 -7 -15 -15z M3252 4693 c5 -26 38
-29 38 -4 0 15 -6 21 -21 21 -14 0 -19 -5 -17 -17z M3330 4575 c0 -8 7 -15 15
-15 8 0 15 7 15 15 0 8 -7 15 -15 15 -8 0 -15 -7 -15 -15z M3350 4515 c0 -8 7
-15 15 -15 8 0 15 7 15 15 0 8 -7 15 -15 15 -8 0 -15 -7 -15 -15z M3370 4473
c0 -26 46 -133 58 -133 16 0 9 44 -14 88 -8 15 -14 33 -14 40 0 13 -30 18 -30
5z M2580 4419 c0 -5 5 -7 12 -3 7 4 8 3 4 -4 -4 -7 -2 -12 3 -12 6 0 11 7 11
15 0 8 -7 15 -15 15 -8 0 -15 -5 -15 -11z M2560 4391 c0 -12 6 -21 16 -21 9 0
14 7 12 17 -5 25 -28 28 -28 4z M3440 4283 c0 -24 36 -103 47 -103 7 0 13 6
13 12 0 25 -35 98 -47 98 -7 0 -13 -3 -13 -7z M2440 4115 c0 -8 7 -15 15 -15
8 0 15 7 15 15 0 8 -7 15 -15 15 -8 0 -15 -7 -15 -15z M3500 4123 c0 -22 47
-113 59 -113 15 0 10 29 -14 87 -12 28 -45 47 -45 26z M3430 3995 c0 -8 7 -15
15 -15 8 0 15 7 15 15 0 8 -7 15 -15 15 -8 0 -15 -7 -15 -15z M2590 3975 c0
-8 7 -15 15 -15 8 0 15 7 15 15 0 8 -7 15 -15 15 -8 0 -15 -7 -15 -15z M3570
3960 c0 -11 7 -23 15 -27 21 -8 28 1 20 26 -8 27 -35 27 -35 1z M3420 3915 c0
-8 7 -15 15 -15 8 0 15 7 15 15 0 8 -7 15 -15 15 -8 0 -15 -7 -15 -15z M2590
3909 c0 -6 6 -17 14 -25 17 -17 36 -18 36 -3 0 6 -6 17 -14 25 -17 17 -36 18
-36 3z m31 -16 c13 -16 12 -17 -3 -4 -17 13 -22 21 -14 21 2 0 10 -8 17 -17z
M3060 3875 c0 -8 7 -15 15 -15 8 0 15 7 15 15 0 8 -7 15 -15 15 -8 0 -15 -7
-15 -15z M3644 3818 c3 -13 6 -26 6 -30 0 -5 7 -8 15 -8 17 0 18 4 9 38 -4 12
-13 22 -21 22 -11 0 -14 -6 -9 -22z M3040 3795 c0 -8 7 -15 15 -15 8 0 15 7
15 15 0 8 -7 15 -15 15 -8 0 -15 -7 -15 -15z M3190 3755 c0 -8 5 -15 10 -15 6
0 10 -7 10 -15 0 -17 25 -20 35 -5 3 6 3 19 0 30 -8 24 -55 28 -55 5z m37 -1
c-3 -3 -12 -4 -19 -1 -8 3 -5 6 6 6 11 1 17 -2 13 -5z M3740 3640 c0 -11 7
-23 15 -26 8 -4 15 -12 15 -19 0 -8 6 -20 13 -27 6 -7 18 -25 26 -40 15 -30
41 -38 41 -13 0 8 -9 24 -20 35 -11 11 -20 27 -20 35 0 9 -6 18 -14 21 -8 3
-17 16 -20 30 -8 29 -36 32 -36 4z M3630 3595 c0 -8 7 -15 15 -15 8 0 15 7 15
15 0 8 -7 15 -15 15 -8 0 -15 -7 -15 -15z M3650 3485 c0 -8 7 -15 15 -15 8 0
15 7 15 15 0 8 -7 15 -15 15 -8 0 -15 -7 -15 -15z M3840 3475 c0 -8 5 -15 11
-15 5 0 7 5 3 12 -4 7 -3 8 4 4 7 -4 12 -2 12 3 0 6 -7 11 -15 11 -8 0 -15 -7
-15 -15z M3867 3463 c-13 -12 -7 -33 8 -33 8 0 15 9 15 20 0 20 -11 26 -23 13z
M3750 3415 c0 -8 7 -15 15 -15 8 0 15 7 15 15 0 8 -7 15 -15 15 -8 0 -15 -7
-15 -15z M3900 3389 c0 -20 21 -49 35 -49 18 0 19 14 5 41 -11 20 -40 26 -40
8z M3870 3335 c0 -8 7 -15 15 -15 8 0 15 7 15 15 0 8 -7 15 -15 15 -8 0 -15
-7 -15 -15z M3943 3305 c-3 -9 -3 -18 0 -21 10 -10 47 7 47 22 0 19 -39 18
-47 -1z M3740 3277 c0 -20 30 -57 46 -57 18 0 18 15 -2 45 -17 26 -44 34 -44
12z M3880 3275 c0 -8 7 -15 15 -15 8 0 15 7 15 15 0 8 -7 15 -15 15 -8 0 -15
-7 -15 -15z M3950 3255 c0 -8 7 -15 15 -15 8 0 15 7 15 15 0 8 -7 15 -15 15
-8 0 -15 -7 -15 -15z M4120 3095 c0 -8 7 -15 15 -15 8 0 15 7 15 15 0 8 -7 15
-15 15 -8 0 -15 -7 -15 -15z M5180 2315 c0 -8 7 -15 15 -15 8 0 15 7 15 15 0
8 -7 15 -15 15 -8 0 -15 -7 -15 -15z M5290 2285 c0 -8 9 -15 20 -15 11 0 20 7
20 15 0 8 -9 15 -20 15 -11 0 -20 -7 -20 -15z"/>
</g>
</svg>
