<?xml version="1.0" standalone="no"?>
<!DOCTYPE svg PUBLIC "-//W3C//DTD SVG 20010904//EN"
 "http://www.w3.org/TR/2001/REC-SVG-20010904/DTD/svg10.dtd">
<svg version="1.0" xmlns="http://www.w3.org/2000/svg"
 width="1024.000000pt" height="1024.000000pt" viewBox="0 0 1024.000000 1024.000000"
 preserveAspectRatio="xMidYMid meet">
<metadata>
Created by potrace 1.14, written by Peter Selinger 2001-2017
</metadata>
<g transform="translate(0.000000,1024.000000) scale(0.100000,-0.100000)"
fill="#000000" stroke="none">
<path d="M4845 8079 c-317 -29 -649 -115 -869 -225 -60 -30 -118 -54 -129 -54
-11 0 -63 -23 -116 -52 -93 -50 -341 -203 -351 -217 -3 -4 -21 -18 -40 -31
-126 -86 -383 -327 -480 -449 -19 -24 -43 -51 -52 -60 -10 -8 -18 -21 -18 -28
0 -7 -4 -13 -8 -13 -5 0 -31 -33 -58 -72 -27 -40 -56 -81 -65 -91 -9 -9 -22
-30 -30 -45 -8 -15 -20 -33 -26 -40 -7 -7 -13 -19 -13 -27 0 -7 -3 -15 -8 -17
-11 -5 -78 -121 -93 -162 -7 -20 -17 -36 -21 -36 -4 0 -8 -6 -8 -13 0 -18 -23
-67 -32 -67 -3 0 -14 -24 -23 -52 -9 -29 -23 -66 -30 -83 -32 -70 -44 -102
-51 -130 -4 -16 -11 -36 -17 -43 -23 -29 -84 -282 -122 -507 -23 -139 -37
-491 -25 -635 21 -244 50 -419 95 -585 27 -101 114 -352 146 -423 47 -103 129
-265 144 -282 7 -8 16 -25 19 -37 4 -13 12 -23 17 -23 5 0 9 -5 9 -10 0 -13
107 -176 138 -210 12 -14 22 -28 22 -32 0 -4 10 -18 23 -32 12 -14 33 -40 47
-58 24 -31 57 -69 165 -186 133 -145 398 -355 595 -473 380 -226 727 -342
1223 -408 139 -19 553 -14 717 9 157 22 292 48 300 59 3 4 41 15 85 25 100 22
274 77 289 92 6 6 29 14 50 18 21 4 46 11 55 16 9 5 84 42 166 83 315 155 550
328 803 591 552 574 843 1335 819 2141 -12 381 -70 671 -204 1015 -264 677
-767 1227 -1423 1556 -302 151 -596 241 -942 289 -136 19 -533 27 -673 14z
m653 -34 c562 -77 1084 -304 1504 -654 388 -324 681 -729 861 -1191 145 -372
199 -660 201 -1075 1 -236 -6 -319 -40 -515 -104 -580 -371 -1105 -776 -1526
-253 -263 -488 -436 -803 -591 -82 -41 -158 -79 -167 -84 -9 -5 -35 -12 -58
-15 -22 -4 -40 -10 -40 -14 0 -10 -178 -73 -215 -76 -37 -3 -159 -37 -163 -45
-2 -4 -12 -5 -22 -2 -11 3 -20 1 -20 -5 0 -11 -67 -25 -260 -52 -164 -23 -539
-28 -677 -9 -496 66 -843 182 -1223 408 -197 118 -462 328 -595 473 -108 117
-141 155 -165 186 -14 18 -35 44 -47 58 -13 14 -23 28 -23 32 0 4 -10 18 -22
32 -31 34 -138 197 -138 210 0 5 -4 10 -9 10 -5 0 -13 10 -17 23 -3 12 -12 29
-19 37 -15 17 -97 179 -144 282 -32 71 -119 322 -146 423 -34 124 -59 259 -81
440 -20 155 -21 574 -3 586 7 4 9 18 5 33 -6 25 4 101 45 316 18 98 57 231 58
203 1 -18 31 -16 31 2 0 8 -7 15 -15 15 -20 0 -19 28 4 73 10 20 22 49 26 64
6 27 19 60 50 128 7 17 21 54 30 83 9 28 20 52 23 52 9 0 32 49 32 67 0 7 4
13 8 13 4 0 14 16 21 36 15 41 82 157 93 162 5 2 8 10 8 17 0 8 6 20 13 27 6
7 18 25 26 40 8 15 21 36 30 45 9 10 38 51 65 91 27 39 53 72 58 72 4 0 8 6 8
13 0 7 8 20 18 28 9 9 33 36 52 60 97 122 354 363 480 449 19 13 37 27 40 31
10 14 258 167 351 217 53 29 103 50 111 47 9 -4 44 11 79 31 137 80 366 157
619 208 109 22 178 31 365 50 84 9 465 -4 573 -19z M2980 6795 c0 -8 7 -15 15
-15 8 0 15 7 15 15 0 8 -7 15 -15 15 -8 0 -15 -7 -15 -15z M2620 6505 c0 -8 7
-15 15 -15 8 0 15 7 15 15 0 8 -7 15 -15 15 -8 0 -15 -7 -15 -15z M2560 6495
c0 -8 7 -15 15 -15 8 0 15 7 15 15 0 8 -7 15 -15 15 -8 0 -15 -7 -15 -15z
M2680 6485 c0 -8 7 -15 15 -15 8 0 15 7 15 15 0 8 -7 15 -15 15 -8 0 -15 -7
-15 -15z M2510 6445 c0 -8 7 -15 15 -15 8 0 15 7 15 15 0 8 -7 15 -15 15 -8 0
-15 -7 -15 -15z M3030 6355 c0 -8 7 -15 15 -15 8 0 15 7 15 15 0 8 -7 15 -15
15 -8 0 -15 -7 -15 -15z M3001 6180 c-1 -47 2 -60 14 -60 10 0 15 10 15 29 0
16 3 43 6 60 6 26 4 31 -13 31 -18 0 -21 -7 -22 -60z m16 -32 c-3 -7 -5 -2 -5
12 0 14 2 19 5 13 2 -7 2 -19 0 -25z M2860 6205 c0 -8 7 -15 15 -15 8 0 15 7
15 15 0 8 -7 15 -15 15 -8 0 -15 -7 -15 -15z M2990 6035 c0 -16 6 -25 15 -25
9 0 15 9 15 25 0 16 -6 25 -15 25 -9 0 -15 -9 -15 -25z M2820 5865 c0 -8 7
-15 15 -15 8 0 15 7 15 15 0 8 -7 15 -15 15 -8 0 -15 -7 -15 -15z M2750 5785
c0 -8 7 -15 15 -15 8 0 15 7 15 15 0 8 -7 15 -15 15 -8 0 -15 -7 -15 -15z
M2980 5755 c0 -8 7 -15 15 -15 8 0 15 7 15 15 0 8 -7 15 -15 15 -8 0 -15 -7
-15 -15z M2730 5745 c0 -8 7 -15 15 -15 8 0 15 7 15 15 0 8 -7 15 -15 15 -8 0
-15 -7 -15 -15z M2860 5695 c0 -8 7 -15 15 -15 8 0 15 7 15 15 0 8 -7 15 -15
15 -8 0 -15 -7 -15 -15z M2983 5609 c4 -13 7 -30 7 -36 0 -7 7 -13 16 -13 24
0 15 64 -10 68 -15 3 -18 0 -13 -19z M2890 5585 c0 -8 9 -15 20 -15 11 0 20 7
20 15 0 8 -9 15 -20 15 -11 0 -20 -7 -20 -15z M2320 5575 c0 -8 7 -15 15 -15
8 0 15 7 15 15 0 8 -7 15 -15 15 -8 0 -15 -7 -15 -15z M2918 5513 c-35 -5 -38
-33 -4 -33 13 0 31 3 40 6 19 7 22 35 4 33 -7 -1 -25 -4 -40 -6z M2996 5498
c-9 -35 -8 -38 14 -38 16 0 20 7 20 30 0 36 -25 41 -34 8z M2680 5485 c0 -8 7
-15 15 -15 8 0 15 7 15 15 0 8 -7 15 -15 15 -8 0 -15 -7 -15 -15z M2830 5455
c0 -8 7 -15 15 -15 8 0 15 7 15 15 0 8 -7 15 -15 15 -8 0 -15 -7 -15 -15z
M2790 5425 c0 -8 7 -15 15 -15 8 0 15 7 15 15 0 8 -7 15 -15 15 -8 0 -15 -7
-15 -15z M2950 5415 c0 -8 7 -15 15 -15 8 0 15 7 15 15 0 8 -7 15 -15 15 -8 0
-15 -7 -15 -15z M2200 5340 c0 -20 5 -30 15 -30 10 0 15 10 15 30 0 20 -5 30
-15 30 -10 0 -15 -10 -15 -30z M3004 5338 c4 -13 12 -53 18 -90 7 -46 15 -68
24 -68 17 0 17 5 2 103 -10 66 -14 77 -31 77 -15 0 -18 -5 -13 -22z m33 -80
c-3 -8 -6 -5 -6 6 -1 11 2 17 5 13 3 -3 4 -12 1 -19z M3040 5154 c0 -47 25
-144 37 -144 16 0 16 13 1 95 -8 40 -18 65 -25 65 -7 0 -13 -7 -13 -16z M2220
5025 c0 -8 9 -15 20 -15 11 0 20 7 20 15 0 8 -9 15 -20 15 -11 0 -20 -7 -20
-15z M3074 4963 c14 -96 19 -113 32 -113 17 0 18 28 2 97 -8 32 -18 53 -26 53
-11 0 -13 -10 -8 -37z m13 -5 c-3 -8 -6 -5 -6 6 -1 11 2 17 5 13 3 -3 4 -12 1
-19z m20 -80 c-3 -8 -6 -5 -6 6 -1 11 2 17 5 13 3 -3 4 -12 1 -19z M2230 4945
c0 -8 7 -15 15 -15 8 0 15 7 15 15 0 8 -7 15 -15 15 -8 0 -15 -7 -15 -15z
M2260 4825 c0 -16 6 -25 15 -25 9 0 15 9 15 25 0 16 -6 25 -15 25 -9 0 -15 -9
-15 -25z M3115 4778 c3 -13 9 -33 12 -45 3 -13 12 -23 20 -23 12 0 14 8 8 37
-9 47 -12 53 -32 53 -11 0 -14 -6 -8 -22z M2310 4755 c0 -8 7 -15 15 -15 8 0
15 7 15 15 0 8 -7 15 -15 15 -8 0 -15 -7 -15 -15z M2360 4715 c0 -8 7 -15 15
-15 8 0 15 7 15 15 0 8 -7 15 -15 15 -8 0 -15 -7 -15 -15z M3154 4643 c3 -27
11 -49 16 -51 6 -2 10 -11 10 -20 0 -32 45 -142 57 -142 7 0 13 3 13 7 0 18
-45 148 -52 151 -4 2 -10 26 -14 53 -5 34 -11 49 -22 49 -12 0 -13 -9 -8 -47z
M2470 4515 c0 -8 7 -15 15 -15 8 0 15 7 15 15 0 8 -7 15 -15 15 -8 0 -15 -7
-15 -15z M3240 4390 c0 -11 7 -23 15 -27 21 -8 28 1 20 26 -8 27 -35 27 -35 1z
M2520 4375 c0 -8 7 -15 15 -15 8 0 15 7 15 15 0 8 -7 15 -15 15 -8 0 -15 -7
-15 -15z M3260 4340 c0 -24 34 -90 46 -90 18 0 18 5 -2 57 -9 24 -23 43 -30
43 -8 0 -14 -4 -14 -10z M3320 4195 c0 -8 7 -15 15 -15 8 0 15 7 15 15 0 8 -7
15 -15 15 -8 0 -15 -7 -15 -15z M2570 4175 c0 -8 7 -15 15 -15 8 0 15 7 15 15
0 8 -7 15 -15 15 -8 0 -15 -7 -15 -15z M3340 4135 c0 -8 7 -15 15 -15 8 0 15
7 15 15 0 8 -7 15 -15 15 -8 0 -15 -7 -15 -15z M3360 4103 c0 -22 26 -73 37
-73 16 0 16 8 2 49 -6 17 -17 31 -25 31 -8 0 -14 -3 -14 -7z M2470 4030 c0
-11 7 -20 15 -20 8 0 15 9 15 20 0 11 -7 20 -15 20 -8 0 -15 -9 -15 -20z
M3400 4014 c0 -4 10 -33 23 -65 15 -41 27 -59 40 -59 9 0 17 6 17 12 0 24 -53
118 -67 118 -7 0 -13 -3 -13 -6z M2640 3952 c0 -5 6 -30 14 -55 l14 -47 -25 6
c-21 6 -24 3 -21 -12 3 -20 48 -33 48 -15 0 6 7 11 16 11 8 0 14 6 12 13 -2 6
-10 33 -17 60 -8 27 -19 47 -27 47 -8 0 -14 -4 -14 -8z M2582 3904 c2 -11 11
-20 22 -22 13 -3 17 1 14 14 -2 11 -11 20 -22 22 -13 3 -17 -1 -14 -14z M3100
3825 c0 -8 7 -15 15 -15 8 0 15 7 15 15 0 8 -7 15 -15 15 -8 0 -15 -7 -15 -15z
M3080 3705 c0 -9 9 -15 25 -15 16 0 25 6 25 15 0 9 -9 15 -25 15 -16 0 -25 -6
-25 -15z m37 -1 c-3 -3 -12 -4 -19 -1 -8 3 -5 6 6 6 11 1 17 -2 13 -5z M3620
3588 c0 -8 9 -20 20 -28 11 -8 20 -20 20 -27 0 -7 7 -13 15 -13 8 0 15 7 15
15 0 8 -4 15 -9 15 -5 0 -11 10 -13 23 -3 24 -48 39 -48 15z M3242 3543 c2
-10 13 -19 26 -21 17 -3 22 2 22 17 0 16 -6 21 -26 21 -19 0 -25 -5 -22 -17z
M3610 3515 c0 -8 7 -15 15 -15 8 0 15 7 15 15 0 8 -7 15 -15 15 -8 0 -15 -7
-15 -15z M3700 3486 c0 -8 7 -21 15 -30 8 -8 15 -19 15 -25 0 -6 5 -11 10 -11
6 0 10 -7 10 -15 0 -9 6 -18 14 -21 8 -3 17 -16 20 -30 4 -13 13 -24 21 -24
19 0 19 24 0 44 -8 8 -15 20 -15 26 0 6 -7 13 -15 16 -8 4 -15 12 -15 20 0 8
-4 14 -9 14 -5 0 -12 11 -15 25 -7 26 -36 35 -36 11z M3620 3405 c0 -8 7 -15
15 -15 8 0 15 7 15 15 0 8 -7 15 -15 15 -8 0 -15 -7 -15 -15z M3700 3285 c0
-8 7 -15 15 -15 8 0 15 7 15 15 0 8 -7 15 -15 15 -8 0 -15 -7 -15 -15z M3803
3225 c-3 -9 -3 -18 0 -22 10 -10 37 6 37 22 0 20 -29 20 -37 0z M3960 3135 c0
-8 7 -15 15 -15 8 0 15 7 15 15 0 8 -7 15 -15 15 -8 0 -15 -7 -15 -15z M3730
3075 c0 -8 7 -15 15 -15 8 0 15 7 15 15 0 8 -7 15 -15 15 -8 0 -15 -7 -15 -15z
M4190 2895 c0 -8 7 -15 15 -15 8 0 15 7 15 15 0 8 -7 15 -15 15 -8 0 -15 -7
-15 -15z M4230 2855 c0 -8 7 -15 15 -15 8 0 15 7 15 15 0 8 -7 15 -15 15 -8 0
-15 -7 -15 -15z M4700 2505 c0 -9 9 -15 25 -15 16 0 25 6 25 15 0 9 -9 15 -25
15 -16 0 -25 -6 -25 -15z m37 -1 c-3 -3 -12 -4 -19 -1 -8 3 -5 6 6 6 11 1 17
-2 13 -5z M5510 2245 c0 -8 9 -15 20 -15 11 0 20 7 20 15 0 8 -9 15 -20 15
-11 0 -20 -7 -20 -15z"/>
</g>
</svg>
