<?xml version="1.0" standalone="no"?>
<!DOCTYPE svg PUBLIC "-//W3C//DTD SVG 20010904//EN"
 "http://www.w3.org/TR/2001/REC-SVG-20010904/DTD/svg10.dtd">
<svg version="1.0" xmlns="http://www.w3.org/2000/svg"
 width="1024.000000pt" height="1024.000000pt" viewBox="0 0 1024.000000 1024.000000"
 preserveAspectRatio="xMidYMid meet">
<metadata>
Created by potrace 1.14, written by Peter Selinger 2001-2017
</metadata>
<g transform="translate(0.000000,1024.000000) scale(0.100000,-0.100000)"
fill="#000000" stroke="none">
<path d="M4860 8079 c-357 -31 -784 -150 -977 -272 -24 -15 -52 -27 -64 -27
-23 0 -192 -81 -209 -101 -3 -3 -29 -19 -57 -35 -29 -16 -53 -32 -53 -36 0 -5
-5 -8 -11 -8 -15 0 -101 -61 -117 -82 -7 -10 -19 -18 -26 -18 -7 0 -21 -8 -32
-18 -10 -9 -41 -35 -69 -57 -27 -22 -69 -58 -93 -80 -24 -22 -50 -43 -57 -47
-10 -6 -114 -117 -271 -289 -8 -9 -14 -19 -14 -22 0 -4 -8 -16 -17 -27 -37
-40 -58 -67 -68 -82 -5 -9 -32 -47 -59 -84 -26 -38 -51 -75 -54 -84 -3 -8 -9
-17 -13 -20 -4 -3 -19 -27 -34 -55 -16 -27 -42 -75 -58 -105 -49 -88 -98 -191
-119 -250 -11 -30 -26 -69 -34 -87 -8 -17 -14 -37 -14 -45 0 -8 -4 -18 -9 -23
-9 -11 -48 -128 -79 -240 -31 -109 -49 -209 -82 -445 -14 -103 -15 -481 0
-620 21 -213 96 -541 161 -711 16 -42 29 -79 29 -82 0 -32 219 -462 246 -483
8 -6 14 -19 14 -28 0 -9 7 -19 15 -22 8 -4 15 -12 15 -20 0 -8 5 -14 10 -14 6
0 10 -5 10 -10 0 -11 34 -63 58 -89 8 -8 25 -31 38 -53 13 -21 29 -38 34 -38
6 0 10 -4 10 -10 0 -5 10 -22 23 -37 214 -254 462 -469 727 -630 91 -55 335
-182 385 -201 17 -6 68 -25 115 -42 259 -97 424 -137 720 -175 130 -17 531
-20 645 -5 186 24 226 30 308 47 56 11 87 21 87 30 0 8 13 13 38 13 20 1 55 7
77 15 22 8 52 15 66 15 31 0 212 68 217 81 2 5 14 9 27 9 28 0 224 88 344 155
399 221 787 592 1048 1000 216 339 372 777 428 1204 56 423 7 939 -123 1321
-163 475 -397 849 -743 1186 -169 165 -286 258 -477 381 -293 187 -686 345
-1015 408 -231 44 -620 64 -847 44z m626 -34 c344 -43 670 -144 978 -303 269
-138 485 -294 700 -502 359 -348 592 -717 758 -1200 129 -378 176 -871 123
-1286 -55 -419 -212 -862 -428 -1199 -261 -408 -649 -779 -1048 -1000 -120
-67 -316 -155 -344 -155 -13 0 -25 -4 -27 -9 -5 -13 -186 -81 -217 -81 -14 0
-44 -7 -66 -15 -22 -8 -57 -14 -77 -15 -29 0 -38 -4 -39 -17 0 -11 -3 -13 -6
-5 -7 17 -43 15 -43 -2 0 -18 -54 -28 -345 -66 -112 -15 -476 -12 -605 5 -296
38 -461 78 -720 175 -47 17 -98 36 -115 42 -50 19 -294 146 -385 201 -265 161
-513 376 -727 630 -13 15 -23 32 -23 37 0 6 -4 10 -10 10 -5 0 -21 17 -34 38
-13 22 -30 45 -38 53 -24 26 -58 78 -58 89 0 5 -4 10 -10 10 -5 0 -10 6 -10
14 0 8 -7 16 -15 20 -8 3 -15 13 -15 22 0 9 -6 22 -14 28 -27 21 -246 451
-246 483 0 3 -13 40 -29 82 -66 171 -141 501 -161 711 -14 142 -14 479 0 580
33 236 51 336 82 445 31 112 70 229 79 240 5 5 9 15 9 23 0 8 6 28 14 45 8 18
23 57 34 87 21 59 70 162 119 250 16 30 42 78 58 105 15 28 30 52 34 55 4 3
10 12 13 20 3 9 28 46 54 84 27 37 54 75 59 84 10 15 31 42 68 82 9 11 17 23
17 27 0 3 6 13 14 22 157 172 261 283 271 289 7 4 33 25 57 47 24 22 66 58 93
80 28 22 59 48 69 57 11 10 25 18 32 18 7 0 19 8 26 18 16 21 102 82 117 82 6
0 11 3 11 8 0 4 24 20 53 36 28 16 54 32 57 35 17 20 174 95 194 93 11 0 45
14 76 33 211 128 619 242 980 274 140 13 455 5 606 -14z M2980 6805 c0 -8 7
-15 15 -15 8 0 15 7 15 15 0 8 -7 15 -15 15 -8 0 -15 -7 -15 -15z M2850 6590
c0 -11 7 -20 15 -20 8 0 15 9 15 20 0 11 -7 20 -15 20 -8 0 -15 -9 -15 -20z
M2620 6515 c0 -8 7 -15 15 -15 8 0 15 7 15 15 0 8 -7 15 -15 15 -8 0 -15 -7
-15 -15z M2890 6475 c0 -8 7 -15 15 -15 8 0 15 7 15 15 0 8 -7 15 -15 15 -8 0
-15 -7 -15 -15z M2970 6290 c0 -11 7 -20 15 -20 8 0 15 9 15 20 0 11 -7 20
-15 20 -8 0 -15 -9 -15 -20z M2920 6270 c0 -11 7 -20 15 -20 8 0 15 9 15 20 0
11 -7 20 -15 20 -8 0 -15 -9 -15 -20z M2950 6155 c0 -24 5 -35 15 -35 10 0 15
11 15 35 0 24 -5 35 -15 35 -10 0 -15 -11 -15 -35z m17 -7 c-3 -8 -6 -5 -6 6
-1 11 2 17 5 13 3 -3 4 -12 1 -19z M2940 6050 c0 -11 7 -20 15 -20 8 0 15 9
15 20 0 11 -7 20 -15 20 -8 0 -15 -9 -15 -20z M2930 5865 c0 -69 3 -85 15 -85
12 0 15 16 15 85 0 69 -3 85 -15 85 -12 0 -15 -16 -15 -85z m17 -32 c-2 -21
-4 -6 -4 32 0 39 2 55 4 38 2 -18 2 -50 0 -70z M2800 5755 c0 -8 7 -15 15 -15
8 0 15 7 15 15 0 8 -7 15 -15 15 -8 0 -15 -7 -15 -15z M2923 5678 c2 -69 5
-83 20 -86 14 -3 17 4 17 36 0 71 -12 132 -26 132 -11 0 -13 -19 -11 -82z m14
30 c-3 -7 -5 -2 -5 12 0 14 2 19 5 13 2 -7 2 -19 0 -25z m10 -60 c-3 -7 -5 -2
-5 12 0 14 2 19 5 13 2 -7 2 -19 0 -25z M2750 5725 c0 -8 7 -15 15 -15 8 0 15
7 15 15 0 8 -7 15 -15 15 -8 0 -15 -7 -15 -15z M2870 5575 c0 -8 7 -15 15 -15
8 0 15 7 15 15 0 8 -7 15 -15 15 -8 0 -15 -7 -15 -15z M2940 5481 c0 -88 13
-161 28 -161 12 0 14 11 8 61 -3 34 -6 79 -6 100 0 28 -4 39 -15 39 -11 0 -15
-11 -15 -39z m17 -43 c-2 -13 -4 -3 -4 22 0 25 2 35 4 23 2 -13 2 -33 0 -45z
m10 -90 c-3 -7 -5 -2 -5 12 0 14 2 19 5 13 2 -7 2 -19 0 -25z M2840 5485 c0
-8 7 -15 15 -15 8 0 15 7 15 15 0 8 -7 15 -15 15 -8 0 -15 -7 -15 -15z M2270
5325 c0 -8 7 -15 15 -15 8 0 15 7 15 15 0 8 -7 15 -15 15 -8 0 -15 -7 -15 -15z
M2960 5275 c0 -16 6 -25 15 -25 9 0 15 9 15 25 0 16 -6 25 -15 25 -9 0 -15 -9
-15 -25z M2970 5215 c0 -16 6 -25 15 -25 9 0 15 9 15 25 0 16 -6 25 -15 25 -9
0 -15 -9 -15 -25z M2200 5185 c0 -8 7 -15 15 -15 8 0 15 7 15 15 0 8 -7 15
-15 15 -8 0 -15 -7 -15 -15z M2980 5150 c0 -11 7 -20 15 -20 8 0 15 9 15 20 0
11 -7 20 -15 20 -8 0 -15 -9 -15 -20z M2990 5085 c0 -24 5 -35 15 -35 10 0 15
11 15 35 0 24 -5 35 -15 35 -10 0 -15 -11 -15 -35z m17 -7 c-3 -8 -6 -5 -6 6
-1 11 2 17 5 13 3 -3 4 -12 1 -19z M3000 5026 c0 -10 60 -266 66 -280 10 -26
37 -20 31 7 -52 213 -71 277 -83 277 -8 0 -14 -2 -14 -4z M2254 4808 c3 -13 6
-31 6 -40 0 -10 7 -18 15 -18 16 0 20 35 9 64 -10 26 -37 20 -30 -6z M2310
4725 c0 -8 7 -15 15 -15 8 0 15 7 15 15 0 8 -7 15 -15 15 -8 0 -15 -7 -15 -15z
M3084 4678 c3 -13 6 -29 6 -35 0 -7 7 -13 15 -13 16 0 18 12 9 48 -4 12 -13
22 -21 22 -11 0 -14 -6 -9 -22z M3110 4603 c0 -26 46 -143 57 -143 17 0 17 2
-9 82 -12 38 -28 68 -35 68 -7 0 -13 -3 -13 -7z M3174 4418 c3 -13 6 -26 6
-30 0 -5 7 -8 15 -8 17 0 18 4 9 38 -4 12 -13 22 -21 22 -11 0 -14 -6 -9 -22z
M3220 4275 c0 -8 4 -15 9 -15 5 0 11 -13 14 -29 10 -50 69 -171 83 -171 21 0
18 13 -21 94 -19 41 -35 81 -35 90 0 9 -4 16 -10 16 -5 0 -10 7 -10 15 0 8 -7
15 -15 15 -8 0 -15 -7 -15 -15z M2700 4075 c0 -8 7 -15 15 -15 8 0 15 7 15 15
0 8 -7 15 -15 15 -8 0 -15 -7 -15 -15z M2470 4025 c0 -16 6 -25 15 -25 9 0 15
9 15 25 0 16 -6 25 -15 25 -9 0 -15 -9 -15 -25z M2590 3985 c0 -8 7 -15 15
-15 8 0 15 7 15 15 0 8 -7 15 -15 15 -8 0 -15 -7 -15 -15z M3360 3971 c0 -21
13 -41 26 -41 15 0 17 10 8 34 -7 17 -34 22 -34 7z M2580 3905 c0 -8 7 -15 15
-15 8 0 15 7 15 15 0 8 -7 15 -15 15 -8 0 -15 -7 -15 -15z M2660 3906 c0 -8 5
-27 10 -42 13 -34 6 -42 -18 -21 -10 10 -24 17 -30 17 -18 0 -14 -25 6 -43 20
-19 52 -23 52 -7 0 6 7 10 15 10 18 0 18 0 4 56 -11 41 -39 63 -39 30z M3390
3913 c0 -22 26 -73 37 -73 18 0 17 48 -1 66 -15 15 -36 19 -36 7z M3360 3825
c0 -8 7 -15 15 -15 8 0 15 7 15 15 0 8 -7 15 -15 15 -8 0 -15 -7 -15 -15z
M3110 3795 c0 -8 7 -15 15 -15 8 0 15 7 15 15 0 8 -7 15 -15 15 -8 0 -15 -7
-15 -15z M3150 3745 c0 -8 7 -15 15 -15 8 0 15 7 15 15 0 8 -7 15 -15 15 -8 0
-15 -7 -15 -15z M3090 3685 c0 -8 7 -15 15 -15 8 0 15 7 15 15 0 8 -7 15 -15
15 -8 0 -15 -7 -15 -15z M3190 3675 c0 -8 7 -15 15 -15 8 0 15 7 15 15 0 8 -7
15 -15 15 -8 0 -15 -7 -15 -15z M3370 3635 c0 -8 7 -15 15 -15 8 0 15 7 15 15
0 8 -7 15 -15 15 -8 0 -15 -7 -15 -15z M3290 3605 c0 -8 7 -15 15 -15 8 0 15
7 15 15 0 8 -7 15 -15 15 -8 0 -15 -7 -15 -15z M3230 3595 c0 -8 7 -15 15 -15
8 0 15 7 15 15 0 8 -7 15 -15 15 -8 0 -15 -7 -15 -15z M3260 3535 c0 -8 7 -15
15 -15 8 0 15 7 15 15 0 8 -7 15 -15 15 -8 0 -15 -7 -15 -15z M3610 3516 c0
-8 4 -16 8 -18 5 -1 26 -27 46 -55 21 -29 41 -53 44 -53 4 0 13 -13 20 -30 8
-16 20 -30 28 -30 21 0 17 38 -6 52 -11 7 -20 18 -20 24 0 6 -8 21 -19 33 -10
12 -29 37 -42 56 -24 35 -59 47 -59 21z M3610 3405 c0 -8 7 -15 15 -15 8 0 15
7 15 15 0 8 -7 15 -15 15 -8 0 -15 -7 -15 -15z M3710 3285 c0 -8 7 -15 15 -15
8 0 15 7 15 15 0 8 -7 15 -15 15 -8 0 -15 -7 -15 -15z M3820 3225 c0 -20 4
-26 18 -23 9 2 17 12 17 23 0 11 -8 21 -17 23 -14 3 -18 -3 -18 -23z M4000
3035 c0 -8 7 -15 15 -15 8 0 15 7 15 15 0 8 -7 15 -15 15 -8 0 -15 -7 -15 -15z
M3880 2785 c0 -8 7 -15 15 -15 8 0 15 7 15 15 0 8 -7 15 -15 15 -8 0 -15 -7
-15 -15z M4332 2728 c2 -15 11 -24 26 -26 24 -4 30 16 10 36 -20 20 -40 14
-36 -10z M4630 2526 c0 -12 28 -25 53 -26 18 0 5 28 -15 34 -33 8 -38 8 -38
-8z M4700 2495 c0 -8 7 -15 15 -15 8 0 15 7 15 15 0 8 -7 15 -15 15 -8 0 -15
-7 -15 -15z M5080 2335 c0 -8 7 -15 15 -15 8 0 15 7 15 15 0 8 -7 15 -15 15
-8 0 -15 -7 -15 -15z M5140 2315 c0 -8 7 -15 15 -15 8 0 15 7 15 15 0 8 -7 15
-15 15 -8 0 -15 -7 -15 -15z M5210 2295 c0 -8 9 -15 20 -15 11 0 20 7 20 15 0
8 -9 15 -20 15 -11 0 -20 -7 -20 -15z M5300 2275 c0 -8 7 -15 15 -15 8 0 15 7
15 15 0 8 -7 15 -15 15 -8 0 -15 -7 -15 -15z M5470 2255 c0 -10 10 -15 30 -15
20 0 30 5 30 15 0 10 -10 15 -30 15 -20 0 -30 -5 -30 -15z"/>
</g>
</svg>
