<?xml version="1.0" standalone="no"?>
<!DOCTYPE svg PUBLIC "-//W3C//DTD SVG 20010904//EN"
 "http://www.w3.org/TR/2001/REC-SVG-20010904/DTD/svg10.dtd">
<svg version="1.0" xmlns="http://www.w3.org/2000/svg"
 width="1024.000000pt" height="1024.000000pt" viewBox="0 0 1024.000000 1024.000000"
 preserveAspectRatio="xMidYMid meet">
<metadata>
Created by potrace 1.14, written by Peter Selinger 2001-2017
</metadata>
<g transform="translate(0.000000,1024.000000) scale(0.100000,-0.100000)"
fill="#000000" stroke="none">
<path d="M4860 8074 c-161 -19 -224 -29 -350 -54 -290 -58 -620 -183 -791
-300 -32 -22 -70 -40 -84 -40 -14 0 -25 -4 -25 -10 0 -5 -6 -10 -14 -10 -8 0
-21 -6 -28 -12 -7 -7 -25 -19 -40 -27 -16 -8 -28 -18 -28 -23 0 -4 -5 -8 -10
-8 -12 0 -73 -41 -78 -52 -2 -5 -9 -8 -16 -8 -6 0 -19 -8 -28 -17 -9 -10 -29
-27 -43 -38 -15 -11 -33 -26 -40 -32 -8 -7 -18 -13 -24 -13 -5 0 -19 -13 -31
-30 -12 -16 -27 -30 -33 -30 -7 0 -23 -11 -37 -24 -156 -147 -230 -221 -230
-229 0 -5 -16 -23 -35 -40 -19 -17 -35 -35 -35 -40 0 -5 -11 -18 -25 -29 -14
-11 -25 -25 -25 -33 0 -7 -13 -27 -30 -45 -16 -18 -44 -54 -62 -81 -17 -27
-35 -49 -40 -49 -4 0 -8 -7 -8 -15 0 -8 -4 -15 -10 -15 -5 0 -10 -7 -10 -15 0
-8 -4 -15 -10 -15 -5 0 -10 -7 -10 -15 0 -8 -4 -15 -10 -15 -5 0 -10 -6 -10
-12 0 -12 -41 -78 -75 -123 -9 -11 -21 -37 -27 -57 -6 -21 -14 -38 -18 -38 -9
0 -74 -141 -91 -197 -6 -24 -16 -43 -21 -43 -4 0 -8 -10 -8 -23 0 -13 -9 -41
-19 -63 -43 -88 -111 -319 -111 -375 0 -16 -4 -29 -8 -29 -11 0 -32 -145 -32
-212 0 -27 -4 -48 -8 -48 -5 0 -15 -73 -22 -161 -23 -288 9 -644 86 -954 30
-119 96 -318 131 -395 60 -130 145 -305 151 -310 4 -3 20 -29 36 -59 29 -57
104 -164 118 -169 4 -2 8 -11 8 -20 0 -10 11 -29 25 -44 14 -15 25 -30 25 -34
0 -3 19 -29 43 -57 23 -29 51 -63 62 -76 11 -14 44 -48 73 -76 28 -28 52 -56
52 -61 0 -15 219 -220 270 -253 14 -8 31 -24 38 -33 7 -10 18 -18 23 -18 5 0
22 -11 37 -25 15 -14 32 -25 38 -25 7 0 14 -7 18 -15 3 -8 10 -15 16 -15 6 0
20 -9 32 -20 11 -10 35 -26 52 -35 38 -19 69 -38 76 -46 6 -7 39 -25 145 -79
44 -22 91 -47 105 -54 102 -57 344 -147 514 -190 136 -35 322 -73 366 -73 14
-1 81 -8 150 -18 96 -12 164 -15 290 -10 276 10 319 14 498 45 96 16 178 30
183 30 5 0 9 6 9 14 0 10 16 17 48 21 26 4 72 15 102 25 30 10 71 20 90 23 19
3 65 19 103 36 37 17 76 31 87 31 10 0 25 6 32 13 7 7 39 20 71 30 32 10 61
25 64 33 3 8 11 14 18 14 25 0 216 107 337 188 408 275 789 713 988 1136 161
341 254 670 290 1025 13 132 13 449 0 582 -40 398 -135 721 -320 1084 -338
664 -953 1192 -1664 1430 -337 112 -540 146 -921 150 -148 2 -286 1 -305 -1z
m693 -43 c319 -48 663 -161 947 -313 882 -471 1469 -1358 1550 -2343 44 -542
-49 -1041 -290 -1551 -199 -423 -580 -861 -988 -1136 -121 -81 -312 -188 -337
-188 -7 0 -15 -6 -18 -14 -3 -8 -32 -23 -64 -33 -32 -10 -64 -23 -71 -30 -7
-7 -22 -13 -32 -13 -11 0 -50 -14 -87 -31 -38 -17 -84 -33 -103 -36 -19 -3
-60 -13 -90 -23 -30 -10 -76 -21 -102 -25 -30 -4 -48 -11 -48 -19 0 -13 -77
-32 -88 -21 -3 3 2 5 11 5 9 0 17 7 17 15 0 17 -4 18 -37 9 -24 -7 -31 -30
-12 -36 23 -8 -280 -49 -386 -53 -60 -2 -157 -7 -215 -10 -73 -5 -142 -2 -225
10 -66 9 -156 20 -200 25 -244 29 -651 153 -835 256 -14 7 -61 32 -105 54
-106 54 -139 72 -145 79 -7 8 -38 27 -76 46 -17 9 -41 25 -52 35 -12 11 -26
20 -32 20 -6 0 -13 7 -16 15 -4 8 -11 15 -18 15 -6 0 -23 11 -38 25 -15 14
-32 25 -37 25 -5 0 -16 8 -23 18 -7 9 -24 25 -38 33 -51 33 -270 238 -270 253
0 5 -24 33 -52 61 -29 28 -62 62 -73 76 -11 13 -39 47 -62 76 -24 28 -43 54
-43 57 0 4 -11 19 -25 34 -14 15 -25 34 -25 44 0 9 -4 18 -8 20 -14 5 -89 112
-118 169 -16 30 -32 56 -36 59 -6 5 -91 180 -151 310 -35 77 -101 276 -131
395 -49 197 -77 392 -92 651 -8 138 13 415 32 427 10 6 12 23 7 68 -6 56 -4
61 16 66 11 3 21 12 21 19 0 8 5 14 10 14 6 0 10 14 10 30 0 17 5 30 10 30 6
0 10 12 10 26 0 21 -4 25 -20 21 -16 -4 -20 0 -20 18 0 50 71 286 111 369 10
22 19 50 19 63 0 13 4 23 8 23 5 0 15 19 21 43 17 56 82 197 91 197 4 0 12 17
18 38 6 20 18 46 27 57 34 45 75 111 75 123 0 6 5 12 10 12 6 0 10 7 10 15 0
8 5 15 10 15 6 0 10 7 10 15 0 8 5 15 10 15 6 0 10 7 10 15 0 8 4 15 8 15 5 0
23 22 40 49 18 27 46 63 62 81 17 18 30 38 30 45 0 8 11 22 25 33 14 11 25 24
25 29 0 5 16 23 35 40 19 17 35 35 35 40 0 8 74 82 230 229 14 13 30 24 37 24
6 0 21 14 33 30 12 17 26 30 31 30 6 0 16 6 24 13 7 6 25 21 40 32 14 11 34
28 43 38 9 9 22 17 28 17 7 0 14 3 16 8 5 11 66 52 78 52 5 0 10 4 10 8 0 5
12 15 28 23 15 8 33 20 40 27 7 6 20 12 28 12 8 0 14 4 14 10 0 5 7 7 15 4 9
-4 45 13 86 41 185 124 503 246 799 305 127 25 186 35 350 54 19 2 148 3 285
1 188 -3 285 -9 388 -24z m-3293 -2316 c0 -8 -4 -15 -10 -15 -5 0 -10 7 -10
15 0 8 5 15 10 15 6 0 10 -7 10 -15z m-10 -60 c0 -8 -4 -15 -10 -15 -5 0 -10
7 -10 15 0 8 5 15 10 15 6 0 10 -7 10 -15z M3270 7315 c0 -8 7 -15 15 -15 8 0
15 7 15 15 0 8 -7 15 -15 15 -8 0 -15 -7 -15 -15z M2980 6881 c0 -21 -77 -221
-91 -235 -14 -16 -10 -46 6 -46 15 0 30 29 64 121 11 31 31 81 45 110 32 65
32 69 1 69 -18 0 -25 -5 -25 -19z M2730 6795 c0 -8 7 -15 15 -15 8 0 15 7 15
15 0 8 -7 15 -15 15 -8 0 -15 -7 -15 -15z M2840 6485 c0 -16 6 -25 15 -25 9 0
15 9 15 25 0 16 -6 25 -15 25 -9 0 -15 -9 -15 -25z M2816 6385 c-19 -78 -19
-75 -1 -75 13 0 26 33 41 108 5 25 3 32 -9 32 -10 0 -20 -21 -31 -65z M2787
6248 c-3 -24 -9 -62 -13 -85 -5 -34 -4 -43 8 -43 11 0 18 20 27 69 14 89 14
101 -3 101 -8 0 -15 -16 -19 -42z M2760 6085 c0 -8 7 -15 15 -15 8 0 15 7 15
15 0 8 -7 15 -15 15 -8 0 -15 -7 -15 -15z M2750 6010 c0 -20 5 -30 15 -30 10
0 15 10 15 30 0 20 -5 30 -15 30 -10 0 -15 -10 -15 -30z M2740 5900 c0 -29 4
-40 15 -40 11 0 15 11 15 40 0 29 -4 40 -15 40 -11 0 -15 -11 -15 -40z m17
-12 c-3 -7 -5 -2 -5 12 0 14 2 19 5 13 2 -7 2 -19 0 -25z M2730 5753 c0 -43
-3 -88 -6 -100 -5 -19 -2 -23 15 -23 20 0 21 5 21 100 0 82 -3 100 -15 100
-12 0 -15 -15 -15 -77z m17 -55 c-2 -24 -4 -7 -4 37 0 44 2 63 4 43 2 -21 2
-57 0 -80z M2400 5735 c0 -8 -4 -15 -10 -15 -5 0 -10 -16 -10 -36 0 -26 5 -37
18 -41 16 -4 42 -63 42 -98 0 -27 37 -17 45 12 3 15 10 30 15 33 4 3 11 24 15
48 7 40 6 42 -19 42 -15 0 -29 -7 -32 -15 -4 -8 -15 -15 -26 -15 -16 0 -19 5
-14 23 20 68 19 77 -3 77 -12 0 -21 -6 -21 -15z m82 -124 c-5 -3 -11 -12 -13
-20 -3 -8 -9 -4 -17 13 -10 23 -9 26 8 26 11 0 21 6 21 13 1 6 3 4 6 -7 3 -10
1 -21 -5 -25z M2607 5643 c-4 -3 -7 -17 -7 -30 0 -16 6 -23 20 -23 16 0 20 7
20 30 0 28 -17 40 -33 23z M2716 5564 c-11 -28 -7 -35 17 -32 29 4 38 48 9 48
-11 0 -23 -7 -26 -16z M2370 5510 c0 -18 6 -33 15 -37 23 -8 28 1 20 36 -9 41
-35 41 -35 1z M2700 5495 c0 -8 7 -15 15 -15 8 0 15 7 15 15 0 8 -7 15 -15 15
-8 0 -15 -7 -15 -15z M2453 5458 c-20 -71 -25 -125 -14 -133 7 -4 1 -15 -14
-31 -14 -14 -27 -35 -29 -47 -6 -26 -18 -145 -21 -206 -2 -24 -7 -46 -12 -50
-17 -11 -25 -62 -12 -77 19 -23 57 -18 61 9 2 14 11 23 27 25 21 3 23 1 17
-23 -4 -17 -1 -31 9 -41 8 -9 15 -33 15 -55 0 -32 3 -39 20 -39 14 0 20 -7 20
-24 0 -40 -11 -56 -37 -56 -24 0 -25 -2 -20 -57 11 -114 17 -133 43 -133 19 0
24 5 24 25 0 14 -4 25 -9 25 -10 0 -31 54 -31 81 0 28 19 23 30 -7 7 -19 16
-25 33 -22 18 2 22 9 21 35 -2 30 -1 31 33 26 20 -3 44 0 59 8 18 9 27 10 32
2 10 -15 46 -25 66 -17 9 3 16 17 16 30 0 13 5 24 10 24 6 0 10 -13 10 -30 0
-33 13 -37 55 -18 21 10 26 17 22 37 -37 181 -53 241 -64 241 -9 0 -11 8 -7
24 4 16 1 27 -10 33 -9 5 -22 29 -29 53 -16 54 -41 64 -59 23 -17 -37 -35 -56
-48 -48 -13 8 -13 35 0 35 16 0 11 37 -6 44 -31 12 -44 6 -44 -19 0 -14 -4
-25 -10 -25 -5 0 -13 0 -16 0 -3 0 -7 26 -9 57 -2 38 -9 61 -19 69 -17 12 -12
42 8 56 6 4 6 15 -2 33 -7 14 -12 35 -12 45 0 22 -21 26 -52 9 -11 -6 -22 -8
-25 -5 -7 7 22 36 37 36 11 0 30 41 30 66 0 8 -7 14 -15 14 -8 0 -15 9 -15 20
0 14 -7 20 -23 20 -18 0 -25 -8 -34 -42z m48 -18 c18 0 9 -32 -11 -37 -11 -3
-20 -10 -20 -16 0 -6 -3 -8 -6 -4 -4 3 0 27 7 53 10 33 15 41 17 26 2 -12 8
-22 13 -22z m30 -132 c1 -13 0 -27 -1 -33 -12 -60 -12 -77 4 -88 13 -10 18
-29 19 -72 l2 -60 37 1 c28 1 38 -3 41 -17 3 -13 14 -19 32 -19 29 0 45 13 61
50 10 23 11 22 22 -23 7 -26 17 -47 22 -47 6 0 10 -13 10 -30 0 -18 5 -30 13
-30 9 0 19 -34 32 -97 10 -54 22 -106 27 -115 5 -10 7 -18 4 -18 -2 0 -11 -3
-20 -6 -12 -5 -16 0 -16 20 0 22 -4 26 -30 26 -25 0 -30 -4 -30 -25 0 -18 -5
-25 -20 -25 -11 0 -20 5 -20 10 0 13 -67 13 -75 0 -3 -5 -25 -7 -50 -3 l-45 6
-1 -34 c0 -27 -2 -30 -8 -14 -5 11 -6 48 -3 83 4 57 3 62 -16 62 -16 0 -21 8
-26 43 -15 121 -14 118 -60 115 -34 -2 -42 -7 -44 -26 -2 -12 -8 -20 -13 -17
-14 9 -11 35 6 52 9 8 15 30 14 51 -1 38 9 160 17 199 2 12 15 33 29 47 14 14
25 29 25 35 0 8 10 12 53 20 4 0 8 -9 8 -21z m-54 -675 c-3 -10 -5 -4 -5 12 0
17 2 24 5 18 2 -7 2 -21 0 -30z M2662 4853 c3 -36 5 -38 41 -41 l38 -3 -3 38
c-3 36 -5 38 -41 41 l-38 3 3 -38z m56 -7 c3 -13 -1 -17 -14 -14 -11 2 -20 11
-22 22 -3 13 1 17 14 14 11 -2 20 -11 22 -22z M2730 5435 c0 -8 7 -15 15 -15
8 0 15 7 15 15 0 8 -7 15 -15 15 -8 0 -15 -7 -15 -15z M2367 5413 c-4 -3 -7
-21 -7 -40 0 -23 5 -33 15 -33 9 0 15 9 15 25 0 14 5 25 10 25 6 0 10 7 10 15
0 15 -31 21 -43 8z m10 -45 c-3 -8 -6 -5 -6 6 -1 11 2 17 5 13 3 -3 4 -12 1
-19z M2740 5360 c0 -20 5 -30 15 -30 10 0 15 10 15 30 0 20 -5 30 -15 30 -10
0 -15 -10 -15 -30z M2750 5265 c0 -16 6 -25 15 -25 9 0 15 9 15 25 0 16 -6 25
-15 25 -9 0 -15 -9 -15 -25z M2692 5168 c2 -15 11 -24 26 -26 18 -3 22 1 22
22 0 21 -5 26 -26 26 -21 0 -25 -4 -22 -22z M2760 5165 c0 -16 6 -25 15 -25 9
0 15 9 15 25 0 16 -6 25 -15 25 -9 0 -15 -9 -15 -25z m17 -7 c-3 -8 -6 -5 -6
6 -1 11 2 17 5 13 3 -3 4 -12 1 -19z M2770 5110 c0 -11 7 -20 15 -20 8 0 15 9
15 20 0 11 -7 20 -15 20 -8 0 -15 -9 -15 -20z M2210 4925 c0 -8 7 -15 15 -15
8 0 15 7 15 15 0 8 -7 15 -15 15 -8 0 -15 -7 -15 -15z M2340 4865 c0 -8 7 -15
15 -15 8 0 15 7 15 15 0 8 -7 15 -15 15 -8 0 -15 -7 -15 -15z M2640 4645 c0
-8 5 -15 10 -15 6 0 10 -11 10 -24 0 -16 7 -26 23 -30 41 -11 48 -7 45 22 -2
21 -9 28 -30 30 -16 2 -28 9 -28 18 0 8 -7 14 -15 14 -8 0 -15 -7 -15 -15z
M2797 4643 c-14 -13 -6 -33 13 -33 13 0 20 7 20 20 0 19 -20 27 -33 13z M2870
4620 c0 -5 -7 -10 -15 -10 -9 0 -15 -9 -15 -21 0 -11 7 -27 15 -35 8 -9 15
-27 15 -42 0 -42 11 -72 26 -72 13 0 15 8 19 75 1 11 4 26 9 33 12 19 -15 82
-36 82 -10 0 -18 -4 -18 -10z m25 -41 c12 -18 -3 -22 -20 -5 -14 14 -14 16 -1
16 8 0 18 -5 21 -11z M2543 4513 c-15 -3 -23 -12 -23 -25 0 -17 4 -19 25 -14
18 5 25 2 25 -9 0 -8 7 -15 16 -15 14 0 16 -8 11 -50 -5 -40 -3 -50 8 -50 8 0
15 -4 15 -10 0 -5 7 -10 15 -10 9 0 19 -10 24 -22 9 -25 65 -78 80 -78 13 0
23 33 16 52 -4 11 4 14 37 13 41 -1 69 -25 29 -25 -19 0 -21 -6 -21 -60 0 -36
4 -60 11 -60 16 0 -1 -43 -22 -58 -22 -15 -26 -72 -5 -72 15 0 56 -37 72 -66
13 -22 53 -31 64 -14 11 17 30 3 30 -21 0 -34 26 -52 65 -45 27 5 38 3 52 -14
24 -27 43 -25 43 5 0 14 7 28 15 31 17 7 21 64 4 64 -6 0 -22 14 -36 30 -13
17 -29 30 -35 30 -15 0 -38 27 -38 45 0 13 -6 16 -21 12 -14 -4 -29 4 -50 25
-30 32 -36 48 -19 48 6 0 10 9 10 20 0 11 5 20 11 20 19 0 4 45 -18 55 -14 6
-23 19 -23 32 0 12 -8 28 -17 35 -18 13 -40 60 -50 106 -3 12 -9 22 -14 22 -5
0 -9 9 -9 20 0 24 -38 28 -46 5 -9 -23 -55 -19 -61 5 -5 20 -43 29 -43 10 0
-5 -7 -10 -15 -10 -8 0 -15 -4 -15 -10 0 -5 -9 -10 -21 -10 -16 0 -19 4 -14
20 6 20 -15 51 -32 49 -4 -1 -18 -4 -30 -6z m152 -73 c9 -15 92 -12 98 3 3 7
6 5 6 -5 1 -10 4 -18 9 -18 4 0 12 -15 18 -32 6 -18 14 -41 19 -50 6 -16 0
-18 -54 -18 -59 0 -61 -1 -61 -27 l0 -26 -25 23 c-14 13 -25 30 -25 37 0 8 -8
17 -17 20 -29 11 -43 30 -43 57 0 19 5 26 20 26 11 0 20 5 20 10 0 6 6 10 14
10 8 0 18 -4 21 -10z m195 -185 c0 -14 7 -25 19 -28 14 -3 17 -11 14 -31 -3
-14 -9 -26 -14 -26 -5 0 -9 -13 -9 -29 0 -33 50 -91 80 -91 11 0 20 -5 20 -11
0 -13 25 -39 38 -39 6 0 22 -13 35 -30 14 -16 30 -30 36 -30 15 0 14 -7 -6
-27 -20 -20 -101 -25 -120 -7 -6 6 -13 22 -15 35 -2 19 -10 25 -35 27 -21 2
-33 -1 -33 -9 0 -8 -4 -8 -15 1 -8 7 -15 17 -15 22 0 13 -51 58 -66 58 -21 0
-17 17 7 33 23 17 40 97 20 97 -6 0 -11 17 -11 40 0 34 3 40 21 40 18 0 21 5
17 30 -4 28 -4 29 14 13 10 -9 18 -26 18 -38z M2400 4495 c0 -8 7 -15 15 -15
8 0 15 7 15 15 0 8 -7 15 -15 15 -8 0 -15 -7 -15 -15z M2920 4390 c0 -5 9 -29
20 -52 11 -24 24 -61 30 -83 15 -58 23 -67 53 -59 15 3 27 11 27 17 0 7 -17
51 -37 99 -34 81 -40 88 -65 88 -15 0 -28 -4 -28 -10z m96 -167 c-6 -7 -22 27
-29 62 -5 23 -2 20 14 -14 10 -24 17 -46 15 -48z M2510 4305 c0 -8 7 -15 15
-15 8 0 15 7 15 15 0 8 -7 15 -15 15 -8 0 -15 -7 -15 -15z M2350 4275 c0 -8 7
-15 15 -15 8 0 15 7 15 15 0 8 -7 15 -15 15 -8 0 -15 -7 -15 -15z M3040 4181
c0 -21 13 -41 26 -41 15 0 17 10 8 34 -7 17 -34 22 -34 7z M2690 4115 c0 -8 7
-15 15 -15 8 0 15 7 15 15 0 8 -7 15 -15 15 -8 0 -15 -7 -15 -15z M3070 4106
c0 -25 12 -46 26 -46 15 0 18 18 8 44 -8 20 -34 21 -34 2z M2630 4045 c0 -8 7
-15 15 -15 8 0 15 7 15 15 0 8 -7 15 -15 15 -8 0 -15 -7 -15 -15z M3110 4015
c0 -8 7 -15 15 -15 8 0 15 7 15 15 0 8 -7 15 -15 15 -8 0 -15 -7 -15 -15z
M2486 3978 c-6 -32 4 -48 33 -48 9 0 11 7 7 23 -3 12 -6 30 -6 40 0 30 -27 18
-34 -15z M2610 3975 c0 -8 7 -15 15 -15 8 0 15 7 15 15 0 8 -7 15 -15 15 -8 0
-15 -7 -15 -15z M2580 3915 c0 -8 7 -15 15 -15 8 0 15 7 15 15 0 8 -7 15 -15
15 -8 0 -15 -7 -15 -15z M3210 3828 c1 -18 25 -48 39 -48 14 0 14 15 1 41 -12
21 -40 26 -40 7z M3250 3755 c0 -8 5 -15 10 -15 6 0 10 -6 10 -14 0 -17 31
-72 72 -130 15 -21 28 -45 28 -51 0 -12 21 -25 41 -25 18 0 8 22 -45 101 -30
44 -58 89 -61 100 -4 10 -11 19 -16 19 -5 0 -9 7 -9 15 0 8 -7 15 -15 15 -8 0
-15 -7 -15 -15z M3120 3635 c0 -8 7 -15 15 -15 8 0 15 7 15 15 0 8 -7 15 -15
15 -8 0 -15 -7 -15 -15z M2820 3495 c0 -8 7 -15 15 -15 8 0 15 7 15 15 0 8 -7
15 -15 15 -8 0 -15 -7 -15 -15z M3320 3487 c0 -16 47 -44 57 -33 4 4 2 15 -3
24 -14 22 -54 29 -54 9z M2910 3416 c0 -9 6 -16 14 -16 7 0 25 -9 39 -20 29
-23 47 -26 47 -7 0 21 -31 44 -67 52 -26 5 -33 3 -33 -9z M3572 3294 c2 -11
11 -20 22 -22 13 -3 17 1 14 14 -2 11 -11 20 -22 22 -13 3 -17 -1 -14 -14z
M3610 3244 c0 -19 40 -64 58 -64 18 0 15 24 -9 54 -23 29 -49 35 -49 10z
M3780 3060 c0 -11 7 -20 15 -20 8 0 15 9 15 20 0 11 -7 20 -15 20 -8 0 -15 -9
-15 -20z M3900 2945 c0 -8 7 -15 15 -15 8 0 15 7 15 15 0 8 -7 15 -15 15 -8 0
-15 -7 -15 -15z M3680 2925 c0 -8 7 -15 15 -15 8 0 15 7 15 15 0 8 -7 15 -15
15 -8 0 -15 -7 -15 -15z M3710 2868 c0 -12 43 -38 62 -38 19 0 6 31 -18 40
-34 13 -44 13 -44 -2z M4030 2795 c0 -21 17 -27 50 -20 45 10 38 33 -10 33
-28 1 -40 -4 -40 -13z M4220 2695 c0 -8 7 -15 15 -15 8 0 15 -4 15 -10 0 -5 7
-10 15 -10 8 0 15 7 15 15 0 8 -7 15 -15 15 -8 0 -15 5 -15 10 0 6 -7 10 -15
10 -8 0 -15 -7 -15 -15z M4070 2625 c0 -8 7 -15 15 -15 8 0 15 7 15 15 0 8 -7
15 -15 15 -8 0 -15 -7 -15 -15z M4180 2615 c0 -8 7 -15 15 -15 8 0 15 7 15 15
0 8 -7 15 -15 15 -8 0 -15 -7 -15 -15z M4310 2595 c0 -17 46 -42 57 -31 12 11
-12 41 -36 44 -14 2 -21 -2 -21 -13z M4400 2577 c0 -13 40 -37 60 -37 18 0 10
29 -9 40 -27 14 -51 13 -51 -3z M4480 2535 c0 -8 7 -15 15 -15 8 0 15 7 15 15
0 8 -7 15 -15 15 -8 0 -15 -7 -15 -15z M4060 2505 c0 -8 7 -15 15 -15 8 0 15
7 15 15 0 8 -7 15 -15 15 -8 0 -15 -7 -15 -15z M4720 2415 c0 -9 9 -15 25 -15
16 0 25 6 25 15 0 9 -9 15 -25 15 -16 0 -25 -6 -25 -15z M5300 2265 c0 -8 9
-15 20 -15 11 0 20 7 20 15 0 8 -9 15 -20 15 -11 0 -20 -7 -20 -15z M5452
2253 c2 -10 12 -18 23 -18 11 0 21 8 23 18 3 13 -3 17 -23 17 -20 0 -26 -4
-23 -17z M5540 2256 c0 -13 20 -26 41 -26 5 0 9 9 9 20 0 15 -7 20 -25 20 -15
0 -25 -6 -25 -14z M4900 2245 c0 -8 9 -15 20 -15 11 0 20 7 20 15 0 8 -9 15
-20 15 -11 0 -20 -7 -20 -15z"/>
</g>
</svg>
