<?xml version="1.0" standalone="no"?>
<!DOCTYPE svg PUBLIC "-//W3C//DTD SVG 20010904//EN"
 "http://www.w3.org/TR/2001/REC-SVG-20010904/DTD/svg10.dtd">
<svg version="1.0" xmlns="http://www.w3.org/2000/svg"
 width="1024.000000pt" height="1024.000000pt" viewBox="0 0 1024.000000 1024.000000"
 preserveAspectRatio="xMidYMid meet">
<metadata>
Created by potrace 1.14, written by Peter Selinger 2001-2017
</metadata>
<g transform="translate(0.000000,1024.000000) scale(0.100000,-0.100000)"
fill="#000000" stroke="none">
<path d="M4935 8073 c-295 -23 -538 -70 -745 -142 -253 -88 -394 -155 -559
-265 -62 -42 -122 -76 -132 -76 -11 0 -19 -4 -19 -10 0 -5 -5 -10 -12 -10 -16
0 -210 -149 -313 -241 -50 -44 -159 -153 -176 -176 -10 -11 -23 -25 -31 -29
-16 -10 -188 -218 -188 -228 0 -6 -20 -32 -57 -74 -13 -14 -23 -31 -23 -38 0
-7 -6 -17 -14 -21 -7 -4 -21 -24 -31 -43 -10 -19 -24 -39 -31 -43 -8 -4 -14
-15 -14 -23 0 -9 -7 -22 -15 -30 -8 -9 -15 -24 -15 -34 0 -10 -8 -25 -19 -32
-20 -15 -61 -89 -61 -113 0 -8 -4 -15 -9 -15 -5 0 -17 -24 -27 -52 -9 -29 -20
-55 -24 -58 -19 -13 -130 -325 -130 -365 0 -21 5 -25 31 -25 34 0 59 19 59 46
0 34 24 94 37 94 7 0 16 7 19 15 4 9 19 15 35 15 24 0 29 4 29 23 0 23 17 47
32 47 4 0 8 -11 8 -25 0 -14 -4 -25 -10 -25 -5 0 -10 -6 -10 -14 0 -8 -9 -21
-19 -28 -11 -8 -21 -28 -23 -48 -3 -30 -7 -36 -33 -40 -32 -6 -30 2 -34 -116
-1 -40 -2 -42 -41 -48 -21 -3 -44 -14 -49 -24 -8 -14 -10 -10 -11 21 0 33 -3
37 -24 37 -30 0 -32 -3 -41 -62 l-7 -48 30 0 c21 0 32 6 35 18 2 9 1 -16 -1
-56 l-5 -73 34 3 c28 2 36 9 44 34 6 17 18 38 28 48 9 10 17 24 17 31 0 8 12
15 27 17 24 3 28 9 35 48 4 26 16 52 28 62 12 9 24 32 27 51 4 27 12 36 39 46
28 10 34 17 34 42 0 17 8 38 17 47 16 16 16 15 10 -8 -18 -66 -19 -97 -3 -113
20 -19 21 -47 2 -47 -7 0 -19 -20 -26 -45 -13 -46 -31 -68 -38 -47 -6 18 -62
15 -62 -3 0 -9 -7 -18 -15 -21 -9 -4 -15 -19 -15 -40 0 -30 4 -35 28 -40 28
-6 28 -7 24 -65 l-4 -59 31 0 c29 0 31 3 31 35 0 21 6 37 17 43 12 7 14 17 10
41 -4 18 -2 31 3 31 6 0 10 -40 10 -95 0 -80 -3 -95 -16 -95 -38 0 -62 -74
-28 -87 13 -5 15 -19 12 -82 -3 -71 -2 -76 18 -79 19 -3 23 -12 29 -80 9 -103
59 -378 85 -477 12 -44 26 -98 30 -120 11 -51 57 -199 77 -245 21 -48 28 -66
53 -135 36 -96 44 -115 52 -115 5 0 8 -6 8 -13 0 -15 80 -178 127 -261 20 -35
24 -50 16 -53 -15 -5 -18 -63 -3 -63 6 0 10 -4 10 -10 0 -18 -22 -10 -27 10
-3 11 -13 20 -23 20 -10 0 -29 12 -42 28 -13 15 -33 32 -44 38 -11 7 -20 24
-22 44 -3 25 -10 35 -32 43 -20 8 -31 20 -35 39 -6 25 -11 28 -45 28 -42 0
-52 8 -71 64 -8 23 -23 42 -36 47 -14 5 -23 17 -23 29 0 11 -4 20 -10 20 -5 0
-10 7 -10 15 0 9 -9 15 -25 15 -20 0 -25 6 -31 37 -5 25 -3 38 5 41 14 5 15
62 1 62 -5 0 -10 7 -10 16 0 9 -11 25 -25 36 -14 11 -25 24 -25 30 0 5 -11 19
-25 30 -14 11 -25 28 -25 39 0 10 -4 19 -9 19 -5 0 -12 12 -16 27 -3 15 -15
33 -26 41 -25 17 -40 53 -48 112 -6 42 -8 45 -39 48 -27 3 -32 7 -32 28 0 14
-11 36 -25 50 -22 22 -25 33 -25 99 0 43 -4 75 -10 75 -5 0 -10 11 -10 25 0
14 -4 25 -8 25 -15 0 8 174 25 187 13 10 15 25 10 78 -4 36 -2 65 3 65 11 0
27 51 35 112 4 26 13 49 21 52 8 3 14 19 14 39 0 32 -3 35 -37 41 -74 12 -103
8 -103 -14 0 -11 -6 -23 -14 -26 -10 -4 -16 -31 -21 -87 -4 -45 -14 -106 -22
-136 -12 -42 -14 -93 -10 -250 6 -234 17 -339 58 -531 17 -80 35 -167 41 -195
5 -27 13 -54 18 -60 4 -5 11 -29 15 -52 4 -24 10 -43 14 -43 4 0 15 -28 25
-62 9 -35 26 -83 38 -108 109 -239 148 -319 185 -374 18 -28 33 -55 33 -61 0
-6 8 -20 18 -31 34 -38 92 -124 92 -138 0 -8 7 -16 15 -20 8 -3 15 -12 15 -21
0 -8 4 -15 8 -15 5 0 29 -28 54 -62 40 -54 121 -147 158 -183 6 -5 21 -21 33
-35 41 -47 153 -155 201 -195 27 -22 54 -45 60 -50 27 -26 224 -169 256 -186
19 -11 49 -28 65 -39 63 -41 266 -145 390 -200 52 -23 219 -81 340 -119 290
-88 690 -126 1072 -101 190 12 413 52 413 75 0 10 69 27 170 42 19 3 40 9 45
14 6 4 31 11 55 14 25 4 68 15 95 25 131 48 215 83 215 89 0 4 20 13 46 20 25
7 51 19 58 26 7 7 44 29 83 48 39 19 84 44 100 54 15 11 80 54 143 95 254 168
493 396 684 653 212 284 334 518 446 856 188 568 197 1223 24 1797 -102 337
-285 686 -514 982 -94 121 -325 352 -458 458 -538 429 -1200 658 -1882 650
-69 -1 -143 -3 -165 -5z m395 -23 c617 -48 1191 -278 1664 -668 126 -104 337
-318 425 -432 230 -295 414 -646 515 -982 68 -226 101 -427 117 -698 25 -451
-53 -883 -240 -1325 -135 -319 -367 -657 -625 -910 -122 -120 -277 -247 -406
-333 -63 -41 -128 -84 -143 -95 -16 -10 -61 -35 -100 -54 -39 -19 -76 -41 -83
-48 -7 -7 -33 -19 -58 -26 -26 -7 -46 -16 -46 -20 0 -6 -84 -41 -215 -89 -27
-10 -70 -21 -95 -25 -24 -3 -49 -10 -55 -14 -5 -5 -26 -11 -45 -14 -109 -16
-170 -32 -170 -44 0 -7 -6 -13 -14 -13 -8 0 -21 -3 -30 -6 -11 -4 -16 -1 -16
10 0 12 -10 16 -35 16 -47 0 -50 -29 -2 -31 31 -1 31 -2 -8 -9 -173 -33 -267
-42 -485 -44 -396 -6 -655 36 -1035 164 -127 43 -164 59 -334 143 -129 64
-165 84 -216 117 -16 11 -46 28 -65 39 -32 17 -229 160 -256 186 -6 5 -33 28
-60 50 -48 40 -160 148 -201 195 -12 14 -27 30 -33 35 -37 36 -118 129 -158
183 -25 34 -49 62 -54 62 -4 0 -8 7 -8 15 0 9 -7 18 -15 21 -8 4 -15 12 -15
20 0 14 -58 100 -92 138 -10 11 -18 25 -18 31 0 6 -15 33 -33 61 -37 55 -84
152 -185 374 -11 25 -28 72 -38 105 -9 33 -20 62 -24 65 -4 3 -13 32 -20 65
-7 33 -16 65 -20 70 -4 6 -10 24 -13 40 -2 17 -16 84 -30 150 -48 227 -67 391
-66 585 0 124 12 220 28 220 3 0 7 39 8 87 1 67 5 88 17 95 9 5 16 18 16 30 0
19 4 20 48 13 56 -8 57 -9 47 -32 -8 -17 -8 -17 -12 0 -3 9 -11 17 -20 17 -12
0 -14 -6 -8 -27 16 -63 -4 -163 -32 -163 -11 0 -14 -7 -10 -22 18 -72 19 -109
4 -121 -19 -15 -44 -220 -27 -225 5 -2 10 -15 10 -28 0 -13 5 -24 10 -24 6 0
10 -32 10 -75 0 -66 3 -77 25 -99 14 -14 25 -36 25 -50 0 -21 5 -25 33 -28 30
-3 32 -6 38 -48 8 -59 23 -95 48 -112 11 -8 23 -26 26 -41 4 -15 11 -27 16
-27 5 0 9 -9 9 -19 0 -11 11 -28 25 -39 14 -11 25 -25 25 -30 0 -6 11 -19 25
-30 14 -11 25 -27 25 -36 0 -9 5 -16 10 -16 6 0 10 -4 10 -9 0 -5 -9 -7 -20
-4 -15 4 -20 0 -20 -16 0 -11 5 -21 10 -21 6 0 10 -10 10 -22 0 -47 12 -68 36
-68 15 0 24 -6 24 -15 0 -8 5 -15 10 -15 6 0 10 -9 10 -20 0 -12 9 -24 23 -29
15 -6 28 -24 37 -50 17 -51 29 -62 74 -64 29 -2 36 -7 41 -27 4 -17 16 -30 35
-37 22 -8 29 -18 32 -43 2 -20 11 -37 22 -44 11 -6 31 -23 44 -38 13 -16 32
-28 42 -28 10 0 20 -9 23 -20 4 -15 14 -20 42 -20 36 0 37 1 30 28 -3 15 -11
29 -16 30 -11 4 -12 22 -1 22 4 0 20 -25 35 -55 15 -30 31 -55 36 -55 5 0 11
-10 15 -22 3 -13 17 -35 31 -50 14 -15 25 -33 25 -40 1 -22 36 -61 49 -54 17
11 13 33 -12 58 -12 13 -29 38 -36 56 -8 18 -21 38 -30 45 -9 7 -32 41 -51 77
-18 36 -49 92 -67 125 -55 98 -133 257 -133 272 0 7 -3 13 -8 13 -8 0 -16 19
-52 115 -25 69 -32 87 -53 135 -20 46 -66 194 -77 245 -4 22 -18 76 -30 120
-26 99 -76 374 -85 478 -6 63 -10 77 -25 77 -9 0 -19 2 -21 5 -9 8 8 147 18
154 6 3 13 82 16 179 5 145 3 172 -9 172 -9 0 -14 -11 -14 -34 0 -31 -3 -34
-37 -41 -21 -4 -41 -11 -44 -17 -9 -14 -49 0 -49 17 0 7 7 15 15 19 8 3 15 12
15 21 0 8 5 15 10 15 6 0 10 -5 10 -11 0 -6 14 -9 32 -7 29 3 34 8 47 51 8 26
20 47 28 47 18 0 17 67 -1 86 -11 10 -12 22 -6 44 5 17 12 66 16 111 l7 81
-29 -4 c-28 -3 -29 -5 -30 -56 -1 -38 -6 -56 -19 -66 -13 -9 -16 -20 -11 -39
5 -23 2 -27 -28 -38 -27 -10 -35 -19 -39 -46 -3 -19 -15 -42 -27 -51 -12 -10
-24 -35 -28 -60 -12 -73 -27 -49 -25 41 1 71 3 82 18 79 26 -5 45 17 45 52 0
20 7 36 20 44 11 7 20 19 20 27 0 8 7 15 16 15 12 0 15 6 10 23 -3 12 -6 32
-6 45 0 17 -6 22 -28 22 -35 0 -52 -16 -52 -49 0 -19 -3 -22 -12 -13 -19 19
-34 14 -46 -13 -6 -14 -18 -25 -25 -25 -13 0 -37 -60 -37 -94 0 -19 -23 -46
-39 -46 -6 0 -11 2 -11 5 0 24 117 337 130 345 4 3 15 29 24 58 10 28 22 52
27 52 5 0 9 7 9 15 0 24 41 98 61 113 11 7 19 22 19 32 0 10 7 25 15 34 8 8
15 21 15 30 0 8 6 19 14 23 7 4 21 24 31 43 10 19 24 39 31 43 8 4 14 14 14
21 0 7 10 24 23 38 37 42 57 68 57 74 0 10 172 218 188 228 8 4 21 18 31 29
60 78 371 352 371 327 0 -6 5 -8 10 -5 6 4 8 10 6 14 -3 4 1 8 9 8 19 0 20 1
-12 -28 -14 -13 -23 -18 -19 -11 4 6 2 12 -3 12 -6 0 -11 -7 -11 -15 0 -8 5
-15 10 -15 19 0 62 50 56 65 -5 15 50 65 72 65 7 0 12 4 12 10 0 5 6 7 14 4 8
-3 42 15 76 40 132 97 311 194 468 252 322 121 540 169 897 197 89 8 257 6
375 -3z m-2680 -1895 c0 -14 -4 -25 -10 -25 -11 0 -14 33 -3 43 11 11 13 8 13
-18z m-365 -354 c-4 -17 -10 -31 -15 -31 -7 0 -5 23 6 59 8 26 16 2 9 -28z
m115 -15 c0 -14 -8 -32 -17 -42 -10 -10 -22 -31 -28 -47 -13 -41 -35 -47 -35
-10 0 51 20 104 43 113 33 13 37 12 37 -14z m194 -95 c3 -5 -1 -11 -9 -15 -9
-3 -15 -19 -15 -41 0 -19 -4 -35 -10 -35 -13 0 -13 41 0 74 10 26 24 33 34 17z
m22 -219 c-4 -3 -11 -1 -17 5 -8 8 -8 15 2 26 12 13 14 13 17 -5 2 -11 1 -22
-2 -26z m3071 -3208 c-3 -3 -12 -4 -19 -1 -8 3 -5 6 6 6 11 1 17 -2 13 -5z
M3253 7345 c-16 -17 -17 -35 -2 -35 14 0 39 25 39 39 0 15 -23 13 -37 -4z m27
1 c0 -2 -8 -10 -17 -17 -16 -13 -17 -12 -4 4 13 16 21 21 21 13z M3180 7255
c0 -8 7 -15 15 -15 8 0 15 7 15 15 0 8 -7 15 -15 15 -8 0 -15 -7 -15 -15z
M3040 7069 c0 -25 33 -22 38 4 2 12 -3 17 -17 17 -15 0 -21 -6 -21 -21z M3000
6995 c0 -8 7 -15 15 -15 8 0 15 7 15 15 0 8 -7 15 -15 15 -8 0 -15 -7 -15 -15z
M2904 6843 c-4 -10 -21 -54 -40 -99 -38 -90 -40 -104 -20 -104 8 0 20 17 27
38 6 20 25 63 40 94 16 32 29 64 29 73 0 21 -29 19 -36 -2z M2782 6538 c-40
-119 -82 -267 -82 -290 0 -10 7 -18 15 -18 8 0 15 7 15 17 0 24 48 187 81 276
32 87 35 107 16 107 -8 0 -26 -38 -45 -92z M2690 6205 c0 -8 7 -15 15 -15 8 0
15 7 15 15 0 8 -7 15 -15 15 -8 0 -15 -7 -15 -15z M2680 6145 c0 -8 7 -15 15
-15 8 0 15 7 15 15 0 8 -7 15 -15 15 -8 0 -15 -7 -15 -15z M2630 5400 c0 -11
7 -20 15 -20 8 0 15 9 15 20 0 11 -7 20 -15 20 -8 0 -15 -9 -15 -20z M2630
5345 c0 -16 6 -25 15 -25 9 0 15 9 15 25 0 16 -6 25 -15 25 -9 0 -15 -9 -15
-25z M2320 4525 c0 -8 7 -15 15 -15 8 0 15 7 15 15 0 8 -7 15 -15 15 -8 0 -15
-7 -15 -15z M2390 4420 c0 -11 7 -20 15 -20 8 0 15 9 15 20 0 11 -7 20 -15 20
-8 0 -15 -9 -15 -20z M2540 4205 c0 -8 7 -15 15 -15 8 0 15 7 15 15 0 8 -7 15
-15 15 -8 0 -15 -7 -15 -15z M2620 4015 c0 -8 -4 -15 -10 -15 -5 0 -10 -9 -10
-20 0 -11 7 -20 15 -20 8 0 15 -4 15 -10 0 -5 7 -10 15 -10 8 0 15 5 15 10 0
6 7 10 15 10 8 0 15 7 15 15 0 8 -7 15 -15 15 -8 0 -15 -4 -15 -10 0 -5 -7
-10 -15 -10 -8 0 -15 7 -15 15 0 8 5 15 10 15 6 0 10 7 10 15 0 8 -7 15 -15
15 -8 0 -15 -7 -15 -15z M2490 3975 c0 -8 9 -15 20 -15 11 0 20 7 20 15 0 8
-9 15 -20 15 -11 0 -20 -7 -20 -15z M2520 3905 c0 -8 7 -15 15 -15 8 0 15 7
15 15 0 8 -7 15 -15 15 -8 0 -15 -7 -15 -15z M2653 3804 c6 -58 34 -89 71 -80
24 6 38 36 16 36 -5 0 -13 12 -16 28 -9 36 -32 62 -57 62 -17 0 -19 -5 -14
-46z m50 -30 c4 -21 2 -23 -8 -12 -7 7 -16 24 -20 38 -7 22 -6 23 7 12 9 -7
18 -24 21 -38z M3090 3525 c0 -8 7 -15 15 -15 8 0 15 7 15 15 0 8 -7 15 -15
15 -8 0 -15 -7 -15 -15z M2930 3505 c0 -8 5 -15 10 -15 6 0 10 -7 10 -15 0 -8
9 -15 20 -15 11 0 20 7 20 15 0 8 -7 15 -15 15 -8 0 -15 7 -15 15 0 8 -7 15
-15 15 -8 0 -15 -7 -15 -15z M3150 3485 c0 -8 7 -15 15 -15 8 0 15 7 15 15 0
8 -7 15 -15 15 -8 0 -15 -7 -15 -15z M3307 3493 c-12 -11 -8 -20 38 -81 25
-33 45 -69 45 -81 0 -30 27 -26 34 4 5 21 -3 37 -40 83 -26 31 -49 63 -51 69
-6 14 -16 17 -26 6z M2880 3455 c0 -8 7 -15 15 -15 8 0 15 7 15 15 0 8 -7 15
-15 15 -8 0 -15 -7 -15 -15z M3240 3429 c0 -24 23 -21 28 4 2 10 -3 17 -12 17
-10 0 -16 -9 -16 -21z M2920 3415 c0 -8 7 -15 15 -15 8 0 15 7 15 15 0 8 -7
15 -15 15 -8 0 -15 -7 -15 -15z M3267 3413 c-12 -11 -8 -23 8 -23 8 0 15 7 15
15 0 16 -12 20 -23 8z M3000 3395 c0 -8 9 -15 20 -15 11 0 20 7 20 15 0 8 -9
15 -20 15 -11 0 -20 -7 -20 -15z M3290 3365 c0 -10 10 -15 30 -15 20 0 30 5
30 15 0 10 -10 15 -30 15 -20 0 -30 -5 -30 -15z M3002 3344 c2 -11 11 -20 22
-22 13 -3 17 1 14 14 -2 11 -11 20 -22 22 -13 3 -17 -1 -14 -14z M3530 3205
c0 -8 7 -15 15 -15 8 0 15 7 15 15 0 8 -7 15 -15 15 -8 0 -15 -7 -15 -15z
M3672 3054 c2 -11 11 -20 22 -22 13 -3 17 1 14 14 -2 11 -11 20 -22 22 -13 3
-17 -1 -14 -14z M3720 2865 c0 -8 7 -15 15 -15 8 0 15 7 15 15 0 8 -7 15 -15
15 -8 0 -15 -7 -15 -15z M3763 2843 c-15 -5 -18 -33 -4 -33 21 0 41 13 41 26
0 14 -14 17 -37 7z M3930 2765 c0 -8 9 -15 20 -15 11 0 20 -4 20 -10 0 -5 7
-10 15 -10 24 0 18 37 -7 44 -36 9 -48 7 -48 -9z M3772 2724 c2 -11 11 -20 22
-22 13 -3 17 1 14 14 -2 11 -11 20 -22 22 -13 3 -17 -1 -14 -14z M3670 2717
c0 -19 21 -37 42 -37 24 0 23 27 -1 40 -26 14 -41 13 -41 -3z M4030 2705 c0
-8 7 -15 15 -15 8 0 15 7 15 15 0 8 -7 15 -15 15 -8 0 -15 -7 -15 -15z M4100
2696 c0 -17 7 -27 23 -32 12 -4 24 -9 27 -13 3 -3 22 -15 43 -25 20 -11 37
-23 37 -28 0 -4 14 -8 30 -8 17 0 30 5 30 13 0 14 -97 72 -120 72 -8 0 -20 9
-25 20 -16 31 -45 32 -45 1z M3820 2666 c0 -20 6 -24 42 -29 48 -6 53 -4 45
18 -4 8 -18 15 -32 15 -14 0 -25 5 -25 10 0 6 -7 10 -15 10 -9 0 -15 -9 -15
-24z m24 -1 c3 -8 1 -15 -4 -15 -6 0 -10 7 -10 15 0 8 2 15 4 15 2 0 6 -7 10
-15z M4090 2625 c0 -8 7 -15 15 -15 8 0 15 7 15 15 0 8 -7 15 -15 15 -8 0 -15
-7 -15 -15z M4200 2565 c0 -8 7 -15 15 -15 8 0 15 7 15 15 0 8 -7 15 -15 15
-8 0 -15 -7 -15 -15z M4630 2425 c0 -8 7 -15 15 -15 8 0 15 7 15 15 0 8 -7 15
-15 15 -8 0 -15 -7 -15 -15z M4390 2375 c0 -8 7 -15 15 -15 8 0 15 7 15 15 0
8 -7 15 -15 15 -8 0 -15 -7 -15 -15z M4820 2355 c0 -8 6 -15 13 -15 6 0 22 -3
35 -6 16 -5 22 -2 22 9 0 8 -10 17 -22 21 -36 9 -48 7 -48 -9z M4930 2325 c0
-8 9 -15 20 -15 11 0 20 7 20 15 0 8 -9 15 -20 15 -11 0 -20 -7 -20 -15z
M4990 2305 c0 -8 7 -15 15 -15 8 0 15 7 15 15 0 8 -7 15 -15 15 -8 0 -15 -7
-15 -15z M5070 2295 c0 -8 7 -15 15 -15 8 0 15 7 15 15 0 8 -7 15 -15 15 -8 0
-15 -7 -15 -15z M5190 2275 c0 -8 7 -15 15 -15 8 0 15 7 15 15 0 8 -7 15 -15
15 -8 0 -15 -7 -15 -15z M5440 2256 c0 -9 16 -15 47 -19 54 -6 73 -1 73 19 0
10 -15 14 -60 14 -44 0 -60 -4 -60 -14z M5580 2255 c0 -9 9 -15 25 -15 16 0
25 6 25 15 0 9 -9 15 -25 15 -16 0 -25 -6 -25 -15z M2317 5193 c-9 -8 -9 -50
-1 -80 5 -17 14 -23 34 -23 30 0 40 18 40 78 0 30 -2 32 -33 32 -19 0 -37 -3
-40 -7z m53 -25 c0 -24 -12 -58 -20 -58 -10 0 -22 48 -15 60 9 14 35 12 35 -2z
M2577 4583 c-4 -3 -7 -22 -7 -40 0 -33 2 -34 33 -31 29 3 32 6 35 41 3 35 2
37 -26 37 -16 0 -32 -3 -35 -7z m43 -27 c0 -16 -18 -31 -27 -22 -8 8 5 36 17
36 5 0 10 -6 10 -14z"/>
</g>
</svg>
