<?xml version="1.0" standalone="no"?>
<!DOCTYPE svg PUBLIC "-//W3C//DTD SVG 20010904//EN"
 "http://www.w3.org/TR/2001/REC-SVG-20010904/DTD/svg10.dtd">
<svg version="1.0" xmlns="http://www.w3.org/2000/svg"
 width="1024.000000pt" height="1024.000000pt" viewBox="0 0 1024.000000 1024.000000"
 preserveAspectRatio="xMidYMid meet">
<metadata>
Created by potrace 1.14, written by Peter Selinger 2001-2017
</metadata>
<g transform="translate(0.000000,1024.000000) scale(0.100000,-0.100000)"
fill="#000000" stroke="none">
<path d="M4860 8063 c-104 -6 -329 -44 -471 -78 -347 -86 -704 -256 -949 -454
-41 -33 -81 -61 -89 -61 -50 0 -444 -377 -537 -513 -14 -21 -29 -37 -34 -37
-6 0 -10 -4 -10 -10 0 -13 -62 -100 -72 -100 -4 0 -8 -7 -8 -15 0 -8 -4 -15
-10 -15 -5 0 -10 -7 -10 -15 0 -8 -4 -15 -10 -15 -5 0 -10 -7 -10 -15 0 -8 -4
-15 -9 -15 -5 0 -16 -18 -25 -40 -9 -22 -20 -40 -26 -40 -5 0 -10 -9 -10 -20
0 -11 -4 -20 -10 -20 -5 0 -10 -7 -10 -15 0 -8 -4 -15 -10 -15 -5 0 -13 -12
-16 -27 -4 -15 -13 -34 -21 -41 -7 -7 -13 -22 -13 -33 0 -11 -7 -22 -15 -25
-10 -4 -15 -20 -15 -44 0 -39 11 -50 51 -50 10 0 19 -4 19 -10 0 -5 13 -10 28
-10 26 0 28 -2 24 -36 -4 -36 -4 -37 27 -32 17 2 31 3 31 0 0 -2 -9 -38 -20
-80 -53 -208 -84 -541 -75 -794 8 -225 50 -530 95 -688 5 -19 24 -87 41 -150
28 -105 78 -248 113 -325 7 -16 18 -41 23 -55 20 -51 158 -328 205 -409 26
-46 46 -86 43 -89 -2 -3 -7 3 -11 12 -3 9 -12 16 -20 16 -8 0 -14 7 -14 15 0
8 -4 15 -9 15 -5 0 -11 12 -13 28 -2 19 -9 28 -26 30 -13 2 -26 10 -29 18 -7
19 -69 80 -88 88 -9 3 -18 14 -22 23 -8 20 -20 33 -48 49 -19 11 -29 26 -39
57 -4 11 -16 17 -36 17 -18 0 -33 6 -36 15 -4 8 -17 15 -30 15 -20 0 -24 5
-24 29 0 16 -5 31 -12 33 -7 3 -12 25 -13 52 0 30 -6 52 -15 60 -8 6 -14 21
-12 34 5 34 -17 91 -41 104 -33 17 -43 30 -57 73 -7 22 -19 43 -26 48 -7 4
-16 23 -20 42 -5 28 -11 35 -30 35 -19 0 -24 5 -24 25 0 18 -5 25 -20 25 -17
0 -20 7 -20 43 0 46 -13 67 -42 67 -15 0 -18 9 -18 59 0 43 -4 60 -15 65 -10
4 -15 20 -15 53 -1 26 -5 67 -9 91 -6 31 -5 42 4 42 13 0 25 43 25 92 0 16 7
43 16 60 10 20 14 42 9 64 -5 30 -10 34 -35 34 -27 0 -30 -3 -30 -31 0 -17 -7
-37 -15 -45 -9 -9 -15 -33 -15 -57 0 -24 -7 -53 -16 -66 -15 -21 -16 -39 -5
-185 12 -157 53 -432 70 -465 4 -9 13 -38 20 -66 14 -61 90 -303 102 -327 5
-10 9 -26 9 -37 0 -11 3 -21 8 -23 9 -4 52 -89 52 -104 0 -20 40 -102 63 -131
20 -25 34 -51 51 -93 3 -8 17 -33 31 -55 14 -22 29 -49 34 -60 5 -11 18 -29
30 -39 11 -11 21 -28 21 -38 0 -10 7 -21 15 -24 8 -3 17 -15 21 -27 4 -12 17
-30 30 -40 13 -10 24 -25 24 -32 0 -7 6 -20 12 -27 7 -7 42 -47 78 -88 248
-285 380 -403 660 -591 121 -81 514 -279 554 -279 9 0 16 -4 16 -10 0 -5 10
-10 22 -10 12 0 69 -16 127 -35 159 -51 207 -65 233 -65 13 0 28 -4 34 -9 9
-9 172 -34 299 -47 33 -3 83 -8 110 -12 93 -12 457 -4 589 12 139 18 146 20
146 42 0 8 7 14 15 14 8 0 15 -5 15 -11 0 -8 15 -10 48 -5 89 12 152 29 152
42 0 8 21 15 57 20 32 4 73 14 93 22 19 8 53 18 75 22 82 15 398 146 415 171
3 5 37 25 75 44 39 20 84 45 102 58 17 12 72 48 121 80 187 120 458 370 615
567 92 115 244 344 306 461 114 214 221 504 275 744 50 224 61 339 61 655 0
331 -7 401 -66 670 -50 232 -110 399 -229 645 -402 826 -1181 1417 -2095 1590
-211 39 -534 55 -815 38z m585 -28 c476 -56 908 -214 1311 -481 213 -141 509
-413 660 -608 363 -467 563 -963 625 -1554 18 -177 6 -541 -25 -727 -43 -263
-103 -470 -208 -714 -94 -221 -245 -471 -405 -671 -157 -197 -428 -447 -615
-567 -49 -32 -104 -68 -121 -80 -18 -13 -63 -38 -102 -58 -38 -19 -72 -39 -75
-44 -17 -26 -346 -161 -405 -166 -16 -1 -48 -10 -70 -20 -22 -10 -49 -18 -60
-19 -11 -1 -48 -8 -82 -15 -45 -10 -63 -18 -64 -30 0 -10 -2 -11 -6 -3 -7 17
-33 15 -33 -3 0 -9 -9 -15 -24 -15 -13 0 -30 -2 -38 -3 -7 -2 -10 -2 -5 0 17
11 5 33 -18 33 -14 0 -25 -4 -25 -10 0 -5 -8 -10 -19 -10 -10 0 -21 -8 -24
-19 -5 -20 -66 -35 -106 -24 -13 3 -26 1 -31 -6 -5 -9 -45 -13 -129 -14 -66
-1 -121 -5 -121 -9 0 -14 -286 1 -409 21 -35 6 -67 9 -70 6 -11 -6 -225 26
-235 36 -6 5 -25 9 -43 9 -18 0 -33 4 -33 9 0 5 -21 11 -47 15 -27 3 -93 22
-148 41 -55 19 -110 35 -122 35 -13 0 -23 5 -23 10 0 6 -7 10 -16 10 -40 0
-433 198 -554 279 -280 188 -412 306 -660 591 -36 41 -71 81 -77 88 -7 7 -13
20 -13 27 0 7 -11 22 -24 32 -13 10 -26 28 -30 40 -4 12 -13 24 -21 27 -8 3
-15 14 -15 24 0 10 -10 27 -21 38 -12 10 -25 28 -30 39 -5 11 -20 38 -34 60
-14 22 -28 47 -31 55 -17 42 -31 68 -51 93 -23 29 -63 111 -63 131 0 15 -43
100 -52 104 -5 2 -8 12 -8 23 0 11 -4 27 -9 37 -12 24 -88 266 -102 327 -7 28
-16 58 -20 67 -9 17 -49 237 -54 298 -1 19 -8 92 -15 162 -10 112 -10 130 4
150 9 12 16 41 16 65 0 24 6 48 15 57 8 8 15 28 15 45 0 17 4 31 9 31 16 0 19
-36 5 -61 -7 -13 -13 -38 -14 -55 0 -52 -12 -94 -26 -94 -14 0 -17 -97 -2
-106 4 -3 8 -30 8 -60 0 -39 4 -56 15 -60 11 -5 15 -23 15 -71 0 -56 2 -64 18
-61 31 5 42 -12 42 -64 0 -45 2 -50 20 -45 16 4 20 0 20 -19 0 -19 5 -24 24
-24 19 0 25 -7 30 -35 4 -19 13 -38 20 -42 7 -5 19 -26 26 -48 12 -38 43 -75
62 -75 15 0 42 -74 29 -78 -18 -6 -13 -30 11 -51 16 -16 21 -31 20 -66 -2 -32
2 -47 13 -51 10 -4 14 -17 12 -38 -2 -27 1 -31 23 -30 14 1 29 -5 33 -12 4 -8
21 -14 38 -14 19 0 31 -6 35 -17 10 -31 20 -46 39 -57 28 -16 40 -29 48 -49 4
-9 13 -20 22 -23 19 -8 81 -69 88 -88 3 -8 16 -16 29 -18 17 -2 24 -11 26 -30
2 -16 8 -28 13 -28 5 0 9 -7 9 -15 0 -8 6 -15 14 -15 8 0 16 -7 19 -14 3 -8
22 -18 41 -22 23 -4 36 -12 36 -22 0 -19 59 -112 71 -112 5 0 9 -6 9 -14 0
-17 107 -156 121 -156 5 0 9 -5 9 -10 0 -18 43 -70 57 -70 23 0 14 30 -17 62
-16 16 -30 32 -30 34 0 5 -108 143 -119 154 -7 5 -31 47 -58 98 -9 17 -23 32
-30 32 -7 0 -13 6 -13 13 0 8 -22 50 -48 94 -45 75 -203 386 -225 443 -5 14
-16 39 -23 55 -35 77 -85 220 -113 325 -17 63 -36 131 -41 150 -24 83 -50 226
-69 375 -49 382 -27 774 65 1125 49 186 49 190 31 190 -9 0 -18 -13 -22 -30
-4 -16 -11 -30 -16 -30 -5 0 -9 -6 -9 -14 0 -8 -8 -24 -18 -37 -19 -22 -19
-22 -14 34 4 49 2 57 -13 57 -9 0 -19 -9 -22 -20 -3 -11 -9 -20 -14 -20 -5 0
-7 11 -3 25 5 21 3 25 -15 25 -12 0 -24 -6 -27 -14 -8 -20 -34 -8 -34 14 0 10
7 20 15 24 8 3 15 14 15 25 0 11 6 26 13 33 8 7 17 26 21 41 3 15 11 27 16 27
6 0 10 7 10 15 0 8 5 15 10 15 6 0 10 9 10 20 0 11 5 20 10 20 6 0 17 18 26
40 9 22 20 40 25 40 5 0 9 7 9 15 0 8 5 15 10 15 6 0 10 7 10 15 0 8 5 15 10
15 6 0 10 7 10 15 0 8 4 15 8 15 10 0 72 87 72 100 0 6 4 10 10 10 5 0 20 16
34 37 32 47 120 146 224 251 94 96 280 252 300 252 8 0 50 30 95 66 322 259
769 445 1235 514 165 24 194 26 437 28 118 1 239 -4 320 -13z M3110 7195 c0
-8 7 -15 15 -15 8 0 15 7 15 15 0 8 -7 15 -15 15 -8 0 -15 -7 -15 -15z M2930
6950 c0 -11 7 -20 15 -20 8 0 15 9 15 20 0 11 -7 20 -15 20 -8 0 -15 -9 -15
-20z M2886 6898 c-3 -7 -7 -26 -11 -42 -3 -17 -13 -35 -22 -41 -8 -6 -22 -29
-29 -51 -17 -49 -17 -54 -1 -54 8 0 24 24 38 53 13 28 26 54 29 57 10 10 40
69 40 79 0 15 -40 14 -44 -1z M2760 6785 c0 -8 7 -15 15 -15 8 0 15 7 15 15 0
8 -7 15 -15 15 -8 0 -15 -7 -15 -15z M2777 6682 c-10 -10 -17 -24 -17 -30 0
-7 -4 -12 -10 -12 -5 0 -10 -16 -10 -35 0 -27 4 -35 18 -35 13 0 25 16 40 53
12 29 22 58 22 65 0 18 -25 15 -43 -6z M2717 6503 c-20 -57 -21 -73 -4 -73 11
0 47 82 47 109 0 29 -28 6 -43 -36z M2280 4525 c0 -8 9 -15 20 -15 11 0 20 7
20 15 0 8 -9 15 -20 15 -11 0 -20 -7 -20 -15z M2390 4345 c0 -8 7 -15 15 -15
8 0 15 7 15 15 0 8 -7 15 -15 15 -8 0 -15 -7 -15 -15z M2370 4200 c0 -11 7
-20 15 -20 8 0 15 9 15 20 0 11 -7 20 -15 20 -8 0 -15 -9 -15 -20z M2530 3915
c0 -8 7 -15 15 -15 8 0 15 7 15 15 0 8 -7 15 -15 15 -8 0 -15 -7 -15 -15z
M2653 3873 c-28 -5 -31 -43 -8 -87 8 -15 15 -33 15 -38 0 -17 44 -47 69 -48
23 0 24 2 18 57 -3 32 -11 59 -17 61 -5 2 -10 11 -10 21 0 20 -19 42 -34 40
-6 -1 -21 -4 -33 -6z m46 -48 c2 -11 7 -22 11 -25 5 -3 11 -23 15 -44 l8 -39
-26 19 c-15 10 -27 26 -27 35 0 8 -4 19 -9 25 -5 5 -12 19 -16 32 -6 21 -4 23
16 20 14 -2 25 -11 28 -23z M2560 3830 c0 -20 5 -30 15 -30 10 0 15 10 15 30
0 20 -5 30 -15 30 -10 0 -15 -10 -15 -30z M2820 3715 c0 -8 7 -15 15 -15 8 0
15 7 15 15 0 8 -7 15 -15 15 -8 0 -15 -7 -15 -15z M2800 3630 c0 -11 7 -20 15
-20 8 0 15 9 15 20 0 11 -7 20 -15 20 -8 0 -15 -9 -15 -20z M2920 3536 c0 -13
20 -26 41 -26 15 0 10 27 -7 34 -24 9 -34 7 -34 -8z M3070 3535 c0 -8 7 -15
15 -15 8 0 15 7 15 15 0 8 -7 15 -15 15 -8 0 -15 -7 -15 -15z M2850 3465 c0
-8 7 -15 15 -15 8 0 15 7 15 15 0 8 -7 15 -15 15 -8 0 -15 -7 -15 -15z M2902
3434 c2 -11 11 -20 22 -22 13 -3 17 1 14 14 -2 11 -11 20 -22 22 -13 3 -17 -1
-14 -14z M3200 3355 c0 -8 7 -15 15 -15 8 0 15 7 15 15 0 8 -7 15 -15 15 -8 0
-15 -7 -15 -15z M3050 3305 c0 -8 7 -15 15 -15 8 0 15 7 15 15 0 8 -7 15 -15
15 -8 0 -15 -7 -15 -15z M3270 3290 c0 -11 7 -20 15 -20 8 0 15 9 15 20 0 11
-7 20 -15 20 -8 0 -15 -9 -15 -20z M3403 2953 c-7 -2 -13 -14 -13 -25 0 -17 4
-19 27 -13 35 8 37 11 30 30 -6 15 -21 18 -44 8z M3730 2925 c0 -8 7 -15 15
-15 8 0 15 7 15 15 0 8 -7 15 -15 15 -8 0 -15 -7 -15 -15z M3490 2907 c0 -16
47 -44 57 -33 4 4 2 15 -3 24 -14 22 -54 29 -54 9z M3770 2887 c0 -7 5 -18 12
-25 7 -7 18 -12 25 -12 19 0 16 37 -3 44 -24 9 -34 7 -34 -7z M3590 2866 c0
-14 48 -32 57 -22 3 3 3 12 0 21 -8 19 -57 20 -57 1z M3730 2865 c0 -8 7 -15
15 -15 8 0 15 7 15 15 0 8 -7 15 -15 15 -8 0 -15 -7 -15 -15z M3662 2844 c2
-11 11 -20 22 -22 13 -3 17 1 14 14 -2 11 -11 20 -22 22 -13 3 -17 -1 -14 -14z
M3800 2825 c0 -8 7 -15 15 -15 8 0 15 7 15 15 0 8 -7 15 -15 15 -8 0 -15 -7
-15 -15z M3740 2795 c0 -8 7 -15 15 -15 8 0 15 7 15 15 0 8 -7 15 -15 15 -8 0
-15 -7 -15 -15z M3960 2747 c0 -29 29 -57 58 -57 28 0 39 20 17 32 -9 6 -26
19 -36 29 -25 25 -39 24 -39 -4z M3770 2735 c0 -8 7 -15 15 -15 8 0 15 7 15
15 0 8 -7 15 -15 15 -8 0 -15 -7 -15 -15z M3730 2685 c0 -8 7 -15 15 -15 8 0
15 7 15 15 0 8 -7 15 -15 15 -8 0 -15 -7 -15 -15z M4045 2690 c-10 -17 38 -70
58 -66 19 5 114 -45 132 -68 6 -7 27 -16 48 -20 61 -11 45 15 -35 59 -40 21
-79 45 -86 52 -7 7 -18 13 -24 13 -5 0 -21 9 -35 20 -28 22 -48 25 -58 10z
M3690 2675 c0 -8 7 -15 15 -15 8 0 15 7 15 15 0 8 -7 15 -15 15 -8 0 -15 -7
-15 -15z M3880 2655 c0 -16 30 -35 54 -35 25 0 19 26 -9 38 -34 16 -45 15 -45
-3z M4330 2495 c0 -8 7 -15 15 -15 8 0 15 7 15 15 0 8 -7 15 -15 15 -8 0 -15
-7 -15 -15z M4400 2495 c0 -8 7 -15 15 -15 8 0 15 7 15 15 0 8 -7 15 -15 15
-8 0 -15 -7 -15 -15z M4450 2460 c0 -12 7 -20 18 -20 9 0 26 -7 36 -15 27 -20
46 -19 46 3 0 11 -14 25 -35 35 -47 22 -65 21 -65 -3z M4390 2375 c0 -8 7 -15
15 -15 8 0 15 7 15 15 0 8 -7 15 -15 15 -8 0 -15 -7 -15 -15z M4680 2365 c0
-26 7 -29 34 -19 27 10 20 44 -9 44 -20 0 -25 -5 -25 -25z M4550 2365 c0 -9 9
-15 25 -15 16 0 25 6 25 15 0 9 -9 15 -25 15 -16 0 -25 -6 -25 -15z M4500
2355 c0 -8 7 -15 15 -15 8 0 15 7 15 15 0 8 -7 15 -15 15 -8 0 -15 -7 -15 -15z
M4520 2305 c0 -8 7 -15 15 -15 8 0 15 7 15 15 0 8 -7 15 -15 15 -8 0 -15 -7
-15 -15z M4720 2305 c0 -8 7 -15 15 -15 8 0 15 7 15 15 0 8 -7 15 -15 15 -8 0
-15 -7 -15 -15z M4872 2264 c2 -11 11 -20 22 -22 13 -3 17 1 14 14 -2 11 -11
20 -22 22 -13 3 -17 -1 -14 -14z M5242 2263 c5 -26 38 -29 38 -4 0 15 -6 21
-21 21 -14 0 -19 -5 -17 -17z M5470 2255 c0 -12 14 -15 70 -15 56 0 70 3 70
15 0 12 -14 15 -70 15 -56 0 -70 -3 -70 -15z m63 -2 c-7 -2 -21 -2 -30 0 -10
3 -4 5 12 5 17 0 24 -2 18 -5z m44 1 c-3 -3 -12 -4 -19 -1 -8 3 -5 6 6 6 11 1
17 -2 13 -5z M5170 2225 c0 -8 7 -15 15 -15 8 0 15 7 15 15 0 8 -7 15 -15 15
-8 0 -15 -7 -15 -15z M5040 2215 c0 -8 7 -15 15 -15 8 0 15 7 15 15 0 8 -7 15
-15 15 -8 0 -15 -7 -15 -15z M2335 6090 c-3 -5 -9 -32 -12 -60 -6 -49 -5 -50
20 -50 32 0 47 25 47 79 0 37 -3 41 -24 41 -14 0 -28 -4 -31 -10z m35 -33 c0
-13 -7 -32 -15 -43 -15 -18 -16 -17 -9 16 10 54 24 69 24 27z M2320 5716 c0
-14 -4 -28 -10 -31 -5 -3 -10 -17 -10 -31 0 -20 5 -24 30 -24 25 0 30 4 30 25
0 14 5 25 10 25 6 0 10 14 10 30 0 27 -3 30 -30 30 -25 0 -30 -4 -30 -24z m40
-6 c0 -5 -4 -10 -10 -10 -5 0 -10 5 -10 10 0 6 5 10 10 10 6 0 10 -4 10 -10z
m-20 -50 c0 -5 -5 -10 -11 -10 -5 0 -7 5 -4 10 3 6 8 10 11 10 2 0 4 -4 4 -10z
M2260 5480 c0 -23 -4 -30 -20 -30 -15 0 -20 -7 -20 -29 0 -20 6 -30 20 -34 11
-3 20 -12 20 -21 0 -11 9 -16 30 -16 l29 0 0 80 0 80 -30 0 c-26 0 -29 -3 -29
-30z m40 -5 c0 -8 -4 -15 -10 -15 -5 0 -10 7 -10 15 0 8 5 15 10 15 6 0 10 -7
10 -15z m-26 -55 c25 -9 38 -50 16 -50 -5 0 -10 7 -10 16 0 9 -9 18 -20 21
-11 3 -20 9 -20 14 0 11 3 11 34 -1z"/>
</g>
</svg>
