<?xml version="1.0" standalone="no"?>
<!DOCTYPE svg PUBLIC "-//W3C//DTD SVG 20010904//EN"
 "http://www.w3.org/TR/2001/REC-SVG-20010904/DTD/svg10.dtd">
<svg version="1.0" xmlns="http://www.w3.org/2000/svg"
 width="1024.000000pt" height="1024.000000pt" viewBox="0 0 1024.000000 1024.000000"
 preserveAspectRatio="xMidYMid meet">
<metadata>
Created by potrace 1.14, written by Peter Selinger 2001-2017
</metadata>
<g transform="translate(0.000000,1024.000000) scale(0.100000,-0.100000)"
fill="#000000" stroke="none">
<path d="M4868 8049 c-538 -47 -1049 -235 -1446 -532 -126 -94 -282 -236 -372
-340 -41 -48 -80 -87 -87 -87 -6 0 -13 -10 -15 -22 -2 -15 -11 -24 -25 -26
-13 -2 -23 -10 -23 -18 0 -8 -4 -14 -10 -14 -13 0 -50 -37 -50 -50 0 -5 -9
-15 -20 -22 -11 -7 -20 -18 -20 -25 0 -7 -4 -13 -10 -13 -5 0 -10 -7 -10 -15
0 -8 -4 -15 -10 -15 -5 0 -10 -7 -10 -15 0 -8 -9 -20 -20 -27 -11 -7 -20 -18
-20 -25 0 -7 -5 -13 -11 -13 -8 0 -9 -13 -5 -40 4 -25 2 -40 -4 -40 -5 0 -10
-14 -10 -30 0 -17 -11 -52 -24 -78 -81 -161 -174 -436 -216 -642 -49 -240 -63
-400 -57 -680 6 -333 38 -535 137 -875 26 -90 117 -325 159 -412 26 -53 26
-63 0 -63 -17 0 -20 -5 -17 -32 2 -26 8 -34 26 -36 13 -2 29 1 36 7 10 9 15 8
20 -4 3 -10 0 -15 -11 -15 -13 0 -15 -8 -10 -45 4 -25 13 -58 22 -74 12 -25
13 -31 0 -41 -18 -15 -35 -5 -35 20 0 11 -12 30 -26 43 -19 18 -27 39 -34 88
-9 61 -24 154 -36 227 -4 17 -10 32 -15 32 -5 0 -9 7 -9 15 0 8 -4 15 -10 15
-5 0 -10 19 -10 43 0 30 -5 45 -19 54 -10 6 -21 28 -25 47 -8 40 -58 96 -87
96 -15 0 -19 7 -19 31 0 30 -19 59 -39 59 -15 0 -51 32 -51 46 0 6 -9 21 -20
34 -11 13 -20 36 -20 52 0 24 -4 28 -30 28 -27 0 -30 -3 -30 -30 0 -16 4 -30
9 -30 5 0 11 -26 13 -57 3 -32 14 -92 26 -133 11 -41 28 -102 37 -135 9 -33
24 -78 34 -100 10 -22 24 -59 31 -82 7 -24 17 -43 22 -43 4 0 8 -11 8 -24 0
-14 6 -31 12 -38 21 -23 38 -57 38 -76 0 -11 11 -31 25 -46 14 -15 25 -36 25
-47 0 -26 18 -61 41 -77 9 -6 20 -26 24 -42 4 -17 11 -30 16 -30 5 0 9 -9 9
-20 0 -11 5 -20 10 -20 6 0 17 -18 26 -40 9 -22 20 -40 25 -40 5 0 9 -4 9 -10
0 -5 20 -28 45 -51 25 -23 45 -46 45 -51 0 -6 11 -19 24 -29 14 -11 27 -32 31
-48 7 -33 36 -71 54 -71 6 0 11 -9 11 -20 0 -14 7 -20 23 -20 27 0 67 -42 67
-70 0 -11 5 -20 10 -20 6 0 10 -4 10 -10 0 -13 37 -50 50 -50 6 0 10 -4 10 -9
0 -11 90 -101 101 -101 5 0 9 -4 9 -10 0 -13 37 -50 49 -50 5 0 18 -11 29 -25
11 -14 25 -25 31 -25 7 0 14 -7 17 -15 4 -8 12 -15 20 -15 8 0 14 -4 14 -10 0
-5 7 -10 15 -10 9 0 18 -7 21 -15 4 -8 12 -15 20 -15 8 0 14 -4 14 -10 0 -5 7
-10 15 -10 9 0 18 -7 21 -15 4 -8 13 -15 20 -15 8 0 17 -7 20 -15 4 -8 12 -15
20 -15 8 0 14 -4 14 -9 0 -5 18 -16 40 -25 22 -9 40 -20 40 -26 0 -5 8 -10 18
-10 10 0 25 -9 35 -20 9 -11 26 -20 36 -20 11 0 24 -6 28 -14 9 -16 188 -106
210 -106 8 0 21 -7 29 -15 9 -8 26 -15 39 -15 13 0 25 -4 27 -9 10 -27 370
-135 491 -147 37 -4 67 -11 67 -15 0 -5 12 -9 28 -9 15 0 43 -5 62 -11 54 -17
306 -27 354 -14 20 5 31 4 37 -6 10 -17 199 -26 199 -10 0 6 30 9 73 8 67 -2
72 -1 75 20 3 20 10 22 100 27 144 7 267 21 357 41 44 9 98 21 121 25 22 5 53
14 70 21 16 6 38 15 49 19 11 5 31 11 45 13 159 31 466 191 731 382 521 375
904 934 1084 1580 30 108 43 175 75 370 72 435 12 1005 -152 1445 -430 1159
-1533 1917 -2773 1908 -82 0 -189 -4 -237 -9z m474 -19 c1137 -90 2120 -831
2516 -1900 162 -436 222 -984 152 -1405 -32 -195 -45 -262 -75 -370 -180 -646
-563 -1205 -1084 -1580 -265 -191 -572 -351 -731 -382 -14 -2 -34 -8 -45 -13
-11 -4 -33 -13 -49 -19 -17 -7 -48 -16 -70 -21 -23 -4 -77 -16 -121 -25 -94
-21 -218 -34 -367 -41 -85 -4 -108 -8 -108 -20 0 -8 5 -14 11 -14 5 0 7 -5 4
-10 -4 -6 -33 -8 -76 -4 -49 5 -69 4 -69 -5 0 -16 -27 -14 -34 4 -4 12 3 15
29 15 24 0 35 5 35 15 0 23 -80 21 -81 -2 -1 -17 -2 -17 -6 0 -2 9 -12 17 -21
17 -9 0 -34 3 -54 6 -31 5 -38 4 -38 -10 0 -9 8 -16 20 -16 11 0 20 -5 20 -11
0 -7 11 -8 31 -4 24 6 30 4 27 -6 -6 -16 -77 -17 -87 -2 -3 6 -23 13 -44 17
-28 5 -41 3 -54 -9 -12 -12 -24 -15 -47 -10 -17 5 -63 8 -103 9 -69 1 -72 2
-75 26 -2 15 -10 26 -22 28 -16 3 -18 0 -12 -23 6 -23 4 -27 -11 -21 -9 4 -38
10 -63 13 -25 3 -48 10 -51 15 -3 5 -35 11 -70 14 -113 9 -477 118 -487 145
-2 5 -14 9 -27 9 -13 0 -30 7 -39 15 -8 8 -21 15 -29 15 -22 0 -201 90 -210
106 -4 8 -17 14 -28 14 -10 0 -27 9 -36 20 -10 11 -25 20 -35 20 -10 0 -18 5
-18 10 0 6 -18 17 -40 26 -22 9 -40 20 -40 25 0 5 -6 9 -14 9 -8 0 -16 7 -20
15 -3 8 -12 15 -20 15 -7 0 -16 7 -20 15 -3 8 -12 15 -21 15 -8 0 -15 5 -15
10 0 6 -6 10 -14 10 -8 0 -16 7 -20 15 -3 8 -12 15 -21 15 -8 0 -15 5 -15 10
0 6 -6 10 -14 10 -8 0 -16 7 -20 15 -3 8 -10 15 -17 15 -6 0 -20 11 -31 25
-11 14 -24 25 -29 25 -12 0 -49 37 -49 50 0 6 -4 10 -9 10 -11 0 -101 90 -101
101 0 5 -5 9 -10 9 -13 0 -50 37 -50 50 0 6 -4 10 -10 10 -5 0 -10 9 -10 20 0
28 -40 70 -67 70 -16 0 -23 6 -23 20 0 11 -5 20 -11 20 -18 0 -47 38 -54 71
-4 16 -17 37 -31 48 -13 10 -24 23 -24 29 0 5 -20 28 -45 51 -25 23 -45 46
-45 51 0 6 -4 10 -9 10 -5 0 -16 18 -25 40 -9 22 -20 40 -26 40 -5 0 -10 9
-10 20 0 11 -4 20 -9 20 -5 0 -12 13 -16 30 -4 16 -15 36 -24 42 -23 16 -41
51 -41 77 0 11 -11 32 -25 47 -18 19 -23 33 -19 50 4 15 2 24 -5 24 -6 0 -15
8 -18 18 -4 9 -13 23 -20 30 -7 7 -13 24 -13 38 0 13 -4 24 -8 24 -12 0 -31
58 -25 79 3 10 -2 21 -10 24 -14 5 -37 68 -65 172 -6 22 -20 72 -32 112 -11
39 -20 83 -20 99 l0 27 20 -23 c11 -13 20 -28 20 -34 0 -14 36 -46 51 -46 25
0 39 -30 39 -84 0 -49 2 -56 20 -56 14 0 20 7 20 24 l0 24 30 -29 c16 -16 32
-45 36 -65 3 -19 14 -40 23 -47 9 -7 17 -29 18 -52 1 -22 7 -41 12 -43 6 -2
11 -10 11 -18 0 -8 5 -14 10 -14 6 0 10 -12 10 -26 0 -14 5 -34 10 -45 6 -10
12 -48 15 -84 6 -101 24 -173 46 -189 11 -7 24 -27 28 -42 5 -22 14 -30 35
-32 51 -6 70 31 42 86 -7 15 -16 39 -20 55 -5 23 -3 27 14 27 11 0 20 5 20 10
0 8 -56 127 -90 191 -25 48 -127 315 -150 394 -96 331 -130 543 -137 855 -6
258 9 424 57 660 43 212 134 480 222 654 16 32 27 67 25 77 -3 12 0 19 9 19
17 0 17 5 5 48 -6 20 -6 32 0 32 5 0 9 6 9 13 0 7 9 18 20 25 20 12 20 12 0
-21 -23 -37 -25 -57 -7 -57 7 0 24 21 37 48 14 26 28 49 33 50 4 2 7 8 7 13 0
6 9 19 20 31 21 23 27 48 10 48 -5 0 -6 8 -3 17 11 28 37 48 57 45 15 -3 18 0
14 16 -4 16 -1 22 15 24 11 2 25 12 31 23 6 10 18 26 27 35 9 8 49 53 90 99
88 99 229 227 354 320 515 385 1227 584 1897 531z m-2522 -1160 c0 -5 -4 -10
-10 -10 -5 0 -10 5 -10 10 0 6 5 10 10 10 6 0 10 -4 10 -10z m-20 -30 c0 -5
-4 -10 -10 -10 -5 0 -10 5 -10 10 0 6 5 10 10 10 6 0 10 -4 10 -10z m-520
-2250 c0 -5 -4 -10 -10 -10 -5 0 -10 5 -10 10 0 6 5 10 10 10 6 0 10 -4 10
-10z m431 -693 c-1 -12 -15 -9 -19 4 -3 6 1 10 8 8 6 -3 11 -8 11 -12z m2386
-1633 c-3 -3 -12 -4 -19 -1 -8 3 -5 6 6 6 11 1 17 -2 13 -5z m146 -11 c-7 -2
-19 -2 -25 0 -7 3 -2 5 12 5 14 0 19 -2 13 -5z M2390 4175 c0 -8 7 -15 15 -15
8 0 15 7 15 15 0 8 -7 15 -15 15 -8 0 -15 -7 -15 -15z M2534 3884 c7 -54 12
-64 32 -64 23 0 28 28 14 71 -10 28 -19 39 -33 39 -18 0 -19 -5 -13 -46z
M2780 3806 c0 -8 3 -16 8 -18 4 -1 20 -29 36 -60 16 -32 32 -58 37 -58 5 0 9
-5 9 -10 0 -19 73 -120 86 -120 8 0 14 5 14 11 0 11 -56 98 -74 114 -6 6 -24
36 -40 68 -16 31 -33 57 -38 57 -4 0 -8 7 -8 15 0 8 -7 15 -15 15 -8 0 -15 -6
-15 -14z M2910 3515 c0 -8 5 -15 10 -15 6 0 10 -9 10 -20 0 -11 7 -20 15 -20
14 0 85 -62 85 -74 0 -12 -35 9 -60 36 -34 35 -90 40 -90 8 0 -13 7 -20 20
-20 22 0 70 -44 70 -65 0 -7 12 -15 28 -17 19 -2 28 -9 30 -25 2 -13 9 -23 15
-23 7 0 22 -3 35 -6 18 -5 22 -2 22 15 0 11 -4 21 -9 21 -16 0 -21 29 -10 54
10 21 6 32 -31 86 -32 48 -46 61 -61 57 -11 -3 -26 1 -33 9 -19 18 -46 18 -46
-1z m95 -45 c3 -5 1 -10 -4 -10 -6 0 -11 5 -11 10 0 6 2 10 4 10 3 0 8 -4 11
-10z m45 -119 c0 -4 -13 -6 -30 -3 -16 2 -30 7 -30 11 0 4 14 6 30 3 17 -2 30
-7 30 -11z M3090 3354 c0 -9 16 -32 35 -51 19 -19 35 -37 35 -40 0 -5 151
-176 164 -185 17 -12 36 -9 36 5 0 6 -43 57 -95 112 -52 55 -95 102 -95 105
-1 10 -60 70 -70 70 -5 0 -10 -7 -10 -16z m51 -41 c13 -16 12 -17 -3 -4 -17
13 -22 21 -14 21 2 0 10 -8 17 -17z m75 -85 l29 -33 -32 29 c-31 28 -38 36
-30 36 2 0 16 -15 33 -32z m74 -83 c13 -14 21 -25 18 -25 -2 0 -15 11 -28 25
-13 14 -21 25 -18 25 2 0 15 -11 28 -25z M3410 3017 c0 -14 41 -57 54 -57 4 0
16 -10 26 -22 15 -18 21 -20 31 -11 10 10 9 15 -1 28 -7 8 -17 15 -22 15 -5 0
-21 14 -35 30 -26 31 -53 40 -53 17z m41 -24 c13 -16 12 -17 -3 -4 -17 13 -22
21 -14 21 2 0 10 -8 17 -17z M3422 2918 c2 -15 11 -24 26 -26 18 -3 22 1 22
22 0 21 -5 26 -26 26 -21 0 -25 -4 -22 -22z M3524 2915 c-8 -21 2 -33 36 -40
17 -4 30 -11 30 -16 0 -12 161 -129 177 -129 7 0 13 -4 13 -10 0 -5 -13 -7
-30 -3 -32 6 -41 -12 -18 -35 20 -20 58 -15 58 7 0 14 5 18 20 14 29 -8 26 24
-2 33 -13 4 -25 10 -28 13 -7 10 -168 131 -174 131 -3 0 -17 11 -32 25 -31 29
-42 31 -50 10z M3850 2671 c0 -36 9 -43 49 -35 39 8 39 24 0 47 -42 23 -49 22
-49 -12z M3960 2615 c0 -15 166 -105 194 -105 8 0 16 -4 18 -9 4 -11 220 -101
242 -101 9 0 16 -7 16 -15 0 -10 10 -15 28 -15 15 0 54 -7 87 -16 33 -8 70
-18 83 -21 15 -3 22 -1 22 8 0 9 -44 28 -122 53 -68 21 -170 58 -228 82 -57
24 -110 44 -116 44 -7 0 -14 3 -16 8 -4 9 -184 102 -198 102 -5 0 -10 -7 -10
-15z M4660 2335 c0 -8 7 -15 15 -15 8 0 15 7 15 15 0 8 -7 15 -15 15 -8 0 -15
-7 -15 -15z M4560 2325 c0 -8 7 -15 15 -15 8 0 15 7 15 15 0 8 -7 15 -15 15
-8 0 -15 -7 -15 -15z M4710 2327 c0 -16 20 -27 51 -27 11 0 19 -7 19 -16 0
-24 44 -13 48 12 3 18 -4 22 -35 28 -21 3 -48 9 -60 12 -17 5 -23 2 -23 -9z
M4840 2297 c0 -11 14 -18 45 -23 25 -3 45 -11 45 -16 0 -16 55 -4 58 13 2 12
-8 18 -40 23 -24 4 -58 9 -75 12 -26 5 -33 3 -33 -9z M5290 2255 c0 -8 7 -15
15 -15 8 0 15 7 15 15 0 8 -7 15 -15 15 -8 0 -15 -7 -15 -15z M2220 4695 c0
-21 5 -25 30 -25 25 0 30 4 30 25 0 21 -5 25 -30 25 -25 0 -30 -4 -30 -25z"/>
</g>
</svg>
