<?xml version="1.0" standalone="no"?>
<!DOCTYPE svg PUBLIC "-//W3C//DTD SVG 20010904//EN"
 "http://www.w3.org/TR/2001/REC-SVG-20010904/DTD/svg10.dtd">
<svg version="1.0" xmlns="http://www.w3.org/2000/svg"
 width="1024.000000pt" height="1024.000000pt" viewBox="0 0 1024.000000 1024.000000"
 preserveAspectRatio="xMidYMid meet">
<metadata>
Created by potrace 1.14, written by Peter Selinger 2001-2017
</metadata>
<g transform="translate(0.000000,1024.000000) scale(0.100000,-0.100000)"
fill="#000000" stroke="none">
<path d="M4880 8043 c-109 -8 -345 -46 -458 -74 -419 -101 -835 -309 -1148
-573 -654 -551 -1003 -1421 -934 -2327 21 -265 74 -532 157 -778 111 -333 310
-691 532 -956 55 -66 101 -125 101 -131 0 -7 -9 -14 -20 -17 -43 -11 -18 -82
32 -92 64 -12 87 -26 90 -53 2 -20 11 -29 35 -35 21 -7 33 -17 35 -31 2 -17
13 -22 58 -29 40 -7 67 -19 99 -45 147 -120 343 -249 506 -334 79 -41 121 -68
107 -68 -20 0 -23 -4 -20 -32 3 -31 6 -33 46 -36 39 -3 42 -1 42 22 0 31 3 31
55 6 22 -11 45 -19 52 -20 6 0 13 -15 15 -32 3 -32 5 -33 51 -36 38 -3 47 0
47 13 0 9 5 13 10 10 20 -12 275 -82 345 -95 39 -7 75 -19 82 -27 9 -11 21
-14 45 -9 17 3 111 -1 207 -10 154 -14 203 -15 391 -4 118 7 217 16 220 20 3
4 32 10 65 13 33 3 83 10 110 16 160 33 201 43 212 52 7 6 43 19 80 29 109 29
180 57 309 120 433 209 823 548 1106 960 190 275 348 628 423 945 240 1004
-34 2038 -729 2753 -488 502 -1109 805 -1798 877 -133 13 -431 18 -558 8z
m538 -28 c908 -95 1712 -605 2195 -1391 358 -584 494 -1319 372 -2009 -113
-643 -450 -1244 -932 -1667 -239 -209 -538 -399 -768 -488 -33 -12 -81 -31
-106 -41 -25 -10 -55 -15 -67 -12 -13 3 -22 1 -22 -6 0 -6 -8 -11 -18 -11 -10
0 -27 -7 -38 -15 -19 -13 -56 -22 -219 -56 -27 -6 -77 -13 -110 -16 -33 -3
-62 -9 -65 -13 -3 -4 -97 -13 -210 -20 -176 -10 -229 -9 -370 4 -91 9 -180 19
-197 22 -24 4 -33 2 -33 -7 0 -9 -4 -8 -12 3 -7 9 -44 21 -83 28 -74 13 -285
71 -348 95 -50 20 -60 19 -54 -5 4 -16 0 -20 -18 -20 -26 0 -46 21 -27 28 23
7 12 30 -20 41 -219 76 -565 280 -790 464 -25 20 -55 37 -67 37 -15 0 -21 6
-21 21 0 15 -5 19 -16 15 -9 -3 -12 -2 -8 5 7 13 -44 69 -63 69 -16 0 -17 -22
-1 -38 15 -15 8 -15 -27 -2 -20 8 -24 14 -20 33 5 19 1 24 -27 34 -18 6 -48
14 -66 18 -40 8 -64 44 -34 52 11 3 23 16 26 30 6 20 -10 44 -99 151 -121 144
-198 257 -312 458 -222 391 -347 815 -384 1298 -10 133 -7 355 6 455 2 20 10
77 16 126 46 365 179 740 377 1065 326 534 830 925 1469 1139 182 60 474 119
673 134 123 10 387 5 518 -8z m-2083 -4985 c10 -11 16 -20 13 -20 -3 0 -13 9
-23 20 -10 11 -16 20 -13 20 3 0 13 -9 23 -20z m13 -56 c-10 -10 -28 6 -28 24
0 15 1 15 17 -1 9 -9 14 -19 11 -23z m763 -504 c5 0 9 -5 9 -11 0 -15 -43 -7
-48 10 -3 10 0 12 12 8 10 -4 22 -7 27 -7z M3160 3185 c0 -7 6 -18 13 -22 6
-4 17 -17 23 -28 14 -25 44 -32 44 -11 0 8 -8 21 -18 28 -10 7 -21 21 -25 31
-8 21 -37 23 -37 2z M2324 4356 c-4 -9 -3 -36 0 -61 7 -42 9 -45 36 -45 35 0
46 28 33 81 -7 27 -15 35 -36 37 -18 2 -29 -2 -33 -12z m46 -41 c3 -31 1 -45
-9 -45 -11 0 -23 59 -15 72 8 13 22 -2 24 -27z M2642 3623 c3 -35 6 -38 36
-41 28 -3 32 0 32 22 0 42 -10 56 -42 56 -28 0 -29 -2 -26 -37z m42 1 c4 -9 4
-19 2 -21 -8 -8 -26 8 -26 23 0 19 16 18 24 -2z M3010 3137 c0 -38 25 -67 58
-67 17 0 22 6 22 25 0 38 -28 75 -56 75 -21 0 -24 -5 -24 -33z m60 -41 c0 -5
-9 -1 -20 9 -11 10 -20 25 -20 34 0 12 6 9 20 -9 11 -14 20 -29 20 -34z M3130
3000 c0 -20 5 -30 15 -30 8 0 15 -5 15 -11 0 -17 52 -59 73 -59 9 0 17 -7 17
-15 0 -8 7 -15 15 -15 8 0 15 -5 15 -11 0 -11 25 -39 35 -39 4 0 13 -7 21 -15
9 -8 29 -15 45 -15 24 0 29 4 29 24 0 14 -6 31 -13 38 -7 7 -16 21 -20 31 -4
12 -17 17 -42 17 -19 0 -35 5 -35 10 0 6 -9 10 -20 10 -12 0 -20 7 -20 16 0
18 -44 64 -61 64 -5 0 -9 7 -9 15 0 10 -10 15 -30 15 -27 0 -30 -3 -30 -30z
m70 -30 c24 -23 40 -43 38 -45 -5 -5 -88 70 -88 80 0 11 9 4 50 -35z m157
-110 c3 -11 9 -20 13 -20 4 0 10 -7 14 -15 3 -8 1 -15 -4 -15 -5 0 -15 7 -24
15 -8 8 -17 15 -21 15 -12 0 -34 27 -28 34 14 14 45 5 50 -14z M3510 2701 c0
-29 3 -31 36 -31 33 0 35 2 32 28 -2 22 -8 28 -35 30 -31 3 -33 1 -33 -27z
m45 -1 c3 -5 -1 -10 -9 -10 -9 0 -16 5 -16 10 0 6 4 10 9 10 6 0 13 -4 16 -10z"/>
</g>
</svg>
