<?xml version="1.0" standalone="no"?>
<!DOCTYPE svg PUBLIC "-//W3C//DTD SVG 20010904//EN"
 "http://www.w3.org/TR/2001/REC-SVG-20010904/DTD/svg10.dtd">
<svg version="1.0" xmlns="http://www.w3.org/2000/svg"
 width="1024.000000pt" height="1024.000000pt" viewBox="0 0 1024.000000 1024.000000"
 preserveAspectRatio="xMidYMid meet">
<metadata>
Created by potrace 1.14, written by Peter Selinger 2001-2017
</metadata>
<g transform="translate(0.000000,1024.000000) scale(0.100000,-0.100000)"
fill="#000000" stroke="none">
<path d="M4895 8044 c-227 -19 -529 -82 -737 -153 -980 -338 -1641 -1133
-1802 -2167 -35 -223 -43 -590 -17 -774 28 -199 50 -313 85 -455 54 -223 195
-570 273 -673 13 -18 38 -63 55 -99 49 -109 221 -353 272 -387 14 -9 26 -22
26 -29 0 -7 20 -35 45 -64 34 -39 41 -52 30 -57 -20 -7 -19 -50 1 -70 21 -22
64 -21 64 1 0 23 76 -51 97 -94 10 -21 23 -33 35 -33 11 0 46 -22 77 -48 156
-135 366 -275 566 -379 66 -34 114 -62 108 -63 -8 0 -13 -13 -13 -30 0 -26 4
-30 26 -30 23 0 26 3 22 29 l-4 30 35 -19 c102 -52 352 -134 515 -169 140 -31
342 -58 482 -66 132 -7 517 12 522 26 2 5 23 9 48 9 24 0 63 4 86 10 24 5 86
19 138 31 52 12 104 27 115 34 11 6 36 14 57 18 106 17 446 173 603 277 220
147 426 320 578 485 673 735 921 1749 671 2742 -123 491 -415 992 -785 1348
-457 440 -1020 713 -1649 800 -111 16 -517 28 -625 19z m605 -39 c800 -111
1519 -541 1983 -1189 308 -430 491 -929 537 -1461 47 -561 -81 -1151 -359
-1648 -234 -419 -546 -751 -976 -1037 -157 -104 -497 -260 -603 -277 -21 -4
-46 -12 -57 -18 -11 -7 -63 -22 -115 -34 -52 -12 -114 -26 -138 -31 -23 -6
-62 -10 -86 -10 -25 0 -46 -4 -48 -9 -5 -13 -375 -33 -490 -26 -129 8 -346 38
-474 66 -437 94 -918 337 -1262 636 -35 32 -68 53 -76 50 -9 -4 -20 6 -30 26
-21 44 -121 141 -136 132 -7 -4 -9 -17 -6 -31 5 -18 3 -22 -8 -18 -24 9 -27
33 -6 44 11 6 20 15 20 21 0 6 -23 36 -50 67 -28 31 -50 62 -50 69 0 7 -12 20
-26 29 -51 34 -223 278 -272 387 -17 36 -42 81 -55 99 -57 76 -179 352 -234
532 -53 173 -104 424 -128 631 -12 98 -14 312 -4 455 45 702 336 1342 821
1805 449 430 1078 704 1743 759 103 8 474 -4 585 -19z M3140 2986 c0 -26 37
-56 70 -56 14 0 20 7 20 23 0 31 -29 57 -63 57 -22 0 -27 -5 -27 -24z m56 -18
l19 -21 -27 18 c-29 18 -34 25 -20 25 5 0 17 -10 28 -22z M3360 2805 c0 -20 5
-25 25 -25 20 0 25 5 25 25 0 20 -5 25 -25 25 -20 0 -25 -5 -25 -25z"/>
</g>
</svg>
