<?xml version="1.0" standalone="no"?>
<!DOCTYPE svg PUBLIC "-//W3C//DTD SVG 20010904//EN"
 "http://www.w3.org/TR/2001/REC-SVG-20010904/DTD/svg10.dtd">
<svg version="1.0" xmlns="http://www.w3.org/2000/svg"
 width="1024.000000pt" height="1024.000000pt" viewBox="0 0 1024.000000 1024.000000"
 preserveAspectRatio="xMidYMid meet">
<metadata>
Created by potrace 1.14, written by Peter Selinger 2001-2017
</metadata>
<g transform="translate(0.000000,1024.000000) scale(0.100000,-0.100000)"
fill="#000000" stroke="none">
<path d="M4810 8019 c-702 -77 -1361 -407 -1820 -910 -183 -202 -301 -375
-437 -639 -132 -259 -224 -563 -268 -890 -34 -253 -27 -686 16 -891 76 -368
145 -574 281 -839 393 -765 1083 -1317 1900 -1519 444 -111 936 -116 1363 -16
141 33 215 55 215 66 0 5 13 9 28 9 71 0 431 161 592 265 539 349 926 818
1155 1400 96 243 157 499 185 774 13 132 13 449 0 582 -68 683 -360 1300 -841
1779 -444 442 -1000 718 -1644 816 -120 19 -598 27 -725 13z m705 -33 c546
-83 992 -277 1422 -618 811 -646 1211 -1706 1032 -2738 -36 -209 -80 -368
-154 -555 -229 -582 -616 -1051 -1155 -1400 -161 -104 -521 -265 -592 -265
-15 0 -28 -4 -28 -9 0 -17 -254 -82 -420 -106 -1042 -154 -2084 275 -2739
1127 -199 260 -391 638 -479 943 -19 65 -55 216 -81 344 -42 204 -50 593 -16
846 43 328 135 634 268 895 73 142 109 205 169 295 282 421 636 733 1086 958
322 160 651 258 1002 296 124 14 565 6 685 -13z"/>
</g>
</svg>
