<?xml version="1.0" standalone="no"?>
<!DOCTYPE svg PUBLIC "-//W3C//DTD SVG 20010904//EN"
 "http://www.w3.org/TR/2001/REC-SVG-20010904/DTD/svg10.dtd">
<svg version="1.0" xmlns="http://www.w3.org/2000/svg"
 width="1024.000000pt" height="1024.000000pt" viewBox="0 0 1024.000000 1024.000000"
 preserveAspectRatio="xMidYMid meet">
<metadata>
Created by potrace 1.14, written by Peter Selinger 2001-2017
</metadata>
<g transform="translate(0.000000,1024.000000) scale(0.100000,-0.100000)"
fill="#000000" stroke="none">
<path d="M4860 8014 c-124 -15 -328 -48 -400 -65 -803 -186 -1480 -697 -1873
-1414 -94 -173 -224 -495 -247 -614 -5 -25 -18 -84 -29 -131 -44 -192 -61
-357 -63 -622 -1 -159 3 -283 11 -333 50 -330 82 -466 155 -665 77 -212 204
-464 326 -645 178 -263 441 -535 705 -727 408 -297 913 -490 1407 -538 162
-16 502 -14 658 4 330 39 671 140 949 281 123 62 288 168 437 277 544 403 945
1053 1075 1744 47 250 63 603 39 845 -40 397 -169 815 -350 1129 -299 521
-713 917 -1230 1176 -292 146 -563 230 -925 285 -70 11 -579 21 -645 13z m625
-33 c360 -55 633 -139 926 -286 210 -106 322 -179 524 -340 384 -308 690 -725
868 -1180 257 -659 263 -1407 16 -2060 -193 -511 -532 -968 -943 -1273 -148
-109 -314 -215 -435 -276 -138 -70 -343 -150 -378 -148 -13 1 -23 -2 -23 -7 0
-10 -107 -44 -210 -66 -41 -9 -102 -23 -135 -30 -33 -8 -127 -21 -210 -31
-183 -20 -582 -15 -738 10 -553 89 -1043 311 -1457 662 -118 99 -321 310 -409
424 -293 379 -499 838 -570 1270 -42 259 -44 286 -43 519 2 244 20 414 63 601
11 47 24 106 29 131 23 119 153 441 247 614 393 717 1070 1228 1873 1414 72
17 274 50 400 65 65 8 534 -2 605 -13z"/>
</g>
</svg>
