<?xml version="1.0" standalone="no"?>
<!DOCTYPE svg PUBLIC "-//W3C//DTD SVG 20010904//EN"
 "http://www.w3.org/TR/2001/REC-SVG-20010904/DTD/svg10.dtd">
<svg version="1.0" xmlns="http://www.w3.org/2000/svg"
 width="1024.000000pt" height="1024.000000pt" viewBox="0 0 1024.000000 1024.000000"
 preserveAspectRatio="xMidYMid meet">
<metadata>
Created by potrace 1.14, written by Peter Selinger 2001-2017
</metadata>
<g transform="translate(0.000000,1024.000000) scale(0.100000,-0.100000)"
fill="#000000" stroke="none">
<path d="M4895 8009 c-710 -59 -1336 -347 -1825 -838 -303 -305 -510 -629
-659 -1033 -79 -213 -122 -403 -157 -688 -22 -184 -15 -557 16 -744 52 -322
140 -595 285 -881 446 -881 1305 -1463 2309 -1565 137 -14 557 -8 676 10 228
34 500 101 500 122 0 4 12 8 27 8 25 0 157 46 268 93 268 114 588 335 828 571
295 290 498 598 657 999 150 378 219 827 191 1239 -48 715 -323 1342 -806
1837 -465 477 -1062 775 -1716 856 -156 19 -452 26 -594 14z m578 -35 c839
-104 1595 -577 2060 -1290 269 -411 422 -879 458 -1393 27 -392 -43 -836 -191
-1208 -240 -604 -617 -1054 -1187 -1415 -159 -100 -496 -248 -566 -248 -15 0
-27 -4 -27 -8 0 -21 -274 -88 -500 -122 -121 -18 -500 -24 -636 -11 -1004 103
-1863 685 -2309 1566 -145 286 -234 560 -285 881 -30 188 -38 525 -16 704 35
285 78 475 157 688 149 404 356 728 659 1033 489 491 1116 779 1825 838 137
12 401 5 558 -15z"/>
</g>
</svg>
