<?xml version="1.0" standalone="no"?>
<!DOCTYPE svg PUBLIC "-//W3C//DTD SVG 20010904//EN"
 "http://www.w3.org/TR/2001/REC-SVG-20010904/DTD/svg10.dtd">
<svg version="1.0" xmlns="http://www.w3.org/2000/svg"
 width="1024.000000pt" height="1024.000000pt" viewBox="0 0 1024.000000 1024.000000"
 preserveAspectRatio="xMidYMid meet">
<metadata>
Created by potrace 1.14, written by Peter Selinger 2001-2017
</metadata>
<g transform="translate(0.000000,1024.000000) scale(0.100000,-0.100000)"
fill="#000000" stroke="none">
<path d="M4885 7993 c-109 -9 -343 -47 -451 -73 -806 -192 -1503 -741 -1878
-1480 -305 -599 -392 -1320 -240 -1977 202 -872 819 -1614 1636 -1968 426
-184 891 -266 1343 -237 222 15 541 72 695 125 230 80 303 109 422 168 145 72
289 159 341 205 7 5 46 33 88 61 42 29 93 68 114 87 21 20 41 36 45 36 17 0
286 276 364 374 458 574 681 1290 627 2016 -43 582 -226 1075 -575 1540 -117
157 -331 378 -486 500 -524 416 -1160 635 -1829 628 -97 -1 -194 -3 -216 -5z
m521 -29 c368 -38 686 -133 1023 -304 541 -275 998 -742 1266 -1295 348 -717
375 -1578 74 -2305 -161 -388 -361 -687 -647 -967 -75 -73 -139 -133 -142
-133 -4 0 -24 -16 -45 -36 -21 -19 -72 -58 -114 -87 -42 -28 -81 -56 -88 -61
-52 -46 -196 -133 -341 -205 -119 -59 -192 -88 -422 -168 -151 -52 -472 -110
-688 -124 -341 -23 -722 28 -1065 142 -1008 336 -1737 1190 -1916 2245 -82
481 -25 1027 154 1484 289 735 839 1300 1565 1608 262 110 586 189 885 215
111 10 369 5 501 -9z"/>
</g>
</svg>
