<?xml version="1.0" standalone="no"?>
<!DOCTYPE svg PUBLIC "-//W3C//DTD SVG 20010904//EN"
 "http://www.w3.org/TR/2001/REC-SVG-20010904/DTD/svg10.dtd">
<svg version="1.0" xmlns="http://www.w3.org/2000/svg"
 width="1024.000000pt" height="1024.000000pt" viewBox="0 0 1024.000000 1024.000000"
 preserveAspectRatio="xMidYMid meet">
<metadata>
Created by potrace 1.14, written by Peter Selinger 2001-2017
</metadata>
<g transform="translate(0.000000,1024.000000) scale(0.100000,-0.100000)"
fill="#000000" stroke="none">
<path d="M4875 7980 c-619 -57 -1176 -292 -1640 -691 -273 -234 -511 -540
-674 -866 -215 -428 -306 -829 -305 -1338 1 -174 5 -250 23 -365 67 -441 212
-826 445 -1180 571 -867 1549 -1346 2591 -1271 185 14 321 33 352 49 12 7 35
12 52 12 35 0 193 36 236 54 17 7 66 24 110 39 44 14 107 35 140 47 76 27 337
157 350 173 6 7 25 19 43 26 17 7 32 17 32 22 0 5 7 9 15 9 8 0 15 3 15 8 0 4
16 16 35 26 19 11 35 23 35 28 0 4 5 8 11 8 15 0 138 90 219 159 414 358 686
753 856 1243 72 208 107 356 144 618 17 118 23 410 11 561 -51 670 -327 1292
-781 1763 -454 471 -1031 760 -1694 852 -130 18 -492 26 -621 14z m601 -34
c666 -93 1240 -381 1694 -852 326 -338 577 -786 695 -1239 77 -301 106 -601
87 -901 -7 -99 -18 -203 -26 -230 -7 -27 -14 -67 -15 -89 -2 -57 -56 -269
-103 -410 -170 -505 -446 -911 -868 -1276 -81 -69 -204 -159 -219 -159 -6 0
-11 -4 -11 -8 0 -5 -16 -17 -35 -28 -19 -10 -35 -22 -35 -26 0 -5 -7 -8 -15
-8 -8 0 -15 -4 -15 -9 0 -5 -15 -15 -32 -22 -18 -7 -37 -19 -43 -26 -13 -16
-274 -146 -350 -173 -33 -12 -96 -33 -140 -47 -44 -15 -93 -32 -110 -39 -43
-18 -201 -54 -236 -54 -17 0 -40 -5 -52 -12 -60 -32 -436 -63 -647 -53 -260
11 -475 48 -720 122 -866 261 -1568 945 -1855 1807 -103 309 -147 569 -148
871 -1 491 92 895 304 1318 440 880 1323 1473 2314 1556 136 12 456 4 581 -13z"/>
</g>
</svg>
