<?xml version="1.0" standalone="no"?>
<!DOCTYPE svg PUBLIC "-//W3C//DTD SVG 20010904//EN"
 "http://www.w3.org/TR/2001/REC-SVG-20010904/DTD/svg10.dtd">
<svg version="1.0" xmlns="http://www.w3.org/2000/svg"
 width="1024.000000pt" height="1024.000000pt" viewBox="0 0 1024.000000 1024.000000"
 preserveAspectRatio="xMidYMid meet">
<metadata>
Created by potrace 1.14, written by Peter Selinger 2001-2017
</metadata>
<g transform="translate(0.000000,1024.000000) scale(0.100000,-0.100000)"
fill="#000000" stroke="none">
<path d="M4893 7970 c-898 -76 -1683 -543 -2176 -1296 -238 -363 -391 -808
-437 -1264 -14 -143 -14 -484 -1 -600 57 -482 210 -899 474 -1295 213 -320
525 -619 863 -827 496 -306 1077 -449 1664 -410 217 15 370 32 370 44 0 4 15
8 33 8 38 0 346 83 402 109 11 5 49 19 85 32 85 30 194 79 198 90 2 5 9 9 16
9 20 0 96 40 96 50 0 6 9 10 20 10 11 0 20 6 20 14 0 7 13 16 29 19 16 4 43
20 61 37 17 16 35 30 40 30 21 0 213 133 275 191 11 11 47 43 79 72 113 99
270 268 352 378 170 229 248 358 345 574 31 71 108 273 119 315 5 19 23 87 40
150 68 253 96 516 87 818 -8 261 -32 426 -111 727 -34 134 -186 495 -208 495
-4 0 -8 7 -8 17 0 38 -146 272 -279 448 -71 93 -304 328 -424 426 -415 340
-899 546 -1447 614 -153 19 -439 27 -577 15z m557 -35 c551 -69 1032 -274
1447 -614 120 -98 353 -333 424 -426 133 -176 279 -410 279 -448 0 -10 4 -17
8 -17 9 0 26 -33 89 -175 81 -183 103 -249 159 -480 102 -420 96 -928 -16
-1345 -17 -63 -35 -131 -40 -150 -11 -42 -88 -244 -119 -315 -97 -216 -175
-345 -345 -574 -82 -110 -239 -279 -352 -378 -32 -29 -68 -61 -79 -72 -62 -58
-254 -191 -275 -191 -5 0 -23 -14 -40 -30 -18 -17 -45 -33 -61 -37 -16 -3 -29
-12 -29 -19 0 -8 -9 -14 -20 -14 -11 0 -20 -4 -20 -10 0 -10 -76 -50 -96 -50
-7 0 -14 -4 -16 -9 -4 -11 -113 -60 -198 -90 -36 -13 -74 -27 -85 -32 -56 -26
-364 -109 -402 -109 -18 0 -33 -4 -33 -8 0 -11 -144 -28 -355 -44 -558 -40
-1149 107 -1639 410 -338 208 -650 507 -863 827 -264 396 -420 821 -473 1295
-14 119 -13 422 0 560 68 677 357 1283 836 1750 155 152 258 235 424 345 555
368 1244 532 1890 450z"/>
</g>
</svg>
