<?xml version="1.0" standalone="no"?>
<!DOCTYPE svg PUBLIC "-//W3C//DTD SVG 20010904//EN"
 "http://www.w3.org/TR/2001/REC-SVG-20010904/DTD/svg10.dtd">
<svg version="1.0" xmlns="http://www.w3.org/2000/svg"
 width="1024.000000pt" height="1024.000000pt" viewBox="0 0 1024.000000 1024.000000"
 preserveAspectRatio="xMidYMid meet">
<metadata>
Created by potrace 1.14, written by Peter Selinger 2001-2017
</metadata>
<g transform="translate(0.000000,1024.000000) scale(0.100000,-0.100000)"
fill="#000000" stroke="none">
<path d="M4870 7941 c-860 -73 -1635 -533 -2114 -1256 -237 -357 -375 -731
-442 -1200 -27 -188 -25 -586 4 -770 101 -646 370 -1176 819 -1616 142 -141
256 -234 406 -333 380 -252 778 -397 1247 -457 129 -16 488 -16 635 0 181 20
466 84 580 131 11 5 47 18 80 29 135 45 320 133 334 160 7 12 22 21 34 21 20
0 48 15 82 42 6 5 37 24 69 44 205 121 501 398 684 639 87 117 203 301 248
399 13 28 28 58 34 66 5 8 23 47 40 85 55 124 66 152 105 270 55 165 104 376
125 545 19 143 24 482 11 630 -44 484 -190 915 -445 1317 -107 170 -225 315
-390 478 -426 425 -937 674 -1566 765 -99 14 -460 21 -580 11z m555 -31 c626
-87 1143 -339 1571 -765 165 -163 283 -308 390 -478 316 -497 470 -1057 451
-1637 -10 -308 -51 -542 -142 -815 -39 -118 -50 -146 -105 -270 -17 -38 -35
-77 -40 -85 -6 -8 -21 -38 -34 -66 -45 -98 -161 -282 -248 -399 -183 -241
-479 -518 -684 -639 -32 -20 -63 -39 -69 -44 -34 -27 -62 -42 -82 -42 -12 0
-27 -9 -34 -21 -14 -27 -199 -115 -334 -160 -33 -11 -69 -24 -80 -29 -88 -36
-301 -91 -359 -92 -17 -1 -33 -5 -36 -9 -12 -18 -280 -42 -480 -42 -271 0
-439 21 -698 89 -482 125 -896 360 -1255 713 -449 440 -718 971 -819 1616 -29
183 -31 544 -4 730 67 468 205 843 442 1200 479 722 1255 1183 2114 1256 120
10 430 4 535 -11z"/>
</g>
</svg>
