<?xml version="1.0" standalone="no"?>
<!DOCTYPE svg PUBLIC "-//W3C//DTD SVG 20010904//EN"
 "http://www.w3.org/TR/2001/REC-SVG-20010904/DTD/svg10.dtd">
<svg version="1.0" xmlns="http://www.w3.org/2000/svg"
 width="1024.000000pt" height="1024.000000pt" viewBox="0 0 1024.000000 1024.000000"
 preserveAspectRatio="xMidYMid meet">
<metadata>
Created by potrace 1.14, written by Peter Selinger 2001-2017
</metadata>
<g transform="translate(0.000000,1024.000000) scale(0.100000,-0.100000)"
fill="#000000" stroke="none">
<path d="M4790 7919 c-486 -65 -865 -204 -1240 -454 -171 -114 -273 -198 -420
-345 -424 -422 -684 -927 -784 -1520 -67 -394 -54 -766 39 -1155 266 -1110
1182 -1944 2315 -2109 236 -35 567 -37 795 -7 166 23 343 66 515 126 156 55
191 68 196 76 3 5 14 9 25 9 10 0 19 3 19 8 0 4 23 15 50 25 29 10 50 24 50
32 0 8 6 15 14 15 7 0 19 7 26 15 7 8 21 15 31 15 10 0 38 13 61 28 24 16 84
55 133 88 50 32 113 79 142 104 28 25 86 74 128 110 43 36 118 110 169 165 94
103 281 345 310 402 9 18 27 49 41 69 34 50 136 253 173 344 95 232 161 472
199 727 14 92 18 182 18 408 0 309 -8 389 -62 650 -41 202 -166 554 -245 690
-6 11 -23 43 -36 70 -37 73 -99 173 -143 231 -21 28 -39 54 -39 59 0 21 -180
235 -295 350 -149 150 -271 250 -435 358 -338 222 -707 359 -1113 412 -130 17
-523 19 -637 4z m617 -24 c406 -53 775 -190 1113 -412 164 -108 286 -208 435
-358 115 -115 295 -329 295 -350 0 -5 18 -31 39 -59 44 -58 106 -158 143 -231
13 -27 30 -59 36 -70 79 -136 204 -488 245 -690 53 -256 62 -343 62 -630 0
-335 -27 -528 -110 -810 -67 -229 -194 -522 -280 -649 -14 -20 -32 -51 -41
-69 -29 -57 -216 -299 -310 -402 -51 -55 -126 -129 -169 -165 -42 -36 -100
-85 -128 -110 -29 -25 -92 -72 -142 -104 -49 -33 -109 -72 -133 -88 -23 -15
-51 -28 -61 -28 -10 0 -24 -7 -31 -15 -7 -8 -19 -15 -26 -15 -8 0 -14 -7 -14
-15 0 -8 -21 -22 -50 -32 -27 -10 -50 -21 -50 -25 0 -5 -9 -8 -19 -8 -11 0
-22 -4 -25 -9 -5 -8 -40 -21 -196 -76 -333 -116 -654 -162 -1010 -143 -992 52
-1858 603 -2330 1482 -230 430 -349 962 -321 1436 32 529 182 991 457 1408
255 385 618 716 1014 926 328 173 614 262 1010 315 113 15 468 12 597 -4z"/>
</g>
</svg>
