<?xml version="1.0" standalone="no"?>
<!DOCTYPE svg PUBLIC "-//W3C//DTD SVG 20010904//EN"
 "http://www.w3.org/TR/2001/REC-SVG-20010904/DTD/svg10.dtd">
<svg version="1.0" xmlns="http://www.w3.org/2000/svg"
 width="1024.000000pt" height="1024.000000pt" viewBox="0 0 1024.000000 1024.000000"
 preserveAspectRatio="xMidYMid meet">
<metadata>
Created by potrace 1.14, written by Peter Selinger 2001-2017
</metadata>
<g transform="translate(0.000000,1024.000000) scale(0.100000,-0.100000)"
fill="#000000" stroke="none">
<path d="M4844 7919 c-777 -69 -1503 -475 -1972 -1101 -319 -427 -505 -912
-552 -1438 -74 -843 213 -1648 800 -2241 586 -592 1368 -881 2221 -820 96 7
201 19 234 26 33 8 105 23 160 34 108 22 125 27 300 91 11 4 38 13 60 20 43
13 127 51 135 61 3 3 17 9 32 13 15 3 39 17 54 31 15 14 33 25 40 25 8 0 14 4
14 10 0 5 12 13 28 16 43 10 283 164 332 212 14 14 43 38 65 54 102 74 322
310 447 480 56 75 178 270 178 284 0 4 13 28 30 54 49 77 144 306 193 465 56
184 82 293 102 433 24 166 21 157 58 157 29 0 32 3 32 30 0 26 -4 30 -31 33
l-31 3 5 160 c13 447 -70 874 -251 1294 -67 156 -209 402 -274 475 -24 26 -43
53 -43 59 0 5 -31 49 -70 97 -55 69 -70 95 -70 121 0 18 -4 33 -10 33 -5 0
-10 16 -10 35 0 31 -3 35 -25 35 -19 0 -25 5 -25 21 0 29 -37 59 -72 59 -15 0
-28 5 -28 10 0 6 -15 10 -33 10 -27 0 -49 13 -108 63 -166 141 -314 236 -532
343 -212 104 -427 176 -667 223 -180 36 -502 49 -716 30z m497 -24 c314 -33
581 -110 866 -249 223 -110 365 -201 544 -353 87 -74 104 -83 112 -60 2 7 8 8
13 3 5 -5 4 -11 -3 -13 -23 -8 -14 -24 44 -80 52 -51 58 -54 70 -37 7 10 13
21 13 26 0 4 7 8 15 8 21 0 19 -13 -4 -30 -11 -7 -17 -18 -14 -23 3 -6 1 -7
-5 -3 -7 4 -12 2 -12 -3 0 -15 27 -14 32 1 3 9 10 7 24 -6 13 -14 15 -21 6
-24 -22 -7 -13 -22 68 -123 44 -55 80 -104 80 -110 0 -6 19 -33 43 -59 65 -73
207 -319 274 -475 139 -322 217 -636 244 -975 21 -271 -3 -605 -62 -858 -55
-239 -182 -582 -259 -702 -17 -26 -30 -50 -30 -54 0 -14 -122 -209 -178 -284
-125 -170 -345 -406 -447 -480 -22 -16 -51 -40 -65 -54 -49 -48 -289 -202
-332 -212 -16 -3 -28 -11 -28 -16 0 -6 -6 -10 -14 -10 -7 0 -25 -11 -40 -25
-15 -14 -39 -28 -54 -31 -15 -4 -29 -10 -32 -13 -8 -10 -92 -48 -135 -61 -22
-7 -49 -16 -60 -20 -175 -64 -192 -69 -300 -91 -55 -11 -127 -26 -160 -34 -33
-7 -138 -19 -233 -26 -703 -50 -1387 161 -1942 601 -137 108 -352 327 -464
471 -211 274 -380 603 -472 923 -99 343 -134 687 -104 1026 79 885 566 1673
1326 2142 499 308 1112 452 1675 393z m1617 -694 c32 -27 27 -33 -13 -14 -19
9 -35 20 -35 25 0 14 26 9 48 -11z m853 -2384 c-1 -12 -15 -9 -19 4 -3 6 1 10
8 8 6 -3 11 -8 11 -12z M6330 2695 c0 -8 7 -15 15 -15 8 0 15 7 15 15 0 8 -7
15 -15 15 -8 0 -15 -7 -15 -15z M7820 5300 c0 -27 3 -30 30 -30 27 0 30 3 30
30 0 27 -3 30 -30 30 -27 0 -30 -3 -30 -30z m40 0 c0 -5 -4 -10 -10 -10 -5 0
-10 5 -10 10 0 6 5 10 10 10 6 0 10 -4 10 -10z"/>
</g>
</svg>
