<?xml version="1.0" standalone="no"?>
<!DOCTYPE svg PUBLIC "-//W3C//DTD SVG 20010904//EN"
 "http://www.w3.org/TR/2001/REC-SVG-20010904/DTD/svg10.dtd">
<svg version="1.0" xmlns="http://www.w3.org/2000/svg"
 width="1024.000000pt" height="1024.000000pt" viewBox="0 0 1024.000000 1024.000000"
 preserveAspectRatio="xMidYMid meet">
<metadata>
Created by potrace 1.14, written by Peter Selinger 2001-2017
</metadata>
<g transform="translate(0.000000,1024.000000) scale(0.100000,-0.100000)"
fill="#000000" stroke="none">
<path d="M4740 7885 c-289 -37 -567 -120 -835 -249 -317 -153 -567 -334 -805
-583 -634 -664 -896 -1591 -710 -2515 76 -375 254 -773 485 -1084 578 -776
1493 -1187 2480 -1115 157 12 433 65 520 101 11 4 65 22 120 40 55 18 112 41
127 51 14 11 35 19 45 19 10 0 47 18 81 40 33 22 67 40 75 40 7 0 22 8 33 18
10 10 28 21 39 26 11 4 58 33 103 64 66 44 91 56 116 54 41 -4 86 35 86 74 0
17 10 34 28 47 15 12 45 38 67 58 22 21 51 39 65 40 17 3 26 11 28 26 4 25 32
32 32 8 0 -24 40 -17 62 10 11 14 26 25 34 25 8 0 14 7 14 15 0 9 7 18 15 21
9 4 15 19 15 35 0 19 -5 29 -15 29 -8 0 -15 7 -15 15 0 8 9 15 19 15 25 0 79
54 87 87 4 13 13 27 21 30 9 4 13 18 11 44 -1 22 3 44 10 51 9 9 12 6 12 -15
0 -24 4 -27 31 -27 22 0 32 5 36 20 3 11 9 20 14 20 5 0 9 16 9 35 0 31 -3 35
-25 35 -14 0 -25 2 -25 5 0 12 54 112 76 140 12 17 26 44 30 60 4 17 13 35 20
40 6 6 31 55 54 110 58 138 62 145 77 145 7 0 13 9 13 20 0 11 8 24 18 27 22
9 42 29 42 42 0 5 11 18 25 29 20 16 25 29 25 65 0 31 5 47 15 51 8 3 15 12
15 20 0 8 11 23 25 34 15 12 25 30 25 46 0 15 6 29 14 32 7 3 19 24 27 47 8
23 22 51 32 62 10 11 24 27 32 36 8 9 15 25 15 37 0 11 10 28 22 36 15 10 24
31 28 63 4 26 14 82 21 123 22 117 19 622 -4 765 -24 149 -22 145 -63 145 -28
0 -34 4 -34 22 0 28 -22 88 -32 88 -4 0 -8 7 -8 15 0 8 -4 15 -10 15 -5 0 -10
9 -10 21 0 25 -18 61 -36 71 -6 5 -18 31 -25 59 l-13 51 -43 -6 c-40 -5 -43
-4 -43 19 0 13 -6 28 -14 32 -8 4 -15 17 -17 28 -3 13 -13 21 -30 23 -21 2
-29 11 -39 45 -8 23 -21 50 -29 60 -15 18 -14 18 12 6 15 -7 27 -16 27 -21 0
-15 27 -38 44 -38 9 0 16 -7 16 -16 0 -25 26 -44 59 -44 30 0 31 2 31 44 0 25
-5 48 -10 51 -6 4 -7 23 -4 45 6 39 -11 110 -27 110 -5 0 -9 7 -9 15 0 8 -4
15 -9 15 -5 0 -13 10 -17 22 -9 30 -29 48 -52 48 -15 0 -21 9 -26 35 -4 19
-11 35 -16 35 -6 0 -10 7 -10 15 0 8 -4 15 -9 15 -5 0 -11 10 -13 22 -2 15
-13 25 -35 32 -18 5 -33 13 -33 17 0 5 -7 9 -15 9 -9 0 -18 7 -22 17 -3 9 -24
32 -45 51 -39 35 -49 62 -23 62 8 0 15 -9 15 -20 0 -15 7 -20 25 -20 20 0 25
5 25 25 0 14 -6 25 -13 25 -13 0 -35 55 -44 109 -4 22 -18 45 -39 63 -19 17
-34 34 -34 40 0 5 -13 21 -30 35 -16 13 -30 28 -30 32 0 10 -131 141 -141 141
-4 0 -14 8 -21 18 -7 10 -21 21 -30 25 -10 3 -18 13 -18 22 0 9 -16 23 -35 31
-20 8 -38 21 -42 29 -3 8 -12 15 -19 15 -8 0 -17 7 -20 15 -4 8 -12 15 -20 15
-8 0 -14 5 -14 10 0 6 -6 10 -14 10 -8 0 -23 11 -34 25 -11 14 -27 25 -36 25
-9 0 -19 6 -22 14 -3 8 -23 22 -45 30 -21 9 -39 20 -39 26 0 5 -8 10 -18 10
-10 0 -25 9 -35 20 -9 11 -26 20 -37 20 -11 0 -20 4 -20 10 0 5 -11 12 -25 16
-14 3 -25 10 -25 14 0 9 -112 60 -134 60 -9 0 -16 4 -16 8 0 12 -100 52 -129
52 -13 0 -29 6 -35 14 -20 25 -204 77 -286 81 -92 4 -170 23 -170 41 0 10 -14
13 -52 12 -29 -1 -96 6 -148 16 -127 24 -546 31 -700 11z m605 -20 c60 -8 142
-22 183 -31 63 -14 76 -14 83 -3 7 11 9 11 9 -2 0 -19 158 -68 168 -52 14 22
262 -41 288 -73 6 -8 22 -14 35 -14 29 0 129 -40 129 -52 0 -4 7 -8 16 -8 22
0 134 -51 134 -60 0 -4 11 -11 25 -14 14 -4 25 -11 25 -16 0 -6 9 -10 20 -10
11 0 28 -9 37 -20 10 -11 25 -20 35 -20 10 0 18 -5 18 -10 0 -6 18 -17 39 -26
22 -8 42 -22 45 -30 3 -8 13 -14 22 -14 9 0 25 -11 36 -25 11 -14 26 -25 34
-25 8 0 14 -4 14 -10 0 -5 6 -10 14 -10 8 0 16 -7 20 -15 3 -8 12 -15 20 -15
7 0 16 -7 19 -15 4 -8 22 -21 42 -29 19 -8 35 -22 35 -31 0 -9 8 -19 18 -22 9
-4 23 -15 30 -25 7 -10 17 -18 21 -18 10 0 141 -131 141 -141 0 -4 14 -19 30
-32 17 -14 30 -30 30 -35 0 -6 16 -24 35 -41 23 -20 35 -39 35 -56 0 -14 7
-39 15 -55 l15 -30 -31 7 -32 6 6 -39 c5 -28 18 -50 45 -76 22 -20 42 -43 45
-52 4 -9 13 -16 22 -16 8 0 15 -4 15 -9 0 -4 15 -12 33 -17 22 -7 33 -17 35
-32 2 -12 8 -22 13 -22 5 0 9 -7 9 -15 0 -8 4 -15 10 -15 5 0 12 -16 16 -35 5
-26 11 -35 26 -35 23 0 43 -18 52 -48 4 -12 12 -22 17 -22 5 0 9 -7 9 -15 0
-8 4 -15 9 -15 16 0 35 -71 22 -79 -12 -8 -4 -68 10 -77 13 -8 11 -54 -2 -54
-13 0 -39 25 -39 38 0 6 5 12 11 14 15 5 0 58 -17 58 -8 0 -14 -10 -14 -25 0
-14 -3 -25 -6 -25 -9 0 -34 28 -34 38 0 10 -52 32 -76 32 -18 0 -18 -30 -1
-55 7 -11 19 -39 27 -62 10 -34 18 -43 36 -43 13 0 26 -4 29 -10 3 -5 -4 -10
-16 -10 -17 0 -20 -4 -15 -22 3 -13 6 -29 6 -35 0 -7 7 -13 15 -13 9 0 15 9
15 21 0 35 22 15 25 -23 1 -31 -1 -35 -18 -30 -22 6 -22 2 3 -83 7 -22 17 -61
23 -87 8 -37 15 -48 30 -48 14 0 18 5 14 18 -40 130 -44 151 -30 157 9 3 17
-3 20 -15 5 -20 43 -29 43 -10 0 22 -24 60 -39 60 -19 0 -3 16 25 24 18 5 22
0 33 -45 7 -28 19 -53 27 -56 16 -6 29 -40 25 -70 -2 -15 3 -23 13 -23 9 0 16
-7 16 -15 0 -8 4 -15 8 -15 9 0 28 -55 35 -95 2 -16 10 -20 35 -19 37 2 36 6
59 -141 27 -177 23 -675 -7 -783 -5 -20 -10 -52 -10 -70 0 -22 -8 -39 -25 -54
-14 -12 -25 -32 -25 -44 0 -13 -6 -27 -14 -31 -7 -4 -18 -18 -25 -30 -6 -13
-19 -23 -27 -23 -9 0 -14 -8 -13 -17 3 -28 -12 -71 -27 -77 -8 -3 -14 -18 -14
-33 0 -18 -8 -33 -20 -41 -12 -7 -25 -24 -30 -37 -6 -15 -17 -25 -30 -25 -13
0 -20 -7 -20 -20 0 -11 5 -20 10 -20 21 0 10 -52 -15 -72 -14 -11 -25 -24 -25
-29 0 -13 -20 -33 -42 -42 -10 -3 -18 -16 -18 -27 0 -11 -6 -20 -13 -20 -15 0
-19 -7 -77 -145 -23 -55 -48 -104 -54 -110 -7 -5 -16 -23 -20 -40 -4 -16 -18
-43 -30 -60 -13 -16 -36 -55 -51 -85 -15 -30 -45 -81 -66 -112 -41 -59 -48
-83 -26 -91 7 -2 8 -8 3 -13 -5 -5 -11 -4 -13 4 -6 15 -33 16 -33 1 0 -5 -13
-24 -30 -42 -16 -18 -30 -37 -30 -42 0 -6 -9 -16 -21 -23 -15 -10 -20 -21 -16
-38 2 -13 0 -24 -4 -24 -5 0 -9 -11 -9 -25 0 -26 25 -35 33 -12 2 6 8 8 13 4
5 -5 1 -13 -9 -18 -9 -6 -17 -17 -17 -24 0 -8 -6 -15 -14 -15 -8 0 -24 -12
-35 -26 -20 -25 -21 -25 -21 -6 0 18 -5 21 -37 19 -33 -2 -38 -5 -38 -27 -1
-18 -6 -24 -18 -22 -11 2 -42 -19 -74 -48 -32 -29 -68 -59 -81 -68 -17 -11
-22 -22 -19 -40 3 -18 -2 -32 -21 -48 -27 -25 -42 -30 -42 -14 0 6 7 10 15 10
8 0 15 7 15 15 0 8 -9 15 -20 15 -11 0 -20 -6 -20 -14 0 -7 -8 -16 -17 -19
-10 -4 -56 -33 -103 -67 -47 -33 -94 -63 -104 -66 -11 -4 -29 -15 -40 -25 -11
-11 -26 -19 -33 -19 -8 0 -42 -18 -75 -40 -34 -22 -71 -40 -81 -40 -10 0 -31
-8 -45 -19 -15 -10 -72 -33 -127 -51 -55 -18 -109 -36 -120 -40 -43 -18 -136
-41 -260 -64 -184 -35 -191 -35 -385 -41 -1012 -29 -1949 482 -2465 1346 -432
723 -511 1582 -220 2384 177 487 526 950 960 1271 358 264 834 454 1275 509
145 18 450 18 585 0z m1915 -4410 c0 -8 -4 -15 -9 -15 -5 0 -11 -9 -14 -20 -6
-23 -27 -27 -27 -5 0 8 4 15 9 15 5 0 11 9 14 20 6 23 27 27 27 5z m-144 -139
c-6 -24 -66 -93 -66 -76 0 5 14 22 30 38 17 17 30 38 30 46 0 9 3 16 6 16 3 0
3 -11 0 -24z M5850 7756 c0 -12 71 -46 98 -46 31 0 7 30 -35 44 -57 19 -63 20
-63 2z M5970 7709 c1 -8 40 -32 88 -54 253 -116 498 -286 706 -488 48 -46 83
-74 89 -68 16 16 -10 47 -116 142 -189 171 -415 326 -607 418 -121 58 -160 70
-160 50z m661 -396 c13 -16 12 -17 -3 -4 -10 7 -18 15 -18 17 0 8 8 3 21 -13z
m65 -55 l29 -33 -32 29 c-31 28 -38 36 -30 36 2 0 16 -15 33 -32z m99 -88 c21
-22 37 -40 34 -40 -3 0 -23 18 -44 40 -21 22 -37 40 -34 40 3 0 23 -18 44 -40z
M6855 7090 c-8 -12 94 -130 112 -130 24 0 13 25 -38 83 -51 58 -63 65 -74 47z
m45 -35 c13 -14 21 -25 18 -25 -2 0 -15 11 -28 25 -13 14 -21 25 -18 25 2 0
15 -11 28 -25z M6990 6931 c0 -17 94 -140 105 -137 6 1 11 16 13 33 2 24 -5
37 -42 71 -43 40 -76 54 -76 33z m81 -68 c13 -16 12 -17 -3 -4 -10 7 -18 15
-18 17 0 8 8 3 21 -13z M7105 6790 c-4 -6 23 -56 59 -113 36 -56 68 -110 71
-119 9 -22 35 -24 35 -2 0 12 -40 81 -134 227 -12 19 -22 22 -31 7z M7280
6560 c0 -15 7 -20 25 -20 18 0 25 5 25 20 0 15 -7 20 -25 20 -18 0 -25 -5 -25
-20z M7270 6509 c0 -6 11 -32 23 -58 13 -25 39 -78 58 -118 38 -79 59 -93 59
-38 0 19 5 35 10 35 6 0 10 11 10 25 0 18 -7 28 -25 35 -18 7 -25 17 -25 35 0
14 -5 25 -10 25 -6 0 -24 16 -41 35 -30 34 -59 46 -59 24z m90 -105 c0 -17 8
-27 25 -34 22 -8 24 -12 13 -24 -15 -16 -29 -1 -53 58 -13 31 -13 35 0 30 8
-4 15 -17 15 -30z M7574 5678 c3 -18 8 -52 12 -75 4 -27 12 -43 20 -43 17 0
17 6 3 87 -8 45 -15 63 -26 63 -12 0 -14 -8 -9 -32z M7604 5513 c3 -21 6 -48
6 -60 0 -14 6 -23 15 -23 10 0 15 10 15 29 0 52 -12 91 -28 91 -11 0 -13 -8
-8 -37z m23 -55 c-3 -7 -5 -2 -5 12 0 14 2 19 5 13 2 -7 2 -19 0 -25z M7620
5375 c0 -33 4 -45 15 -45 11 0 15 12 15 45 0 33 -4 45 -15 45 -11 0 -15 -12
-15 -45z M7630 5250 c0 -38 4 -50 15 -50 11 0 15 12 15 50 0 38 -4 50 -15 50
-11 0 -15 -12 -15 -50z m17 -22 c-3 -7 -5 -2 -5 12 0 14 2 19 5 13 2 -7 2 -19
0 -25z M7630 4871 c0 -32 -3 -86 -6 -120 -6 -50 -4 -61 8 -61 17 0 28 74 28
181 0 46 -3 59 -15 59 -12 0 -15 -13 -15 -59z m17 -8 c-3 -10 -5 -4 -5 12 0
17 2 24 5 18 2 -7 2 -21 0 -30z m0 -60 c-3 -10 -5 -4 -5 12 0 17 2 24 5 18 2
-7 2 -21 0 -30z m-10 -85 c-3 -7 -5 -2 -5 12 0 14 2 19 5 13 2 -7 2 -19 0 -25z
M7720 4695 c0 -24 5 -35 15 -35 10 0 15 11 15 35 0 24 -5 35 -15 35 -10 0 -15
-11 -15 -35z m17 -7 c-3 -8 -6 -5 -6 6 -1 11 2 17 5 13 3 -3 4 -12 1 -19z
M7601 4589 c-12 -95 -65 -324 -101 -439 -24 -78 -24 -80 -6 -80 18 0 56 120
101 320 41 184 53 290 32 290 -11 0 -17 -23 -26 -91z m26 49 c-3 -8 -6 -5 -6
6 -1 11 2 17 5 13 3 -3 4 -12 1 -19z m-10 -75 c-3 -10 -5 -4 -5 12 0 17 2 24
5 18 2 -7 2 -21 0 -30z M6930 3155 c-16 -20 -5 -45 20 -45 16 0 20 7 20 30 0
33 -19 40 -40 15z M7497 3984 c-4 -4 -7 -23 -7 -41 0 -33 2 -34 33 -31 29 3
32 6 32 38 0 30 -4 35 -25 38 -14 2 -29 0 -33 -4z m35 -46 c-15 -15 -26 -4
-18 18 5 13 9 15 18 6 9 -9 9 -15 0 -24z M7441 3873 c-8 -8 -14 -32 -15 -52
-1 -32 2 -36 27 -39 23 -3 30 2 42 32 23 55 20 76 -12 76 -16 -1 -34 -8 -42
-17z m36 -34 c-7 -17 -17 -30 -22 -29 -12 2 -8 28 8 46 21 23 28 15 14 -17z"/>
</g>
</svg>
