<?xml version="1.0" standalone="no"?>
<!DOCTYPE svg PUBLIC "-//W3C//DTD SVG 20010904//EN"
 "http://www.w3.org/TR/2001/REC-SVG-20010904/DTD/svg10.dtd">
<svg version="1.0" xmlns="http://www.w3.org/2000/svg"
 width="1024.000000pt" height="1024.000000pt" viewBox="0 0 1024.000000 1024.000000"
 preserveAspectRatio="xMidYMid meet">
<metadata>
Created by potrace 1.14, written by Peter Selinger 2001-2017
</metadata>
<g transform="translate(0.000000,1024.000000) scale(0.100000,-0.100000)"
fill="#000000" stroke="none">
<path d="M4860 7883 c-352 -26 -706 -130 -1047 -308 -596 -311 -1069 -852
-1299 -1488 -134 -368 -193 -779 -165 -1147 32 -422 132 -779 316 -1126 328
-617 877 -1088 1532 -1314 327 -113 564 -150 947 -149 138 0 274 4 301 9 28 6
95 17 150 26 55 8 129 24 165 34 165 46 277 84 312 106 20 13 47 24 58 24 11
0 29 9 40 20 11 11 31 22 45 26 14 3 25 10 25 14 0 5 16 6 34 3 37 -6 66 12
66 41 0 10 13 16 43 18 34 2 43 7 45 24 2 16 12 23 35 27 34 5 99 28 107 38 3
4 15 9 28 13 12 4 22 11 22 16 0 4 11 11 25 14 16 4 25 13 25 26 0 16 7 20 30
20 23 0 30 5 30 19 0 14 8 21 27 23 18 2 29 10 31 22 6 29 27 46 57 46 23 0
27 4 23 23 -4 20 -1 23 23 19 22 -3 35 4 65 38 21 23 49 46 61 51 16 6 23 17
23 34 0 19 5 25 21 25 12 0 23 8 26 20 3 11 10 20 15 20 17 0 38 28 38 49 0
14 6 21 19 21 19 0 31 18 31 47 0 21 25 43 50 43 11 0 24 8 27 18 4 9 22 32
40 51 18 18 33 42 33 52 0 10 7 19 15 19 8 0 15 8 15 19 0 10 9 21 20 24 11 3
20 12 20 21 0 9 5 16 10 16 6 0 10 11 10 25 0 16 6 25 15 25 8 0 15 7 15 15 0
8 5 15 10 15 6 0 10 11 10 25 0 14 5 25 10 25 6 0 15 11 20 25 5 14 14 25 19
25 14 0 33 58 42 125 4 33 13 82 20 108 10 40 10 50 0 57 -10 6 -11 18 -6 46
5 23 10 32 12 22 3 -11 14 -18 30 -18 18 0 28 8 36 30 6 16 15 30 19 30 4 0 8
9 8 20 0 13 7 20 20 20 16 0 20 7 20 30 0 21 -5 30 -16 30 -10 0 -14 7 -12 23
2 17 11 23 36 25 28 3 32 7 32 34 0 26 -3 30 -23 26 -20 -4 -23 -1 -19 19 3
14 11 23 22 23 19 0 24 10 35 73 3 22 12 37 20 37 20 0 22 6 44 130 37 200 53
448 42 616 -11 159 -36 368 -46 384 -3 6 -15 10 -26 10 -10 0 -19 5 -19 10 0
6 -6 10 -14 10 -8 0 -18 19 -25 45 -6 25 -15 45 -19 45 -5 0 -16 28 -26 63
-38 136 -48 167 -54 167 -4 0 -5 22 -4 50 3 34 0 50 -8 50 -12 0 -10 56 5 128
5 19 3 32 -3 32 -5 0 -13 16 -16 35 -4 19 -11 35 -16 35 -6 0 -10 9 -10 20 0
15 -7 20 -26 20 -35 0 -49 17 -64 78 -10 38 -19 52 -31 52 -18 0 -34 13 -58
48 -8 11 -29 23 -48 27 -18 3 -33 11 -33 17 0 5 -11 19 -25 30 -30 24 -32 38
-5 38 16 0 20 7 20 30 0 17 -4 30 -10 30 -5 0 -10 9 -10 20 0 11 -4 20 -9 20
-5 0 -7 19 -4 41 5 32 2 44 -11 51 -9 5 -16 14 -16 20 0 5 -11 19 -25 30 -14
11 -25 26 -25 34 0 8 -5 14 -10 14 -6 0 -15 11 -20 25 -5 14 -15 25 -22 25 -6
0 -65 54 -129 120 -65 66 -123 120 -129 120 -6 0 -13 7 -16 15 -4 8 -12 15
-20 15 -8 0 -14 7 -14 15 0 8 -5 15 -10 15 -16 0 -120 79 -120 90 0 6 -7 10
-15 10 -8 0 -38 18 -67 40 -29 22 -59 40 -65 40 -7 0 -13 3 -13 8 0 7 -30 25
-62 38 -10 3 -18 10 -18 15 0 5 -7 9 -15 9 -8 0 -15 4 -15 8 0 5 -19 15 -42
23 -24 7 -49 19 -56 26 -7 7 -20 13 -28 13 -8 0 -14 5 -14 10 0 6 -9 10 -20
10 -11 0 -20 4 -20 8 0 10 -99 52 -122 52 -9 0 -18 4 -20 8 -4 12 -175 66
-273 88 -44 9 -94 23 -112 31 -18 7 -46 13 -63 13 -16 0 -30 4 -30 9 0 5 -21
11 -47 14 -27 3 -81 10 -122 17 -55 10 -75 10 -80 1 -6 -8 -40 -7 -137 4 -116
13 -302 17 -424 8z m403 -28 c71 -8 139 -18 153 -21 18 -5 24 -2 24 9 0 18 38
15 126 -9 28 -8 58 -12 67 -8 10 3 17 1 17 -5 0 -6 -4 -11 -10 -11 -5 0 -10
-6 -10 -14 0 -8 25 -20 63 -31 210 -58 510 -213 717 -370 55 -41 101 -75 104
-75 2 0 69 -63 147 -139 79 -77 147 -137 151 -135 4 3 8 11 8 19 0 17 -259
265 -277 265 -7 0 -13 4 -13 10 0 5 -44 42 -97 82 -54 40 -99 76 -101 81 -2 4
-7 7 -11 7 -4 0 -62 31 -129 69 -101 58 -201 109 -317 161 -19 9 -75 26 -175
56 -37 10 -40 13 -17 13 15 1 42 -5 60 -12 18 -8 68 -22 112 -31 98 -22 269
-76 273 -88 2 -4 11 -8 20 -8 23 0 122 -42 122 -52 0 -4 9 -8 20 -8 11 0 20
-4 20 -10 0 -5 6 -10 14 -10 8 0 21 -6 28 -13 7 -7 32 -19 56 -26 23 -8 42
-18 42 -23 0 -4 7 -8 15 -8 8 0 15 -7 15 -15 0 -8 6 -15 13 -15 18 0 67 -24
67 -32 0 -5 6 -8 13 -8 6 0 36 -18 65 -40 29 -22 59 -40 67 -40 8 0 15 -4 15
-10 0 -11 104 -90 120 -90 5 0 10 -7 10 -15 0 -8 6 -15 14 -15 8 0 16 -7 20
-15 3 -8 10 -15 16 -15 6 0 64 -54 129 -120 64 -66 123 -120 129 -120 7 0 17
-11 22 -25 5 -14 14 -25 20 -25 5 0 10 -6 10 -14 0 -8 10 -23 23 -33 13 -10
26 -26 30 -35 3 -10 11 -18 17 -18 5 0 10 -7 10 -15 0 -8 -5 -15 -11 -15 -13
0 -2 -53 12 -58 5 -2 9 -12 9 -23 0 -10 5 -19 10 -19 6 0 10 -4 10 -10 0 -5
-7 -10 -15 -10 -8 0 -15 7 -15 15 0 9 -9 15 -25 15 -20 0 -25 -5 -25 -26 0
-17 6 -28 20 -31 11 -3 20 -11 20 -18 0 -8 11 -22 25 -33 14 -11 25 -25 25
-30 0 -6 15 -14 33 -17 19 -4 40 -16 48 -27 24 -35 40 -48 58 -48 13 0 21 -14
31 -55 7 -30 16 -55 20 -55 4 0 10 -9 13 -20 5 -20 37 -29 37 -10 0 6 5 10 10
10 6 0 10 -9 10 -20 0 -11 4 -20 10 -20 5 0 12 -16 16 -35 3 -19 10 -35 15
-35 6 0 6 -7 1 -17 -5 -10 -12 -44 -15 -76 -4 -45 -2 -59 9 -64 16 -6 20 -53
4 -53 -16 0 -12 -40 4 -46 14 -5 22 -27 62 -171 10 -35 21 -63 26 -63 4 0 13
-20 19 -45 7 -26 17 -45 25 -45 8 0 14 -4 14 -10 0 -5 9 -10 19 -10 11 0 23
-4 26 -10 10 -17 38 -242 40 -325 1 -44 5 -98 9 -121 9 -52 -18 -366 -45 -514
-22 -124 -24 -130 -44 -130 -8 0 -17 -15 -20 -37 -11 -64 -16 -73 -36 -73 -11
0 -19 -7 -19 -17 0 -10 -7 -36 -15 -58 -19 -55 -20 -115 0 -115 8 0 15 -4 15
-10 0 -5 -9 -10 -20 -10 -13 0 -20 -7 -20 -20 0 -11 -4 -20 -10 -20 -5 0 -10
-6 -10 -13 0 -7 -6 -21 -13 -31 -12 -16 -13 -10 -11 43 3 53 1 61 -15 61 -21
0 -40 -62 -21 -68 15 -5 12 -22 -4 -22 -9 0 -18 -19 -25 -50 -14 -65 -14 -68
3 -72 12 -3 12 -9 0 -43 -7 -22 -16 -62 -18 -90 -5 -57 -24 -115 -37 -115 -5
0 -14 -11 -19 -25 -11 -30 -30 -33 -30 -5 0 33 -34 24 -74 -20 -21 -23 -36
-34 -36 -25 0 8 5 15 10 15 6 0 17 18 26 40 9 22 20 40 25 40 5 0 9 18 9 40 0
29 -4 40 -15 40 -8 0 -15 -7 -15 -15 0 -8 -4 -15 -10 -15 -5 0 -10 -5 -10 -11
0 -13 -20 -33 -42 -42 -11 -4 -18 -17 -18 -32 0 -21 -4 -24 -23 -20 -19 5 -25
0 -41 -36 -15 -34 -16 -43 -5 -50 12 -8 12 -11 -1 -19 -8 -5 -20 -10 -27 -10
-15 0 -26 -35 -18 -59 3 -11 -1 -25 -10 -34 -16 -17 -19 -45 -6 -65 11 -17 60
-5 69 17 13 36 30 43 52 21 11 -11 20 -22 20 -24 0 -2 -15 -19 -33 -37 -18
-19 -36 -42 -40 -52 -5 -13 -13 -16 -32 -11 -19 5 -25 2 -25 -10 0 -9 -4 -16
-10 -16 -5 0 -10 -10 -10 -22 0 -34 -12 -45 -45 -44 -24 1 -31 -4 -33 -21 -2
-16 2 -23 13 -23 15 0 15 -2 1 -15 -8 -8 -19 -15 -24 -15 -5 0 -12 -9 -15 -20
-3 -12 -14 -20 -26 -20 -16 0 -21 -6 -21 -25 0 -17 -7 -28 -23 -34 -12 -5 -39
-27 -60 -50 -36 -40 -57 -51 -57 -31 0 6 -9 10 -19 10 -24 0 -39 -39 -20 -51
10 -6 4 -9 -18 -9 -18 0 -33 -4 -33 -10 0 -5 -9 -10 -20 -10 -11 0 -20 -7 -20
-15 0 -8 5 -15 11 -15 5 0 7 -5 3 -12 -6 -9 -9 -9 -12 0 -2 7 -12 12 -23 12
-14 0 -19 -7 -19 -30 0 -16 -4 -30 -9 -30 -5 0 -7 9 -4 20 4 14 0 20 -11 20
-9 0 -16 -6 -16 -12 0 -9 -3 -8 -10 2 -7 12 -12 12 -35 0 -29 -16 -28 -34 3
-38 28 -4 28 -29 0 -38 -12 -3 -28 -13 -36 -20 -7 -8 -20 -14 -28 -14 -8 0
-14 -4 -14 -9 0 -5 -11 -11 -25 -13 -17 -4 -25 -1 -25 8 0 8 -7 14 -15 14 -8
0 -15 -7 -15 -15 0 -8 6 -15 13 -15 8 0 7 -3 -3 -10 -9 -6 -17 -5 -22 3 -11
17 -41 -4 -48 -34 -4 -16 -13 -23 -26 -22 -33 4 -64 -7 -64 -23 0 -28 -23 -42
-62 -36 -23 3 -38 0 -38 -6 0 -5 -11 -13 -25 -16 -14 -4 -34 -15 -45 -26 -11
-11 -29 -20 -40 -20 -11 0 -38 -11 -58 -24 -35 -22 -147 -60 -312 -106 -36
-10 -110 -26 -165 -34 -55 -9 -122 -20 -150 -26 -27 -5 -154 -9 -281 -9 -361
-1 -606 38 -927 149 -396 136 -742 353 -1043 654 -480 481 -750 1078 -805
1781 -26 345 34 751 165 1112 198 547 575 1025 1063 1349 505 336 1134 501
1666 439z m1317 -570 c13 -14 21 -25 18 -25 -2 0 -15 11 -28 25 -13 14 -21 25
-18 25 2 0 15 -11 28 -25z m140 -130 c47 -47 82 -85 80 -85 -3 0 -43 38 -90
85 -47 47 -82 85 -80 85 3 0 43 -38 90 -85z m1030 -2825 c0 -5 -5 -10 -11 -10
-5 0 -7 5 -4 10 3 6 8 10 11 10 2 0 4 -4 4 -10z m-390 -574 c0 -16 -18 -31
-27 -22 -8 8 5 36 17 36 5 0 10 -6 10 -14z m-30 -71 c0 -34 34 -33 65 3 13 15
25 21 25 15 0 -7 -4 -13 -10 -13 -5 0 -10 -11 -10 -24 0 -27 -16 -36 -66 -36
-19 0 -34 -4 -34 -10 0 -5 -7 -10 -16 -10 -13 0 -15 -8 -12 -35 2 -19 0 -35
-5 -35 -12 0 -37 -26 -37 -39 0 -14 -18 -23 -30 -16 -6 4 -4 12 5 21 8 9 15
33 15 54 0 32 4 39 25 44 22 6 25 12 25 50 0 49 4 56 37 56 18 0 23 -5 23 -25z
m130 0 c0 -8 -4 -15 -10 -15 -5 0 -10 -7 -10 -15 0 -8 -4 -15 -10 -15 -5 0
-10 7 -10 15 0 8 5 15 10 15 6 0 10 7 10 15 0 8 5 15 10 15 6 0 10 -7 10 -15z
m-57 -94 c-6 -3 -12 -13 -15 -21 -5 -17 -79 -23 -90 -6 -12 17 -9 26 7 26 8 0
15 5 15 10 0 6 5 10 10 10 6 0 10 -7 10 -15 0 -22 23 -18 45 7 13 16 20 19 23
9 2 -7 0 -16 -5 -20z M6370 7530 c0 -11 7 -20 15 -20 8 0 15 9 15 20 0 11 -7
20 -15 20 -8 0 -15 -9 -15 -20z M6743 7205 c-27 -30 -6 -49 23 -21 8 8 14 19
14 25 0 15 -23 13 -37 -4z m27 1 c0 -2 -8 -10 -17 -17 -16 -13 -17 -12 -4 4
13 16 21 21 21 13z M6815 7040 c-9 -15 23 -61 46 -67 10 -3 19 -10 19 -15 0
-6 14 -27 30 -48 44 -56 91 -123 161 -232 34 -54 66 -98 71 -98 4 0 8 -9 8
-20 0 -11 7 -20 15 -20 8 0 15 9 15 20 0 11 -4 20 -9 20 -5 0 -12 25 -16 55
-4 39 -12 59 -26 68 -10 6 -19 19 -19 29 0 9 -10 25 -22 35 -17 13 -22 26 -20
50 3 29 1 32 -26 31 -40 -1 -50 7 -44 37 3 19 0 25 -13 25 -18 0 -45 23 -45
38 0 6 -13 13 -30 17 -16 4 -30 12 -30 19 0 16 -38 66 -50 66 -5 0 -12 -5 -15
-10z m229 -235 c-5 -12 -10 -13 -20 -4 -19 15 -18 19 6 19 13 0 18 -5 14 -15z
m45 -90 c-3 -2 -16 10 -29 28 l-23 32 29 -27 c15 -15 26 -30 23 -33z m39 -61
c-4 -3 -12 5 -18 18 -12 22 -12 22 6 6 10 -10 15 -20 12 -24z M7200 6535 c0
-16 6 -25 15 -25 9 0 15 9 15 25 0 16 -6 25 -15 25 -9 0 -15 -9 -15 -25z
M7190 6490 c0 -6 16 -42 35 -80 19 -38 35 -76 35 -85 0 -8 3 -15 8 -15 4 0 18
-22 31 -50 13 -27 32 -52 43 -56 11 -3 21 -18 25 -35 3 -16 11 -29 17 -29 6 0
21 -3 34 -6 18 -5 22 -2 22 15 0 12 -7 24 -15 27 -12 5 -15 25 -15 90 0 49 -4
84 -10 84 -5 0 -10 9 -10 20 0 11 -7 20 -15 20 -8 0 -15 7 -15 15 0 8 -4 15
-9 15 -5 0 -11 9 -14 20 -6 24 -47 28 -47 5 0 -30 -39 -16 -54 20 -14 32 -46
49 -46 25z m141 -90 c5 0 9 -7 9 -15 0 -8 7 -15 15 -15 8 0 15 -9 15 -20 0
-11 5 -20 10 -20 6 0 10 -29 10 -66 0 -59 -1 -64 -16 -50 -8 9 -19 16 -23 16
-5 0 -19 23 -32 50 -13 28 -27 50 -30 50 -4 0 -9 10 -12 23 -2 12 -8 30 -12
40 -6 14 -2 17 19 17 14 0 27 6 27 13 1 6 3 4 6 -5 2 -10 9 -18 14 -18z M7455
6140 c-8 -13 4 -50 16 -50 5 0 9 -7 9 -15 0 -9 9 -15 25 -15 20 0 25 5 25 24
0 15 -7 26 -20 29 -11 3 -20 12 -20 21 0 18 -25 22 -35 6z M7360 6114 c0 -4
10 -36 21 -73 12 -36 23 -72 25 -80 3 -8 12 -11 24 -8 11 3 20 1 20 -4 0 -5 7
-9 15 -9 11 0 15 11 15 36 0 33 -2 36 -23 30 -20 -5 -25 2 -46 54 -13 34 -29
60 -37 60 -8 0 -14 -3 -14 -6z M7547 6053 c-15 -14 -7 -43 12 -43 17 0 31 18
31 41 0 10 -33 12 -43 2z M7420 5937 c0 -2 17 -73 39 -158 21 -86 42 -179 46
-207 5 -37 11 -52 22 -52 20 0 13 62 -28 225 -48 193 -49 195 -64 195 -8 0
-15 -2 -15 -3z m97 -339 c-3 -8 -6 -5 -6 6 -1 11 2 17 5 13 3 -3 4 -12 1 -19z
M7524 5458 c3 -29 6 -65 6 -80 0 -18 5 -28 15 -28 17 0 19 24 9 108 -5 37 -11
52 -22 52 -12 0 -14 -10 -8 -52z m13 10 c-3 -8 -6 -5 -6 6 -1 11 2 17 5 13 3
-3 4 -12 1 -19z m10 -85 c-3 -10 -5 -4 -5 12 0 17 2 24 5 18 2 -7 2 -21 0 -30z
M7540 5305 c0 -24 5 -35 15 -35 10 0 15 11 15 35 0 24 -5 35 -15 35 -10 0 -15
-11 -15 -35z m17 -7 c-3 -8 -6 -5 -6 6 -1 11 2 17 5 13 3 -3 4 -12 1 -19z
M7550 5115 c0 -104 2 -125 15 -125 13 0 15 21 15 125 0 104 -2 125 -15 125
-13 0 -15 -21 -15 -125z m17 -52 c-2 -32 -3 -8 -3 52 0 61 1 87 3 58 2 -29 2
-78 0 -110z M7550 4890 c0 -75 1 -80 21 -80 17 0 20 4 15 23 -3 12 -6 48 -6
80 0 44 -3 57 -15 57 -12 0 -15 -16 -15 -80z m17 -22 c-2 -18 -4 -6 -4 27 0
33 2 48 4 33 2 -15 2 -42 0 -60z M7546 4778 c-9 -35 -8 -38 14 -38 16 0 20 7
20 30 0 36 -25 41 -34 8z M7511 4513 c-7 -49 -19 -113 -27 -144 -8 -31 -14
-60 -14 -63 0 -13 28 -5 34 10 13 33 36 147 36 176 0 16 8 43 17 59 16 26 16
31 3 39 -30 19 -36 9 -49 -77z m16 -25 c-3 -8 -6 -5 -6 6 -1 11 2 17 5 13 3
-3 4 -12 1 -19z M7451 4238 c-20 -77 -90 -287 -111 -331 -27 -56 -35 -97 -18
-97 21 0 103 209 148 377 23 85 25 103 7 103 -8 0 -19 -23 -26 -52z M7455
3980 c-3 -11 -11 -20 -16 -20 -5 0 -9 -11 -9 -25 0 -25 15 -32 36 -17 15 10
34 47 34 66 0 23 -38 20 -45 -4z M7102 3450 c-12 -16 -22 -33 -22 -37 -1 -9
-109 -149 -199 -258 -49 -59 -61 -79 -52 -88 9 -9 22 0 56 38 105 117 265 338
265 365 0 20 -27 10 -48 -20z m-132 -224 c0 -2 -8 -10 -17 -17 -16 -13 -17
-12 -4 4 13 16 21 21 21 13z m-60 -70 c0 -2 -8 -10 -17 -17 -16 -13 -17 -12
-4 4 13 16 21 21 21 13z M6800 3060 c0 -6 5 -8 12 -4 7 4 8 3 4 -4 -4 -7 -2
-12 4 -12 15 0 8 22 -8 28 -7 2 -12 -1 -12 -8z M6767 3032 c-20 -22 -22 -42
-4 -42 19 0 50 37 42 49 -9 16 -20 14 -38 -7z M6693 2973 c-7 -2 -13 -11 -13
-20 0 -21 44 -13 48 10 3 17 -10 21 -35 10z M6577 2864 c-14 -14 -7 -35 11
-32 9 2 17 10 17 17 0 16 -18 25 -28 15z M6520 2815 c0 -8 7 -15 15 -15 8 0
15 7 15 15 0 8 -7 15 -15 15 -8 0 -15 -7 -15 -15z"/>
</g>
</svg>
