<?xml version="1.0" standalone="no"?>
<!DOCTYPE svg PUBLIC "-//W3C//DTD SVG 20010904//EN"
 "http://www.w3.org/TR/2001/REC-SVG-20010904/DTD/svg10.dtd">
<svg version="1.0" xmlns="http://www.w3.org/2000/svg"
 width="1024.000000pt" height="1024.000000pt" viewBox="0 0 1024.000000 1024.000000"
 preserveAspectRatio="xMidYMid meet">
<metadata>
Created by potrace 1.14, written by Peter Selinger 2001-2017
</metadata>
<g transform="translate(0.000000,1024.000000) scale(0.100000,-0.100000)"
fill="#000000" stroke="none">
<path d="M4870 7873 c-627 -33 -1322 -367 -1768 -850 -446 -482 -688 -1040
-744 -1712 -15 -183 0 -457 37 -671 188 -1108 1034 -1989 2137 -2226 208 -44
540 -68 761 -54 129 9 358 40 427 59 185 51 320 98 320 111 0 5 18 11 40 15
22 4 47 13 54 21 22 22 68 37 103 35 32 -2 63 17 63 38 0 6 15 11 34 11 47 0
66 9 66 31 0 15 7 19 39 19 31 0 41 4 46 20 4 12 15 20 29 20 13 0 29 7 36 15
7 8 19 15 26 15 8 0 14 4 14 8 0 4 14 13 30 19 17 6 30 18 30 27 0 9 8 16 20
16 11 0 20 7 20 15 0 9 9 15 25 15 14 0 25 5 25 10 0 6 5 10 11 10 6 0 20 11
31 25 11 14 26 25 34 25 8 0 29 16 47 35 17 19 35 35 40 35 4 0 21 16 38 35
17 19 34 35 38 35 14 0 131 123 131 137 0 7 4 13 9 13 11 0 101 88 101 99 0 5
20 27 45 50 25 23 45 48 45 57 0 8 7 17 15 20 8 4 15 13 15 20 0 8 7 17 15 20
8 4 15 13 15 20 0 8 7 17 15 20 8 4 15 11 15 18 0 6 9 19 20 29 11 9 20 24 20
32 0 8 4 15 9 15 5 0 15 16 22 35 7 19 17 35 21 35 4 0 8 9 8 20 0 11 5 20 10
20 6 0 10 5 10 11 0 6 7 17 15 25 8 9 15 31 15 50 0 19 4 34 10 34 5 0 12 11
16 25 3 14 12 25 19 25 8 0 16 18 20 42 4 23 18 52 31 65 15 14 24 36 24 53 0
17 4 30 10 30 12 0 40 65 40 95 0 13 5 25 10 27 6 2 17 44 25 95 14 85 30 141
46 153 19 15 48 165 70 365 14 120 5 558 -14 685 -10 66 -16 86 -30 88 -9 2
-17 8 -17 13 0 5 -10 14 -22 19 -22 8 -22 9 5 9 30 1 33 17 21 94 -5 29 -11
37 -28 37 -32 0 -42 11 -50 53 -4 21 -13 40 -20 43 -8 3 -19 33 -25 67 -7 34
-19 83 -27 109 -11 33 -14 63 -9 101 7 54 -9 127 -27 127 -4 0 -8 9 -8 20 0
14 -7 20 -22 20 -34 0 -43 10 -62 69 -18 57 -36 81 -59 81 -7 0 -25 27 -40 60
-19 46 -30 60 -46 60 -12 0 -21 6 -21 15 0 9 9 15 25 15 20 0 25 5 25 26 0 30
-33 78 -112 163 -21 22 -38 47 -38 55 0 9 -5 16 -10 16 -6 0 -15 11 -20 25 -5
14 -16 25 -25 25 -8 0 -15 4 -15 9 0 20 -269 281 -355 343 -22 16 -56 44 -75
62 -19 17 -43 35 -52 39 -10 3 -51 28 -90 55 -93 62 -236 142 -254 142 -8 0
-17 7 -20 15 -4 8 -12 15 -20 15 -7 0 -28 9 -46 20 -18 11 -41 20 -50 20 -10
0 -18 4 -18 10 0 5 -16 12 -35 16 -19 3 -35 10 -35 14 0 4 -25 12 -55 18 -31
7 -63 18 -71 27 -9 8 -26 15 -38 15 -13 0 -41 6 -62 14 -22 7 -61 16 -89 21
-27 4 -59 12 -70 18 -29 15 -128 37 -210 47 -38 4 -94 13 -124 19 -67 14 -118
14 -123 1 -2 -6 -40 -6 -108 0 -99 9 -206 10 -330 3z m320 -24 c104 -9 134 -9
140 1 6 10 21 10 71 0 35 -6 96 -15 134 -20 82 -10 182 -32 210 -47 11 -6 43
-14 70 -18 28 -5 67 -14 89 -21 21 -8 49 -14 62 -14 12 0 29 -7 38 -15 8 -9
40 -20 71 -27 30 -6 55 -14 55 -18 0 -4 16 -11 35 -14 19 -4 35 -11 35 -16 0
-6 8 -10 18 -10 9 0 32 -9 50 -20 18 -11 39 -20 46 -20 8 0 16 -7 20 -15 3 -8
12 -15 20 -15 18 0 161 -80 254 -142 39 -27 80 -52 90 -55 9 -4 33 -22 52 -39
19 -18 53 -46 75 -62 86 -62 355 -323 355 -343 0 -5 7 -9 15 -9 9 0 20 -11 25
-24 5 -13 13 -25 18 -27 14 -6 25 -49 13 -49 -6 0 -11 -7 -11 -15 0 -17 26
-21 32 -5 3 9 38 -20 63 -52 66 -86 73 -98 55 -98 -5 0 -10 6 -10 13 0 17 -53
77 -68 77 -21 0 -13 -48 10 -64 16 -12 22 -26 23 -53 0 -32 4 -39 24 -41 18
-3 29 -18 49 -63 14 -32 32 -59 39 -59 24 0 42 -25 60 -84 9 -31 21 -56 25
-56 4 0 8 -7 8 -15 0 -8 7 -15 15 -15 8 0 15 5 15 10 0 6 5 10 10 10 6 0 10
-9 10 -20 0 -11 4 -20 8 -20 20 0 31 -66 22 -130 -5 -35 -5 -67 -1 -70 10 -7
27 -59 42 -135 6 -33 17 -64 25 -70 17 -14 30 -65 15 -65 -6 0 -11 -9 -11 -20
0 -11 7 -20 15 -20 8 0 15 4 15 8 0 5 13 7 29 4 25 -3 30 -9 35 -44 7 -44 1
-62 -11 -32 -16 44 -63 61 -63 24 0 -11 4 -20 9 -20 5 0 12 -16 15 -35 4 -20
13 -35 21 -35 8 0 18 -6 22 -14 4 -7 15 -15 23 -18 21 -7 37 -132 46 -361 6
-158 5 -190 -7 -198 -11 -7 -12 -12 -2 -28 14 -22 10 -159 -7 -241 -5 -25 -12
-70 -16 -100 -8 -65 -32 -162 -42 -170 -16 -11 -33 -66 -47 -153 -8 -51 -19
-93 -25 -95 -5 -2 -10 -14 -10 -27 0 -30 -28 -95 -40 -95 -6 0 -10 -13 -10
-30 0 -17 -9 -39 -24 -53 -13 -13 -27 -42 -31 -65 -4 -24 -12 -42 -20 -42 -7
0 -16 -11 -19 -25 -4 -14 -11 -25 -16 -25 -6 0 -10 -15 -10 -34 0 -19 -7 -41
-15 -50 -8 -8 -15 -19 -15 -25 0 -6 -4 -11 -10 -11 -5 0 -10 -9 -10 -20 0 -11
-4 -20 -8 -20 -4 0 -14 -16 -21 -35 -7 -19 -17 -35 -22 -35 -5 0 -9 -7 -9 -15
0 -8 -9 -23 -20 -32 -11 -10 -20 -23 -20 -29 0 -7 -7 -14 -15 -18 -8 -3 -15
-12 -15 -20 0 -7 -7 -16 -15 -20 -8 -3 -15 -12 -15 -20 0 -7 -7 -16 -15 -20
-8 -3 -15 -12 -15 -20 0 -9 -20 -34 -45 -57 -25 -23 -45 -45 -45 -50 0 -11
-90 -99 -101 -99 -5 0 -9 -6 -9 -13 0 -14 -117 -137 -131 -137 -4 0 -21 -16
-38 -35 -17 -19 -34 -35 -38 -35 -5 0 -23 -16 -40 -35 -18 -19 -39 -35 -47
-35 -8 0 -23 -11 -34 -25 -11 -14 -25 -25 -31 -25 -6 0 -11 -5 -11 -10 0 -6
-11 -8 -25 -4 -21 5 -25 3 -25 -15 0 -14 -6 -21 -20 -21 -12 0 -20 -7 -20 -16
0 -9 -13 -21 -30 -27 -16 -6 -30 -15 -30 -19 0 -4 -6 -8 -14 -8 -7 0 -19 -6
-25 -14 -7 -8 -20 -12 -31 -9 -14 4 -23 -2 -31 -20 -8 -19 -18 -25 -38 -24
-14 1 -29 6 -33 11 -7 10 -78 -20 -78 -33 0 -5 -12 -12 -26 -15 -18 -5 -25
-12 -22 -24 8 -29 -35 -58 -45 -29 -3 9 -17 5 -53 -12 -27 -14 -55 -30 -61
-37 -7 -7 -31 -15 -53 -19 -22 -4 -40 -10 -40 -15 0 -11 -62 -35 -184 -71
-156 -46 -201 -57 -331 -74 -66 -10 -124 -19 -128 -22 -5 -3 -110 -5 -235 -4
-365 1 -613 42 -939 155 -654 228 -1206 712 -1528 1342 -176 342 -269 693
-296 1107 -41 634 178 1323 585 1837 442 558 1101 936 1781 1019 170 21 280
24 445 10z m1180 -5169 c-8 -6 -24 -9 -35 -9 l-20 1 20 5 c11 3 24 9 29 14 5
5 12 6 15 3 3 -3 -1 -9 -9 -14z M5557 7813 c-18 -17 -1 -30 61 -46 80 -20 92
-21 92 -4 0 7 -21 18 -47 25 -27 8 -56 18 -65 23 -21 11 -32 11 -41 2z M5730
7750 c0 -11 7 -20 15 -20 8 0 15 9 15 20 0 11 -7 20 -15 20 -8 0 -15 -9 -15
-20z M5800 7716 c0 -15 37 -32 47 -22 3 3 3 12 0 21 -8 19 -47 20 -47 1z
M5910 7665 c0 -8 7 -15 15 -15 8 0 15 7 15 15 0 8 -7 15 -15 15 -8 0 -15 -7
-15 -15z M6100 7625 c0 -8 7 -15 15 -15 8 0 15 7 15 15 0 8 -7 15 -15 15 -8 0
-15 -7 -15 -15z M6160 7615 c0 -8 7 -15 15 -15 8 0 15 7 15 15 0 8 -7 15 -15
15 -8 0 -15 -7 -15 -15z M6100 7580 c0 -11 8 -24 18 -27 9 -4 19 -10 22 -14
10 -13 104 -69 117 -69 23 0 15 37 -10 44 -12 3 -32 14 -44 26 -12 11 -31 20
-43 20 -13 0 -20 7 -20 20 0 13 -7 20 -20 20 -13 0 -20 -7 -20 -20z M6230
7545 c0 -8 7 -15 15 -15 8 0 15 7 15 15 0 8 -7 15 -15 15 -8 0 -15 -7 -15 -15z
M6313 7444 c-4 -11 2 -23 18 -35 29 -23 36 -23 55 -5 23 23 17 39 -11 32 -18
-5 -25 -2 -25 9 0 20 -29 19 -37 -1z M6440 7370 c0 -11 4 -20 9 -20 5 0 7 -9
4 -20 -4 -14 0 -20 11 -20 20 0 35 32 18 38 -7 2 -12 12 -12 23 0 10 -7 19
-15 19 -8 0 -15 -9 -15 -20z M6530 7365 c0 -8 7 -15 15 -15 8 0 15 7 15 15 0
8 -7 15 -15 15 -8 0 -15 -7 -15 -15z M6620 7285 c0 -8 7 -15 15 -15 8 0 15 7
15 15 0 8 -7 15 -15 15 -8 0 -15 -7 -15 -15z M6530 7257 c0 -16 32 -47 48 -47
16 0 15 21 -2 43 -16 20 -46 23 -46 4z M6770 7205 c0 -8 7 -15 15 -15 8 0 15
7 15 15 0 8 -7 15 -15 15 -8 0 -15 -7 -15 -15z M6620 7175 c0 -8 5 -15 11 -15
5 0 7 5 3 12 -4 7 -3 8 4 4 7 -4 12 -2 12 3 0 6 -7 11 -15 11 -8 0 -15 -7 -15
-15z M6647 7163 c-13 -12 -7 -33 8 -33 8 0 15 9 15 20 0 20 -11 26 -23 13z
M6682 7103 c2 -10 12 -18 23 -18 11 0 21 8 23 18 3 13 -3 17 -23 17 -20 0 -26
-4 -23 -17z M6862 7044 c2 -11 11 -20 22 -22 13 -3 17 1 14 14 -2 11 -11 20
-22 22 -13 3 -17 -1 -14 -14z M6760 7022 c0 -20 39 -62 58 -62 15 0 15 15 0
43 -23 40 -58 51 -58 19z M6930 6965 c0 -8 7 -15 15 -15 8 0 15 7 15 15 0 8
-7 15 -15 15 -8 0 -15 -7 -15 -15z M6852 6904 c2 -11 11 -20 22 -22 13 -3 17
1 14 14 -2 11 -11 20 -22 22 -13 3 -17 -1 -14 -14z M6920 6895 c0 -16 -6 -25
-15 -25 -15 0 -21 -36 -7 -42 9 -3 102 -144 153 -230 37 -63 65 -78 54 -29 -5
26 -4 29 13 24 14 -3 21 2 25 18 7 27 -1 69 -14 69 -5 0 -9 5 -9 10 0 13 -12
28 -72 91 -27 27 -48 57 -48 67 0 20 -49 72 -68 72 -7 0 -12 -11 -12 -25z m60
-75 c0 -6 21 -32 48 -59 60 -63 72 -78 72 -91 0 -5 5 -10 10 -10 22 0 9 -38
-14 -42 -20 -4 -28 2 -46 35 -12 21 -42 68 -66 104 -24 36 -44 67 -44 69 0 2
9 4 20 4 11 0 20 -5 20 -10z M7200 6745 c0 -8 7 -15 15 -15 8 0 15 7 15 15 0
8 -7 15 -15 15 -8 0 -15 -7 -15 -15z M7150 6715 c0 -8 7 -15 15 -15 8 0 15 7
15 15 0 8 -7 15 -15 15 -8 0 -15 -7 -15 -15z M7130 6478 c0 -25 83 -178 96
-178 20 0 18 10 -15 77 -16 33 -33 71 -36 86 -7 27 -45 40 -45 15z M7261 6368
c5 -55 -1 -88 -16 -88 -8 0 -15 -4 -15 -9 0 -22 13 -41 29 -41 13 0 13 -2 2
-9 -17 -11 -7 -41 14 -41 8 0 15 -6 15 -14 0 -8 6 -17 13 -19 9 -4 9 -8 -2
-15 -18 -13 -8 -79 20 -127 26 -43 103 -349 126 -502 12 -75 22 -113 30 -113
8 0 13 12 13 28 0 43 -37 232 -71 371 -18 69 -31 141 -30 160 2 37 -17 103
-32 113 -6 3 -11 32 -11 63 -1 38 -6 59 -16 66 -11 7 -6 8 19 4 32 -7 33 -6
27 18 -5 21 -3 24 14 20 27 -7 27 32 0 49 -11 7 -20 18 -20 25 0 7 -9 13 -20
13 -11 0 -20 6 -20 13 0 17 -42 57 -59 57 -6 0 -11 -10 -10 -22z m49 -54 c0
-8 9 -14 20 -14 11 0 20 -7 20 -15 0 -8 6 -15 13 -16 10 0 10 -2 0 -6 -7 -2
-13 -13 -13 -24 0 -13 -7 -19 -24 -19 -13 0 -27 -6 -29 -12 -3 -7 -6 -1 -6 15
-1 18 -6 27 -18 28 -11 0 -13 3 -5 6 6 2 12 15 12 28 0 32 10 56 21 49 5 -3 9
-12 9 -20z m17 -256 c-3 -8 -6 -5 -6 6 -1 11 2 17 5 13 3 -3 4 -12 1 -19z
m150 -640 c-3 -7 -5 -2 -5 12 0 14 2 19 5 13 2 -7 2 -19 0 -25z M7470 6065 c0
-8 9 -15 20 -15 11 0 20 7 20 15 0 8 -9 15 -20 15 -11 0 -20 -7 -20 -15z
M7790 5435 c0 -8 7 -15 15 -15 8 0 15 7 15 15 0 8 -7 15 -15 15 -8 0 -15 -7
-15 -15z M7780 5385 c0 -8 -4 -15 -10 -15 -5 0 -10 -7 -10 -15 0 -9 9 -15 25
-15 21 0 25 5 25 30 0 20 -5 30 -15 30 -8 0 -15 -7 -15 -15z M7470 5330 c0
-20 5 -30 15 -30 10 0 15 10 15 30 0 20 -5 30 -15 30 -10 0 -15 -10 -15 -30z
M7720 5310 c0 -11 7 -20 15 -20 8 0 15 9 15 20 0 11 -7 20 -15 20 -8 0 -15 -9
-15 -20z M7480 5210 c0 -47 3 -60 15 -60 12 0 15 13 15 60 0 47 -3 60 -15 60
-12 0 -15 -13 -15 -60z m17 -22 c-2 -13 -4 -3 -4 22 0 25 2 35 4 23 2 -13 2
-33 0 -45z M7770 5215 c0 -8 7 -15 15 -15 8 0 15 7 15 15 0 8 -7 15 -15 15 -8
0 -15 -7 -15 -15z M7750 5175 c0 -8 7 -15 15 -15 8 0 15 7 15 15 0 8 -7 15
-15 15 -8 0 -15 -7 -15 -15z M7690 5135 c0 -16 6 -25 15 -25 9 0 15 9 15 25 0
16 -6 25 -15 25 -9 0 -15 -9 -15 -25z M7690 5085 c0 -8 7 -15 15 -15 8 0 15 7
15 15 0 8 -7 15 -15 15 -8 0 -15 -7 -15 -15z M7780 5039 c0 -24 23 -21 28 4 2
10 -3 17 -12 17 -10 0 -16 -9 -16 -21z M7807 5023 c-12 -11 -8 -23 8 -23 8 0
15 7 15 15 0 16 -12 20 -23 8z M7490 4970 c0 -38 4 -50 15 -50 11 0 15 12 15
50 0 38 -4 50 -15 50 -11 0 -15 -12 -15 -50z m17 -17 c-3 -10 -5 -2 -5 17 0
19 2 27 5 18 2 -10 2 -26 0 -35z M7640 4895 c0 -8 7 -15 15 -15 8 0 15 7 15
15 0 8 -7 15 -15 15 -8 0 -15 -7 -15 -15z M7698 4888 c-24 -8 -40 -38 -21 -38
22 0 73 26 73 37 0 15 -14 15 -52 1z M7480 4800 c0 -43 4 -60 13 -60 23 0 37
23 37 60 0 37 -14 60 -37 60 -9 0 -13 -17 -13 -60z m27 -12 c-3 -7 -5 -2 -5
12 0 14 2 19 5 13 2 -7 2 -19 0 -25z M7738 4823 c-10 -2 -18 -11 -18 -20 0
-11 6 -14 23 -9 12 3 25 6 30 6 4 0 7 7 7 15 0 15 -9 17 -42 8z M7750 4615 c0
-8 7 -15 15 -15 8 0 15 7 15 15 0 8 -7 15 -15 15 -8 0 -15 -7 -15 -15z M7580
4545 c0 -8 7 -15 15 -15 8 0 15 7 15 15 0 8 -7 15 -15 15 -8 0 -15 -7 -15 -15z
M7710 4495 c0 -8 7 -15 15 -15 8 0 15 7 15 15 0 8 -7 15 -15 15 -8 0 -15 -7
-15 -15z M7590 4470 c0 -11 7 -20 15 -20 8 0 15 9 15 20 0 11 -7 20 -15 20 -8
0 -15 -9 -15 -20z M7670 4465 c0 -8 7 -15 15 -15 8 0 15 7 15 15 0 8 -7 15
-15 15 -8 0 -15 -7 -15 -15z M7620 4375 c0 -8 7 -15 15 -15 8 0 15 7 15 15 0
8 -7 15 -15 15 -8 0 -15 -7 -15 -15z M7680 4310 c0 -49 24 -55 34 -9 9 46 8
49 -14 49 -17 0 -20 -7 -20 -40z M7400 4275 c0 -8 7 -15 15 -15 8 0 15 7 15
15 0 8 -7 15 -15 15 -8 0 -15 -7 -15 -15z M7366 4144 c-10 -27 -7 -44 9 -44 9
0 18 -7 21 -15 8 -19 34 -20 34 -1 0 21 -33 76 -46 76 -7 0 -15 -7 -18 -16z
M7320 4002 c-13 -42 -26 -83 -28 -89 -2 -8 7 -13 23 -13 22 0 26 4 22 19 -3
11 1 28 8 38 7 10 15 32 18 48 3 17 8 40 12 53 6 17 3 22 -11 22 -15 0 -25
-18 -44 -78z M7420 3935 c0 -8 7 -15 15 -15 8 0 15 7 15 15 0 8 -7 15 -15 15
-8 0 -15 -7 -15 -15z M7266 3864 c-10 -25 -7 -54 5 -54 16 0 38 31 39 53 0 22
-36 23 -44 1z M7200 3708 c-16 -35 -37 -76 -47 -93 -138 -231 -145 -245 -124
-245 21 0 41 13 41 26 0 8 5 14 10 14 6 0 10 6 10 14 0 14 106 209 140 256 9
14 21 40 25 58 5 26 3 32 -10 32 -10 0 -27 -23 -45 -62z M7363 3690 c-3 -11
-9 -20 -14 -20 -5 0 -9 -11 -9 -25 0 -32 39 -36 47 -5 3 11 9 20 14 20 5 0 9
11 9 25 0 32 -39 36 -47 5z M7240 3670 c0 -11 7 -20 15 -20 8 0 15 9 15 20 0
11 -7 20 -15 20 -8 0 -15 -9 -15 -20z M7196 3575 c-4 -14 -11 -25 -16 -25 -6
0 -10 -7 -10 -15 0 -21 33 -19 53 3 10 10 17 28 17 40 0 32 -36 29 -44 -3z
M6957 3303 c-14 -13 -6 -33 13 -33 13 0 20 7 20 20 0 19 -20 27 -33 13z M6895
3225 c-14 -20 -25 -43 -23 -53 4 -21 38 -29 38 -9 0 8 9 24 20 37 23 27 26 60
6 60 -7 0 -26 -16 -41 -35z M6808 3115 c-22 -30 -23 -45 -2 -45 20 0 43 28 44
53 0 24 -22 21 -42 -8z M6719 3024 c-41 -44 -213 -190 -231 -197 -10 -4 -18
-16 -18 -27 0 -31 35 -25 67 11 16 18 39 37 53 43 29 13 180 168 180 185 0 19
-26 12 -51 -15z m-9 -39 c-24 -25 -46 -45 -49 -45 -3 0 15 20 39 45 24 25 46
45 49 45 3 0 -15 -20 -39 -45z m-150 -128 c0 -2 -10 -12 -22 -23 l-23 -19 19
23 c18 21 26 27 26 19z M6160 2665 c0 -8 7 -15 15 -15 8 0 15 7 15 15 0 8 -7
15 -15 15 -8 0 -15 -7 -15 -15z"/>
</g>
</svg>
