<?xml version="1.0" standalone="no"?>
<!DOCTYPE svg PUBLIC "-//W3C//DTD SVG 20010904//EN"
 "http://www.w3.org/TR/2001/REC-SVG-20010904/DTD/svg10.dtd">
<svg version="1.0" xmlns="http://www.w3.org/2000/svg"
 width="1024.000000pt" height="1024.000000pt" viewBox="0 0 1024.000000 1024.000000"
 preserveAspectRatio="xMidYMid meet">
<metadata>
Created by potrace 1.14, written by Peter Selinger 2001-2017
</metadata>
<g transform="translate(0.000000,1024.000000) scale(0.100000,-0.100000)"
fill="#000000" stroke="none">
<path d="M4835 7843 c-648 -56 -1297 -380 -1738 -868 -319 -353 -503 -696
-631 -1175 -44 -166 -74 -367 -82 -555 -26 -604 145 -1200 484 -1690 137 -199
348 -425 535 -574 324 -260 751 -460 1153 -541 250 -50 602 -73 761 -50 38 5
115 14 173 19 58 6 128 17 155 25 28 8 88 25 135 37 47 11 94 26 105 32 11 6
32 10 46 8 15 -1 29 4 32 12 3 8 27 17 60 21 31 3 68 12 84 20 38 19 73 33
102 42 14 3 34 15 45 25 11 11 30 19 42 19 12 0 24 3 26 8 2 4 35 22 73 41 39
18 82 42 97 52 14 11 33 19 42 19 9 0 16 4 16 8 0 4 26 23 58 42 31 19 59 37
62 40 13 14 90 70 95 70 16 0 335 289 335 304 0 2 33 37 73 77 40 41 76 82 80
92 3 9 11 17 17 17 5 0 10 6 10 13 0 7 16 29 35 50 19 20 44 57 56 81 11 24
29 52 40 62 10 9 19 22 19 29 0 7 11 24 25 39 14 15 25 34 25 42 0 7 5 14 10
14 6 0 10 6 10 14 0 8 4 16 9 18 12 4 71 124 71 143 0 8 4 15 8 15 11 0 37 57
47 100 4 19 11 37 15 40 13 9 80 187 80 213 0 15 9 48 19 75 22 54 49 167 61
252 4 30 15 107 25 170 20 133 22 546 4 659 -6 36 -15 91 -19 121 -4 30 -10
64 -13 75 -3 11 -11 47 -18 80 -7 33 -15 62 -18 65 -12 10 -32 80 -38 129 -3
28 -9 51 -13 51 -4 0 -10 19 -13 41 -3 23 -10 45 -15 48 -5 3 -13 25 -17 49
-4 23 -13 49 -21 56 -8 8 -14 24 -14 35 0 11 -7 26 -15 35 -8 8 -15 19 -15 25
0 6 -4 11 -10 11 -5 0 -10 9 -10 19 0 11 -7 26 -15 35 -8 8 -15 18 -15 22 0
15 -63 144 -70 144 -4 0 -10 13 -13 30 -4 16 -16 38 -27 47 -11 10 -20 23 -20
30 0 7 -4 13 -8 13 -5 0 -16 16 -25 35 -9 19 -21 35 -27 35 -5 0 -10 7 -10 15
0 8 -4 15 -9 15 -5 0 -14 12 -20 28 -6 15 -27 44 -46 65 -19 21 -35 40 -35 42
0 7 -42 56 -82 96 -21 21 -38 42 -38 47 0 15 -267 262 -293 271 -7 2 -18 12
-25 23 -7 10 -18 18 -23 18 -5 0 -15 5 -22 10 -56 47 -74 60 -84 60 -7 0 -13
5 -13 10 0 6 -4 10 -10 10 -5 0 -19 9 -30 20 -11 11 -27 20 -35 20 -8 0 -15 5
-15 10 0 6 -6 10 -13 10 -8 0 -25 9 -38 21 -13 11 -89 52 -169 91 -80 39 -156
76 -170 83 -42 21 -158 55 -185 55 -14 0 -25 5 -25 10 0 6 -9 10 -20 10 -11 0
-37 9 -58 20 -54 28 -274 77 -428 95 -140 16 -270 20 -276 7 -1 -4 -41 -5 -88
-1 -87 8 -203 8 -275 2z m327 -28 c40 -5 58 -3 58 4 0 41 552 -41 662 -99 21
-11 47 -20 57 -20 11 0 21 -3 23 -8 2 -4 37 -15 78 -25 41 -10 95 -27 120 -38
121 -54 328 -160 349 -178 13 -12 30 -21 38 -21 7 0 13 -4 13 -10 0 -5 7 -10
15 -10 8 0 24 -9 35 -20 11 -11 25 -20 30 -20 6 0 10 -4 10 -10 0 -5 6 -10 13
-10 10 0 28 -13 84 -60 7 -5 17 -10 22 -10 5 0 16 -8 23 -18 7 -11 18 -21 25
-23 26 -9 293 -256 293 -271 0 -5 17 -26 38 -47 40 -40 82 -89 82 -96 0 -2 16
-21 35 -42 19 -21 40 -50 46 -65 6 -16 15 -28 20 -28 5 0 9 -7 9 -15 0 -8 5
-15 10 -15 6 0 18 -16 27 -35 9 -19 20 -35 25 -35 4 0 8 -6 8 -13 0 -7 9 -20
20 -30 11 -9 23 -31 27 -47 3 -17 9 -30 13 -30 7 0 70 -129 70 -144 0 -4 7
-14 15 -22 8 -9 15 -24 15 -35 0 -10 5 -19 10 -19 6 0 10 -5 10 -11 0 -6 7
-17 15 -25 8 -9 15 -24 15 -35 0 -11 6 -27 14 -35 8 -7 17 -33 21 -56 4 -24
12 -46 17 -49 5 -3 12 -25 15 -48 3 -22 10 -41 15 -41 6 0 8 -14 4 -35 -5 -23
-3 -35 4 -35 7 0 9 -8 5 -20 -4 -12 0 -26 9 -36 9 -8 16 -24 16 -35 0 -10 4
-19 8 -19 4 0 13 -28 20 -62 7 -35 17 -77 22 -94 6 -17 10 -47 10 -67 0 -19 5
-48 10 -62 25 -66 28 -514 5 -675 -10 -63 -21 -140 -25 -170 -12 -85 -39 -198
-61 -252 -10 -27 -19 -60 -19 -75 0 -26 -67 -204 -80 -213 -4 -3 -11 -21 -15
-40 -10 -43 -36 -100 -47 -100 -4 0 -8 -7 -8 -15 0 -19 -59 -139 -71 -143 -5
-2 -9 -10 -9 -18 0 -8 -4 -14 -10 -14 -5 0 -10 -7 -10 -14 0 -8 -11 -27 -25
-42 -14 -15 -25 -32 -25 -39 0 -7 -9 -20 -19 -29 -11 -10 -29 -38 -40 -62 -12
-24 -37 -61 -56 -81 -19 -21 -35 -43 -35 -50 0 -7 -5 -13 -10 -13 -6 0 -14 -8
-17 -17 -4 -10 -40 -51 -80 -92 -40 -40 -73 -75 -73 -77 0 -15 -319 -304 -335
-304 -5 0 -82 -56 -95 -70 -3 -3 -31 -21 -62 -40 -32 -19 -58 -38 -58 -42 0
-4 -7 -8 -16 -8 -9 0 -28 -8 -42 -19 -15 -10 -58 -34 -97 -52 -38 -19 -71 -37
-73 -41 -2 -5 -14 -8 -26 -8 -12 0 -31 -8 -42 -19 -11 -10 -31 -22 -45 -25
-24 -7 -46 -16 -104 -41 -45 -20 -85 -27 -85 -15 0 18 -24 11 -45 -13 -12 -15
-27 -22 -41 -19 -12 2 -32 -3 -45 -11 -13 -8 -62 -25 -109 -37 -47 -11 -107
-28 -135 -36 -27 -8 -97 -19 -155 -25 -58 -5 -135 -14 -173 -19 -149 -22 -475
1 -721 50 -402 81 -829 281 -1153 541 -116 92 -328 303 -412 409 -365 458
-557 953 -602 1543 -20 269 8 567 77 827 45 169 76 263 122 375 332 806 1029
1402 1882 1608 99 24 276 53 365 60 61 4 241 -1 307 -8z M5732 7663 c4 -23 58
-31 58 -10 0 8 -10 17 -22 21 -35 9 -40 7 -36 -11z M5890 7576 c0 -14 21 -26
46 -26 23 0 16 27 -8 34 -33 8 -38 8 -38 -8z M6282 7453 c2 -10 14 -19 26 -21
19 -3 23 1 20 15 -2 10 -14 19 -26 21 -19 3 -23 -1 -20 -15z M6120 7425 c0 -8
7 -15 15 -15 8 0 15 7 15 15 0 8 -7 15 -15 15 -8 0 -15 -7 -15 -15z M6560
6995 c0 -8 7 -15 15 -15 8 0 15 7 15 15 0 8 -7 15 -15 15 -8 0 -15 -7 -15 -15z
M6650 6875 c0 -8 7 -15 15 -15 8 0 15 7 15 15 0 8 -7 15 -15 15 -8 0 -15 -7
-15 -15z M6750 6835 c0 -8 7 -15 15 -15 8 0 15 7 15 15 0 8 -7 15 -15 15 -8 0
-15 -7 -15 -15z M6960 6815 c0 -8 7 -15 15 -15 8 0 15 7 15 15 0 8 -7 15 -15
15 -8 0 -15 -7 -15 -15z M6715 6783 c3 -15 10 -30 14 -33 4 -3 16 -20 26 -37
19 -32 45 -45 45 -22 0 6 -15 35 -32 65 -36 59 -65 74 -53 27z M7010 6795 c0
-8 7 -15 15 -15 8 0 15 7 15 15 0 8 -7 15 -15 15 -8 0 -15 -7 -15 -15z M7052
6764 c2 -11 11 -20 22 -22 13 -3 17 1 14 14 -2 11 -11 20 -22 22 -13 3 -17 -1
-14 -14z M7130 6690 c0 -11 7 -20 15 -20 8 0 15 9 15 20 0 11 -7 20 -15 20 -8
0 -15 -9 -15 -20z M6790 6655 c0 -7 6 -18 13 -22 7 -4 21 -27 31 -50 17 -38
46 -59 46 -33 0 15 -33 80 -41 80 -4 0 -9 9 -12 20 -6 23 -37 27 -37 5z M7350
6595 c0 -8 7 -15 15 -15 8 0 15 7 15 15 0 8 -7 15 -15 15 -8 0 -15 -7 -15 -15z
M7030 6570 c0 -13 7 -20 20 -20 13 0 20 7 20 20 0 13 -7 20 -20 20 -13 0 -20
-7 -20 -20z M7310 6526 c0 -8 7 -22 16 -30 20 -20 44 -21 44 -1 0 8 -4 15 -10
15 -5 0 -10 7 -10 15 0 8 -9 15 -20 15 -11 0 -20 -6 -20 -14z M6870 6520 c0
-20 24 -60 37 -60 16 0 17 11 1 45 -11 24 -38 35 -38 15z M7200 6475 c0 -8 7
-15 15 -15 8 0 15 7 15 15 0 8 -7 15 -15 15 -8 0 -15 -7 -15 -15z M7370 6435
c0 -8 7 -15 15 -15 8 0 15 7 15 15 0 8 -7 15 -15 15 -8 0 -15 -7 -15 -15z
M6920 6420 c0 -6 11 -33 25 -62 14 -28 25 -57 25 -62 1 -35 70 -75 70 -41 0 8
-4 15 -8 15 -4 0 -26 36 -47 80 -21 44 -45 80 -52 80 -7 0 -13 -5 -13 -10z
M7260 6400 c0 -18 6 -33 15 -37 23 -8 28 1 20 36 -9 41 -35 41 -35 1z M7400
6385 c0 -8 7 -15 15 -15 8 0 15 7 15 15 0 8 -7 15 -15 15 -8 0 -15 -7 -15 -15z
M7154 6280 c3 -18 6 -39 6 -46 0 -8 7 -14 16 -14 24 0 15 84 -10 88 -16 4 -18
0 -12 -28z m23 -32 c-3 -8 -6 -5 -6 6 -1 11 2 17 5 13 3 -3 4 -12 1 -19z
M7340 6285 c0 -8 7 -15 15 -15 8 0 15 7 15 15 0 8 -7 15 -15 15 -8 0 -15 -7
-15 -15z M7300 6255 c0 -8 7 -15 15 -15 8 0 15 7 15 15 0 8 -7 15 -15 15 -8 0
-15 -7 -15 -15z M7540 6235 c0 -8 7 -15 15 -15 8 0 15 7 15 15 0 8 -7 15 -15
15 -8 0 -15 -7 -15 -15z M7160 6185 c0 -8 7 -15 15 -15 8 0 15 7 15 15 0 8 -7
15 -15 15 -8 0 -15 -7 -15 -15z M7230 6155 c0 -8 7 -15 15 -15 8 0 15 7 15 15
0 8 -7 15 -15 15 -8 0 -15 -7 -15 -15z M7450 6145 c0 -8 7 -15 15 -15 8 0 15
7 15 15 0 8 -7 15 -15 15 -8 0 -15 -7 -15 -15z M7270 6085 c0 -8 7 -15 15 -15
8 0 15 7 15 15 0 8 -7 15 -15 15 -8 0 -15 -7 -15 -15z M7240 6005 c0 -8 7 -15
15 -15 8 0 15 7 15 15 0 8 -7 15 -15 15 -8 0 -15 -7 -15 -15z M7430 6001 c0
-21 13 -41 26 -41 15 0 17 10 8 34 -7 17 -34 22 -34 7z M7570 5995 c0 -8 7
-15 15 -15 8 0 15 7 15 15 0 8 -7 15 -15 15 -8 0 -15 -7 -15 -15z M7490 5980
c0 -11 7 -20 15 -20 8 0 15 9 15 20 0 11 -7 20 -15 20 -8 0 -15 -9 -15 -20z
M7110 5940 c0 -11 7 -20 15 -20 8 0 15 9 15 20 0 11 -7 20 -15 20 -8 0 -15 -9
-15 -20z M7510 5915 c0 -8 9 -15 20 -15 11 0 20 7 20 15 0 8 -9 15 -20 15 -11
0 -20 -7 -20 -15z M7570 5865 c0 -18 5 -25 20 -25 15 0 20 7 20 25 0 18 -5 25
-20 25 -15 0 -20 -7 -20 -25z M7490 5825 c0 -8 7 -15 15 -15 8 0 15 7 15 15 0
8 -7 15 -15 15 -8 0 -15 -7 -15 -15z M7140 5818 c0 -33 34 -128 46 -128 18 0
18 8 -3 80 -9 35 -22 60 -30 60 -7 0 -13 -5 -13 -12z M7390 5755 c0 -8 7 -15
15 -15 8 0 15 7 15 15 0 8 -7 15 -15 15 -8 0 -15 -7 -15 -15z M7180 5660 c0
-11 7 -20 15 -20 8 0 15 9 15 20 0 11 -7 20 -15 20 -8 0 -15 -9 -15 -20z
M7190 5610 c0 -11 7 -20 15 -20 8 0 15 9 15 20 0 11 -7 20 -15 20 -8 0 -15 -9
-15 -20z M7200 5555 c0 -16 6 -25 15 -25 9 0 15 9 15 25 0 16 -6 25 -15 25 -9
0 -15 -9 -15 -25z M7215 5473 c14 -113 17 -123 31 -123 11 0 13 11 8 55 -6 47
-4 55 10 55 9 0 16 7 16 16 0 11 -6 15 -20 11 -15 -4 -20 0 -20 14 0 11 -7 19
-16 19 -12 0 -14 -8 -9 -47z m22 -50 c-3 -10 -5 -4 -5 12 0 17 2 24 5 18 2 -7
2 -21 0 -30z M7240 5288 c0 -59 9 -88 27 -88 12 0 14 8 9 38 -3 20 -6 49 -6
65 0 17 -5 27 -15 27 -11 0 -15 -11 -15 -42z m17 -25 c-3 -10 -5 -2 -5 17 0
19 2 27 5 18 2 -10 2 -26 0 -35z M7300 5235 c0 -8 7 -15 15 -15 8 0 15 7 15
15 0 8 -7 15 -15 15 -8 0 -15 -7 -15 -15z M7254 5098 c3 -50 6 -108 6 -130 0
-26 4 -38 14 -38 11 0 15 23 18 103 2 56 0 106 -4 112 -4 5 -8 17 -8 27 0 10
-7 18 -16 18 -15 0 -16 -11 -10 -92z m23 -65 c-3 -10 -5 -4 -5 12 0 17 2 24 5
18 2 -7 2 -21 0 -30z m0 -75 c-3 -8 -6 -5 -6 6 -1 11 2 17 5 13 3 -3 4 -12 1
-19z M7410 5105 c0 -8 7 -15 15 -15 8 0 15 7 15 15 0 8 -7 15 -15 15 -8 0 -15
-7 -15 -15z M7430 5065 c0 -8 7 -15 15 -15 8 0 15 7 15 15 0 8 -7 15 -15 15
-8 0 -15 -7 -15 -15z M7400 5015 c0 -8 7 -15 15 -15 8 0 15 7 15 15 0 8 -7 15
-15 15 -8 0 -15 -7 -15 -15z M7250 4745 c0 -9 9 -15 25 -15 16 0 25 6 25 15 0
9 -9 15 -25 15 -16 0 -25 -6 -25 -15z M7460 4685 c0 -8 7 -15 15 -15 8 0 15 7
15 15 0 8 -7 15 -15 15 -8 0 -15 -7 -15 -15z M7240 4605 c0 -8 7 -15 15 -15 8
0 15 7 15 15 0 8 -7 15 -15 15 -8 0 -15 -7 -15 -15z M7230 4525 c0 -8 7 -15
15 -15 8 0 15 7 15 15 0 8 -7 15 -15 15 -8 0 -15 -7 -15 -15z M7170 4175 c0
-8 7 -15 15 -15 8 0 15 7 15 15 0 8 -7 15 -15 15 -8 0 -15 -7 -15 -15z M7156
4128 c-9 -34 -8 -38 9 -38 8 0 15 3 15 8 0 4 3 17 6 30 5 16 2 22 -9 22 -8 0
-17 -10 -21 -22z M7500 4075 c0 -8 7 -15 15 -15 8 0 15 7 15 15 0 8 -7 15 -15
15 -8 0 -15 -7 -15 -15z M7520 4025 c0 -9 9 -15 25 -15 16 0 25 6 25 15 0 9
-9 15 -25 15 -16 0 -25 -6 -25 -15z M7080 3875 c0 -8 7 -15 15 -15 8 0 15 7
15 15 0 8 -7 15 -15 15 -8 0 -15 -7 -15 -15z M7440 3875 c0 -8 7 -15 15 -15 8
0 15 7 15 15 0 8 -7 15 -15 15 -8 0 -15 -7 -15 -15z M7360 3865 c0 -8 7 -15
15 -15 8 0 15 7 15 15 0 8 -7 15 -15 15 -8 0 -15 -7 -15 -15z M7120 3855 c0
-8 7 -15 15 -15 8 0 15 7 15 15 0 8 -7 15 -15 15 -8 0 -15 -7 -15 -15z M7420
3815 c0 -8 7 -15 15 -15 8 0 15 7 15 15 0 8 -7 15 -15 15 -8 0 -15 -7 -15 -15z
M7330 3795 c0 -8 7 -15 15 -15 8 0 15 7 15 15 0 8 -7 15 -15 15 -8 0 -15 -7
-15 -15z M7300 3745 c0 -8 7 -15 15 -15 8 0 15 7 15 15 0 8 -7 15 -15 15 -8 0
-15 -7 -15 -15z M7006 3694 c-10 -26 -7 -34 14 -34 15 0 20 7 20 25 0 28 -24
34 -34 9z M7310 3625 c0 -8 7 -15 15 -15 8 0 15 7 15 15 0 8 -7 15 -15 15 -8
0 -15 -7 -15 -15z M7103 3505 c-42 -45 -21 -64 22 -20 14 13 25 29 25 35 0 17
-24 10 -47 -15z m37 12 c0 -2 -12 -14 -27 -28 l-28 -24 24 28 c23 25 31 32 31
24z M7210 3475 c0 -16 6 -25 15 -25 9 0 15 9 15 25 0 16 -6 25 -15 25 -9 0
-15 -9 -15 -25z M6865 3410 c-19 -36 -19 -50 -1 -50 13 0 46 51 46 72 0 20
-31 5 -45 -22z M7040 3415 c0 -8 7 -15 15 -15 8 0 15 7 15 15 0 8 -7 15 -15
15 -8 0 -15 -7 -15 -15z M7150 3385 c0 -8 7 -15 15 -15 8 0 15 7 15 15 0 8 -7
15 -15 15 -8 0 -15 -7 -15 -15z M7030 3335 c0 -8 7 -15 15 -15 8 0 15 7 15 15
0 8 -7 15 -15 15 -8 0 -15 -7 -15 -15z M6930 3315 c0 -8 7 -15 15 -15 8 0 15
7 15 15 0 8 -7 15 -15 15 -8 0 -15 -7 -15 -15z M6800 3205 c0 -8 7 -15 15 -15
8 0 15 7 15 15 0 8 -7 15 -15 15 -8 0 -15 -7 -15 -15z M6690 3075 c0 -8 7 -15
15 -15 8 0 15 7 15 15 0 8 -7 15 -15 15 -8 0 -15 -7 -15 -15z M6556 2994 c-9
-24 -7 -34 8 -34 13 0 26 20 26 41 0 15 -27 10 -34 -7z M6520 2895 c0 -8 7
-15 15 -15 8 0 15 7 15 15 0 8 -7 15 -15 15 -8 0 -15 -7 -15 -15z M6442 2878
c7 -19 38 -22 38 -4 0 10 -9 16 -21 16 -12 0 -19 -5 -17 -12z M6420 2862 c0
-5 -9 -12 -20 -15 -23 -6 -27 -37 -5 -37 9 0 18 7 21 15 4 8 13 15 21 15 8 0
13 5 11 12 -5 15 -28 23 -28 10z M6530 2845 c0 -8 7 -15 15 -15 8 0 15 7 15
15 0 8 -7 15 -15 15 -8 0 -15 -7 -15 -15z M6333 2793 c-7 -2 -13 -11 -13 -20
0 -21 44 -13 48 10 3 17 -10 21 -35 10z M6390 2775 c0 -8 7 -15 15 -15 8 0 15
7 15 15 0 8 -7 15 -15 15 -8 0 -15 -7 -15 -15z M6230 2725 c0 -8 9 -15 20 -15
11 0 20 7 20 15 0 8 -9 15 -20 15 -11 0 -20 -7 -20 -15z M6160 2665 c0 -8 9
-15 20 -15 11 0 20 7 20 15 0 8 -9 15 -20 15 -11 0 -20 -7 -20 -15z M6040
2595 c0 -8 7 -15 15 -15 8 0 15 7 15 15 0 8 -7 15 -15 15 -8 0 -15 -7 -15 -15z
M5690 2555 c0 -8 7 -15 15 -15 8 0 15 7 15 15 0 8 -7 15 -15 15 -8 0 -15 -7
-15 -15z"/>
</g>
</svg>
