<?xml version="1.0" standalone="no"?>
<!DOCTYPE svg PUBLIC "-//W3C//DTD SVG 20010904//EN"
 "http://www.w3.org/TR/2001/REC-SVG-20010904/DTD/svg10.dtd">
<svg version="1.0" xmlns="http://www.w3.org/2000/svg"
 width="1024.000000pt" height="1024.000000pt" viewBox="0 0 1024.000000 1024.000000"
 preserveAspectRatio="xMidYMid meet">
<metadata>
Created by potrace 1.14, written by Peter Selinger 2001-2017
</metadata>
<g transform="translate(0.000000,1024.000000) scale(0.100000,-0.100000)"
fill="#000000" stroke="none">
<path d="M4840 7829 c-361 -30 -722 -141 -1046 -320 -215 -120 -384 -244 -570
-422 -353 -337 -622 -797 -744 -1275 -59 -235 -72 -335 -77 -604 -6 -270 3
-408 37 -594 159 -868 736 -1608 1538 -1973 423 -192 895 -275 1359 -237 98 8
210 22 248 31 136 30 200 47 217 56 10 5 34 9 53 9 22 0 35 5 35 13 0 9 15 13
48 14 26 0 69 10 95 22 26 12 61 24 77 28 17 3 30 9 30 14 0 5 7 9 16 9 9 0
28 6 42 13 15 8 86 42 157 77 72 36 139 73 150 83 11 10 36 26 55 35 19 9 56
31 82 49 26 18 52 33 58 33 5 0 15 9 22 20 7 11 17 20 23 20 5 0 30 18 54 40
24 23 65 56 90 75 52 37 351 341 351 356 0 5 11 22 24 37 35 39 91 118 127
180 17 28 35 52 40 52 5 0 9 7 9 15 0 8 5 15 10 15 6 0 10 9 10 20 0 11 4 20
9 20 5 0 15 16 21 35 6 19 16 35 21 35 5 0 9 7 9 15 0 8 4 15 8 15 11 0 47 77
56 117 4 18 12 35 17 38 5 4 9 15 9 25 0 10 5 20 10 22 14 4 39 75 40 111 0
17 5 27 15 27 9 0 15 9 15 23 0 13 4 27 9 32 14 15 98 355 117 475 11 68 18
192 21 353 6 330 -8 454 -86 762 -22 88 -45 161 -51 163 -5 2 -10 11 -10 19 0
25 -33 123 -41 123 -4 0 -10 18 -14 40 -4 22 -13 47 -21 54 -8 8 -14 19 -14
25 0 6 -4 11 -10 11 -5 0 -10 11 -10 25 0 14 -4 25 -9 25 -5 0 -11 13 -14 29
-3 16 -13 35 -21 43 -8 8 -20 34 -27 56 -7 23 -16 42 -20 42 -4 0 -13 16 -19
35 -6 19 -16 35 -21 35 -5 0 -9 7 -9 15 0 8 -4 15 -10 15 -5 0 -16 15 -25 34
-9 18 -24 42 -34 52 -9 11 -20 27 -24 37 -3 9 -11 17 -17 17 -5 0 -10 7 -10
15 0 9 -7 18 -15 21 -8 4 -15 10 -15 16 0 5 -6 16 -12 23 -7 8 -18 20 -23 27
-126 162 -336 368 -476 468 -19 13 -38 28 -44 32 -32 27 -137 97 -178 118 -26
13 -47 28 -47 32 0 3 -16 12 -35 18 -19 6 -35 15 -35 19 0 7 -111 62 -230 114
-30 13 -131 50 -223 81 -246 83 -450 122 -694 133 -101 4 -143 3 -143 -5 0 -6
-13 -9 -32 -7 -79 10 -190 11 -278 4z m331 -17 c15 23 304 -5 531 -51 99 -21
390 -115 488 -158 119 -52 230 -107 230 -114 0 -4 16 -13 35 -19 19 -6 35 -15
35 -18 0 -4 21 -19 47 -32 41 -21 146 -91 178 -118 6 -4 25 -19 44 -32 140
-100 350 -306 476 -468 5 -7 16 -19 23 -27 6 -7 12 -18 12 -23 0 -6 7 -12 15
-16 8 -3 15 -12 15 -21 0 -8 5 -15 10 -15 6 0 14 -8 17 -17 4 -10 15 -26 24
-37 10 -10 25 -34 34 -52 9 -19 20 -34 25 -34 6 0 10 -7 10 -15 0 -8 4 -15 9
-15 5 0 15 -16 21 -35 6 -19 15 -35 19 -35 4 0 13 -19 20 -42 7 -22 19 -48 27
-56 8 -8 18 -27 21 -43 3 -16 9 -29 14 -29 5 0 9 -11 9 -25 0 -14 5 -25 10
-25 6 0 10 -5 10 -11 0 -6 6 -17 14 -25 8 -7 17 -32 21 -54 4 -22 10 -40 14
-40 8 0 41 -98 41 -123 0 -8 5 -17 10 -19 6 -2 29 -75 51 -163 77 -303 90
-422 85 -735 -2 -150 -10 -273 -20 -340 -19 -120 -102 -460 -117 -475 -5 -5
-9 -19 -9 -32 0 -14 -6 -23 -15 -23 -10 0 -15 -10 -15 -27 -1 -36 -26 -107
-40 -111 -5 -2 -10 -12 -10 -22 0 -10 -4 -21 -9 -25 -5 -3 -13 -20 -17 -38 -9
-40 -45 -117 -56 -117 -4 0 -8 -7 -8 -15 0 -8 -4 -15 -9 -15 -5 0 -15 -16 -21
-35 -6 -19 -16 -35 -21 -35 -5 0 -9 -9 -9 -20 0 -11 -4 -20 -10 -20 -5 0 -10
-7 -10 -15 0 -8 -4 -15 -9 -15 -5 0 -23 -24 -40 -52 -36 -62 -92 -141 -127
-180 -13 -15 -24 -32 -24 -37 0 -15 -299 -319 -351 -356 -25 -19 -66 -52 -90
-75 -24 -22 -49 -40 -54 -40 -6 0 -16 -9 -23 -20 -7 -11 -17 -20 -22 -20 -6 0
-32 -15 -58 -33 -26 -18 -63 -40 -82 -49 -19 -9 -44 -25 -55 -35 -27 -24 -239
-133 -260 -133 -9 0 -28 -9 -42 -20 -14 -11 -34 -20 -44 -20 -11 0 -19 -4 -19
-9 0 -5 -13 -11 -30 -14 -16 -4 -51 -16 -76 -28 -26 -11 -56 -18 -67 -15 -31
8 -77 -5 -77 -21 0 -10 -6 -12 -20 -8 -11 3 -34 0 -52 -8 -33 -15 -99 -32
-233 -62 -129 -29 -392 -45 -580 -34 -693 38 -1318 320 -1794 807 -249 255
-434 534 -565 849 -157 378 -213 690 -203 1131 4 200 9 258 30 369 57 288 126
501 237 728 244 501 635 913 1124 1184 397 220 881 344 1246 319 73 -5 106 -4
111 4z M5360 7777 c0 -8 7 -18 16 -21 28 -11 54 -6 54 9 0 8 -6 15 -12 15 -7
0 -23 3 -35 6 -17 5 -23 2 -23 -9z m57 -13 c-3 -3 -12 -4 -19 -1 -8 3 -5 6 6
6 11 1 17 -2 13 -5z M5850 7605 c0 -8 7 -15 15 -15 8 0 15 7 15 15 0 8 -7 15
-15 15 -8 0 -15 -7 -15 -15z M6240 7245 c0 -8 7 -15 15 -15 8 0 15 7 15 15 0
8 -7 15 -15 15 -8 0 -15 -7 -15 -15z M6600 6805 c0 -8 5 -15 10 -15 6 0 10 -8
10 -19 0 -10 7 -24 15 -31 8 -7 15 -19 15 -26 0 -8 7 -14 15 -14 9 0 15 -9 15
-21 0 -11 8 -33 18 -47 10 -15 36 -62 57 -104 22 -43 45 -78 52 -78 21 0 16
16 -37 119 -27 54 -50 105 -50 114 0 10 -8 17 -20 17 -14 0 -20 7 -20 23 0 12
-11 34 -25 49 -14 15 -25 32 -25 38 0 5 -7 10 -15 10 -8 0 -15 -7 -15 -15z
M6800 6775 c0 -8 7 -15 15 -15 8 0 15 7 15 15 0 8 -7 15 -15 15 -8 0 -15 -7
-15 -15z M6740 6735 c0 -8 7 -15 15 -15 8 0 15 7 15 15 0 8 -7 15 -15 15 -8 0
-15 -7 -15 -15z M7020 6735 c0 -8 9 -15 20 -15 11 0 20 7 20 15 0 8 -9 15 -20
15 -11 0 -20 -7 -20 -15z M7090 6685 c0 -8 7 -15 15 -15 8 0 15 7 15 15 0 8
-7 15 -15 15 -8 0 -15 -7 -15 -15z M7380 6535 c0 -8 7 -15 15 -15 8 0 15 7 15
15 0 8 -7 15 -15 15 -8 0 -15 -7 -15 -15z M7210 6455 c0 -8 7 -15 15 -15 8 0
15 7 15 15 0 8 -7 15 -15 15 -8 0 -15 -7 -15 -15z M7420 6455 c0 -8 7 -15 15
-15 8 0 15 7 15 15 0 8 -7 15 -15 15 -8 0 -15 -7 -15 -15z M7340 6445 c0 -8 7
-15 15 -15 8 0 15 7 15 15 0 8 -7 15 -15 15 -8 0 -15 -7 -15 -15z M6810 6431
c0 -25 52 -121 65 -121 20 0 19 5 -12 72 -14 32 -32 58 -40 58 -7 0 -13 -4
-13 -9z M7390 6415 c0 -8 7 -15 15 -15 8 0 15 7 15 15 0 8 -7 15 -15 15 -8 0
-15 -7 -15 -15z M7410 6375 c0 -8 7 -15 15 -15 8 0 15 7 15 15 0 8 -7 15 -15
15 -8 0 -15 -7 -15 -15z M7500 6275 c0 -8 7 -15 15 -15 8 0 15 7 15 15 0 8 -7
15 -15 15 -8 0 -15 -7 -15 -15z M6930 6255 c0 -8 7 -15 15 -15 8 0 15 7 15 15
0 8 -7 15 -15 15 -8 0 -15 -7 -15 -15z M7050 6225 c0 -8 7 -15 15 -15 8 0 15
7 15 15 0 8 -7 15 -15 15 -8 0 -15 -7 -15 -15z M7370 6215 c0 -8 7 -15 15 -15
8 0 15 7 15 15 0 8 -7 15 -15 15 -8 0 -15 -7 -15 -15z M7320 6195 c0 -8 9 -15
20 -15 11 0 20 7 20 15 0 8 -9 15 -20 15 -11 0 -20 -7 -20 -15z M7310 6155 c0
-8 7 -15 15 -15 8 0 15 7 15 15 0 8 -7 15 -15 15 -8 0 -15 -7 -15 -15z M7200
6135 c0 -9 9 -15 25 -15 16 0 25 6 25 15 0 9 -9 15 -25 15 -16 0 -25 -6 -25
-15z M7390 6135 c0 -8 7 -15 15 -15 8 0 15 7 15 15 0 8 -7 15 -15 15 -8 0 -15
-7 -15 -15z M7050 6105 c0 -8 7 -15 15 -15 8 0 15 7 15 15 0 8 -7 15 -15 15
-8 0 -15 -7 -15 -15z M7243 6113 c-16 -6 -17 -43 -2 -43 6 0 17 6 25 14 27 27
13 44 -23 29z M7420 6005 c0 -8 7 -15 15 -15 8 0 15 7 15 15 0 8 -7 15 -15 15
-8 0 -15 -7 -15 -15z M6980 5970 c0 -5 4 -19 9 -32 6 -13 17 -49 26 -80 11
-40 21 -58 31 -58 11 0 15 6 11 18 -8 27 -26 104 -32 135 -4 18 -12 27 -25 27
-11 0 -20 -4 -20 -10z M7650 5895 c0 -8 7 -15 15 -15 8 0 15 7 15 15 0 8 -7
15 -15 15 -8 0 -15 -7 -15 -15z M7270 5885 c0 -8 7 -15 15 -15 8 0 15 7 15 15
0 8 -7 15 -15 15 -8 0 -15 -7 -15 -15z M7500 5881 c0 -19 35 -39 48 -26 9 9
-13 40 -32 43 -10 2 -16 -3 -16 -17z M7410 5875 c0 -8 7 -15 15 -15 8 0 15 7
15 15 0 8 -7 15 -15 15 -8 0 -15 -7 -15 -15z M7430 5805 c0 -8 7 -15 15 -15 8
0 15 7 15 15 0 8 -7 15 -15 15 -8 0 -15 -7 -15 -15z M7660 5775 c0 -8 7 -15
15 -15 8 0 15 7 15 15 0 8 -7 15 -15 15 -8 0 -15 -7 -15 -15z M7040 5770 c0
-5 5 -32 11 -60 7 -33 16 -50 26 -50 11 0 14 7 10 23 -3 12 -9 39 -12 60 -4
22 -13 37 -21 37 -8 0 -14 -4 -14 -10z M7430 5755 c0 -8 7 -15 15 -15 8 0 15
7 15 15 0 8 -7 15 -15 15 -8 0 -15 -7 -15 -15z M7390 5705 c0 -8 7 -15 15 -15
8 0 15 7 15 15 0 8 -7 15 -15 15 -8 0 -15 -7 -15 -15z M7070 5630 c0 -11 7
-20 15 -20 8 0 15 9 15 20 0 11 -7 20 -15 20 -8 0 -15 -9 -15 -20z M7080 5570
c0 -11 7 -20 15 -20 8 0 15 9 15 20 0 11 -7 20 -15 20 -8 0 -15 -9 -15 -20z
M7090 5525 c0 -8 7 -15 15 -15 8 0 15 7 15 15 0 8 -7 15 -15 15 -8 0 -15 -7
-15 -15z M7100 5475 c0 -16 6 -25 15 -25 9 0 15 9 15 25 0 16 -6 25 -15 25 -9
0 -15 -9 -15 -25z M7740 5425 c0 -8 7 -15 15 -15 8 0 15 7 15 15 0 8 -7 15
-15 15 -8 0 -15 -7 -15 -15z M7110 5405 c0 -16 6 -25 15 -25 9 0 15 9 15 25 0
16 -6 25 -15 25 -9 0 -15 -9 -15 -25z M7190 5395 c0 -8 7 -15 15 -15 8 0 15 7
15 15 0 8 -7 15 -15 15 -8 0 -15 -7 -15 -15z M7120 5340 c0 -11 7 -20 15 -20
8 0 15 9 15 20 0 11 -7 20 -15 20 -8 0 -15 -9 -15 -20z M7120 5295 c0 -8 7
-15 15 -15 8 0 15 7 15 15 0 8 -7 15 -15 15 -8 0 -15 -7 -15 -15z M7190 5280
c0 -20 5 -30 15 -30 10 0 15 10 15 30 0 20 -5 30 -15 30 -10 0 -15 -10 -15
-30z M7170 5175 c0 -8 7 -15 15 -15 8 0 15 7 15 15 0 8 -7 15 -15 15 -8 0 -15
-7 -15 -15z M7550 5145 c0 -8 7 -15 15 -15 8 0 15 7 15 15 0 8 -7 15 -15 15
-8 0 -15 -7 -15 -15z M7170 5045 c0 -8 7 -15 15 -15 8 0 15 7 15 15 0 8 -7 15
-15 15 -8 0 -15 -7 -15 -15z M7520 4815 c0 -8 7 -15 15 -15 8 0 15 7 15 15 0
8 -7 15 -15 15 -8 0 -15 -7 -15 -15z M7140 4755 c0 -8 7 -15 15 -15 8 0 15 7
15 15 0 8 -7 15 -15 15 -8 0 -15 -7 -15 -15z M7587 4173 c-12 -12 -7 -43 7
-43 13 0 26 20 26 41 0 10 -23 12 -33 2z M7440 3900 c0 -29 4 -40 15 -40 11 0
15 11 15 40 0 29 -4 40 -15 40 -11 0 -15 -11 -15 -40z m17 -12 c-3 -7 -5 -2
-5 12 0 14 2 19 5 13 2 -7 2 -19 0 -25z M7305 3789 c-8 -25 -1 -34 20 -26 19
8 20 47 1 47 -8 0 -18 -9 -21 -21z M7220 3645 c0 -16 6 -25 15 -25 9 0 15 9
15 25 0 16 -6 25 -15 25 -9 0 -15 -9 -15 -25z M7170 3585 c0 -8 7 -15 15 -15
8 0 15 7 15 15 0 8 -7 15 -15 15 -8 0 -15 -7 -15 -15z M7260 3570 c0 -11 7
-20 15 -20 8 0 15 9 15 20 0 11 -7 20 -15 20 -8 0 -15 -9 -15 -20z M7107 3554
c-18 -18 -5 -32 33 -32 28 -1 40 3 40 14 0 8 -6 14 -12 14 -7 0 -22 3 -33 6
-11 3 -24 2 -28 -2z M7140 3495 c0 -10 -10 -15 -30 -15 -20 0 -30 -5 -30 -15
0 -10 10 -15 30 -15 20 0 30 5 30 15 0 8 9 15 20 15 11 0 20 -4 20 -10 0 -5 7
-10 15 -10 24 0 18 37 -7 44 -36 9 -48 7 -48 -9z M7034 3416 c-3 -14 -3 -30 1
-35 3 -7 -2 -11 -14 -11 -12 0 -21 -7 -21 -15 0 -8 9 -15 20 -15 11 0 20 5 20
10 0 6 6 10 14 10 9 0 14 13 14 40 1 46 -23 57 -34 16z M6600 3125 c0 -8 7
-15 15 -15 8 0 15 7 15 15 0 8 -7 15 -15 15 -8 0 -15 -7 -15 -15z M6360 2855
c0 -8 7 -15 15 -15 8 0 15 7 15 15 0 8 -7 15 -15 15 -8 0 -15 -7 -15 -15z
M6360 2795 c0 -8 7 -15 15 -15 8 0 15 7 15 15 0 8 -7 15 -15 15 -8 0 -15 -7
-15 -15z M6188 2733 c-21 -5 -24 -33 -4 -33 25 0 46 12 46 26 0 14 -10 16 -42
7z"/>
</g>
</svg>
