<?xml version="1.0" standalone="no"?>
<!DOCTYPE svg PUBLIC "-//W3C//DTD SVG 20010904//EN"
 "http://www.w3.org/TR/2001/REC-SVG-20010904/DTD/svg10.dtd">
<svg version="1.0" xmlns="http://www.w3.org/2000/svg"
 width="1024.000000pt" height="1024.000000pt" viewBox="0 0 1024.000000 1024.000000"
 preserveAspectRatio="xMidYMid meet">
<metadata>
Created by potrace 1.14, written by Peter Selinger 2001-2017
</metadata>
<g transform="translate(0.000000,1024.000000) scale(0.100000,-0.100000)"
fill="#000000" stroke="none">
<path d="M5160 7833 c0 -5 -91 -8 -203 -8 -209 -1 -269 -7 -467 -51 -527 -118
-1048 -427 -1408 -835 -342 -389 -547 -815 -649 -1349 -27 -139 -28 -159 -28
-450 0 -327 8 -410 61 -645 63 -277 212 -628 371 -870 547 -832 1496 -1297
2488 -1220 168 13 428 60 477 86 9 5 33 9 53 9 22 0 38 6 41 15 4 10 20 15 51
15 25 0 57 6 71 14 15 8 61 27 102 42 41 15 84 33 95 41 11 7 27 13 37 13 9 0
21 6 25 14 4 7 31 21 58 30 28 9 67 27 87 41 21 14 48 30 60 35 25 11 33 16
123 74 33 22 66 46 73 53 7 7 18 13 23 13 6 0 16 6 23 12 7 7 25 22 41 33 202
143 462 421 610 650 21 33 47 68 57 78 10 10 18 24 18 32 0 8 4 15 9 15 5 0
12 13 16 30 4 17 11 30 16 30 5 0 11 11 15 25 3 14 10 25 15 25 5 0 9 6 9 14
0 16 33 88 60 131 10 17 19 38 19 48 1 9 5 17 9 17 5 0 17 26 28 58 10 31 22
59 25 62 3 3 9 22 13 42 4 20 10 38 15 40 4 2 15 32 25 68 102 383 121 536
113 894 -6 266 -15 333 -72 566 -45 182 -110 381 -127 388 -4 2 -8 9 -8 15 0
16 -92 211 -102 215 -4 2 -8 12 -8 22 0 10 -6 25 -13 32 -8 7 -17 25 -20 40
-4 15 -13 33 -20 40 -6 7 -31 42 -54 78 -23 36 -49 72 -56 80 -8 8 -17 23 -20
33 -4 9 -11 17 -17 17 -5 0 -10 7 -10 15 0 8 -4 15 -10 15 -5 0 -10 5 -10 11
0 5 -13 24 -30 42 -16 18 -30 35 -30 39 0 30 -311 332 -435 423 -22 16 -45 34
-51 40 -6 5 -20 16 -30 22 -11 7 -44 30 -74 51 -30 21 -62 41 -70 45 -8 4 -28
16 -45 27 -16 11 -63 36 -104 56 -40 19 -80 42 -88 50 -8 7 -26 17 -41 20 -15
4 -37 12 -48 20 -12 7 -50 23 -85 34 -35 12 -102 36 -149 55 -162 63 -395 114
-615 135 -130 12 -235 13 -235 3z m215 -23 c220 -21 453 -72 615 -135 47 -19
114 -43 149 -55 35 -11 73 -27 85 -34 11 -8 33 -16 48 -20 15 -3 33 -13 41
-20 8 -8 48 -31 88 -50 41 -20 88 -45 104 -56 17 -11 37 -23 45 -27 8 -4 40
-24 70 -45 30 -21 63 -44 74 -51 10 -6 24 -17 30 -22 6 -6 29 -24 51 -40 124
-91 435 -393 435 -423 0 -4 14 -21 30 -39 17 -18 30 -37 30 -42 0 -6 5 -11 10
-11 6 0 10 -7 10 -15 0 -8 5 -15 10 -15 6 0 13 -8 17 -17 3 -10 12 -25 20 -33
7 -8 33 -44 56 -80 23 -36 48 -71 54 -78 7 -7 16 -25 20 -40 3 -15 12 -33 20
-40 7 -7 13 -22 13 -32 0 -10 4 -20 8 -22 10 -4 102 -199 102 -215 0 -6 4 -13
8 -15 24 -10 132 -372 161 -543 7 -38 17 -92 23 -120 15 -71 20 -502 8 -615
-19 -178 -41 -286 -106 -530 -10 -36 -21 -66 -25 -68 -5 -2 -11 -20 -15 -40
-4 -20 -10 -39 -13 -42 -3 -3 -15 -31 -25 -62 -11 -32 -23 -58 -28 -58 -4 0
-8 -8 -9 -17 0 -10 -9 -31 -19 -48 -27 -43 -60 -115 -60 -131 0 -8 -4 -14 -9
-14 -5 0 -12 -11 -15 -25 -4 -14 -10 -25 -15 -25 -5 0 -12 -14 -16 -30 -4 -17
-11 -30 -16 -30 -5 0 -9 -7 -9 -15 0 -8 -8 -22 -18 -32 -10 -10 -36 -45 -57
-78 -148 -229 -408 -507 -610 -650 -16 -11 -34 -26 -41 -33 -7 -6 -17 -12 -23
-12 -5 0 -16 -6 -23 -13 -7 -7 -40 -31 -73 -53 -90 -58 -98 -63 -123 -74 -12
-5 -39 -21 -60 -35 -20 -14 -59 -32 -87 -41 -27 -9 -54 -23 -58 -30 -4 -8 -16
-14 -25 -14 -10 0 -26 -6 -37 -13 -20 -14 -154 -67 -168 -67 -4 0 -7 7 -7 15
0 17 -4 18 -37 9 -34 -9 -30 -38 4 -31 26 5 26 4 8 -9 -25 -18 -55 -18 -55 1
0 8 -9 15 -20 15 -11 0 -20 -4 -20 -10 0 -15 -33 -50 -47 -50 -7 0 -13 5 -13
10 0 6 -7 10 -15 10 -8 0 -15 -4 -15 -9 0 -29 -280 -88 -500 -105 -497 -37
-993 67 -1447 304 -762 398 -1282 1135 -1420 2010 -14 91 -18 174 -18 400 0
269 2 293 28 430 102 534 307 960 649 1349 360 408 881 717 1408 835 202 45
258 51 468 51 111 0 202 3 202 8 0 10 64 9 195 -3z M5350 7775 c0 -8 9 -15 20
-15 11 0 20 7 20 15 0 8 -9 15 -20 15 -11 0 -20 -7 -20 -15z M5690 7645 c0 -8
7 -15 15 -15 8 0 15 7 15 15 0 8 -7 15 -15 15 -8 0 -15 -7 -15 -15z M6050
7485 c0 -8 7 -15 15 -15 8 0 15 7 15 15 0 8 -7 15 -15 15 -8 0 -15 -7 -15 -15z
M6300 7175 c0 -8 7 -15 15 -15 8 0 15 7 15 15 0 8 -7 15 -15 15 -8 0 -15 -7
-15 -15z M6530 6885 c0 -8 7 -15 15 -15 8 0 15 7 15 15 0 8 -7 15 -15 15 -8 0
-15 -7 -15 -15z M6600 6795 c0 -8 7 -15 15 -15 8 0 15 7 15 15 0 8 -7 15 -15
15 -8 0 -15 -7 -15 -15z M6650 6745 c0 -8 7 -15 15 -15 8 0 15 7 15 15 0 8 -7
15 -15 15 -8 0 -15 -7 -15 -15z M6900 6745 c0 -8 7 -15 15 -15 8 0 15 7 15 15
0 8 -7 15 -15 15 -8 0 -15 -7 -15 -15z M7020 6735 c0 -8 9 -15 20 -15 11 0 20
7 20 15 0 8 -9 15 -20 15 -11 0 -20 -7 -20 -15z M7080 6685 c0 -8 7 -15 15
-15 8 0 15 7 15 15 0 8 -7 15 -15 15 -8 0 -15 -7 -15 -15z M6700 6675 c0 -8 7
-15 15 -15 8 0 15 7 15 15 0 8 -7 15 -15 15 -8 0 -15 -7 -15 -15z M6690 6640
c0 -6 35 -82 78 -170 55 -113 82 -159 95 -159 26 -1 33 -22 -82 219 -22 47
-47 93 -54 103 -16 19 -37 23 -37 7z M7120 6615 c0 -8 7 -15 15 -15 8 0 15 7
15 15 0 8 -7 15 -15 15 -8 0 -15 -7 -15 -15z M7180 6525 c0 -8 7 -15 15 -15 8
0 15 7 15 15 0 8 -7 15 -15 15 -8 0 -15 -7 -15 -15z M7390 6515 c0 -8 7 -15
15 -15 8 0 15 7 15 15 0 8 -7 15 -15 15 -8 0 -15 -7 -15 -15z M7420 6461 c0
-21 13 -41 26 -41 15 0 17 10 8 34 -7 17 -34 22 -34 7z M7200 6435 c0 -8 7
-15 15 -15 8 0 15 7 15 15 0 8 -7 15 -15 15 -8 0 -15 -7 -15 -15z M7410 6395
c0 -8 7 -15 15 -15 8 0 15 7 15 15 0 8 -7 15 -15 15 -8 0 -15 -7 -15 -15z
M7420 6350 c0 -11 7 -20 15 -20 8 0 15 9 15 20 0 11 -7 20 -15 20 -8 0 -15 -9
-15 -20z M6930 6255 c0 -8 7 -15 15 -15 8 0 15 7 15 15 0 8 -7 15 -15 15 -8 0
-15 -7 -15 -15z M7130 6255 c0 -8 7 -15 15 -15 8 0 15 7 15 15 0 8 -7 15 -15
15 -8 0 -15 -7 -15 -15z M7500 6255 c0 -8 7 -15 15 -15 8 0 15 7 15 15 0 8 -7
15 -15 15 -8 0 -15 -7 -15 -15z M7380 6205 c0 -8 7 -15 15 -15 8 0 15 7 15 15
0 8 -7 15 -15 15 -8 0 -15 -7 -15 -15z M7330 6185 c0 -8 7 -15 15 -15 8 0 15
7 15 15 0 8 -7 15 -15 15 -8 0 -15 -7 -15 -15z M7170 6145 c0 -8 7 -15 15 -15
8 0 15 7 15 15 0 8 -7 15 -15 15 -8 0 -15 -7 -15 -15z M7240 6135 c0 -8 7 -15
15 -15 8 0 15 7 15 15 0 8 -7 15 -15 15 -8 0 -15 -7 -15 -15z M7240 6095 c0
-8 7 -15 15 -15 8 0 15 7 15 15 0 8 -7 15 -15 15 -8 0 -15 -7 -15 -15z M6960
6015 c0 -8 7 -15 15 -15 8 0 15 7 15 15 0 8 -7 15 -15 15 -8 0 -15 -7 -15 -15z
M7340 6010 c0 -11 7 -20 15 -20 8 0 15 9 15 20 0 11 -7 20 -15 20 -8 0 -15 -9
-15 -20z M7390 6016 c0 -12 28 -25 53 -26 18 0 5 28 -15 34 -33 8 -38 8 -38
-8z M6974 5958 c4 -13 9 -35 12 -50 10 -46 33 -35 32 15 -2 42 -11 57 -37 57
-9 0 -11 -7 -7 -22z M7354 5972 c-6 -4 -14 -24 -18 -44 -6 -31 -4 -38 9 -38 9
0 18 12 22 30 3 17 9 30 14 30 5 0 9 7 9 15 0 16 -18 20 -36 7z M7070 5915 c0
-8 7 -15 15 -15 8 0 15 7 15 15 0 8 -7 15 -15 15 -8 0 -15 -7 -15 -15z M7270
5880 c0 -11 7 -23 15 -27 21 -8 28 1 20 26 -8 27 -35 27 -35 1z M7010 5843
c-1 -34 36 -153 47 -153 17 0 17 1 -4 88 -10 44 -22 72 -30 72 -7 0 -13 -3
-13 -7z M7660 5765 c0 -8 7 -15 15 -15 8 0 15 7 15 15 0 8 -7 15 -15 15 -8 0
-15 -7 -15 -15z M7420 5745 c0 -8 7 -15 15 -15 8 0 15 7 15 15 0 8 -7 15 -15
15 -8 0 -15 -7 -15 -15z M7370 5705 c0 -9 9 -15 25 -15 16 0 25 6 25 15 0 9
-9 15 -25 15 -16 0 -25 -6 -25 -15z M7054 5648 c3 -18 10 -63 17 -100 8 -49
15 -68 26 -68 12 0 14 8 9 33 -3 17 -10 62 -17 100 -8 48 -15 67 -26 67 -12 0
-14 -8 -9 -32z M7710 5545 c0 -8 5 -15 11 -15 5 0 7 5 3 12 -4 7 -3 8 4 4 7
-4 12 -2 12 3 0 6 -7 11 -15 11 -8 0 -15 -7 -15 -15z M7735 5530 c-10 -17 5
-70 21 -70 15 0 18 20 8 58 -7 23 -19 29 -29 12z M7094 5423 c3 -21 6 -46 6
-55 0 -10 7 -18 15 -18 16 0 18 15 9 73 -4 23 -12 37 -22 37 -11 0 -13 -8 -8
-37z M7260 5445 c0 -8 7 -15 15 -15 8 0 15 7 15 15 0 8 -7 15 -15 15 -8 0 -15
-7 -15 -15z M7590 5445 c0 -8 7 -15 15 -15 8 0 15 7 15 15 0 8 -7 15 -15 15
-8 0 -15 -7 -15 -15z M7740 5435 c0 -8 7 -15 15 -15 8 0 15 7 15 15 0 8 -7 15
-15 15 -8 0 -15 -7 -15 -15z M7190 5385 c0 -8 7 -15 15 -15 8 0 15 7 15 15 0
8 -7 15 -15 15 -8 0 -15 -7 -15 -15z M7110 5295 c0 -33 4 -45 14 -45 22 0 28
16 20 55 -10 53 -34 46 -34 -10z M7170 5165 c0 -8 9 -15 20 -15 11 0 20 7 20
15 0 8 -9 15 -20 15 -11 0 -20 -7 -20 -15z M7180 5120 c0 -11 7 -20 15 -20 8
0 15 9 15 20 0 11 -7 20 -15 20 -8 0 -15 -9 -15 -20z M7170 5049 c0 -14 5 -19
17 -17 26 5 29 38 4 38 -15 0 -21 -6 -21 -21z M7130 4755 c0 -8 7 -15 15 -15
8 0 15 7 15 15 0 8 -7 15 -15 15 -8 0 -15 -7 -15 -15z M7530 4615 c0 -8 7 -15
15 -15 8 0 15 7 15 15 0 8 -7 15 -15 15 -8 0 -15 -7 -15 -15z M7580 4145 c0
-16 6 -25 15 -25 9 0 15 9 15 25 0 16 -6 25 -15 25 -9 0 -15 -9 -15 -25z
M7020 4035 c0 -8 7 -15 15 -15 8 0 15 7 15 15 0 8 -7 15 -15 15 -8 0 -15 -7
-15 -15z M7290 3885 c0 -8 7 -15 15 -15 8 0 15 7 15 15 0 8 -7 15 -15 15 -8 0
-15 -7 -15 -15z M7440 3870 c0 -15 7 -20 25 -20 28 0 34 24 9 34 -26 10 -34 7
-34 -14z M7302 3798 c-20 -20 -14 -40 11 -36 14 2 23 11 25 26 4 24 -16 30
-36 10z M7212 3643 c2 -10 10 -18 18 -18 8 0 16 8 18 18 2 12 -3 17 -18 17
-15 0 -20 -5 -18 -17z M7160 3616 c0 -11 10 -16 31 -16 38 0 35 24 -4 28 -19
2 -27 -1 -27 -12z M7160 3575 c0 -8 7 -15 15 -15 8 0 15 7 15 15 0 8 -7 15
-15 15 -8 0 -15 -7 -15 -15z M7250 3560 c0 -11 7 -20 15 -20 8 0 15 9 15 20 0
11 -7 20 -15 20 -8 0 -15 -9 -15 -20z M7100 3541 c0 -14 6 -21 20 -21 13 0 20
-7 20 -19 0 -13 -10 -21 -34 -25 -22 -4 -36 -13 -39 -26 -3 -11 -12 -20 -21
-20 -9 0 -16 -7 -16 -15 0 -29 51 -15 63 18 3 9 16 17 27 17 11 0 20 7 20 15
0 8 7 15 15 15 10 0 15 11 15 35 0 21 -5 35 -12 35 -7 0 -23 3 -35 6 -19 5
-23 2 -23 -15z M7182 3488 c-16 -16 -15 -38 1 -38 17 1 47 25 47 39 0 15 -33
14 -48 -1z M6680 3255 c0 -8 7 -15 15 -15 8 0 15 7 15 15 0 8 -7 15 -15 15 -8
0 -15 -7 -15 -15z M6530 2955 c0 -8 7 -15 15 -15 8 0 15 7 15 15 0 8 -7 15
-15 15 -8 0 -15 -7 -15 -15z M6430 2935 c0 -9 -9 -15 -21 -15 -24 0 -21 -23 4
-28 10 -2 17 3 17 12 0 9 7 16 15 16 8 0 15 7 15 15 0 8 -7 15 -15 15 -8 0
-15 -7 -15 -15z M6370 2886 c0 -9 7 -16 16 -16 9 0 14 5 12 12 -6 18 -28 21
-28 4z M6290 2805 c0 -8 7 -15 15 -15 8 0 15 7 15 15 0 8 -7 15 -15 15 -8 0
-15 -7 -15 -15z M6163 2723 c-13 -2 -23 -11 -23 -19 0 -23 64 -14 68 9 3 17
-2 18 -45 10z"/>
</g>
</svg>
