<?xml version="1.0" standalone="no"?>
<!DOCTYPE svg PUBLIC "-//W3C//DTD SVG 20010904//EN"
 "http://www.w3.org/TR/2001/REC-SVG-20010904/DTD/svg10.dtd">
<svg version="1.0" xmlns="http://www.w3.org/2000/svg"
 width="1024.000000pt" height="1024.000000pt" viewBox="0 0 1024.000000 1024.000000"
 preserveAspectRatio="xMidYMid meet">
<metadata>
Created by potrace 1.14, written by Peter Selinger 2001-2017
</metadata>
<g transform="translate(0.000000,1024.000000) scale(0.100000,-0.100000)"
fill="#000000" stroke="none">
<path d="M4920 7809 c-790 -33 -1541 -457 -2027 -1144 -218 -309 -386 -734
-449 -1135 -23 -144 -27 -623 -6 -765 62 -430 207 -814 434 -1155 256 -382
613 -697 1023 -902 210 -106 351 -157 575 -211 268 -64 434 -81 725 -74 222 5
324 18 575 73 90 20 341 101 354 114 6 6 18 10 28 10 10 0 18 4 18 8 0 5 19
14 43 21 56 17 247 111 247 122 0 5 6 9 14 9 8 0 21 6 28 13 7 6 29 20 48 29
31 16 106 66 195 131 16 12 40 32 53 45 12 12 26 22 29 22 6 0 27 19 126 113
32 31 65 58 73 61 8 3 17 11 19 18 3 7 41 51 85 97 44 46 80 87 80 91 0 6 27
40 65 81 8 9 15 21 15 27 0 7 9 21 20 32 10 10 32 38 47 61 15 23 36 54 45 68
17 25 33 53 68 113 8 15 38 74 66 130 46 92 68 139 93 203 5 11 13 32 20 48
26 63 30 74 45 122 35 116 46 156 70 274 71 335 75 739 10 1066 -37 190 -75
336 -99 381 -8 16 -15 37 -15 46 0 9 -4 19 -9 23 -5 3 -13 20 -17 38 -7 34
-35 99 -45 107 -4 3 -15 29 -24 58 -10 28 -21 52 -26 52 -5 0 -9 6 -9 14 0 13
-47 105 -59 116 -3 3 -14 21 -23 40 -33 65 -156 253 -178 270 -3 3 -28 33 -54
68 -66 87 -262 283 -376 377 -183 150 -478 328 -616 372 -30 9 -54 20 -54 25
0 4 -11 8 -24 8 -13 0 -26 4 -28 8 -9 25 -311 118 -480 147 -248 44 -356 50
-718 34z m495 -24 c169 -21 270 -40 403 -75 126 -34 275 -88 280 -102 2 -4 15
-8 28 -8 13 0 24 -4 24 -8 0 -5 24 -16 54 -25 138 -44 433 -222 616 -372 114
-94 310 -290 376 -377 26 -35 51 -65 54 -68 22 -17 145 -205 178 -270 9 -19
20 -37 23 -40 12 -11 59 -103 59 -116 0 -8 4 -14 9 -14 5 0 16 -24 26 -52 9
-29 20 -55 24 -58 10 -8 38 -73 45 -107 4 -18 12 -35 17 -38 5 -4 9 -14 9 -23
0 -9 7 -30 15 -46 38 -73 104 -367 130 -586 36 -299 3 -710 -81 -995 -27 -91
-46 -150 -55 -172 -5 -13 -13 -34 -19 -48 -12 -29 -22 -55 -45 -110 -18 -43
-110 -228 -135 -273 -35 -60 -51 -88 -68 -113 -9 -14 -30 -45 -45 -68 -15 -23
-37 -51 -47 -61 -11 -11 -20 -25 -20 -32 0 -6 -7 -18 -15 -27 -38 -41 -65 -75
-65 -81 0 -4 -36 -45 -80 -91 -44 -46 -82 -90 -85 -97 -2 -7 -11 -15 -19 -18
-8 -3 -41 -30 -73 -61 -99 -94 -120 -113 -126 -113 -3 0 -17 -10 -29 -22 -13
-13 -37 -33 -53 -45 -89 -65 -164 -115 -195 -131 -19 -9 -41 -23 -48 -30 -7
-6 -20 -12 -28 -12 -8 0 -14 -4 -14 -9 0 -11 -191 -105 -247 -122 -24 -7 -43
-16 -43 -21 0 -4 -8 -8 -18 -8 -10 0 -22 -4 -28 -9 -22 -23 -347 -121 -419
-127 -16 -1 -86 -14 -155 -29 -213 -45 -538 -46 -820 -4 -100 15 -346 75 -440
106 -422 142 -807 392 -1122 730 -371 399 -607 904 -690 1478 -20 141 -17 581
6 725 90 574 355 1100 756 1500 255 255 526 440 850 578 301 130 660 208 918
200 67 -1 122 0 122 5 0 12 179 8 305 -8z M7050 6555 c0 -8 7 -15 15 -15 8 0
15 7 15 15 0 8 -7 15 -15 15 -8 0 -15 -7 -15 -15z M6960 6465 c0 -8 7 -15 15
-15 8 0 15 7 15 15 0 8 -7 15 -15 15 -8 0 -15 -7 -15 -15z M7220 6375 c0 -8 7
-15 15 -15 8 0 15 7 15 15 0 8 -7 15 -15 15 -8 0 -15 -7 -15 -15z M7200 6305
c0 -8 7 -15 15 -15 8 0 15 7 15 15 0 8 -7 15 -15 15 -8 0 -15 -7 -15 -15z
M7500 6245 c0 -8 7 -15 15 -15 8 0 15 7 15 15 0 8 -7 15 -15 15 -8 0 -15 -7
-15 -15z M7330 6210 c0 -20 5 -30 15 -30 10 0 15 10 15 30 0 20 -5 30 -15 30
-10 0 -15 -10 -15 -30z M7200 6215 c0 -8 7 -15 15 -15 8 0 15 7 15 15 0 8 -7
15 -15 15 -8 0 -15 -7 -15 -15z M7090 6145 c0 -8 7 -15 15 -15 8 0 15 7 15 15
0 8 -7 15 -15 15 -8 0 -15 -7 -15 -15z M7380 6005 c0 -8 7 -15 15 -15 8 0 15
7 15 15 0 8 -7 15 -15 15 -8 0 -15 -7 -15 -15z M7400 5955 c0 -8 7 -15 15 -15
8 0 15 7 15 15 0 8 -7 15 -15 15 -8 0 -15 -7 -15 -15z M7360 5935 c0 -8 7 -15
15 -15 8 0 15 7 15 15 0 8 -7 15 -15 15 -8 0 -15 -7 -15 -15z M6980 5905 c0
-8 5 -15 11 -15 5 0 7 5 3 12 -4 7 -3 8 4 4 7 -4 12 -2 12 3 0 6 -7 11 -15 11
-8 0 -15 -7 -15 -15z M6772 5884 c2 -11 11 -20 22 -22 13 -3 17 1 14 14 -2 11
-11 20 -22 22 -13 3 -17 -1 -14 -14z M7005 5891 c-8 -15 3 -31 21 -31 9 0 14
7 12 17 -4 20 -24 28 -33 14z M7250 5875 c0 -8 7 -15 15 -15 8 0 15 7 15 15 0
8 -7 15 -15 15 -8 0 -15 -7 -15 -15z M7050 5825 c0 -8 7 -15 15 -15 8 0 15 7
15 15 0 8 -7 15 -15 15 -8 0 -15 -7 -15 -15z M7190 5785 c0 -8 7 -15 15 -15 8
0 15 7 15 15 0 8 -7 15 -15 15 -8 0 -15 -7 -15 -15z M7680 5765 c0 -8 7 -15
15 -15 8 0 15 7 15 15 0 8 -7 15 -15 15 -8 0 -15 -7 -15 -15z M7220 5745 c0
-8 7 -15 15 -15 8 0 15 7 15 15 0 8 -7 15 -15 15 -8 0 -15 -7 -15 -15z M7500
5675 c0 -8 7 -15 15 -15 8 0 15 7 15 15 0 8 -7 15 -15 15 -8 0 -15 -7 -15 -15z
M6830 5643 c0 -9 5 -45 11 -80 8 -45 15 -63 26 -63 12 0 14 8 10 33 -3 17 -9
53 -13 80 -4 30 -11 47 -20 47 -8 0 -14 -8 -14 -17z m27 -75 c-3 -8 -6 -5 -6
6 -1 11 2 17 5 13 3 -3 4 -12 1 -19z M7230 5605 c0 -8 7 -15 15 -15 8 0 15 7
15 15 0 8 -7 15 -15 15 -8 0 -15 -7 -15 -15z M7690 5575 c0 -8 9 -15 20 -15
11 0 20 7 20 15 0 8 -9 15 -20 15 -11 0 -20 -7 -20 -15z M7160 5515 c0 -8 7
-15 15 -15 8 0 15 7 15 15 0 8 -7 15 -15 15 -8 0 -15 -7 -15 -15z M7730 5495
c0 -8 7 -15 15 -15 8 0 15 7 15 15 0 8 -7 15 -15 15 -8 0 -15 -7 -15 -15z
M7130 5455 c0 -8 7 -15 15 -15 8 0 15 7 15 15 0 8 -7 15 -15 15 -8 0 -15 -7
-15 -15z M6860 5445 c0 -8 7 -15 15 -15 8 0 15 7 15 15 0 8 -7 15 -15 15 -8 0
-15 -7 -15 -15z M7156 5398 c-9 -34 -8 -38 9 -38 8 0 15 3 15 8 0 4 3 17 6 30
5 16 2 22 -9 22 -8 0 -17 -10 -21 -22z M6870 5391 c0 -42 13 -81 28 -81 11 0
13 7 8 31 -3 17 -6 40 -6 50 0 11 -7 19 -15 19 -8 0 -15 -8 -15 -19z M7730
5355 c0 -8 7 -15 15 -15 8 0 15 7 15 15 0 8 -7 15 -15 15 -8 0 -15 -7 -15 -15z
M7110 5305 c0 -8 7 -15 15 -15 8 0 15 7 15 15 0 8 -7 15 -15 15 -8 0 -15 -7
-15 -15z M7030 5215 c0 -8 7 -15 15 -15 8 0 15 7 15 15 0 8 -7 15 -15 15 -8 0
-15 -7 -15 -15z M6950 5195 c0 -8 7 -15 15 -15 8 0 15 7 15 15 0 8 -7 15 -15
15 -8 0 -15 -7 -15 -15z M6900 5070 c0 -20 5 -30 15 -30 10 0 15 10 15 30 0
20 -5 30 -15 30 -10 0 -15 -10 -15 -30z M6900 5013 c0 -10 -3 -28 -6 -40 -5
-17 -2 -23 9 -23 14 0 27 28 27 63 0 9 -7 17 -15 17 -8 0 -15 -8 -15 -17z
M6900 4925 c0 -8 7 -15 15 -15 8 0 15 7 15 15 0 8 -7 15 -15 15 -8 0 -15 -7
-15 -15z M6620 3465 c0 -8 7 -15 15 -15 8 0 15 7 15 15 0 8 -7 15 -15 15 -8 0
-15 -7 -15 -15z M6360 3025 c0 -8 7 -15 15 -15 8 0 15 7 15 15 0 8 -7 15 -15
15 -8 0 -15 -7 -15 -15z M6230 2865 c0 -8 7 -15 15 -15 8 0 15 7 15 15 0 8 -7
15 -15 15 -8 0 -15 -7 -15 -15z M6350 2825 c0 -8 7 -15 15 -15 8 0 15 7 15 15
0 8 -7 15 -15 15 -8 0 -15 -7 -15 -15z M6020 2685 c0 -10 10 -15 30 -15 20 0
30 5 30 15 0 10 -10 15 -30 15 -20 0 -30 -5 -30 -15z"/>
</g>
</svg>
