<?xml version="1.0" standalone="no"?>
<!DOCTYPE svg PUBLIC "-//W3C//DTD SVG 20010904//EN"
 "http://www.w3.org/TR/2001/REC-SVG-20010904/DTD/svg10.dtd">
<svg version="1.0" xmlns="http://www.w3.org/2000/svg"
 width="1024.000000pt" height="1024.000000pt" viewBox="0 0 1024.000000 1024.000000"
 preserveAspectRatio="xMidYMid meet">
<metadata>
Created by potrace 1.14, written by Peter Selinger 2001-2017
</metadata>
<g transform="translate(0.000000,1024.000000) scale(0.100000,-0.100000)"
fill="#000000" stroke="none">
<path d="M4920 7799 c-536 -21 -1099 -244 -1525 -603 -448 -377 -744 -849
-890 -1421 -55 -216 -70 -354 -70 -650 0 -274 8 -358 52 -569 258 -1239 1350
-2126 2618 -2126 201 0 382 20 640 70 104 20 365 107 365 121 0 4 15 9 34 12
29 5 262 111 276 127 3 3 30 18 60 34 74 39 250 157 250 167 0 5 7 9 15 9 8 0
15 4 15 8 0 5 9 13 20 18 37 17 350 309 350 327 0 4 15 22 33 40 54 55 160
193 193 252 9 17 37 60 61 98 64 98 143 255 143 283 0 13 4 24 9 24 20 0 104
218 149 390 75 280 98 493 88 800 -4 113 -10 228 -15 255 -5 28 -14 84 -20
125 -6 41 -18 98 -26 125 -7 28 -21 84 -30 125 -8 42 -22 89 -30 104 -8 16
-15 37 -15 47 0 10 -4 20 -9 23 -5 3 -12 18 -16 33 -3 15 -15 45 -26 67 -10
22 -19 46 -19 53 0 7 -9 30 -20 50 -11 21 -20 44 -20 51 0 43 -225 411 -321
527 -113 135 -177 203 -286 305 -213 199 -445 354 -688 460 -27 12 -75 33
-105 47 -188 87 -475 160 -739 188 -143 16 -215 16 -501 4z m481 -24 c264 -28
551 -101 739 -188 30 -14 78 -35 105 -47 243 -106 475 -261 688 -460 109 -102
173 -170 286 -305 96 -116 321 -484 321 -527 0 -7 9 -30 20 -51 11 -20 20 -43
20 -50 0 -7 9 -31 19 -53 11 -22 23 -52 26 -67 4 -15 11 -30 16 -33 5 -3 9
-13 9 -23 0 -10 7 -31 15 -47 8 -15 22 -62 30 -104 9 -41 23 -97 30 -125 8
-27 17 -70 20 -95 4 -25 11 -65 16 -90 24 -116 35 -450 20 -621 -24 -272 -98
-570 -196 -787 -15 -34 -32 -62 -36 -62 -5 0 -9 -11 -9 -24 0 -28 -79 -185
-143 -283 -24 -38 -52 -81 -61 -98 -33 -59 -139 -197 -193 -252 -18 -18 -33
-36 -33 -40 0 -18 -313 -310 -350 -327 -11 -5 -20 -13 -20 -18 0 -4 -7 -8 -15
-8 -8 0 -15 -4 -15 -9 0 -10 -176 -128 -250 -167 -30 -16 -57 -31 -60 -34 -14
-16 -247 -122 -276 -127 -19 -3 -34 -8 -34 -12 0 -23 -350 -127 -460 -136 -19
-2 -57 -9 -85 -15 -291 -65 -727 -49 -1074 40 -997 254 -1756 1045 -1964 2046
-44 207 -52 296 -52 549 0 359 37 576 155 905 200 559 589 1040 1099 1360 385
240 905 399 1275 389 69 -2 126 -1 126 4 0 12 144 8 291 -8z M5190 7765 c0 -8
7 -15 15 -15 8 0 15 7 15 15 0 8 -7 15 -15 15 -8 0 -15 -7 -15 -15z M5300
7735 c0 -8 7 -15 15 -15 8 0 15 7 15 15 0 8 -7 15 -15 15 -8 0 -15 -7 -15 -15z
M6080 7135 c0 -8 7 -15 15 -15 8 0 15 7 15 15 0 8 -7 15 -15 15 -8 0 -15 -7
-15 -15z M7160 6445 c0 -13 -3 -13 -20 -3 -27 17 -34 5 -19 -36 13 -35 39 -50
39 -22 0 8 4 16 9 18 5 2 13 15 16 31 6 21 4 27 -9 27 -9 0 -16 -7 -16 -15z
M7190 6405 c0 -8 7 -15 15 -15 8 0 15 7 15 15 0 8 -7 15 -15 15 -8 0 -15 -7
-15 -15z M6500 6375 c0 -8 7 -15 15 -15 8 0 15 7 15 15 0 8 -7 15 -15 15 -8 0
-15 -7 -15 -15z M7200 6356 c0 -13 20 -26 41 -26 15 0 10 27 -7 34 -24 9 -34
7 -34 -8z M7130 6285 c0 -8 7 -15 15 -15 8 0 15 7 15 15 0 8 -7 15 -15 15 -8
0 -15 -7 -15 -15z M7180 6285 c0 -8 7 -15 15 -15 8 0 15 7 15 15 0 8 -7 15
-15 15 -8 0 -15 -7 -15 -15z M6550 6238 c0 -30 13 -58 27 -58 11 0 14 6 9 23
-3 12 -6 28 -6 35 0 6 -7 12 -15 12 -8 0 -15 -6 -15 -12z M7190 6230 c0 -5 -7
-10 -15 -10 -9 0 -15 -9 -15 -21 0 -18 4 -20 25 -15 14 4 25 2 25 -4 0 -5 7
-10 15 -10 8 0 15 9 15 20 0 11 -4 20 -10 20 -5 0 -10 7 -10 15 0 8 -7 15 -15
15 -8 0 -15 -4 -15 -10z M6594 6103 c3 -16 9 -43 12 -60 4 -20 13 -33 22 -33
12 0 13 8 7 38 -4 20 -6 47 -6 60 1 16 -5 22 -20 22 -18 0 -20 -4 -15 -27z
M6670 6065 c0 -8 7 -15 15 -15 8 0 15 7 15 15 0 8 -7 15 -15 15 -8 0 -15 -7
-15 -15z M7430 6025 c0 -8 7 -15 15 -15 8 0 15 7 15 15 0 8 -7 15 -15 15 -8 0
-15 -7 -15 -15z M6640 5935 c0 -8 7 -15 15 -15 8 0 15 7 15 15 0 8 -7 15 -15
15 -8 0 -15 -7 -15 -15z M6820 5845 c0 -8 7 -15 15 -15 8 0 15 7 15 15 0 8 -7
15 -15 15 -8 0 -15 -7 -15 -15z M7010 5775 c0 -8 7 -15 15 -15 8 0 15 7 15 15
0 8 -7 15 -15 15 -8 0 -15 -7 -15 -15z M6960 5735 c0 -8 7 -15 15 -15 8 0 15
7 15 15 0 8 -7 15 -15 15 -8 0 -15 -7 -15 -15z M6980 5675 c0 -8 7 -15 15 -15
8 0 15 7 15 15 0 8 -7 15 -15 15 -8 0 -15 -7 -15 -15z M6790 5640 c0 -30 13
-37 39 -21 19 12 4 51 -20 51 -14 0 -19 -7 -19 -30z M7160 5565 c0 -8 7 -15
15 -15 8 0 15 7 15 15 0 8 -7 15 -15 15 -8 0 -15 -7 -15 -15z M7060 5515 c0
-8 7 -15 15 -15 8 0 15 7 15 15 0 8 -7 15 -15 15 -8 0 -15 -7 -15 -15z M6970
5451 c0 -21 13 -41 26 -41 15 0 17 10 8 34 -7 17 -34 22 -34 7z M7030 5265 c0
-16 6 -25 15 -25 9 0 15 9 15 25 0 16 -6 25 -15 25 -9 0 -15 -9 -15 -25z
M7010 5205 c0 -8 7 -15 15 -15 8 0 15 7 15 15 0 8 -7 15 -15 15 -8 0 -15 -7
-15 -15z M6770 5015 c0 -8 7 -15 15 -15 8 0 15 7 15 15 0 8 -7 15 -15 15 -8 0
-15 -7 -15 -15z M7190 3645 c0 -8 7 -15 15 -15 8 0 15 7 15 15 0 8 -7 15 -15
15 -8 0 -15 -7 -15 -15z M6200 2935 c0 -8 7 -15 15 -15 8 0 15 7 15 15 0 8 -7
15 -15 15 -8 0 -15 -7 -15 -15z M6370 2885 c0 -8 7 -15 15 -15 8 0 15 7 15 15
0 8 -7 15 -15 15 -8 0 -15 -7 -15 -15z M5790 2600 c0 -11 7 -20 15 -20 8 0 15
9 15 20 0 11 -7 20 -15 20 -8 0 -15 -9 -15 -20z"/>
</g>
</svg>
