<?xml version="1.0" standalone="no"?>
<!DOCTYPE svg PUBLIC "-//W3C//DTD SVG 20010904//EN"
 "http://www.w3.org/TR/2001/REC-SVG-20010904/DTD/svg10.dtd">
<svg version="1.0" xmlns="http://www.w3.org/2000/svg"
 width="1024.000000pt" height="1024.000000pt" viewBox="0 0 1024.000000 1024.000000"
 preserveAspectRatio="xMidYMid meet">
<metadata>
Created by potrace 1.14, written by Peter Selinger 2001-2017
</metadata>
<g transform="translate(0.000000,1024.000000) scale(0.100000,-0.100000)"
fill="#000000" stroke="none">
<path d="M4925 7800 c-761 -43 -1499 -444 -1961 -1065 -193 -260 -322 -518
-425 -854 -104 -336 -132 -794 -74 -1183 116 -774 590 -1479 1266 -1883 335
-200 679 -316 1079 -364 372 -44 814 1 1165 121 50 16 94 34 99 39 6 5 16 9
24 9 20 0 146 52 150 62 2 4 9 8 16 8 12 0 118 53 212 105 65 36 235 149 265
176 15 13 62 52 105 86 44 34 93 75 109 91 65 62 185 190 185 197 0 4 10 18
23 29 38 37 87 97 87 107 0 5 4 9 8 9 4 0 16 15 27 33 10 17 22 34 25 37 6 4
37 50 75 109 55 86 109 183 151 271 14 30 39 83 55 117 81 170 171 515 200
763 24 208 8 730 -23 730 -4 0 -8 13 -8 30 0 16 -5 53 -10 82 -6 29 -15 78
-21 108 -11 61 -57 209 -69 225 -5 6 -19 44 -33 85 -60 176 -74 210 -159 358
-10 17 -27 49 -39 70 -138 246 -406 546 -669 750 -148 115 -429 282 -473 282
-8 0 -24 9 -37 20 -13 11 -28 20 -35 20 -7 0 -45 15 -86 34 -298 137 -773 211
-1204 186z m525 -36 c236 -29 501 -97 659 -170 41 -19 79 -34 86 -34 7 0 22
-9 35 -20 13 -11 29 -20 37 -20 44 0 325 -167 473 -282 263 -204 531 -504 669
-750 12 -21 29 -53 39 -70 85 -148 99 -182 159 -358 14 -41 28 -79 33 -85 10
-13 55 -157 70 -222 7 -29 12 -73 12 -98 1 -25 5 -45 10 -45 5 0 6 -16 2 -35
-5 -27 -3 -36 10 -41 19 -7 21 -31 4 -37 -10 -3 -10 -9 -1 -28 28 -59 36 -126
36 -321 0 -229 -11 -347 -53 -561 -32 -156 -109 -406 -159 -510 -16 -34 -41
-87 -55 -117 -42 -88 -96 -185 -151 -271 -38 -59 -69 -105 -75 -109 -3 -3 -15
-20 -25 -37 -11 -18 -23 -33 -27 -33 -4 0 -8 -4 -8 -9 0 -10 -49 -70 -87 -107
-13 -11 -23 -25 -23 -29 0 -7 -120 -135 -185 -197 -16 -16 -65 -57 -109 -91
-43 -34 -90 -73 -105 -86 -30 -27 -200 -140 -265 -176 -94 -52 -200 -105 -212
-105 -7 0 -14 -4 -16 -8 -4 -10 -130 -62 -150 -62 -8 0 -18 -4 -24 -9 -22 -21
-264 -94 -394 -119 -237 -47 -425 -62 -640 -52 -316 15 -513 52 -799 152 -790
277 -1423 949 -1660 1764 -73 249 -103 470 -102 754 0 360 44 600 175 949 259
690 819 1253 1521 1526 264 103 565 168 787 169 76 1 138 5 138 10 0 11 208
-1 370 -20z M6160 6960 c0 -11 7 -20 15 -20 8 0 15 9 15 20 0 11 -7 20 -15 20
-8 0 -15 -9 -15 -20z M7190 6385 c0 -8 7 -15 15 -15 8 0 15 7 15 15 0 8 -7 15
-15 15 -8 0 -15 -7 -15 -15z M7140 6330 c0 -11 6 -20 14 -20 8 0 16 -7 20 -15
3 -8 12 -15 21 -15 21 0 19 26 -5 50 -11 11 -27 20 -35 20 -8 0 -15 -9 -15
-20z M7220 6335 c0 -8 7 -15 15 -15 8 0 15 7 15 15 0 8 -7 15 -15 15 -8 0 -15
-7 -15 -15z M6490 6235 c0 -8 7 -15 15 -15 8 0 15 7 15 15 0 8 -7 15 -15 15
-8 0 -15 -7 -15 -15z M7220 6165 c0 -16 6 -25 15 -25 9 0 15 9 15 25 0 16 -6
25 -15 25 -9 0 -15 -9 -15 -25z M6525 6110 c4 -17 13 -43 21 -58 8 -15 14 -35
14 -44 0 -10 7 -18 15 -18 19 0 19 12 -4 85 -12 39 -25 61 -36 63 -14 3 -16
-1 -10 -28z M6630 6085 c0 -8 7 -15 15 -15 8 0 15 7 15 15 0 8 -7 15 -15 15
-8 0 -15 -7 -15 -15z M6680 6045 c0 -8 7 -15 15 -15 8 0 15 7 15 15 0 8 -7 15
-15 15 -8 0 -15 -7 -15 -15z M6620 5975 c0 -8 7 -15 15 -15 8 0 15 7 15 15 0
8 -7 15 -15 15 -8 0 -15 -7 -15 -15z M6570 5972 c0 -22 13 -42 27 -42 21 0 12
44 -9 48 -10 2 -18 -1 -18 -6z M7480 5835 c0 -8 7 -15 15 -15 8 0 15 7 15 15
0 8 -7 15 -15 15 -8 0 -15 -7 -15 -15z M7132 5704 c2 -11 11 -20 22 -22 13 -3
17 1 14 14 -2 11 -11 20 -22 22 -13 3 -17 -1 -14 -14z M7000 5685 c0 -8 7 -15
15 -15 8 0 15 7 15 15 0 8 -7 15 -15 15 -8 0 -15 -7 -15 -15z M7320 5685 c0
-8 7 -15 15 -15 8 0 15 7 15 15 0 8 -7 15 -15 15 -8 0 -15 -7 -15 -15z M6800
5615 c0 -18 5 -25 20 -25 21 0 24 8 14 34 -10 25 -34 19 -34 -9z M7190 5595
c0 -8 7 -15 15 -15 8 0 15 7 15 15 0 8 -7 15 -15 15 -8 0 -15 -7 -15 -15z
M7170 5555 c0 -8 7 -15 15 -15 8 0 15 7 15 15 0 8 -7 15 -15 15 -8 0 -15 -7
-15 -15z M7000 5505 c0 -8 7 -15 15 -15 8 0 15 7 15 15 0 8 -7 15 -15 15 -8 0
-15 -7 -15 -15z M7070 5505 c0 -8 7 -15 15 -15 8 0 15 7 15 15 0 8 -7 15 -15
15 -8 0 -15 -7 -15 -15z M6964 5465 c-3 -8 -3 -19 1 -25 8 -13 35 -13 35 0 0
6 7 10 15 10 8 0 15 7 15 15 0 20 -59 20 -66 0z M7020 5205 c0 -8 7 -15 15
-15 8 0 15 7 15 15 0 8 -7 15 -15 15 -8 0 -15 -7 -15 -15z M6700 4525 c0 -8 7
-15 15 -15 8 0 15 7 15 15 0 8 -7 15 -15 15 -8 0 -15 -7 -15 -15z M6270 3105
c0 -8 7 -15 15 -15 8 0 15 7 15 15 0 8 -7 15 -15 15 -8 0 -15 -7 -15 -15z
M5990 2765 c0 -8 7 -15 15 -15 8 0 15 7 15 15 0 8 -7 15 -15 15 -8 0 -15 -7
-15 -15z M5740 2595 c0 -8 9 -15 20 -15 11 0 20 7 20 15 0 8 -9 15 -20 15 -11
0 -20 -7 -20 -15z"/>
</g>
</svg>
