<?xml version="1.0" standalone="no"?>
<!DOCTYPE svg PUBLIC "-//W3C//DTD SVG 20010904//EN"
 "http://www.w3.org/TR/2001/REC-SVG-20010904/DTD/svg10.dtd">
<svg version="1.0" xmlns="http://www.w3.org/2000/svg"
 width="1024.000000pt" height="1024.000000pt" viewBox="0 0 1024.000000 1024.000000"
 preserveAspectRatio="xMidYMid meet">
<metadata>
Created by potrace 1.14, written by Peter Selinger 2001-2017
</metadata>
<g transform="translate(0.000000,1024.000000) scale(0.100000,-0.100000)"
fill="#000000" stroke="none">
<path d="M4795 7775 c-469 -53 -914 -233 -1314 -533 -177 -133 -374 -334 -518
-530 -251 -339 -424 -762 -489 -1197 -22 -142 -29 -494 -15 -650 61 -644 334
-1214 799 -1667 402 -391 861 -618 1462 -723 119 -21 456 -30 620 -16 154 12
353 41 360 51 3 4 28 10 56 14 53 7 347 102 419 136 22 10 81 37 130 60 193
90 443 260 621 422 93 85 256 261 266 289 4 10 12 19 18 19 6 0 15 11 20 25 5
14 14 25 20 25 5 0 10 7 10 15 0 8 5 15 10 15 6 0 13 7 17 16 3 9 17 28 29 42
13 14 24 31 24 38 0 8 5 14 10 14 6 0 10 7 10 15 0 8 5 15 10 15 6 0 10 7 10
15 0 8 4 15 9 15 5 0 15 16 21 35 6 19 17 41 24 48 23 24 66 106 66 126 0 12
4 21 9 21 26 0 149 321 201 525 63 246 74 344 75 640 0 217 -4 285 -22 410
-31 215 -64 356 -103 450 -22 55 -50 135 -61 175 -15 62 -162 343 -241 465
-250 382 -652 741 -1008 899 -19 9 -55 28 -80 42 -162 93 -448 180 -750 230
-131 21 -565 27 -725 9z m705 -29 c292 -47 588 -137 750 -230 25 -14 61 -33
80 -42 356 -158 758 -517 1008 -899 79 -122 226 -403 241 -465 11 -40 39 -120
61 -175 40 -95 72 -237 103 -450 17 -121 21 -197 21 -390 0 -274 -12 -376 -74
-620 -52 -204 -175 -525 -201 -525 -5 0 -9 -9 -9 -21 0 -20 -43 -102 -66 -126
-7 -7 -18 -29 -24 -48 -6 -19 -16 -35 -21 -35 -5 0 -9 -7 -9 -15 0 -8 -4 -15
-10 -15 -5 0 -10 -7 -10 -15 0 -8 -4 -15 -10 -15 -5 0 -10 -6 -10 -14 0 -7
-11 -24 -24 -38 -12 -14 -26 -33 -29 -42 -4 -9 -11 -16 -17 -16 -5 0 -10 -7
-10 -15 0 -8 -5 -15 -10 -15 -6 0 -15 -11 -20 -25 -5 -14 -14 -25 -20 -25 -6
0 -14 -9 -18 -19 -10 -28 -173 -204 -266 -289 -178 -162 -428 -332 -621 -422
-49 -23 -108 -50 -130 -60 -75 -35 -369 -130 -422 -137 -29 -3 -53 -10 -53
-15 0 -5 -13 -7 -30 -3 -17 4 -30 2 -30 -3 0 -10 -112 -25 -310 -43 -140 -13
-453 -4 -570 16 -599 103 -1060 332 -1462 723 -465 453 -738 1023 -799 1667
-14 153 -7 464 15 610 64 433 238 858 489 1197 437 592 1114 984 1832 1062
165 18 547 13 685 -8z M6300 6325 c0 -8 9 -15 20 -15 11 0 20 7 20 15 0 8 -9
15 -20 15 -11 0 -20 -7 -20 -15z M6310 6265 c0 -8 7 -15 15 -15 8 0 15 7 15
15 0 8 -7 15 -15 15 -8 0 -15 -7 -15 -15z M6510 6083 c0 -23 11 -38 33 -46 21
-8 23 -37 2 -37 -8 0 -15 5 -15 10 0 6 -9 10 -20 10 -11 0 -20 -7 -20 -15 0
-8 9 -15 20 -15 11 0 20 -4 20 -10 0 -5 9 -10 20 -10 11 0 20 6 20 14 0 8 5
16 11 18 17 6 -1 56 -22 61 -10 3 -19 12 -19 21 0 9 -7 16 -15 16 -8 0 -15 -8
-15 -17z M6450 6035 c0 -8 7 -15 15 -15 8 0 15 7 15 15 0 8 -7 15 -15 15 -8 0
-15 -7 -15 -15z M6447 5910 c-8 -35 0 -60 18 -60 8 0 13 16 13 45 1 53 -22 64
-31 15z M7330 5800 c0 -11 7 -20 15 -20 8 0 15 9 15 20 0 11 -7 20 -15 20 -8
0 -15 -9 -15 -20z M6460 5535 c0 -8 7 -15 15 -15 8 0 15 7 15 15 0 8 -7 15
-15 15 -8 0 -15 -7 -15 -15z M6490 5280 c0 -11 7 -20 15 -20 8 0 15 9 15 20 0
11 -7 20 -15 20 -8 0 -15 -9 -15 -20z M7720 5140 c0 -11 7 -20 15 -20 8 0 15
9 15 20 0 11 -7 20 -15 20 -8 0 -15 -9 -15 -20z M6970 3295 c0 -8 7 -15 15
-15 8 0 15 7 15 15 0 8 -7 15 -15 15 -8 0 -15 -7 -15 -15z M5650 2585 c0 -8 7
-15 15 -15 8 0 15 7 15 15 0 8 -7 15 -15 15 -8 0 -15 -7 -15 -15z"/>
</g>
</svg>
