<?xml version="1.0" standalone="no"?>
<!DOCTYPE svg PUBLIC "-//W3C//DTD SVG 20010904//EN"
 "http://www.w3.org/TR/2001/REC-SVG-20010904/DTD/svg10.dtd">
<svg version="1.0" xmlns="http://www.w3.org/2000/svg"
 width="1024.000000pt" height="1024.000000pt" viewBox="0 0 1024.000000 1024.000000"
 preserveAspectRatio="xMidYMid meet">
<metadata>
Created by potrace 1.14, written by Peter Selinger 2001-2017
</metadata>
<g transform="translate(0.000000,1024.000000) scale(0.100000,-0.100000)"
fill="#000000" stroke="none">
<path d="M5147 7784 c-4 -4 -56 -6 -115 -5 -257 6 -617 -66 -902 -179 -370
-147 -722 -389 -979 -672 -361 -398 -583 -866 -668 -1408 -26 -164 -26 -636 0
-795 76 -473 246 -874 526 -1240 90 -117 313 -347 426 -437 413 -331 911 -533
1420 -578 72 -6 144 -13 160 -14 50 -5 405 13 480 24 120 19 226 41 320 67
124 34 275 83 305 98 14 7 36 17 50 23 175 73 351 172 508 285 148 108 185
140 322 277 133 132 170 174 170 190 0 5 14 19 30 32 17 12 30 27 30 32 0 6
14 24 30 40 17 16 30 35 30 43 0 7 5 13 10 13 6 0 10 7 10 15 0 8 3 15 8 15 4
0 14 12 23 28 9 15 37 61 63 102 25 41 46 81 46 88 0 6 5 12 10 12 6 0 10 5
10 12 0 6 6 19 13 27 42 50 177 402 222 581 55 215 94 567 81 730 -27 330 -60
553 -95 635 -9 21 -42 132 -67 225 -19 70 -143 326 -224 463 -155 260 -393
527 -648 725 -206 160 -527 329 -777 409 -222 72 -423 113 -612 128 -40 3
-104 7 -141 10 -37 3 -71 3 -75 -1z m173 -29 c194 -11 400 -52 635 -128 250
-80 571 -249 777 -409 254 -198 494 -465 647 -723 79 -134 197 -374 217 -445
37 -125 67 -226 75 -245 37 -96 68 -294 87 -555 22 -319 -24 -654 -138 -983
-44 -128 -135 -343 -157 -368 -7 -8 -13 -21 -13 -27 0 -7 -4 -12 -10 -12 -5 0
-10 -6 -10 -12 0 -7 -21 -47 -46 -88 -26 -41 -54 -87 -63 -102 -9 -16 -19 -28
-23 -28 -5 0 -8 -7 -8 -15 0 -8 -4 -15 -10 -15 -5 0 -10 -6 -10 -13 0 -8 -13
-27 -30 -43 -16 -16 -30 -34 -30 -40 0 -5 -13 -20 -30 -32 -16 -13 -30 -27
-30 -32 0 -16 -37 -58 -170 -190 -137 -137 -174 -169 -322 -277 -157 -113
-333 -212 -508 -285 -14 -6 -36 -16 -50 -23 -30 -15 -181 -64 -305 -98 -129
-36 -371 -81 -385 -72 -4 2 -34 0 -66 -5 -85 -14 -353 -14 -486 0 -515 54
-997 252 -1403 578 -113 90 -336 320 -426 437 -280 366 -450 768 -526 1240
-26 158 -25 593 0 755 71 454 235 849 497 1199 298 398 688 697 1150 881 291
116 671 190 907 177 58 -3 105 -2 108 3 3 5 18 7 33 5 15 -2 70 -7 122 -10z
M7420 5685 c0 -8 7 -15 15 -15 8 0 15 7 15 15 0 8 -7 15 -15 15 -8 0 -15 -7
-15 -15z M6350 5365 c0 -8 7 -15 15 -15 8 0 15 7 15 15 0 8 -7 15 -15 15 -8 0
-15 -7 -15 -15z M5580 2585 c0 -8 7 -15 15 -15 8 0 15 7 15 15 0 8 -7 15 -15
15 -8 0 -15 -7 -15 -15z M4950 2565 c0 -8 7 -15 15 -15 8 0 15 7 15 15 0 8 -7
15 -15 15 -8 0 -15 -7 -15 -15z"/>
</g>
</svg>
