<?xml version="1.0" standalone="no"?>
<!DOCTYPE svg PUBLIC "-//W3C//DTD SVG 20010904//EN"
 "http://www.w3.org/TR/2001/REC-SVG-20010904/DTD/svg10.dtd">
<svg version="1.0" xmlns="http://www.w3.org/2000/svg"
 width="1024.000000pt" height="1024.000000pt" viewBox="0 0 1024.000000 1024.000000"
 preserveAspectRatio="xMidYMid meet">
<metadata>
Created by potrace 1.14, written by Peter Selinger 2001-2017
</metadata>
<g transform="translate(0.000000,1024.000000) scale(0.100000,-0.100000)"
fill="#000000" stroke="none">
<path d="M4895 7769 c-153 -10 -343 -44 -504 -89 -593 -168 -1093 -520 -1447
-1021 -555 -783 -637 -1856 -209 -2718 137 -274 273 -467 483 -683 508 -523
1230 -816 1952 -793 249 8 471 38 625 84 33 10 98 29 145 41 188 51 435 169
644 307 223 148 417 321 581 518 27 33 54 65 60 71 5 6 17 22 25 34 8 12 20
28 25 34 44 50 160 245 238 401 204 411 303 946 256 1385 -31 285 -30 279
-109 575 -54 201 -188 484 -332 698 -131 197 -344 431 -522 573 -92 74 -230
170 -295 205 -24 13 -51 29 -60 34 -265 166 -648 293 -1014 335 -118 14 -400
19 -542 9z m215 -19 c41 -6 67 -6 70 1 14 22 376 -23 580 -72 229 -55 497
-165 671 -274 9 -5 36 -21 60 -34 135 -73 332 -227 480 -373 240 -238 415
-491 561 -812 59 -131 80 -188 114 -316 14 -52 34 -126 45 -165 24 -91 47
-246 54 -365 17 -329 17 -347 1 -480 -50 -406 -151 -714 -343 -1055 -39 -69
-129 -209 -148 -231 -5 -6 -17 -22 -25 -34 -8 -12 -20 -28 -25 -34 -6 -6 -33
-38 -60 -71 -90 -108 -258 -276 -356 -355 -264 -212 -609 -399 -869 -470 -47
-12 -112 -31 -145 -41 -95 -28 -273 -61 -296 -54 -11 4 -27 1 -34 -5 -16 -14
-344 -31 -450 -24 -583 36 -1095 233 -1541 593 -113 90 -300 279 -394 397
-223 279 -429 699 -504 1026 -209 914 52 1837 704 2488 438 437 1051 718 1655
760 61 4 115 8 120 8 6 1 39 -3 75 -8z M6230 5435 c0 -8 7 -15 15 -15 8 0 15
7 15 15 0 8 -7 15 -15 15 -8 0 -15 -7 -15 -15z M7020 5195 c0 -8 7 -15 15 -15
8 0 15 7 15 15 0 8 -7 15 -15 15 -8 0 -15 -7 -15 -15z M7040 5065 c0 -8 7 -15
15 -15 8 0 15 7 15 15 0 8 -7 15 -15 15 -8 0 -15 -7 -15 -15z M5490 2575 c0
-8 7 -15 15 -15 8 0 15 7 15 15 0 8 -7 15 -15 15 -8 0 -15 -7 -15 -15z"/>
</g>
</svg>
