<?xml version="1.0" standalone="no"?>
<!DOCTYPE svg PUBLIC "-//W3C//DTD SVG 20010904//EN"
 "http://www.w3.org/TR/2001/REC-SVG-20010904/DTD/svg10.dtd">
<svg version="1.0" xmlns="http://www.w3.org/2000/svg"
 width="1024.000000pt" height="1024.000000pt" viewBox="0 0 1024.000000 1024.000000"
 preserveAspectRatio="xMidYMid meet">
<metadata>
Created by potrace 1.14, written by Peter Selinger 2001-2017
</metadata>
<g transform="translate(0.000000,1024.000000) scale(0.100000,-0.100000)"
fill="#000000" stroke="none">
<path d="M4945 7760 c-684 -43 -1324 -347 -1776 -843 -362 -398 -577 -850
-666 -1403 -14 -85 -18 -171 -18 -389 0 -327 13 -436 81 -692 123 -463 340
-839 679 -1179 228 -228 408 -359 685 -497 237 -118 447 -188 712 -239 148
-28 186 -31 413 -35 316 -6 445 8 753 83 339 81 726 281 1017 524 318 266 607
666 752 1041 135 347 183 609 183 984 0 281 -15 407 -85 710 -26 112 -121 359
-193 500 -399 783 -1166 1320 -2028 1419 -168 19 -359 25 -509 16z m489 -36
c574 -67 1120 -331 1531 -739 205 -203 367 -425 497 -680 72 -141 167 -388
193 -500 68 -298 85 -430 85 -690 0 -354 -51 -624 -183 -964 -172 -445 -520
-887 -917 -1168 -366 -258 -767 -411 -1235 -470 -88 -11 -182 -13 -350 -10
-204 4 -249 8 -393 35 -265 51 -475 121 -712 239 -277 138 -457 269 -685 497
-339 340 -556 716 -679 1179 -67 252 -81 366 -81 672 0 277 9 360 60 588 183
809 763 1501 1526 1821 435 182 879 245 1343 190z M5770 6785 c0 -8 7 -15 15
-15 8 0 15 7 15 15 0 8 -7 15 -15 15 -8 0 -15 -7 -15 -15z M6260 6225 c0 -8 9
-15 20 -15 11 0 20 7 20 15 0 8 -9 15 -20 15 -11 0 -20 -7 -20 -15z M6440
5625 c0 -8 7 -15 15 -15 8 0 15 7 15 15 0 8 -7 15 -15 15 -8 0 -15 -7 -15 -15z
M6620 5615 c0 -8 7 -15 15 -15 8 0 15 7 15 15 0 8 -7 15 -15 15 -8 0 -15 -7
-15 -15z M7380 5305 c0 -8 7 -15 15 -15 8 0 15 7 15 15 0 8 -7 15 -15 15 -8 0
-15 -7 -15 -15z"/>
</g>
</svg>
