<?xml version="1.0" standalone="no"?>
<!DOCTYPE svg PUBLIC "-//W3C//DTD SVG 20010904//EN"
 "http://www.w3.org/TR/2001/REC-SVG-20010904/DTD/svg10.dtd">
<svg version="1.0" xmlns="http://www.w3.org/2000/svg"
 width="1024.000000pt" height="1024.000000pt" viewBox="0 0 1024.000000 1024.000000"
 preserveAspectRatio="xMidYMid meet">
<metadata>
Created by potrace 1.14, written by Peter Selinger 2001-2017
</metadata>
<g transform="translate(0.000000,1024.000000) scale(0.100000,-0.100000)"
fill="#000000" stroke="none">
<path d="M4855 7750 c-399 -42 -778 -169 -1124 -375 -324 -194 -666 -537 -870
-874 -265 -440 -398 -956 -378 -1471 16 -415 107 -768 288 -1121 253 -493 645
-885 1136 -1137 311 -159 669 -260 1008 -284 486 -33 969 60 1388 270 271 135
468 277 683 488 308 304 550 712 669 1124 111 385 133 802 65 1204 -36 214
-46 252 -105 421 -135 384 -335 704 -615 986 -156 157 -222 211 -415 341 -325
218 -677 352 -1084 413 -122 18 -528 28 -646 15z m628 -35 c405 -61 758 -196
1082 -413 193 -130 259 -184 415 -341 283 -285 481 -603 618 -996 113 -322
158 -689 131 -1055 -51 -693 -391 -1345 -944 -1810 -209 -176 -550 -367 -810
-452 -188 -62 -274 -83 -462 -113 -468 -74 -882 -26 -1376 159 -107 40 -342
164 -462 244 -868 580 -1310 1604 -1134 2632 70 409 236 792 493 1135 174 232
477 506 717 650 346 206 726 333 1124 375 113 12 487 3 608 -15z M5790 6035
c0 -8 7 -15 15 -15 8 0 15 7 15 15 0 8 -7 15 -15 15 -8 0 -15 -7 -15 -15z
M6590 5705 c0 -8 7 -15 15 -15 8 0 15 7 15 15 0 8 -7 15 -15 15 -8 0 -15 -7
-15 -15z M6260 5525 c0 -8 9 -15 20 -15 11 0 20 7 20 15 0 8 -9 15 -20 15 -11
0 -20 -7 -20 -15z M7410 5455 c0 -8 7 -15 15 -15 8 0 15 7 15 15 0 8 -7 15
-15 15 -8 0 -15 -7 -15 -15z"/>
</g>
</svg>
