<?xml version="1.0" standalone="no"?>
<!DOCTYPE svg PUBLIC "-//W3C//DTD SVG 20010904//EN"
 "http://www.w3.org/TR/2001/REC-SVG-20010904/DTD/svg10.dtd">
<svg version="1.0" xmlns="http://www.w3.org/2000/svg"
 width="1024.000000pt" height="1024.000000pt" viewBox="0 0 1024.000000 1024.000000"
 preserveAspectRatio="xMidYMid meet">
<metadata>
Created by potrace 1.14, written by Peter Selinger 2001-2017
</metadata>
<g transform="translate(0.000000,1024.000000) scale(0.100000,-0.100000)"
fill="#000000" stroke="none">
<path d="M4920 7754 c-19 -2 -78 -9 -130 -15 -438 -49 -899 -233 -1255 -500
-573 -429 -931 -1045 -1031 -1769 -24 -169 -24 -527 -1 -697 66 -479 246 -910
536 -1283 81 -105 268 -298 375 -389 408 -345 895 -549 1446 -605 297 -30 572
-12 885 61 337 78 706 251 975 457 532 409 890 1001 1004 1662 14 78 31 308
35 459 6 209 -55 596 -129 817 -135 401 -342 739 -635 1034 -123 124 -290 264
-314 264 -6 0 -11 4 -11 9 0 11 -193 136 -300 193 -259 140 -561 236 -884 283
-103 15 -490 28 -566 19z m549 -39 c320 -47 623 -144 881 -283 107 -57 300
-182 300 -193 0 -5 5 -9 11 -9 24 0 191 -140 314 -264 446 -449 708 -1023 754
-1653 14 -186 3 -450 -25 -617 -100 -591 -403 -1137 -854 -1538 -424 -377
-954 -598 -1555 -648 -148 -12 -206 -11 -410 7 -542 49 -1040 256 -1451 604
-107 91 -294 284 -375 389 -290 373 -470 805 -536 1283 -22 167 -22 490 1 657
75 551 296 1030 660 1433 417 460 1013 767 1626 836 52 6 111 13 130 15 72 9
426 -4 529 -19z M7410 5445 c0 -8 7 -15 15 -15 8 0 15 7 15 15 0 8 -7 15 -15
15 -8 0 -15 -7 -15 -15z M5290 2545 c0 -8 7 -15 15 -15 8 0 15 7 15 15 0 8 -7
15 -15 15 -8 0 -15 -7 -15 -15z"/>
</g>
</svg>
