<?xml version="1.0" standalone="no"?>
<!DOCTYPE svg PUBLIC "-//W3C//DTD SVG 20010904//EN"
 "http://www.w3.org/TR/2001/REC-SVG-20010904/DTD/svg10.dtd">
<svg version="1.0" xmlns="http://www.w3.org/2000/svg"
 width="1024.000000pt" height="1024.000000pt" viewBox="0 0 1024.000000 1024.000000"
 preserveAspectRatio="xMidYMid meet">
<metadata>
Created by potrace 1.14, written by Peter Selinger 2001-2017
</metadata>
<g transform="translate(0.000000,1024.000000) scale(0.100000,-0.100000)"
fill="#000000" stroke="none">
<path d="M4790 7735 c-524 -67 -1004 -278 -1395 -616 -504 -434 -812 -1023
-891 -1705 -25 -209 -15 -537 21 -744 47 -267 117 -483 236 -726 255 -519 705
-962 1222 -1203 464 -216 939 -291 1465 -231 95 11 177 22 180 24 4 2 59 16
122 30 331 74 702 248 960 449 510 398 840 910 979 1518 42 186 54 318 55 584
1 325 -18 480 -91 735 -159 557 -488 1036 -947 1379 -150 112 -237 166 -392
244 -299 150 -598 236 -922 267 -146 14 -474 11 -602 -5z m582 -15 c324 -31
623 -117 922 -267 155 -78 242 -132 392 -244 459 -343 788 -822 947 -1379 72
-251 92 -412 91 -715 -1 -248 -14 -382 -55 -564 -139 -608 -469 -1120 -979
-1518 -258 -201 -629 -375 -960 -449 -63 -14 -118 -28 -122 -30 -3 -2 -85 -13
-180 -24 -346 -39 -675 -17 -973 67 -49 13 -93 29 -96 35 -4 6 -14 8 -23 5
-32 -13 -361 128 -521 222 -599 354 -1019 895 -1209 1559 -85 296 -117 677
-82 976 62 529 268 1019 590 1401 433 513 1026 835 1696 920 129 16 417 19
562 5z M6390 6085 c0 -8 7 -15 15 -15 8 0 15 7 15 15 0 8 -7 15 -15 15 -8 0
-15 -7 -15 -15z"/>
</g>
</svg>
