<?xml version="1.0" standalone="no"?>
<!DOCTYPE svg PUBLIC "-//W3C//DTD SVG 20010904//EN"
 "http://www.w3.org/TR/2001/REC-SVG-20010904/DTD/svg10.dtd">
<svg version="1.0" xmlns="http://www.w3.org/2000/svg"
 width="1024.000000pt" height="1024.000000pt" viewBox="0 0 1024.000000 1024.000000"
 preserveAspectRatio="xMidYMid meet">
<metadata>
Created by potrace 1.14, written by Peter Selinger 2001-2017
</metadata>
<g transform="translate(0.000000,1024.000000) scale(0.100000,-0.100000)"
fill="#000000" stroke="none">
<path d="M4840 7740 c-153 -19 -339 -56 -474 -95 -526 -153 -995 -473 -1338
-915 -239 -309 -419 -715 -493 -1114 -105 -572 -24 -1168 227 -1670 289 -578
769 -1023 1368 -1267 52 -22 104 -39 115 -39 12 0 25 -4 31 -9 11 -11 149 -53
249 -76 368 -86 798 -85 1200 4 356 79 730 256 1013 480 154 122 382 354 490
498 243 326 424 738 481 1098 61 386 52 767 -28 1107 -164 697 -622 1309
-1247 1665 -71 40 -172 91 -224 114 -52 22 -108 47 -125 54 -70 31 -329 104
-440 124 -66 12 -145 27 -175 33 -72 13 -533 19 -630 8z m610 -29 c30 -5 109
-20 175 -32 111 -20 370 -93 440 -124 17 -7 73 -32 125 -54 453 -195 889 -579
1156 -1017 310 -510 431 -1064 363 -1669 -51 -459 -218 -878 -501 -1258 -108
-144 -336 -376 -490 -498 -395 -313 -909 -507 -1423 -539 -278 -17 -493 -2
-730 51 -113 25 -257 68 -269 80 -6 5 -19 9 -31 9 -66 0 -404 167 -586 289
-876 586 -1314 1617 -1124 2647 74 399 254 805 493 1114 117 150 221 260 357
377 416 360 888 565 1455 633 95 11 517 5 590 -9z M5780 5705 c0 -8 7 -15 15
-15 8 0 15 7 15 15 0 8 -7 15 -15 15 -8 0 -15 -7 -15 -15z M7440 5245 c0 -8 7
-15 15 -15 8 0 15 7 15 15 0 8 -7 15 -15 15 -8 0 -15 -7 -15 -15z M7230 5085
c0 -8 7 -15 15 -15 8 0 15 7 15 15 0 8 -7 15 -15 15 -8 0 -15 -7 -15 -15z"/>
</g>
</svg>
