<?xml version="1.0" standalone="no"?>
<!DOCTYPE svg PUBLIC "-//W3C//DTD SVG 20010904//EN"
 "http://www.w3.org/TR/2001/REC-SVG-20010904/DTD/svg10.dtd">
<svg version="1.0" xmlns="http://www.w3.org/2000/svg"
 width="1024.000000pt" height="1024.000000pt" viewBox="0 0 1024.000000 1024.000000"
 preserveAspectRatio="xMidYMid meet">
<metadata>
Created by potrace 1.14, written by Peter Selinger 2001-2017
</metadata>
<g transform="translate(0.000000,1024.000000) scale(0.100000,-0.100000)"
fill="#000000" stroke="none">
<path d="M4905 7744 c-16 -2 -73 -9 -125 -15 -817 -97 -1549 -588 -1952 -1308
-292 -521 -398 -1132 -302 -1741 65 -414 269 -873 535 -1205 353 -441 848
-760 1405 -905 176 -45 461 -81 634 -79 494 5 906 110 1310 332 536 296 964
795 1180 1377 138 372 186 802 140 1260 -12 125 -29 208 -81 393 -168 601
-553 1125 -1081 1471 -204 134 -416 234 -644 305 -273 84 -452 112 -754 116
-129 2 -248 2 -265 -1z m604 -43 c256 -44 445 -98 650 -187 159 -70 247 -117
389 -210 528 -346 913 -870 1081 -1471 69 -248 83 -336 97 -628 11 -235 -26
-547 -93 -785 -168 -594 -534 -1104 -1047 -1459 -220 -152 -576 -310 -834
-370 -229 -54 -357 -70 -579 -76 -423 -10 -815 77 -1198 265 -526 258 -937
670 -1195 1195 -268 548 -337 1142 -200 1736 188 811 749 1481 1514 1809 212
90 480 162 706 189 52 6 109 13 125 15 17 3 127 3 245 1 160 -3 247 -9 339
-24z M7450 5195 c0 -8 7 -15 15 -15 8 0 15 7 15 15 0 8 -7 15 -15 15 -8 0 -15
-7 -15 -15z"/>
</g>
</svg>
