<?xml version="1.0" standalone="no"?>
<!DOCTYPE svg PUBLIC "-//W3C//DTD SVG 20010904//EN"
 "http://www.w3.org/TR/2001/REC-SVG-20010904/DTD/svg10.dtd">
<svg version="1.0" xmlns="http://www.w3.org/2000/svg"
 width="1024.000000pt" height="1024.000000pt" viewBox="0 0 1024.000000 1024.000000"
 preserveAspectRatio="xMidYMid meet">
<metadata>
Created by potrace 1.14, written by Peter Selinger 2001-2017
</metadata>
<g transform="translate(0.000000,1024.000000) scale(0.100000,-0.100000)"
fill="#000000" stroke="none">
<path d="M4837 7739 c-964 -102 -1796 -726 -2152 -1613 -88 -219 -143 -427
-177 -671 -20 -140 -17 -563 5 -705 47 -301 128 -560 256 -814 141 -281 291
-486 517 -707 242 -236 449 -372 824 -542 79 -36 286 -103 372 -121 41 -8 103
-22 138 -30 190 -43 619 -55 850 -23 616 86 1123 341 1550 781 381 391 609
859 702 1434 29 182 32 605 5 776 -86 543 -297 993 -651 1388 -422 472 -1045
786 -1680 847 -125 12 -443 12 -559 0z m539 -20 c1111 -108 2043 -929 2289
-2016 36 -159 58 -321 52 -375 -4 -32 -2 -48 5 -48 18 0 3 -381 -22 -537 -87
-563 -320 -1039 -700 -1429 -427 -440 -933 -694 -1550 -781 -220 -31 -625 -19
-810 23 -35 8 -97 22 -138 30 -86 18 -293 85 -372 121 -375 170 -582 306 -824
542 -423 414 -680 918 -773 1521 -21 141 -25 527 -5 665 34 243 89 452 177
671 356 887 1188 1511 2152 1613 116 12 394 12 519 0z"/>
</g>
</svg>
