<?xml version="1.0" standalone="no"?>
<!DOCTYPE svg PUBLIC "-//W3C//DTD SVG 20010904//EN"
 "http://www.w3.org/TR/2001/REC-SVG-20010904/DTD/svg10.dtd">
<svg version="1.0" xmlns="http://www.w3.org/2000/svg"
 width="1024.000000pt" height="1024.000000pt" viewBox="0 0 1024.000000 1024.000000"
 preserveAspectRatio="xMidYMid meet">
<metadata>
Created by potrace 1.14, written by Peter Selinger 2001-2017
</metadata>
<g transform="translate(0.000000,1024.000000) scale(0.100000,-0.100000)"
fill="#000000" stroke="none">
<path d="M4875 7744 c-16 -2 -70 -9 -120 -15 -467 -56 -947 -267 -1332 -586
-506 -419 -844 -1050 -918 -1717 -29 -260 -15 -588 36 -840 82 -408 270 -807
536 -1136 293 -363 715 -659 1163 -815 152 -53 322 -93 494 -118 218 -31 603
-30 795 1 571 94 1044 333 1455 736 388 381 633 859 732 1428 31 178 44 551
25 718 -56 495 -227 930 -519 1320 -99 132 -338 376 -462 472 -367 283 -766
456 -1230 534 -81 14 -585 28 -655 18z m635 -38 c463 -77 863 -251 1230 -534
124 -96 363 -340 462 -472 292 -390 463 -825 519 -1320 18 -162 6 -499 -25
-678 -99 -568 -344 -1047 -732 -1428 -411 -403 -884 -643 -1455 -736 -190 -31
-539 -31 -755 -1 -406 58 -750 190 -1104 426 -486 323 -873 859 -1039 1438
-146 509 -134 1041 35 1549 233 700 739 1255 1424 1563 197 88 493 171 705
196 50 6 104 13 120 15 68 9 534 -4 615 -18z M7470 4975 c0 -8 7 -15 15 -15 8
0 15 7 15 15 0 8 -7 15 -15 15 -8 0 -15 -7 -15 -15z M4730 4795 c0 -8 7 -15
15 -15 8 0 15 7 15 15 0 8 -7 15 -15 15 -8 0 -15 -7 -15 -15z"/>
</g>
</svg>
