<?xml version="1.0" standalone="no"?>
<!DOCTYPE svg PUBLIC "-//W3C//DTD SVG 20010904//EN"
 "http://www.w3.org/TR/2001/REC-SVG-20010904/DTD/svg10.dtd">
<svg version="1.0" xmlns="http://www.w3.org/2000/svg"
 width="1024.000000pt" height="1024.000000pt" viewBox="0 0 1024.000000 1024.000000"
 preserveAspectRatio="xMidYMid meet">
<metadata>
Created by potrace 1.14, written by Peter Selinger 2001-2017
</metadata>
<g transform="translate(0.000000,1024.000000) scale(0.100000,-0.100000)"
fill="#000000" stroke="none">
<path d="M4776 7734 c-1178 -157 -2078 -1041 -2263 -2224 -26 -165 -26 -618 0
-775 99 -600 338 -1075 747 -1485 228 -229 460 -386 810 -549 81 -38 344 -123
465 -150 220 -50 593 -73 821 -52 470 43 905 200 1279 461 315 219 593 525
784 863 85 151 181 375 181 424 0 13 4 23 9 23 18 0 79 238 111 430 27 162 38
536 21 701 -53 497 -239 957 -550 1359 -85 110 -323 349 -431 432 -368 284
-772 459 -1230 535 -129 21 -616 26 -754 7z m734 -27 c456 -75 862 -251 1230
-535 108 -83 346 -322 431 -432 311 -402 497 -862 550 -1359 17 -160 6 -498
-21 -661 -32 -191 -93 -430 -111 -430 -5 0 -9 -10 -9 -23 0 -49 -96 -273 -181
-424 -191 -338 -469 -644 -784 -863 -374 -261 -808 -418 -1279 -461 -216 -20
-564 3 -781 52 -121 27 -384 112 -465 150 -350 163 -582 320 -810 549 -409
410 -648 886 -747 1485 -25 156 -25 571 0 735 105 674 441 1259 957 1671 375
299 822 489 1306 553 136 19 585 14 714 -7z M4870 5580 c0 -11 7 -20 15 -20 8
0 15 9 15 20 0 11 -7 20 -15 20 -8 0 -15 -9 -15 -20z M5580 5395 c0 -8 7 -15
15 -15 8 0 15 7 15 15 0 8 -7 15 -15 15 -8 0 -15 -7 -15 -15z"/>
</g>
</svg>
