<?xml version="1.0" standalone="no"?>
<!DOCTYPE svg PUBLIC "-//W3C//DTD SVG 20010904//EN"
 "http://www.w3.org/TR/2001/REC-SVG-20010904/DTD/svg10.dtd">
<svg version="1.0" xmlns="http://www.w3.org/2000/svg"
 width="1024.000000pt" height="1024.000000pt" viewBox="0 0 1024.000000 1024.000000"
 preserveAspectRatio="xMidYMid meet">
<metadata>
Created by potrace 1.14, written by Peter Selinger 2001-2017
</metadata>
<g transform="translate(0.000000,1024.000000) scale(0.100000,-0.100000)"
fill="#000000" stroke="none">
<path d="M4840 7749 c-597 -65 -1136 -316 -1564 -729 -268 -259 -493 -603
-629 -965 -227 -604 -220 -1317 19 -1919 212 -531 612 -1002 1094 -1286 107
-63 326 -168 405 -194 44 -15 87 -31 96 -35 58 -32 446 -114 624 -132 196 -20
535 -1 745 41 281 56 468 121 735 257 509 258 995 789 1184 1294 17 46 36 92
41 101 10 17 57 163 80 243 105 379 117 881 30 1275 -47 215 -105 380 -210
595 -335 687 -945 1183 -1705 1386 -195 51 -352 70 -620 74 -132 2 -278 -1
-325 -6z m678 -38 c255 -39 521 -124 767 -246 516 -254 933 -673 1185 -1190
105 -215 163 -380 210 -595 72 -328 76 -722 9 -1060 -28 -143 -94 -373 -119
-418 -5 -9 -24 -55 -41 -101 -189 -505 -675 -1036 -1184 -1294 -267 -136 -454
-201 -735 -257 -206 -42 -520 -60 -706 -41 -177 18 -565 100 -623 132 -9 4
-52 20 -96 35 -79 26 -298 131 -405 194 -275 162 -549 409 -750 675 -669 888
-705 2099 -90 3023 116 174 221 302 356 432 428 413 967 664 1564 729 140 16
505 6 658 -18z"/>
</g>
</svg>
