<?xml version="1.0" standalone="no"?>
<!DOCTYPE svg PUBLIC "-//W3C//DTD SVG 20010904//EN"
 "http://www.w3.org/TR/2001/REC-SVG-20010904/DTD/svg10.dtd">
<svg version="1.0" xmlns="http://www.w3.org/2000/svg"
 width="1024.000000pt" height="1024.000000pt" viewBox="0 0 1024.000000 1024.000000"
 preserveAspectRatio="xMidYMid meet">
<metadata>
Created by potrace 1.14, written by Peter Selinger 2001-2017
</metadata>
<g transform="translate(0.000000,1024.000000) scale(0.100000,-0.100000)"
fill="#000000" stroke="none">
<path d="M4924 7760 c-364 -25 -703 -120 -1030 -289 -645 -334 -1115 -911
-1319 -1620 -68 -236 -95 -445 -95 -726 0 -298 28 -503 106 -767 179 -613 589
-1151 1136 -1490 158 -98 437 -228 489 -228 11 0 19 -4 19 -9 0 -5 10 -12 23
-15 274 -78 404 -107 579 -127 137 -15 556 -6 683 15 179 30 337 67 461 109
511 174 940 487 1270 923 268 355 440 790 499 1261 22 170 22 502 0 668 -77
591 -336 1119 -754 1535 -548 544 -1278 813 -2067 760z m368 -20 c373 -27 712
-122 1037 -291 625 -324 1096 -889 1300 -1559 80 -262 112 -477 111 -759 0
-281 -31 -498 -107 -756 -37 -126 -121 -343 -174 -446 -201 -398 -531 -763
-919 -1014 -229 -149 -536 -282 -774 -337 -254 -58 -336 -68 -584 -75 -339 -9
-488 13 -909 133 -13 3 -23 10 -23 15 0 5 -8 9 -19 9 -31 0 -149 48 -281 114
-723 363 -1230 1021 -1399 1819 -66 310 -68 706 -5 1037 74 392 274 818 540
1150 346 431 883 768 1424 894 268 62 531 85 782 66z"/>
</g>
</svg>
