<?xml version="1.0" standalone="no"?>
<!DOCTYPE svg PUBLIC "-//W3C//DTD SVG 20010904//EN"
 "http://www.w3.org/TR/2001/REC-SVG-20010904/DTD/svg10.dtd">
<svg version="1.0" xmlns="http://www.w3.org/2000/svg"
 width="1024.000000pt" height="1024.000000pt" viewBox="0 0 1024.000000 1024.000000"
 preserveAspectRatio="xMidYMid meet">
<metadata>
Created by potrace 1.14, written by Peter Selinger 2001-2017
</metadata>
<g transform="translate(0.000000,1024.000000) scale(0.100000,-0.100000)"
fill="#000000" stroke="none">
<path d="M4874 7759 c-435 -39 -844 -180 -1204 -416 -173 -114 -271 -194 -426
-348 -414 -413 -669 -930 -750 -1525 -23 -169 -23 -519 -1 -686 109 -795 511
-1441 1173 -1882 96 -64 330 -190 404 -217 25 -9 54 -20 65 -25 11 -4 43 -17
70 -28 71 -28 285 -86 425 -115 229 -47 610 -55 857 -18 278 42 460 92 673
184 160 69 259 120 370 189 554 349 946 867 1129 1493 80 274 104 447 104 760
1 309 -21 473 -100 745 -126 436 -338 795 -663 1121 -339 340 -698 551 -1165
684 -282 80 -649 112 -961 84z m461 -19 c538 -51 983 -226 1415 -558 125 -96
362 -339 466 -477 278 -371 441 -766 510 -1240 26 -176 23 -521 -6 -710 -119
-788 -546 -1445 -1210 -1863 -232 -145 -530 -269 -788 -327 -369 -82 -762 -92
-1072 -28 -140 29 -354 87 -425 115 -27 11 -59 24 -70 28 -11 5 -40 16 -65 25
-25 9 -106 48 -180 87 -703 368 -1202 1026 -1360 1794 -73 353 -72 741 2 1084
106 495 353 947 712 1305 155 154 253 234 426 348 484 317 1085 469 1645 417z"/>
</g>
</svg>
