<?xml version="1.0" standalone="no"?>
<!DOCTYPE svg PUBLIC "-//W3C//DTD SVG 20010904//EN"
 "http://www.w3.org/TR/2001/REC-SVG-20010904/DTD/svg10.dtd">
<svg version="1.0" xmlns="http://www.w3.org/2000/svg"
 width="1024.000000pt" height="1024.000000pt" viewBox="0 0 1024.000000 1024.000000"
 preserveAspectRatio="xMidYMid meet">
<metadata>
Created by potrace 1.14, written by Peter Selinger 2001-2017
</metadata>
<g transform="translate(0.000000,1024.000000) scale(0.100000,-0.100000)"
fill="#000000" stroke="none">
<path d="M4910 7774 c-357 -33 -672 -120 -976 -270 -796 -393 -1329 -1140
-1450 -2034 -20 -147 -23 -496 -5 -660 34 -307 114 -577 261 -876 247 -505
649 -914 1160 -1181 52 -27 124 -60 160 -73 36 -13 70 -27 76 -32 14 -10 111
-44 179 -63 28 -7 88 -24 135 -38 116 -34 305 -64 481 -77 150 -12 474 -1 576
19 27 6 100 19 163 31 248 44 553 159 786 295 405 237 749 582 978 984 105
183 208 443 266 671 60 234 92 631 70 879 -73 852 -537 1606 -1257 2043 -122
74 -317 171 -419 208 -347 127 -568 169 -919 174 -121 2 -240 2 -265 0z m570
-39 c173 -26 298 -55 420 -95 178 -59 223 -77 354 -139 847 -402 1412 -1220
1496 -2164 20 -234 -11 -616 -70 -847 -122 -477 -342 -870 -679 -1213 -473
-482 -1063 -748 -1747 -787 -265 -15 -569 15 -784 77 -47 14 -107 31 -135 38
-68 19 -165 53 -179 63 -6 5 -40 19 -76 32 -36 13 -108 46 -160 73 -511 267
-913 676 -1160 1181 -147 300 -227 570 -260 876 -18 162 -16 474 4 620 120
892 654 1641 1450 2034 304 150 619 237 976 270 94 8 449 -4 550 -19z"/>
</g>
</svg>
