<?xml version="1.0" standalone="no"?>
<!DOCTYPE svg PUBLIC "-//W3C//DTD SVG 20010904//EN"
 "http://www.w3.org/TR/2001/REC-SVG-20010904/DTD/svg10.dtd">
<svg version="1.0" xmlns="http://www.w3.org/2000/svg"
 width="1024.000000pt" height="1024.000000pt" viewBox="0 0 1024.000000 1024.000000"
 preserveAspectRatio="xMidYMid meet">
<metadata>
Created by potrace 1.14, written by Peter Selinger 2001-2017
</metadata>
<g transform="translate(0.000000,1024.000000) scale(0.100000,-0.100000)"
fill="#000000" stroke="none">
<path d="M4895 7780 c-820 -69 -1543 -496 -2002 -1183 -84 -125 -225 -405
-278 -551 -47 -127 -108 -368 -132 -516 -15 -94 -18 -171 -18 -415 1 -323 12
-425 70 -655 173 -682 619 -1282 1210 -1629 151 -88 203 -115 280 -146 39 -15
75 -30 80 -34 16 -12 179 -67 298 -101 59 -17 173 -43 255 -57 138 -25 165
-27 457 -27 303 0 314 1 485 31 447 80 844 262 1210 552 144 115 359 343 477
506 202 279 367 651 438 989 58 273 75 669 41 931 -99 758 -519 1437 -1152
1863 -263 177 -609 325 -900 386 -257 54 -578 76 -819 56z m564 -36 c407 -53
799 -200 1135 -426 633 -426 1053 -1106 1152 -1863 44 -343 3 -800 -102 -1120
-149 -456 -350 -783 -680 -1107 -379 -372 -854 -616 -1384 -710 -170 -31 -184
-32 -465 -32 -270 0 -300 2 -437 27 -82 14 -196 40 -255 57 -119 34 -282 89
-298 101 -5 4 -41 19 -80 34 -167 66 -413 219 -616 383 -91 73 -277 262 -362
367 -291 361 -477 777 -559 1251 -30 177 -33 626 -5 804 24 148 85 389 132
516 53 146 194 426 278 551 459 687 1183 1114 2002 1182 138 12 395 5 544 -15z"/>
</g>
</svg>
