<?xml version="1.0" standalone="no"?>
<!DOCTYPE svg PUBLIC "-//W3C//DTD SVG 20010904//EN"
 "http://www.w3.org/TR/2001/REC-SVG-20010904/DTD/svg10.dtd">
<svg version="1.0" xmlns="http://www.w3.org/2000/svg"
 width="1024.000000pt" height="1024.000000pt" viewBox="0 0 1024.000000 1024.000000"
 preserveAspectRatio="xMidYMid meet">
<metadata>
Created by potrace 1.14, written by Peter Selinger 2001-2017
</metadata>
<g transform="translate(0.000000,1024.000000) scale(0.100000,-0.100000)"
fill="#000000" stroke="none">
<path d="M4845 7783 c-78 -7 -290 -44 -369 -64 -1111 -277 -1907 -1202 -2017
-2344 -14 -147 -6 -499 15 -640 69 -459 236 -864 508 -1228 112 -149 351 -391
500 -505 136 -105 326 -223 448 -280 52 -24 118 -54 145 -67 116 -56 384 -134
560 -164 340 -57 644 -56 992 4 655 114 1282 514 1679 1075 247 347 412 776
465 1210 21 166 18 609 -4 745 -98 592 -349 1089 -752 1490 -439 437 -980 695
-1600 765 -84 9 -480 11 -570 3z m550 -23 c341 -39 619 -121 930 -277 243
-122 463 -282 670 -488 403 -401 654 -898 752 -1490 22 -135 25 -540 4 -705
-36 -294 -116 -564 -253 -850 -350 -734 -1091 -1296 -1891 -1435 -345 -59
-616 -60 -952 -4 -176 30 -444 108 -560 164 -27 13 -93 43 -145 67 -233 108
-482 289 -706 512 -413 414 -663 913 -750 1501 -21 144 -29 456 -15 600 103
1066 807 1954 1812 2284 191 62 402 108 574 124 90 8 446 6 530 -3z"/>
</g>
</svg>
