<?xml version="1.0" standalone="no"?>
<!DOCTYPE svg PUBLIC "-//W3C//DTD SVG 20010904//EN"
 "http://www.w3.org/TR/2001/REC-SVG-20010904/DTD/svg10.dtd">
<svg version="1.0" xmlns="http://www.w3.org/2000/svg"
 width="1024.000000pt" height="1024.000000pt" viewBox="0 0 1024.000000 1024.000000"
 preserveAspectRatio="xMidYMid meet">
<metadata>
Created by potrace 1.14, written by Peter Selinger 2001-2017
</metadata>
<g transform="translate(0.000000,1024.000000) scale(0.100000,-0.100000)"
fill="#000000" stroke="none">
<path d="M4937 7809 c-1108 -66 -2070 -826 -2393 -1889 -77 -254 -103 -421
-111 -720 -9 -361 23 -598 124 -915 96 -300 247 -585 441 -833 90 -116 266
-298 387 -399 211 -179 520 -360 762 -450 144 -52 244 -83 275 -83 15 0 29 -4
32 -9 4 -5 39 -14 79 -21 39 -6 90 -15 112 -20 133 -30 204 -35 475 -35 184 0
313 5 365 13 352 57 579 128 845 262 276 141 460 271 669 475 276 270 439 507
601 874 138 314 213 691 212 1071 0 217 -12 340 -53 545 -60 301 -197 640
-366 907 -211 332 -527 640 -874 850 -113 68 -403 208 -432 208 -7 0 -17 4
-22 9 -27 25 -319 102 -496 131 -110 18 -413 42 -479 38 -14 0 -82 -4 -153 -9z
m323 -19 c183 -11 363 -38 512 -75 128 -33 260 -75 273 -86 5 -5 15 -9 22 -9
29 0 319 -140 432 -208 269 -163 525 -388 721 -635 303 -382 507 -884 560
-1377 46 -425 -32 -938 -200 -1321 -162 -367 -325 -604 -601 -874 -209 -204
-393 -334 -669 -475 -266 -134 -494 -205 -845 -262 -50 -8 -179 -13 -345 -13
-250 0 -324 6 -455 35 -22 5 -73 14 -112 20 -40 7 -75 16 -79 21 -3 5 -17 9
-32 9 -15 0 -61 11 -102 24 -256 81 -477 186 -689 327 -686 457 -1112 1167
-1192 1987 -14 143 -6 485 15 627 73 490 280 952 595 1329 469 561 1162 912
1888 955 71 5 130 9 133 9 3 1 79 -3 170 -8z"/>
</g>
</svg>
