<?xml version="1.0" standalone="no"?>
<!DOCTYPE svg PUBLIC "-//W3C//DTD SVG 20010904//EN"
 "http://www.w3.org/TR/2001/REC-SVG-20010904/DTD/svg10.dtd">
<svg version="1.0" xmlns="http://www.w3.org/2000/svg"
 width="1024.000000pt" height="1024.000000pt" viewBox="0 0 1024.000000 1024.000000"
 preserveAspectRatio="xMidYMid meet">
<metadata>
Created by potrace 1.14, written by Peter Selinger 2001-2017
</metadata>
<g transform="translate(0.000000,1024.000000) scale(0.100000,-0.100000)"
fill="#000000" stroke="none">
<path d="M4910 7820 c-541 -42 -1035 -234 -1470 -570 -115 -89 -341 -313 -434
-430 -326 -411 -535 -929 -576 -1424 -60 -750 126 -1392 570 -1966 148 -191
406 -426 632 -575 201 -133 602 -315 733 -332 22 -3 45 -9 50 -14 17 -13 201
-49 355 -69 164 -22 498 -27 640 -10 242 29 486 86 685 161 210 80 467 223
675 378 129 96 361 322 464 451 386 485 591 1082 589 1715 0 105 -6 237 -13
295 -44 391 -175 776 -382 1118 -193 319 -540 669 -868 872 -340 211 -730 346
-1120 389 -142 16 -400 21 -530 11z m510 -31 c387 -42 780 -178 1120 -389 328
-203 675 -553 868 -872 168 -278 292 -599 351 -908 74 -390 54 -843 -55 -1224
-97 -339 -275 -686 -490 -956 -103 -129 -335 -355 -464 -451 -208 -155 -465
-298 -675 -378 -199 -75 -443 -132 -685 -161 -139 -17 -437 -12 -600 10 -154
20 -338 56 -355 69 -5 5 -28 11 -50 14 -71 9 -295 96 -460 177 -525 261 -953
691 -1210 1215 -224 457 -307 913 -265 1441 41 495 250 1013 576 1424 93 117
319 341 434 430 199 154 387 265 605 358 435 185 883 251 1355 201z"/>
</g>
</svg>
