<?xml version="1.0" standalone="no"?>
<!DOCTYPE svg PUBLIC "-//W3C//DTD SVG 20010904//EN"
 "http://www.w3.org/TR/2001/REC-SVG-20010904/DTD/svg10.dtd">
<svg version="1.0" xmlns="http://www.w3.org/2000/svg"
 width="1024.000000pt" height="1024.000000pt" viewBox="0 0 1024.000000 1024.000000"
 preserveAspectRatio="xMidYMid meet">
<metadata>
Created by potrace 1.14, written by Peter Selinger 2001-2017
</metadata>
<g transform="translate(0.000000,1024.000000) scale(0.100000,-0.100000)"
fill="#000000" stroke="none">
<path d="M4870 7819 c-311 -25 -653 -122 -955 -269 -716 -349 -1247 -1016
-1430 -1795 -53 -225 -60 -299 -60 -635 0 -286 2 -328 24 -449 139 -800 592
-1464 1281 -1881 180 -109 561 -270 639 -270 15 0 31 -4 37 -9 26 -27 401 -85
609 -95 204 -10 496 16 720 65 86 19 310 87 391 120 222 88 531 270 719 422
198 160 461 463 584 672 225 380 340 728 386 1170 63 595 -88 1223 -416 1731
-286 443 -709 803 -1189 1009 -47 20 -98 42 -115 50 -16 7 -66 24 -110 38
-360 116 -727 157 -1115 126z m465 -19 c255 -22 574 -94 740 -165 17 -8 68
-30 115 -50 480 -206 903 -566 1189 -1009 188 -292 321 -629 385 -976 67 -370
59 -669 -31 -1099 -46 -222 -174 -533 -324 -786 -123 -209 -386 -512 -584
-672 -188 -152 -497 -334 -719 -422 -81 -33 -305 -101 -391 -120 -328 -72
-669 -84 -985 -36 -134 20 -293 55 -304 66 -6 5 -22 9 -37 9 -78 0 -459 161
-639 270 -689 417 -1142 1082 -1281 1881 -21 120 -24 164 -24 429 0 314 8 393
60 615 142 604 503 1158 995 1528 529 398 1193 592 1835 537z"/>
</g>
</svg>
