<?xml version="1.0" standalone="no"?>
<!DOCTYPE svg PUBLIC "-//W3C//DTD SVG 20010904//EN"
 "http://www.w3.org/TR/2001/REC-SVG-20010904/DTD/svg10.dtd">
<svg version="1.0" xmlns="http://www.w3.org/2000/svg"
 width="1024.000000pt" height="1024.000000pt" viewBox="0 0 1024.000000 1024.000000"
 preserveAspectRatio="xMidYMid meet">
<metadata>
Created by potrace 1.14, written by Peter Selinger 2001-2017
</metadata>
<g transform="translate(0.000000,1024.000000) scale(0.100000,-0.100000)"
fill="#000000" stroke="none">
<path d="M4900 7844 c-122 -12 -287 -38 -400 -64 -1007 -230 -1792 -1009
-2035 -2020 -37 -154 -53 -282 -65 -499 -23 -413 35 -767 190 -1176 41 -107
174 -357 252 -475 132 -200 331 -425 493 -560 152 -127 131 -111 293 -220 57
-39 110 -70 118 -70 8 0 14 -4 14 -8 0 -12 299 -155 390 -187 41 -15 102 -33
134 -42 33 -8 68 -19 78 -24 38 -20 294 -72 433 -88 346 -39 696 -14 1040 74
331 86 683 260 970 480 113 86 380 352 467 465 255 331 440 733 517 1120 47
237 55 326 55 580 0 263 -12 381 -60 598 -163 734 -620 1361 -1274 1748 -311
184 -638 298 -1010 350 -101 14 -507 26 -600 18z m580 -38 c642 -90 1223 -396
1646 -867 377 -421 598 -894 681 -1464 12 -86 17 -184 17 -345 0 -232 -9 -328
-55 -560 -77 -387 -262 -789 -517 -1120 -87 -113 -354 -379 -467 -465 -287
-220 -639 -394 -970 -480 -336 -86 -664 -111 -995 -74 -141 15 -399 67 -438
88 -10 5 -45 16 -78 24 -32 9 -93 27 -134 42 -91 32 -390 175 -390 187 0 4 -6
8 -14 8 -8 0 -61 31 -118 70 -162 109 -141 93 -293 220 -83 69 -256 247 -332
340 -248 307 -425 658 -524 1040 -67 257 -91 503 -78 788 9 208 26 345 64 502
243 1011 1028 1790 2035 2020 112 26 278 52 400 64 89 8 457 -4 560 -18z"/>
</g>
</svg>
