<?xml version="1.0" standalone="no"?>
<!DOCTYPE svg PUBLIC "-//W3C//DTD SVG 20010904//EN"
 "http://www.w3.org/TR/2001/REC-SVG-20010904/DTD/svg10.dtd">
<svg version="1.0" xmlns="http://www.w3.org/2000/svg"
 width="1024.000000pt" height="1024.000000pt" viewBox="0 0 1024.000000 1024.000000"
 preserveAspectRatio="xMidYMid meet">
<metadata>
Created by potrace 1.14, written by Peter Selinger 2001-2017
</metadata>
<g transform="translate(0.000000,1024.000000) scale(0.100000,-0.100000)"
fill="#000000" stroke="none">
<path d="M4830 7849 c-1064 -110 -1971 -834 -2305 -1841 -106 -322 -138 -522
-139 -888 0 -195 4 -283 17 -375 81 -548 286 -1002 643 -1425 112 -132 325
-329 455 -418 30 -20 56 -39 59 -42 18 -20 166 -109 280 -168 595 -309 1288
-391 1950 -230 332 80 662 233 945 436 311 223 594 541 775 870 189 344 285
647 336 1062 24 197 15 539 -20 745 -79 467 -267 894 -552 1255 -89 112 -347
369 -454 451 -431 332 -910 522 -1432 569 -126 11 -442 11 -558 -1z m538 -19
c522 -47 1001 -237 1432 -569 107 -82 365 -339 454 -451 285 -361 473 -789
552 -1255 35 -207 44 -514 20 -705 -41 -332 -104 -569 -222 -832 -103 -231
-208 -403 -363 -598 -489 -615 -1230 -986 -2030 -1017 -454 -17 -935 93 -1351
309 -114 59 -262 148 -280 168 -3 3 -29 22 -59 42 -130 89 -343 286 -455 418
-357 423 -563 878 -643 1425 -23 159 -23 538 0 708 141 1025 830 1873 1802
2216 185 66 435 121 630 140 124 12 389 12 513 1z"/>
</g>
</svg>
