<?xml version="1.0" standalone="no"?>
<!DOCTYPE svg PUBLIC "-//W3C//DTD SVG 20010904//EN"
 "http://www.w3.org/TR/2001/REC-SVG-20010904/DTD/svg10.dtd">
<svg version="1.0" xmlns="http://www.w3.org/2000/svg"
 width="1024.000000pt" height="1024.000000pt" viewBox="0 0 1024.000000 1024.000000"
 preserveAspectRatio="xMidYMid meet">
<metadata>
Created by potrace 1.14, written by Peter Selinger 2001-2017
</metadata>
<g transform="translate(0.000000,1024.000000) scale(0.100000,-0.100000)"
fill="#000000" stroke="none">
<path d="M4861 7859 c-954 -85 -1794 -666 -2216 -1534 -161 -331 -243 -655
-265 -1053 -38 -655 147 -1279 528 -1792 295 -397 709 -722 1132 -890 30 -12
78 -31 105 -42 142 -56 401 -122 588 -149 196 -29 559 -32 735 -6 170 25 354
65 476 103 733 230 1320 733 1648 1414 130 270 199 498 250 825 32 203 31 586
-1 795 -46 304 -129 564 -268 840 -143 285 -267 455 -513 700 -237 238 -420
370 -720 519 -448 223 -958 316 -1479 270z m489 -19 c351 -31 664 -119 970
-271 300 -149 483 -281 720 -519 246 -245 370 -415 513 -700 139 -276 222
-536 268 -840 32 -207 32 -554 1 -755 -61 -393 -165 -694 -353 -1020 -174
-304 -465 -622 -759 -831 -369 -262 -772 -419 -1262 -490 -174 -26 -501 -23
-695 5 -186 27 -445 93 -588 149 -27 11 -75 30 -105 42 -608 241 -1149 771
-1430 1401 -214 479 -285 1035 -199 1559 137 838 670 1572 1429 1968 455 238
988 346 1490 302z"/>
</g>
</svg>
