<?xml version="1.0" standalone="no"?>
<!DOCTYPE svg PUBLIC "-//W3C//DTD SVG 20010904//EN"
 "http://www.w3.org/TR/2001/REC-SVG-20010904/DTD/svg10.dtd">
<svg version="1.0" xmlns="http://www.w3.org/2000/svg"
 width="1024.000000pt" height="1024.000000pt" viewBox="0 0 1024.000000 1024.000000"
 preserveAspectRatio="xMidYMid meet">
<metadata>
Created by potrace 1.14, written by Peter Selinger 2001-2017
</metadata>
<g transform="translate(0.000000,1024.000000) scale(0.100000,-0.100000)"
fill="#000000" stroke="none">
<path d="M4800 7885 c-350 -44 -633 -128 -930 -276 -709 -353 -1237 -1003
-1438 -1769 -88 -332 -112 -746 -66 -1100 119 -909 697 -1716 1512 -2110 57
-28 109 -50 117 -50 7 0 15 -4 17 -8 7 -18 273 -111 434 -151 297 -75 705 -99
1014 -61 106 13 352 64 445 91 620 183 1134 551 1500 1074 192 275 348 626
420 945 59 266 70 365 69 655 0 290 -10 389 -60 615 -93 412 -282 807 -542
1130 -159 197 -397 416 -607 557 -345 232 -683 367 -1103 439 -125 22 -186 26
-407 29 -188 3 -292 0 -375 -10z m735 -34 c498 -80 920 -266 1315 -580 120
-95 322 -297 422 -421 309 -384 508 -848 585 -1360 27 -181 24 -573 -5 -750
-77 -471 -224 -848 -467 -1195 -366 -523 -880 -891 -1500 -1074 -92 -27 -337
-77 -445 -91 -199 -26 -520 -19 -745 15 -200 31 -484 112 -621 176 -34 16 -64
29 -67 29 -3 0 -52 22 -109 50 -678 328 -1211 959 -1422 1687 -119 411 -144
822 -75 1243 141 860 702 1617 1489 2009 297 148 580 232 930 276 167 21 542
13 715 -14z"/>
</g>
</svg>
