<?xml version="1.0" standalone="no"?>
<!DOCTYPE svg PUBLIC "-//W3C//DTD SVG 20010904//EN"
 "http://www.w3.org/TR/2001/REC-SVG-20010904/DTD/svg10.dtd">
<svg version="1.0" xmlns="http://www.w3.org/2000/svg"
 width="1024.000000pt" height="1024.000000pt" viewBox="0 0 1024.000000 1024.000000"
 preserveAspectRatio="xMidYMid meet">
<metadata>
Created by potrace 1.14, written by Peter Selinger 2001-2017
</metadata>
<g transform="translate(0.000000,1024.000000) scale(0.100000,-0.100000)"
fill="#000000" stroke="none">
<path d="M4835 7903 c-161 -15 -453 -78 -620 -135 -620 -210 -1151 -637 -1489
-1197 -190 -313 -318 -675 -371 -1046 -22 -151 -31 -520 -16 -667 25 -253 83
-509 167 -737 110 -296 339 -668 545 -886 26 -27 58 -62 71 -77 43 -49 203
-189 298 -262 380 -288 798 -462 1305 -542 143 -23 623 -26 760 -5 310 46 597
131 855 253 747 354 1307 1049 1495 1858 62 268 78 419 72 715 -5 319 -28 476
-108 753 -59 205 -187 493 -301 676 -123 197 -330 445 -479 576 -40 36 -83 73
-94 84 -11 10 -69 55 -130 101 -399 297 -838 471 -1335 530 -114 14 -508 19
-625 8z m605 -28 c497 -59 936 -233 1335 -530 61 -46 119 -91 130 -101 11 -11
54 -48 94 -84 149 -131 356 -379 479 -576 114 -183 242 -471 301 -676 78 -270
102 -435 108 -733 6 -274 -11 -431 -72 -695 -146 -631 -511 -1186 -1038 -1581
-371 -279 -806 -454 -1312 -530 -135 -21 -578 -17 -720 5 -505 79 -925 254
-1305 542 -95 73 -255 213 -298 262 -13 15 -45 50 -71 77 -206 218 -435 590
-545 886 -84 228 -142 484 -167 737 -14 144 -6 473 16 627 148 1040 865 1906
1860 2243 167 57 459 120 620 135 115 10 471 6 585 -8z"/>
</g>
</svg>
