<?xml version="1.0" standalone="no"?>
<!DOCTYPE svg PUBLIC "-//W3C//DTD SVG 20010904//EN"
 "http://www.w3.org/TR/2001/REC-SVG-20010904/DTD/svg10.dtd">
<svg version="1.0" xmlns="http://www.w3.org/2000/svg"
 width="1024.000000pt" height="1024.000000pt" viewBox="0 0 1024.000000 1024.000000"
 preserveAspectRatio="xMidYMid meet">
<metadata>
Created by potrace 1.14, written by Peter Selinger 2001-2017
</metadata>
<g transform="translate(0.000000,1024.000000) scale(0.100000,-0.100000)"
fill="#000000" stroke="none">
<path d="M4870 7934 c-448 -56 -701 -129 -1040 -300 -818 -413 -1385 -1216
-1505 -2129 -8 -62 -17 -193 -21 -291 -24 -654 172 -1281 563 -1802 98 -131
300 -343 418 -441 436 -361 879 -558 1450 -647 139 -22 605 -25 735 -5 638 95
1137 327 1577 733 344 317 598 715 755 1181 42 126 85 316 115 512 28 186 26
610 -5 801 -50 312 -128 557 -266 839 -142 288 -291 498 -516 724 -440 444
-972 712 -1600 807 -101 15 -577 28 -660 18z m640 -38 c627 -94 1160 -363
1600 -807 225 -226 374 -436 516 -724 139 -282 217 -529 266 -839 30 -191 33
-579 5 -761 -30 -196 -73 -386 -115 -512 -188 -560 -517 -1020 -978 -1368
-386 -292 -848 -477 -1364 -547 -140 -19 -546 -15 -685 6 -479 74 -851 219
-1235 483 -148 101 -278 213 -421 360 -687 710 -943 1744 -669 2704 257 904
960 1623 1860 1904 176 55 327 85 600 119 80 10 519 -3 620 -18z"/>
</g>
</svg>
