<?xml version="1.0" standalone="no"?>
<!DOCTYPE svg PUBLIC "-//W3C//DTD SVG 20010904//EN"
 "http://www.w3.org/TR/2001/REC-SVG-20010904/DTD/svg10.dtd">
<svg version="1.0" xmlns="http://www.w3.org/2000/svg"
 width="1024.000000pt" height="1024.000000pt" viewBox="0 0 1024.000000 1024.000000"
 preserveAspectRatio="xMidYMid meet">
<metadata>
Created by potrace 1.14, written by Peter Selinger 2001-2017
</metadata>
<g transform="translate(0.000000,1024.000000) scale(0.100000,-0.100000)"
fill="#000000" stroke="none">
<path d="M4935 7950 c-181 -11 -329 -34 -529 -85 -220 -55 -330 -96 -551 -205
-281 -138 -485 -283 -709 -500 -435 -423 -714 -946 -817 -1535 -46 -260 -50
-694 -10 -950 84 -526 306 -1011 643 -1401 241 -279 584 -546 888 -691 52 -24
103 -49 112 -53 33 -18 204 -83 293 -112 115 -38 306 -81 460 -104 153 -23
640 -26 780 -6 664 99 1218 378 1665 838 190 196 318 369 445 601 208 382 319
776 345 1223 46 806 -249 1585 -816 2154 -312 313 -690 550 -1094 686 -128 42
-351 96 -482 115 -99 14 -411 36 -468 33 -14 0 -83 -4 -155 -8z m475 -31 c446
-42 876 -195 1252 -445 587 -391 990 -949 1176 -1624 62 -223 92 -462 92 -725
0 -487 -113 -932 -345 -1358 -127 -232 -255 -405 -445 -601 -442 -455 -978
-728 -1638 -833 -155 -25 -599 -24 -767 1 -495 75 -918 251 -1311 547 -516
389 -878 935 -1033 1561 -110 441 -107 952 8 1388 134 509 386 939 767 1310
224 217 428 362 709 500 221 109 331 150 551 205 342 86 627 108 984 74z"/>
</g>
</svg>
