<?xml version="1.0" standalone="no"?>
<!DOCTYPE svg PUBLIC "-//W3C//DTD SVG 20010904//EN"
 "http://www.w3.org/TR/2001/REC-SVG-20010904/DTD/svg10.dtd">
<svg version="1.0" xmlns="http://www.w3.org/2000/svg"
 width="1024.000000pt" height="1024.000000pt" viewBox="0 0 1024.000000 1024.000000"
 preserveAspectRatio="xMidYMid meet">
<metadata>
Created by potrace 1.14, written by Peter Selinger 2001-2017
</metadata>
<g transform="translate(0.000000,1024.000000) scale(0.100000,-0.100000)"
fill="#000000" stroke="none">
<path d="M4845 7949 c-585 -60 -1112 -280 -1553 -648 -550 -460 -910 -1126
-991 -1836 -30 -260 -23 -566 19 -823 165 -1011 870 -1850 1850 -2201 481
-173 1068 -206 1575 -91 430 99 798 272 1145 540 113 88 349 321 444 440 172
216 331 493 434 756 213 547 250 1195 101 1763 -128 485 -361 898 -709 1255
-442 453 -982 731 -1605 826 -160 25 -554 35 -710 19z m690 -39 c418 -63 789
-206 1133 -434 324 -216 611 -503 814 -816 220 -339 368 -730 429 -1140 29
-190 32 -562 6 -743 -53 -367 -136 -635 -293 -946 -136 -266 -293 -480 -519
-707 -380 -381 -834 -629 -1380 -754 -200 -45 -361 -62 -605 -62 -326 0 -564
36 -855 129 -345 110 -647 277 -955 527 -106 86 -299 282 -395 401 -235 293
-426 675 -521 1043 -88 345 -110 642 -73 1022 56 594 341 1200 774 1649 305
317 694 564 1122 712 179 62 431 116 648 138 150 16 510 6 670 -19z M3432
7282 l-22 -17 30 -2 c20 -1 30 2 30 12 0 22 -14 25 -38 7z"/>
</g>
</svg>
