<?xml version="1.0" standalone="no"?>
<!DOCTYPE svg PUBLIC "-//W3C//DTD SVG 20010904//EN"
 "http://www.w3.org/TR/2001/REC-SVG-20010904/DTD/svg10.dtd">
<svg version="1.0" xmlns="http://www.w3.org/2000/svg"
 width="1024.000000pt" height="1024.000000pt" viewBox="0 0 1024.000000 1024.000000"
 preserveAspectRatio="xMidYMid meet">
<metadata>
Created by potrace 1.14, written by Peter Selinger 2001-2017
</metadata>
<g transform="translate(0.000000,1024.000000) scale(0.100000,-0.100000)"
fill="#000000" stroke="none">
<path d="M4800 7966 c-349 -40 -635 -124 -945 -276 -299 -147 -527 -310 -761
-544 -452 -452 -731 -1023 -816 -1666 -20 -151 -17 -609 5 -755 95 -638 368
-1186 812 -1630 451 -450 991 -716 1650 -811 151 -22 571 -25 720 -5 482 63
931 234 1310 500 599 419 1030 1092 1154 1801 83 468 66 890 -53 1321 -51 185
-97 303 -191 494 -155 312 -286 496 -535 746 -85 86 -198 190 -250 231 -395
310 -835 499 -1355 584 -136 22 -587 28 -745 10z m718 -30 c507 -76 965 -273
1362 -584 126 -99 384 -361 487 -493 192 -247 365 -576 458 -869 180 -570 178
-1182 -6 -1747 -189 -581 -569 -1098 -1064 -1444 -376 -264 -813 -432 -1285
-495 -168 -23 -529 -23 -696 0 -945 126 -1726 668 -2172 1506 -140 263 -244
583 -294 901 -19 121 -22 184 -22 399 0 267 8 362 49 565 151 750 594 1402
1240 1828 147 96 439 241 597 296 212 73 423 121 648 147 149 17 555 11 698
-10z"/>
</g>
</svg>
