<?xml version="1.0" standalone="no"?>
<!DOCTYPE svg PUBLIC "-//W3C//DTD SVG 20010904//EN"
 "http://www.w3.org/TR/2001/REC-SVG-20010904/DTD/svg10.dtd">
<svg version="1.0" xmlns="http://www.w3.org/2000/svg"
 width="1024.000000pt" height="1024.000000pt" viewBox="0 0 1024.000000 1024.000000"
 preserveAspectRatio="xMidYMid meet">
<metadata>
Created by potrace 1.14, written by Peter Selinger 2001-2017
</metadata>
<g transform="translate(0.000000,1024.000000) scale(0.100000,-0.100000)"
fill="#000000" stroke="none">
<path d="M4970 7993 c-413 -22 -809 -129 -1172 -315 -756 -388 -1305 -1101
-1487 -1933 -47 -214 -55 -307 -55 -615 -1 -315 7 -394 60 -640 92 -423 293
-841 567 -1180 167 -207 455 -467 672 -605 94 -60 176 -105 191 -105 8 0 14
-4 14 -8 0 -15 164 -92 340 -160 297 -114 590 -170 936 -179 382 -10 676 33
1020 151 261 89 448 181 674 331 170 113 272 197 420 345 261 259 450 536 598
871 126 287 189 524 228 869 20 178 15 568 -10 725 -62 392 -187 739 -384
1073 -293 493 -781 919 -1313 1145 -409 174 -861 254 -1299 230z m320 -23
c696 -46 1320 -320 1808 -795 266 -257 440 -500 596 -827 321 -672 365 -1454
121 -2158 -144 -415 -374 -781 -685 -1090 -306 -305 -640 -515 -1055 -663
-330 -118 -591 -162 -960 -162 -269 1 -397 15 -663 75 -182 40 -545 177 -640
241 -24 16 -47 29 -53 29 -5 0 -27 11 -49 25 -22 14 -42 25 -45 25 -4 0 -27
15 -53 32 -26 18 -56 38 -68 44 -69 37 -281 210 -408 334 -249 243 -406 456
-557 755 -142 282 -231 561 -281 876 -29 190 -32 614 -4 804 161 1111 938
2015 2011 2340 204 62 480 109 685 118 30 1 75 3 100 4 25 2 115 -2 200 -7z
M2645 5619 c-4 -6 -5 -12 -2 -15 2 -3 7 2 10 11 7 17 1 20 -8 4z"/>
</g>
</svg>
