<?xml version="1.0" standalone="no"?>
<!DOCTYPE svg PUBLIC "-//W3C//DTD SVG 20010904//EN"
 "http://www.w3.org/TR/2001/REC-SVG-20010904/DTD/svg10.dtd">
<svg version="1.0" xmlns="http://www.w3.org/2000/svg"
 width="1024.000000pt" height="1024.000000pt" viewBox="0 0 1024.000000 1024.000000"
 preserveAspectRatio="xMidYMid meet">
<metadata>
Created by potrace 1.14, written by Peter Selinger 2001-2017
</metadata>
<g transform="translate(0.000000,1024.000000) scale(0.100000,-0.100000)"
fill="#000000" stroke="none">
<path d="M4919 7999 c-478 -31 -962 -190 -1374 -453 -288 -184 -617 -508 -818
-805 -242 -359 -414 -818 -467 -1251 -18 -146 -24 -484 -11 -625 81 -876 527
-1639 1248 -2132 34 -24 65 -43 68 -43 4 0 21 -11 38 -24 18 -13 64 -41 102
-61 39 -20 90 -48 115 -61 169 -94 536 -218 750 -254 249 -42 266 -44 550 -44
246 0 305 3 429 22 509 80 981 284 1374 594 138 109 373 348 481 488 281 366
482 821 551 1246 71 436 58 864 -36 1239 -176 696 -597 1292 -1194 1690 -429
286 -901 443 -1429 475 -169 11 -198 10 -377 -1z m357 -19 c169 -10 325 -31
459 -61 935 -212 1693 -855 2044 -1736 238 -598 265 -1290 75 -1903 -142 -457
-370 -836 -704 -1171 -320 -323 -617 -511 -1070 -681 -530 -198 -1182 -219
-1750 -56 -118 34 -398 143 -477 185 -28 15 -80 43 -115 62 -34 19 -81 46
-103 60 -22 14 -51 32 -65 39 -13 7 -43 27 -65 43 -22 16 -76 56 -120 88 -106
78 -283 238 -371 337 -410 457 -646 967 -731 1574 -20 149 -23 566 -4 700 67
478 223 898 468 1261 201 297 530 621 818 805 413 263 897 423 1378 453 174
11 167 11 333 1z"/>
</g>
</svg>
