  0
SECTION
2
HEADER
  9
$ACADVER
  1
AC1009
  9
$EXTMIN
 10
-1.000
20
-3.500
  9
$EXTMAX
 10
5.500 
 20
1.000 
  9
$LIMMIN
 10
-1.000
20
-3.500
  9
$LIMMAX
 10
5.500 
 20
1.000 
  9
$CLAYER
  8
0
  0
ENDSEC
  0
SECTION
  2
TABLES
  0
TABLE
  2
LAYER
 70
1
  0
LAYER
  2
0
 70
64
 62
1
  6
CONTINUOUS
  0
ENDTAB
  0
ENDSEC
  0
SECTION
  2
ENTITIES
  0
POLYLINE
  8
0
 66
1
  0
VERTEX
  8
0
 10
0
 20
-1
  0
VERTEX
  8
0
 10
0.0146064
 20
-0.994837
  0
VERTEX
  8
0
 10
0.0287909
 20
-0.979684
  0
VERTEX
  8
0
 10
0.0424816
 20
-0.955042
  0
VERTEX
  8
0
 10
0.0556068
 20
-0.921415
  0
VERTEX
  8
0
 10
0.0680946
 20
-0.879305
  0
VERTEX
  8
0
 10
0.0798733
 20
-0.829216
  0
VERTEX
  8
0
 10
0.0908709
 20
-0.771649
  0
VERTEX
  8
0
 10
0.101016
 20
-0.707107
  0
VERTEX
  8
0
 10
0.110236
 20
-0.636093
  0
VERTEX
  8
0
 10
0.11846
 20
-0.55911
  0
VERTEX
  8
0
 10
0.125616
 20
-0.476659
  0
VERTEX
  8
0
 10
0.131632
 20
-0.389245
  0
VERTEX
  8
0
 10
0.136435
 20
-0.297369
  0
VERTEX
  8
0
 10
0.139956
 20
-0.201535
  0
VERTEX
  8
0
 10
0.14212
 20
-0.102244
  0
VERTEX
  8
0
 10
0.142858
 20
-7.54979e-008
  0
VERTEX
  8
0
 10
0.14212
 20
0.102244
  0
VERTEX
  8
0
 10
0.139956
 20
0.201535
  0
VERTEX
  8
0
 10
0.136435
 20
0.297369
  0
VERTEX
  8
0
 10
0.131632
 20
0.389245
  0
VERTEX
  8
0
 10
0.125616
 20
0.476659
  0
VERTEX
  8
0
 10
0.11846
 20
0.559109
  0
VERTEX
  8
0
 10
0.110236
 20
0.636093
  0
VERTEX
  8
0
 10
0.101016
 20
0.707107
  0
VERTEX
  8
0
 10
0.090871
 20
0.771649
  0
VERTEX
  8
0
 10
0.0798733
 20
0.829216
  0
VERTEX
  8
0
 10
0.0680946
 20
0.879305
  0
VERTEX
  8
0
 10
0.0556068
 20
0.921415
  0
VERTEX
  8
0
 10
0.0424816
 20
0.955042
  0
VERTEX
  8
0
 10
0.0287909
 20
0.979684
  0
VERTEX
  8
0
 10
0.0146064
 20
0.994837
  0
VERTEX
  8
0
 10
2.1571e-008
 20
1
  0
SEQEND
  0
POLYLINE
  8
0
 66
1
  0
VERTEX
  8
0
 10
2.25
 20
-1
  0
VERTEX
  8
0
 10
2.27779
 20
-0.995317
  0
VERTEX
  8
0
 10
2.30486
 20
-0.981547
  0
VERTEX
  8
0
 10
2.33107
 20
-0.959114
  0
VERTEX
  8
0
 10
2.35629
 20
-0.928437
  0
VERTEX
  8
0
 10
2.3804
 20
-0.88994
  0
VERTEX
  8
0
 10
2.40326
 20
-0.844044
  0
VERTEX
  8
0
 10
2.42475
 20
-0.79117
  0
VERTEX
  8
0
 10
2.44474
 20
-0.731741
  0
VERTEX
  8
0
 10
2.46309
 20
-0.666177
  0
VERTEX
  8
0
 10
2.47968
 20
-0.5949
  0
VERTEX
  8
0
 10
2.49439
 20
-0.518332
  0
VERTEX
  8
0
 10
2.50707
 20
-0.436896
  0
VERTEX
  8
0
 10
2.5176
 20
-0.351011
  0
VERTEX
  8
0
 10
2.52585
 20
-0.261101
  0
VERTEX
  8
0
 10
2.53169
 20
-0.167586
  0
VERTEX
  8
0
 10
2.535
 20
-0.0708885
  0
VERTEX
  8
0
 10
2.53563
 20
0.0264729
  0
VERTEX
  8
0
 10
2.53363
 20
0.12194
  0
VERTEX
  8
0
 10
2.52909
 20
0.215031
  0
VERTEX
  8
0
 10
2.52214
 20
0.305265
  0
VERTEX
  8
0
 10
2.51287
 20
0.392159
  0
VERTEX
  8
0
 10
2.50141
 20
0.475234
  0
VERTEX
  8
0
 10
2.48787
 20
0.554007
  0
VERTEX
  8
0
 10
2.47235
 20
0.627997
  0
VERTEX
  8
0
 10
2.45496
 20
0.696722
  0
VERTEX
  8
0
 10
2.43583
 20
0.759701
  0
VERTEX
  8
0
 10
2.41505
 20
0.816453
  0
VERTEX
  8
0
 10
2.39274
 20
0.866496
  0
VERTEX
  8
0
 10
2.36901
 20
0.909348
  0
VERTEX
  8
0
 10
2.34397
 20
0.944529
  0
VERTEX
  8
0
 10
2.31773
 20
0.971557
  0
VERTEX
  8
0
 10
2.29041
 20
0.98995
  0
SEQEND
  0
POLYLINE
  8
0
 66
1
  0
VERTEX
  8
0
 10
4.5
 20
-1
  0
VERTEX
  8
0
 10
4.54382
 20
-0.994837
  0
VERTEX
  8
0
 10
4.58637
 20
-0.979684
  0
VERTEX
  8
0
 10
4.62744
 20
-0.955042
  0
VERTEX
  8
0
 10
4.66682
 20
-0.921415
  0
VERTEX
  8
0
 10
4.70428
 20
-0.879305
  0
VERTEX
  8
0
 10
4.73962
 20
-0.829216
  0
VERTEX
  8
0
 10
4.77261
 20
-0.771649
  0
VERTEX
  8
0
 10
4.80305
 20
-0.707107
  0
VERTEX
  8
0
 10
4.83071
 20
-0.636093
  0
VERTEX
  8
0
 10
4.85538
 20
-0.55911
  0
VERTEX
  8
0
 10
4.87685
 20
-0.476659
  0
VERTEX
  8
0
 10
4.89489
 20
-0.389245
  0
VERTEX
  8
0
 10
4.9093
 20
-0.297369
  0
VERTEX
  8
0
 10
4.91986
 20
-0.201535
  0
VERTEX
  8
0
 10
4.92636
 20
-0.102244
  0
VERTEX
  8
0
 10
4.92857
 20
-7.54979e-008
  0
VERTEX
  8
0
 10
4.92636
 20
0.102244
  0
VERTEX
  8
0
 10
4.91986
 20
0.201535
  0
VERTEX
  8
0
 10
4.9093
 20
0.297369
  0
VERTEX
  8
0
 10
4.89489
 20
0.389245
  0
VERTEX
  8
0
 10
4.87685
 20
0.476659
  0
VERTEX
  8
0
 10
4.85538
 20
0.559109
  0
VERTEX
  8
0
 10
4.83071
 20
0.636093
  0
VERTEX
  8
0
 10
4.80305
 20
0.707107
  0
VERTEX
  8
0
 10
4.77261
 20
0.771649
  0
VERTEX
  8
0
 10
4.73962
 20
0.829216
  0
VERTEX
  8
0
 10
4.70428
 20
0.879305
  0
VERTEX
  8
0
 10
4.66682
 20
0.921415
  0
VERTEX
  8
0
 10
4.62744
 20
0.955042
  0
VERTEX
  8
0
 10
4.58637
 20
0.979683
  0
VERTEX
  8
0
 10
4.54382
 20
0.994837
  0
VERTEX
  8
0
 10
4.5
 20
1
  0
SEQEND
  0
POLYLINE
  8
0
 66
1
  0
VERTEX
  8
0
 10
-8.88178e-016
 20
-3.5
  0
VERTEX
  8
0
 10
0.0584253
 20
-3.49484
  0
VERTEX
  8
0
 10
0.115163
 20
-3.47968
  0
VERTEX
  8
0
 10
0.169925
 20
-3.45504
  0
VERTEX
  8
0
 10
0.222426
 20
-3.42142
  0
VERTEX
  8
0
 10
0.272377
 20
-3.37931
  0
VERTEX
  8
0
 10
0.319491
 20
-3.32922
  0
VERTEX
  8
0
 10
0.363482
 20
-3.27165
  0
VERTEX
  8
0
 10
0.404061
 20
-3.20711
  0
VERTEX
  8
0
 10
0.440942
 20
-3.13609
  0
VERTEX
  8
0
 10
0.473838
 20
-3.05911
  0
VERTEX
  8
0
 10
0.502461
 20
-2.97666
  0
VERTEX
  8
0
 10
0.526523
 20
-2.88925
  0
VERTEX
  8
0
 10
0.545739
 20
-2.79737
  0
VERTEX
  8
0
 10
0.55982
 20
-2.70153
  0
VERTEX
  8
0
 10
0.568479
 20
-2.60224
  0
VERTEX
  8
0
 10
0.571429
 20
-2.5
  0
VERTEX
  8
0
 10
0.568479
 20
-2.39776
  0
VERTEX
  8
0
 10
0.55982
 20
-2.29847
  0
VERTEX
  8
0
 10
0.545739
 20
-2.20263
  0
VERTEX
  8
0
 10
0.526523
 20
-2.11075
  0
VERTEX
  8
0
 10
0.502461
 20
-2.02334
  0
VERTEX
  8
0
 10
0.473838
 20
-1.94089
  0
VERTEX
  8
0
 10
0.440942
 20
-1.86391
  0
VERTEX
  8
0
 10
0.404061
 20
-1.79289
  0
VERTEX
  8
0
 10
0.363482
 20
-1.72835
  0
VERTEX
  8
0
 10
0.319491
 20
-1.67078
  0
VERTEX
  8
0
 10
0.272377
 20
-1.62069
  0
VERTEX
  8
0
 10
0.222426
 20
-1.57858
  0
VERTEX
  8
0
 10
0.169926
 20
-1.54496
  0
VERTEX
  8
0
 10
0.115163
 20
-1.52032
  0
VERTEX
  8
0
 10
0.0584254
 20
-1.50516
  0
VERTEX
  8
0
 10
8.62834e-008
 20
-1.5
  0
SEQEND
  0
POLYLINE
  8
0
 66
1
  0
VERTEX
  8
0
 10
2.25
 20
-3.5
  0
VERTEX
  8
0
 10
2.32303
 20
-3.49484
  0
VERTEX
  8
0
 10
2.39395
 20
-3.47968
  0
VERTEX
  8
0
 10
2.46241
 20
-3.45504
  0
VERTEX
  8
0
 10
2.52803
 20
-3.42142
  0
VERTEX
  8
0
 10
2.59047
 20
-3.37931
  0
VERTEX
  8
0
 10
2.64936
 20
-3.32922
  0
VERTEX
  8
0
 10
2.70435
 20
-3.27165
  0
VERTEX
  8
0
 10
2.75508
 20
-3.20711
  0
VERTEX
  8
0
 10
2.80118
 20
-3.13609
  0
VERTEX
  8
0
 10
2.8423
 20
-3.05911
  0
VERTEX
  8
0
 10
2.87808
 20
-2.97666
  0
VERTEX
  8
0
 10
2.90815
 20
-2.88925
  0
VERTEX
  8
0
 10
2.93217
 20
-2.79737
  0
VERTEX
  8
0
 10
2.94977
 20
-2.70153
  0
VERTEX
  8
0
 10
2.9606
 20
-2.60224
  0
VERTEX
  8
0
 10
2.96429
 20
-2.5
  0
VERTEX
  8
0
 10
2.9606
 20
-2.39776
  0
VERTEX
  8
0
 10
2.94977
 20
-2.29847
  0
VERTEX
  8
0
 10
2.93217
 20
-2.20263
  0
VERTEX
  8
0
 10
2.90815
 20
-2.11075
  0
VERTEX
  8
0
 10
2.87808
 20
-2.02334
  0
VERTEX
  8
0
 10
2.8423
 20
-1.94089
  0
VERTEX
  8
0
 10
2.80118
 20
-1.86391
  0
VERTEX
  8
0
 10
2.75508
 20
-1.79289
  0
VERTEX
  8
0
 10
2.70435
 20
-1.72835
  0
VERTEX
  8
0
 10
2.64936
 20
-1.67078
  0
VERTEX
  8
0
 10
2.59047
 20
-1.62069
  0
VERTEX
  8
0
 10
2.52803
 20
-1.57858
  0
VERTEX
  8
0
 10
2.46241
 20
-1.54496
  0
VERTEX
  8
0
 10
2.39395
 20
-1.52032
  0
VERTEX
  8
0
 10
2.32303
 20
-1.50516
  0
VERTEX
  8
0
 10
2.25
 20
-1.5
  0
SEQEND
  0
POLYLINE
  8
0
 66
1
  0
VERTEX
  8
0
 10
4.5
 20
-3.5
  0
VERTEX
  8
0
 10
4.58764
 20
-3.49484
  0
VERTEX
  8
0
 10
4.67274
 20
-3.47968
  0
VERTEX
  8
0
 10
4.75489
 20
-3.45504
  0
VERTEX
  8
0
 10
4.83364
 20
-3.42142
  0
VERTEX
  8
0
 10
4.90857
 20
-3.37931
  0
VERTEX
  8
0
 10
4.97924
 20
-3.32922
  0
VERTEX
  8
0
 10
5.04522
 20
-3.27165
  0
VERTEX
  8
0
 10
5.10609
 20
-3.20711
  0
VERTEX
  8
0
 10
5.16141
 20
-3.13609
  0
VERTEX
  8
0
 10
5.21076
 20
-3.05911
  0
VERTEX
  8
0
 10
5.25369
 20
-2.97666
  0
VERTEX
  8
0
 10
5.28978
 20
-2.88925
  0
VERTEX
  8
0
 10
5.31861
 20
-2.79737
  0
VERTEX
  8
0
 10
5.33973
 20
-2.70153
  0
VERTEX
  8
0
 10
5.35272
 20
-2.60224
  0
VERTEX
  8
0
 10
5.35714
 20
-2.5
  0
VERTEX
  8
0
 10
5.35272
 20
-2.39776
  0
VERTEX
  8
0
 10
5.33973
 20
-2.29847
  0
VERTEX
  8
0
 10
5.31861
 20
-2.20263
  0
VERTEX
  8
0
 10
5.28978
 20
-2.11075
  0
VERTEX
  8
0
 10
5.25369
 20
-2.02334
  0
VERTEX
  8
0
 10
5.21076
 20
-1.94089
  0
VERTEX
  8
0
 10
5.16141
 20
-1.86391
  0
VERTEX
  8
0
 10
5.10609
 20
-1.79289
  0
VERTEX
  8
0
 10
5.04522
 20
-1.72835
  0
VERTEX
  8
0
 10
4.97924
 20
-1.67078
  0
VERTEX
  8
0
 10
4.90857
 20
-1.62069
  0
VERTEX
  8
0
 10
4.83364
 20
-1.57859
  0
VERTEX
  8
0
 10
4.75489
 20
-1.54496
  0
VERTEX
  8
0
 10
4.67274
 20
-1.52032
  0
VERTEX
  8
0
 10
4.58764
 20
-1.50516
  0
VERTEX
  8
0
 10
4.5
 20
-1.5
  0
SEQEND
  0
CIRCLE
  8
0
 10
4.5
 20
-2.5
 40
1
  0
CIRCLE
  8
0
 10
2.25
 20
-2.5
 40
1
  0
CIRCLE
  8
0
 10
-8.88178e-016
 20
-2.5
 40
1
  0
CIRCLE
  8
0
 10
4.5
 20
0
 40
1
  0
CIRCLE
  8
0
 10
2.25
 20
0
 40
1
  0
CIRCLE
  8
0
 10
0
 20
0
 40
1
  0
POINT
  8
0
 10
0
 20
0
  0
POINT
  8
0
 10
4.5
 20
0
  0
POINT
  8
0
 10
2.25
 20
0
  0
POINT
  8
0
 10
-8.88178e-016
 20
-2.5
  0
POINT
  8
0
 10
2.25
 20
-2.5
  0
POINT
  8
0
 10
4.5
 20
-2.5
  0
ENDSEC
  0
EOF
